<svg xmlns="http://www.w3.org/2000/svg" xmlns:xlink="http://www.w3.org/1999/xlink" width="292" height="292" viewBox="0 0 292 292"><defs><style>.a,.e{fill:#fff;}.b,.f{fill:#e5eefc;}.c,.d{fill:none;stroke-width:5px;}.c,.d,.e,.f{stroke:#2d71e0;}.c,.e{stroke-miterlimit:10;}.d,.f{stroke-linecap:round;stroke-linejoin:round;}.e,.f{stroke-width:4px;}.g{filter:url(#a);}</style><filter id="a" x="0" y="0" width="292" height="292" filterUnits="userSpaceOnUse"><feOffset dy="12" input="SourceAlpha"/><feGaussianBlur stdDeviation="12" result="b"/><feFlood flood-opacity="0.078"/><feComposite operator="in" in2="b"/><feComposite in="SourceGraphic"/></filter></defs><g transform="translate(-291 -3326)"><g class="g" transform="matrix(1, 0, 0, 1, 291, 3326)"><circle class="a" cx="110" cy="110" r="110" transform="translate(36 24)"/></g><g transform="translate(373 3408)"><path class="b" d="M504.5,235.894v14.539s2.565,16.5,10.37,19.609,30.522,3.109,33.248-10.522,3.635-21.809,4.544-24.535-2.726-5.581-6.815-5.062-16.811,7.789-22.263,7.789S504.5,235.894,504.5,235.894Z" transform="translate(-453.158 -213.609)"/><path class="c" d="M503.846,248.8a23.172,23.172,0,0,0,46.344,0v-6.815s2.726-4.544,2.726-7.27V212h-35.44s-20.9-1.817-13.631,28.17Z" transform="translate(-452.958 -211.977)"/><path class="c" d="M502.562,234.508s19.481,6.39,28.568,1.847,12.722-9.087,20.9-4.544" transform="translate(-452.981 -213.615)"/><path class="c" d="M514,272.909v8.178l14.539,10.9,14.539-10V272" transform="translate(-454.025 -217.456)"/><path class="d" d="M544.539,284l3.635,3.635-9.087,13.631L530,293.087" transform="translate(-455.485 -218.551)"/><path class="d" d="M512.635,284,509,287.635l9.087,13.631,9.087-8.178" transform="translate(-453.568 -218.551)"/><path class="d" d="M485,323.622V305.915a10.413,10.413,0,0,1,6.262-9.551L505.9,290" transform="translate(-451.378 -219.099)"/><path class="d" d="M571.9,323.622V305.915a10.413,10.413,0,0,0-6.262-9.551L551,290" transform="translate(-457.402 -219.099)"/><line class="d" y2="27.261" transform="translate(74.515 76.353)"/><path class="d" d="M457,273.359a13.176,13.176,0,1,0,26.353,0s-.909-8.633-17.266-11.359a54.4,54.4,0,0,0-5.452,6.361L457.909,272" transform="translate(-448.822 -216.543)"/><path class="d" d="M477.353,284.257v6.361c6.361-1.817,11.813-8.178,11.813-8.178-2.726-4.544-1.817-12.722-2.726-20.9A16.642,16.642,0,0,0,470.083,247c-8.178,0-16.357,4.544-16.357,16.357S451,281.531,451,281.531a18.37,18.37,0,0,0,10.9,9.087v-7.27" transform="translate(-448.274 -215.174)"/><path class="d" d="M463,295.486s2.9,5.793,8.689,4.828,6.759-6.759,6.759-6.759" transform="translate(-449.369 -219.424)"/><path class="c" d="M482,295a26.146,26.146,0,0,1,5.452,3.635" transform="translate(-451.104 -219.555)"/><path class="d" d="M448,324.079v-16.75a9.849,9.849,0,0,1,6.262-9.034l6.46-3.294" transform="translate(-448 -219.555)"/><circle class="e" cx="14.539" cy="14.539" r="14.539" transform="translate(98.141 67.266)"/><g transform="translate(106.969 75.574)"><line class="f" y2="11.424" transform="translate(5.712)"/><line class="f" x1="11.424" transform="translate(0 5.712)"/></g></g></g></svg>