<svg xmlns="http://www.w3.org/2000/svg" width="41.444" height="35" viewBox="0 0 41.444 35">
    <defs>
        <style>
            .cls-1{fill:#fff}
        </style>
    </defs>
    <path id="Back" d="M1607.469 16.74l-15.23-15.233a1.94 1.94 0 0 1-.938-1.663 1.938 1.938 0 0 1 .259-.979 1.951 1.951 0 0 1 .332-.443 1.924 1.924 0 0 1 .2-.177l15.367-15.367a1.946 1.946 0 0 1 2.749 0 1.945 1.945 0 0 1 0 2.749L1597.932-2.1h32.868a1.942 1.942 0 0 1 1.375.57 1.941 1.941 0 0 1 .568 1.376 1.943 1.943 0 0 1-1.943 1.943H1598l12.2 12.2a1.94 1.94 0 1 1-2.74 2.746z" class="cls-1" transform="translate(-1591.3 17.69)"/>
</svg>
