<svg xmlns="http://www.w3.org/2000/svg" xmlns:xlink="http://www.w3.org/1999/xlink" width="292" height="292" viewBox="0 0 292 292"><defs><style>.a{fill:#fff;}.b,.d{fill:none;stroke:#2d71e0;stroke-width:5px;}.b{stroke-miterlimit:10;}.c{fill:#e5eefc;}.d{stroke-linecap:round;stroke-linejoin:round;}.e{filter:url(#a);}</style><filter id="a" x="0" y="0" width="292" height="292" filterUnits="userSpaceOnUse"><feOffset dy="12" input="SourceAlpha"/><feGaussianBlur stdDeviation="12" result="b"/><feFlood flood-opacity="0.078"/><feComposite operator="in" in2="b"/><feComposite in="SourceGraphic"/></filter></defs><g transform="translate(-291 -3326)"><g class="e" transform="matrix(1, 0, 0, 1, 291, 3326)"><circle class="a" cx="110" cy="110" r="110" transform="translate(36 24)"/></g><g transform="translate(381 3406)"><path class="b" d="M169,163v26.662a7.3,7.3,0,0,0,7.3,7.3h58.341" transform="translate(-159.202 -161.694)"/><path class="b" d="M242.468,181.789H194.021A1.507,1.507,0,0,1,192.5,180.3V163.5" transform="translate(-167.353 -161.867)"/><rect class="c" width="26.78" height="22.861" transform="translate(76.749 16.003)"/><rect class="b" width="28.74" height="24.168" rx="2.964" transform="translate(75.442 15.35)"/><path class="b" d="M1.994,0h8.422A1.994,1.994,0,0,1,12.41,1.994V9.471a0,0,0,0,1,0,0H0a0,0,0,0,1,0,0V1.994A1.994,1.994,0,0,1,1.994,0Z" transform="translate(83.607 5.879)"/><path class="b" d="M0,0H19.6a0,0,0,0,1,0,0V19.154a3.054,3.054,0,0,1-3.054,3.054H3.054A3.054,3.054,0,0,1,0,19.154V0A0,0,0,0,1,0,0Z" transform="translate(80.341 39.844)"/><line class="d" x2="35.925"/><line class="d" y2="9.798" transform="translate(90.139 62.052)"/><rect class="b" width="112.347" height="26.78" rx="13.39" transform="translate(0.653 80.341)"/><circle class="b" cx="5.879" cy="5.879" r="5.879" transform="translate(11.757 88.179)"/><circle class="b" cx="5.879" cy="5.879" r="5.879" transform="translate(31.353 88.179)"/><circle class="b" cx="5.879" cy="5.879" r="5.879" transform="translate(50.948 88.179)"/><circle class="b" cx="5.879" cy="5.879" r="5.879" transform="translate(70.543 88.179)"/><circle class="b" cx="5.879" cy="5.879" r="5.879" transform="translate(90.139 88.179)"/><line class="b" x1="19.595" transform="translate(80.341 52.317)"/></g></g></svg>