<svg xmlns="http://www.w3.org/2000/svg" width="26.402" height="16.663" viewBox="0 0 26.402 16.663"><defs><style>.a{fill:#707070;}</style></defs><path class="a" d="M25.835,6.554H19.147v1.86h6.714ZM24.423,19.349a2.941,2.941,0,0,1-1.715.488,2.941,2.941,0,0,1-2.242-.712,3.284,3.284,0,0,1-.818-2.321h8.732a8.534,8.534,0,0,0-.224-2.638A6.7,6.7,0,0,0,27.1,11.883a5.5,5.5,0,0,0-1.873-1.6,5.764,5.764,0,0,0-2.638-.594,6.437,6.437,0,0,0-2.506.488A5.949,5.949,0,0,0,18.145,11.5a5.8,5.8,0,0,0-1.253,2,7.123,7.123,0,0,0-.435,2.519,7.281,7.281,0,0,0,.422,2.559A5.883,5.883,0,0,0,18.039,20.6a5.276,5.276,0,0,0,1.926,1.319,6.859,6.859,0,0,0,2.559.448,6.292,6.292,0,0,0,3.482-.923,5.553,5.553,0,0,0,2.15-3.1H25.241a2.031,2.031,0,0,1-.818,1ZM19.9,13.915a2.467,2.467,0,0,1,1.319-1.5,3.007,3.007,0,0,1,1.319-.264,2.282,2.282,0,0,1,1.794.646,3.838,3.838,0,0,1,.831,1.913H19.688a3.957,3.957,0,0,1,.145-.791Zm-6.978-.633a4.036,4.036,0,0,0,1.688-1.319,3.588,3.588,0,0,0,.567-2.084,4.326,4.326,0,0,0-.383-1.952,3.166,3.166,0,0,0-1.082-1.319,4.274,4.274,0,0,0-1.675-.686A9.945,9.945,0,0,0,9.875,5.71H2V22.3h8.046a8.64,8.64,0,0,0,2.176-.277,6,6,0,0,0,1.886-.857,4.129,4.129,0,0,0,1.319-1.5,4.5,4.5,0,0,0,.488-2.176,4.577,4.577,0,0,0-.752-2.638,3.957,3.957,0,0,0-2.308-1.57ZM5.654,8.546H9.07a5.5,5.5,0,0,1,.937.079,2.163,2.163,0,0,1,.8.29,1.385,1.385,0,0,1,.554.58,1.873,1.873,0,0,1,.211.95,1.794,1.794,0,0,1-.62,1.517,2.638,2.638,0,0,1-1.609.462H5.654Zm6.384,9.814a1.688,1.688,0,0,1-.594.66,2.638,2.638,0,0,1-.857.343,4.392,4.392,0,0,1-1.029.106H5.6V14.917H9.558a3.166,3.166,0,0,1,1.913.541,2.176,2.176,0,0,1,.712,1.833A2.335,2.335,0,0,1,12.038,18.36Z" transform="translate(-2 -5.709)"/></svg>