<svg xmlns="http://www.w3.org/2000/svg" width="27.685" height="38.7" viewBox="0 0 27.685 38.7"><defs><style>.a{fill:#505aa5;}.a,.b,.c{opacity:0.601;}.b{fill:#b0b5d8;}.c{fill:#6976d5;}.d{fill:none;stroke:#d8dee3;stroke-linecap:round;stroke-linejoin:round;stroke-width:2px;}</style></defs><g transform="translate(1 1.313)"><path class="a" d="M6.546,1.512s-14.432,7.795,0,24.084c.728,0,4.187,0,4.187,0A27.977,27.977,0,0,1,10.347.9C12.541-.879,6.546,1.512,6.546,1.512Z"/><path class="b" d="M4.415,1.512s14.432,7.8,0,24.085c-.728,0-4.186,0-4.186,0A27.98,27.98,0,0,0,.615.9C-1.58-.879,4.415,1.512,4.415,1.512Z" transform="translate(15 0)"/><path class="c" d="M5.464.377S12.778,10.66,5.132,25.6c-.728,0-4.9,0-4.9,0A33.169,33.169,0,0,1,.615.9C-1.58-.879,5.464.377,5.464.377Z" transform="translate(10)"/><path class="d" d="M704.342,655.5c5.993,0,12.842,4.281,12.842,11.986s-6.849,13.7-6.849,13.7H698.349s-6.849-5.993-6.849-13.7,6.849-11.986,12.842-11.986" transform="translate(-691.5 -655.5)"/><path class="d" d="M703.9,680.982c-2-2.08-3.4-6.949-3.4-12.622,0-5.785,1.457-10.733,3.517-12.741" transform="translate(-692.795 -655.517)"/><path class="d" d="M709.755,656.1c1.856,2.221,3.136,6.907,3.136,12.329,0,5.886-1.508,10.9-3.625,12.843" transform="translate(-694.056 -655.586)"/><rect class="d" width="7.705" height="6.849" rx="1.762" transform="translate(8.99 29.537)"/></g></svg>