<svg xmlns="http://www.w3.org/2000/svg" xmlns:xlink="http://www.w3.org/1999/xlink" width="1920" height="851.227" viewBox="0 0 1920 851.227"><defs><style>.a,.b{fill:#fff;}.a{stroke:#707070;}.c{clip-path:url(#a);}.d{fill:#a5ddff;}.e{fill:#ffdcd6;}.f{fill:#2d71e0;}.g{clip-path:url(#b);}.h{fill:#fdda94;}</style><clipPath id="a"><rect class="a" width="395" height="139" transform="translate(1525 536)"/></clipPath><clipPath id="b"><rect class="b" width="317" height="103" transform="translate(0 686)"/></clipPath></defs><g transform="translate(0 0.121)"><g class="c"><path class="d" d="M0-34.4,360.9-111v46.924L0,12.522Z" transform="matrix(0.996, 0.087, -0.087, 0.996, 1567.436, 630.729)"/></g><path class="e" d="M.174-32.41l360.9-76.6v46.924L.174,14.514Z" transform="matrix(0.996, 0.087, -0.087, 0.996, 1470.17, 687.146)"/><path class="f" d="M0,0H1920V555.023L0,778.181Z" transform="translate(0 -0.121)"/><path class="d" d="M-.174-36.4l361.257-73.914L360.9-64.076-.174,10.529Z" transform="matrix(0.996, 0.087, -0.087, 0.996, 38.17, 809.146)"/><g class="g"><path class="h" d="M0-34.4l361.079-74.6v46.924L0,12.522Z" transform="matrix(0.996, 0.087, -0.087, 0.996, -73.564, 775.729)"/></g></g></svg>