<svg xmlns="http://www.w3.org/2000/svg" width="1021.287" height="1481.648" viewBox="0 0 1021.287 1481.648">
    <defs>
        <style>
            .cls-1{fill:url(#linear-gradient)}
        </style>
        <linearGradient id="linear-gradient" x1=".024" x2="1" y2="1" gradientUnits="objectBoundingBox">
            <stop offset="0" stop-color="#a0d6fe"/>
            <stop offset="1" stop-color="#0c95fe"/>
        </linearGradient>
    </defs>
    <path id="Blue-BG" d="M-7452.806 1889.648L-8434.1 1124.3a105.108 105.108 0 0 1-15.228-14.556 103.55 103.55 0 0 1-11.661-16.778 103.8 103.8 0 0 1-8.022-18.411 104.542 104.542 0 0 1-4.309-19.458 104.1 104.1 0 0 1-.527-19.879 103.428 103.428 0 0 1 3.313-19.753 102.98 102.98 0 0 1 7.229-19.043 104.362 104.362 0 0 1 11.217-17.75L-8005.466 408h552.66v1481.648z" class="cls-1" transform="translate(8474.094 -408)"/>
</svg>
