<svg xmlns="http://www.w3.org/2000/svg" xmlns:xlink="http://www.w3.org/1999/xlink" width="761" height="240" viewBox="0 0 761 240"><defs><style>.a{fill:#fff;}.b{opacity:0.4;fill:url(#c);}.c{fill:#9081d1;}.d{fill:#c0b7e5;}.e{filter:url(#a);}</style><filter id="a" x="0" y="0" width="761" height="240" filterUnits="userSpaceOnUse"><feOffset input="SourceAlpha"/><feGaussianBlur stdDeviation="15" result="b"/><feFlood flood-color="#4d679d" flood-opacity="0.102"/><feComposite operator="in" in2="b"/><feComposite in="SourceGraphic"/></filter><linearGradient id="c" x1="2.788" y1="-0.506" x2="-0.147" y2="0.97" gradientUnits="objectBoundingBox"><stop offset="0" stop-color="#a4a2e2"/><stop offset="0.794" stop-color="#8283d4" stop-opacity="0"/><stop offset="1" stop-color="#6265c7" stop-opacity="0"/><stop offset="1" stop-color="#474cbc" stop-opacity="0"/></linearGradient></defs><g transform="translate(-210 -4058.5)"><g class="e" transform="matrix(1, 0, 0, 1, 210, 4058.5)"><path class="a" d="M0,0H601a70,70,0,0,1,70,70v80a0,0,0,0,1,0,0H70A70,70,0,0,1,0,80V0A0,0,0,0,1,0,0Z" transform="translate(45 45)"/></g><path class="b" d="M0,0H86a70,70,0,0,1,70,70v80a0,0,0,0,1,0,0H70A70,70,0,0,1,0,80V0A0,0,0,0,1,0,0Z" transform="translate(270 4103.5)"/><path class="c" d="M38.544,37.5a2.3,2.3,0,0,0-.58-3.208L31.81,30.025V23.51h5.049A3.83,3.83,0,0,0,40.6,18.895a11.3,11.3,0,0,0-5.235-7.359,7.261,7.261,0,1,0-11.726,0A11.3,11.3,0,0,0,18.407,18.9,3.83,3.83,0,0,0,22.15,23.51H27.2v6.553l-5.973,4.38a2.3,2.3,0,1,0,2.726,3.717l5.59-4.1,5.794,4.019a2.3,2.3,0,0,0,3.207-.58ZM29.5,4.61a2.651,2.651,0,1,1-2.651,2.651A2.653,2.653,0,0,1,29.5,4.61Zm-.06,9.911h.121A6.7,6.7,0,0,1,35.823,18.9H23.186A6.7,6.7,0,0,1,29.444,14.521Zm29.483,39.87a2.305,2.305,0,0,0-4.515,0h-12.9a6.7,6.7,0,0,1,6.258-4.379h.121l.061,0a7.268,7.268,0,1,0-5.984-2.982,11.3,11.3,0,0,0-5.235,7.359,3.83,3.83,0,0,0,3.744,4.615H55.183a3.83,3.83,0,0,0,3.744-4.615Zm-11.1-14.285a2.651,2.651,0,1,1-2.651,2.651A2.654,2.654,0,0,1,47.829,40.106ZM17.044,47.032a7.26,7.26,0,1,0-11.726,0A11.3,11.3,0,0,0,.083,54.391a3.83,3.83,0,0,0,3.744,4.615H18.535a3.83,3.83,0,0,0,3.744-4.615A11.3,11.3,0,0,0,17.044,47.032Zm-5.863-6.926A2.651,2.651,0,1,1,8.53,42.756,2.653,2.653,0,0,1,11.181,40.106ZM4.862,54.4a6.7,6.7,0,0,1,6.258-4.379h.121A6.7,6.7,0,0,1,17.5,54.4Zm0,0" transform="translate(318.495 4149.493)"/><path class="d" d="M38.544,37.5a2.3,2.3,0,0,0-.58-3.208L31.81,30.025V23.51h5.049A3.83,3.83,0,0,0,40.6,18.895a11.3,11.3,0,0,0-5.235-7.359,7.261,7.261,0,1,0-11.726,0A11.3,11.3,0,0,0,18.407,18.9,3.83,3.83,0,0,0,22.15,23.51H27.2v6.553l-5.973,4.38a2.3,2.3,0,1,0,2.726,3.717l5.59-4.1,5.794,4.019a2.3,2.3,0,0,0,3.207-.58ZM29.5,4.61a2.651,2.651,0,1,1-2.651,2.651A2.653,2.653,0,0,1,29.5,4.61Zm-.06,9.911h.121A6.7,6.7,0,0,1,35.823,18.9H23.186A6.7,6.7,0,0,1,29.444,14.521Z" transform="translate(318.495 4149.493)"/></g></svg>