<svg xmlns="http://www.w3.org/2000/svg" xmlns:xlink="http://www.w3.org/1999/xlink" width="761" height="240" viewBox="0 0 761 240"><defs><style>.a{fill:#fff;}.b{opacity:0.4;fill:url(#c);}.c{fill:#95c4d0;}.d{fill:#4d8b9d;}.e{filter:url(#a);}</style><filter id="a" x="0" y="0" width="761" height="240" filterUnits="userSpaceOnUse"><feOffset input="SourceAlpha"/><feGaussianBlur stdDeviation="15" result="b"/><feFlood flood-color="#4d679d" flood-opacity="0.102"/><feComposite operator="in" in2="b"/><feComposite in="SourceGraphic"/></filter><linearGradient id="c" x1="-1.061" y1="0.08" x2="1.523" y2="0.794" gradientUnits="objectBoundingBox"><stop offset="0" stop-color="#c7e7f0"/><stop offset="0.677" stop-color="#6abfca" stop-opacity="0"/><stop offset="1" stop-color="#47b3bc" stop-opacity="0"/></linearGradient></defs><g transform="translate(-1006 -3933.5)"><g class="e" transform="matrix(1, 0, 0, 1, 1006, 3933.5)"><path class="a" d="M0,0H601a70,70,0,0,1,70,70v80a0,0,0,0,1,0,0H70A70,70,0,0,1,0,80V0A0,0,0,0,1,0,0Z" transform="translate(45 45)"/></g><path class="b" d="M0,0H86a70,70,0,0,1,70,70v80a0,0,0,0,1,0,0H70A70,70,0,0,1,0,80V0A0,0,0,0,1,0,0Z" transform="translate(1551 3978.5)"/><path class="c" d="M25.593,44.8a2.3,2.3,0,0,1,.021,3.259l-4.1,4.154-.016.017a7.074,7.074,0,0,1-9.943,0L7.371,48.076a2.3,2.3,0,0,1,3.247-3.271l3.6,3.576v-10.7a2.3,2.3,0,1,1,4.609,0V48.371l3.5-3.55A2.305,2.305,0,0,1,25.593,44.8ZM36.451,14.753a2.3,2.3,0,0,0,1.665-.712l3.29-3.439V21.321a2.3,2.3,0,1,0,4.609,0V10.672l3.306,3.386a2.3,2.3,0,0,0,3.3-3.219L48.564,6.684a6.815,6.815,0,0,0-9.787,0l-.016.017-3.974,4.154a2.3,2.3,0,0,0,1.665,3.9ZM58.438,57.285A4.613,4.613,0,0,1,54.848,59h-22.5a4.658,4.658,0,0,1-4.55-5.616A16.237,16.237,0,0,1,33.345,44.2,16.072,16.072,0,0,1,36.85,42a8.988,8.988,0,1,1,13.5-.008,16.206,16.206,0,0,1,3.174,1.945,2.3,2.3,0,1,1-2.841,3.63A11.391,11.391,0,0,0,43.6,45.123a11.583,11.583,0,0,0-11.29,9.2.058.058,0,0,0,.025.069H54.848a.113.113,0,0,0,.038-.064,2.289,2.289,0,0,1-.049-.474v-.031a2.3,2.3,0,0,1,4.561-.468A4.692,4.692,0,0,1,58.438,57.285ZM39.217,36.066A4.379,4.379,0,1,0,43.6,31.687,4.384,4.384,0,0,0,39.217,36.066ZM27.654,31.922H5.15A4.658,4.658,0,0,1,.6,26.306a16.237,16.237,0,0,1,5.552-9.189,16.072,16.072,0,0,1,3.505-2.2,8.988,8.988,0,1,1,13.491,0,16.058,16.058,0,0,1,3.5,2.2,16.241,16.241,0,0,1,5.506,8.974c.018.06.033.122.046.185a4.7,4.7,0,0,1-.961,3.932A4.614,4.614,0,0,1,27.654,31.922ZM12.023,8.988A4.379,4.379,0,1,0,16.4,4.609,4.384,4.384,0,0,0,12.023,8.988Zm15.669,18.26a.013.013,0,0,0,0,0,11.528,11.528,0,0,0-22.58,0,.059.059,0,0,0,.025.069H27.654A.111.111,0,0,0,27.693,27.248Zm0,0" transform="translate(1606.987 4024.5)"/><path class="d" d="M25.593,44.8a2.3,2.3,0,0,1,.021,3.259l-4.1,4.154-.016.017a7.074,7.074,0,0,1-9.943,0L7.371,48.076a2.3,2.3,0,0,1,3.247-3.271l3.6,3.576v-10.7a2.3,2.3,0,1,1,4.609,0V48.371l3.5-3.55A2.305,2.305,0,0,1,25.593,44.8ZM36.451,14.753a2.3,2.3,0,0,0,1.665-.712l3.29-3.439V21.321a2.3,2.3,0,1,0,4.609,0V10.672l3.306,3.386a2.3,2.3,0,0,0,3.3-3.219L48.564,6.684a6.815,6.815,0,0,0-9.787,0l-.016.017-3.974,4.154a2.3,2.3,0,0,0,1.665,3.9Z" transform="translate(1606.987 4024.5)"/></g></svg>