<svg xmlns="http://www.w3.org/2000/svg" xmlns:xlink="http://www.w3.org/1999/xlink" width="761" height="240" viewBox="0 0 761 240"><defs><style>.a{fill:#fff;}.b{opacity:0.4;fill:url(#c);}.c{fill:#b19a84;}.d{fill:#ddc2a3;}.e{filter:url(#a);}</style><filter id="a" x="0" y="0" width="761" height="240" filterUnits="userSpaceOnUse"><feOffset input="SourceAlpha"/><feGaussianBlur stdDeviation="15" result="b"/><feFlood flood-color="#4d679d" flood-opacity="0.102"/><feComposite operator="in" in2="b"/><feComposite in="SourceGraphic"/></filter><linearGradient id="c" x1="-0.785" y1="0.35" x2="2.342" y2="1" gradientUnits="objectBoundingBox"><stop offset="0" stop-color="#a2d8e2" stop-opacity="0"/><stop offset="0.366" stop-color="#cfa766" stop-opacity="0"/><stop offset="1" stop-color="#e2c23d"/></linearGradient></defs><g transform="translate(-1006 -4133.5)"><g class="e" transform="matrix(1, 0, 0, 1, 1006, 4133.5)"><path class="a" d="M0,0H601a70,70,0,0,1,70,70v80a0,0,0,0,1,0,0H70A70,70,0,0,1,0,80V0A0,0,0,0,1,0,0Z" transform="translate(45 45)"/></g><path class="b" d="M0,0H86a70,70,0,0,1,70,70v80a0,0,0,0,1,0,0H70A70,70,0,0,1,0,80V0A0,0,0,0,1,0,0Z" transform="translate(1066 4178.5)"/><path class="c" d="M56.885,42.664a2.3,2.3,0,0,0-.52.061,2.3,2.3,0,0,0-.52-.061h-28.1a2.312,2.312,0,1,0,0,4.625H54.572v2.659a4.63,4.63,0,0,1-4.625,4.625H9.25a4.63,4.63,0,0,1-4.625-4.625V47.288H17.113a3.7,3.7,0,0,0,3.62-4.462A10.319,10.319,0,0,0,15.983,36.1a6.937,6.937,0,1,0-11.313.1A10.284,10.284,0,0,0,.078,42.826a3.743,3.743,0,0,0-.056,1.155,2.358,2.358,0,0,0-.022.3v5.665A9.26,9.26,0,0,0,9.25,59.2h40.7a9.26,9.26,0,0,0,9.25-9.25V44.976A2.312,2.312,0,0,0,56.885,42.664ZM10.351,39.185l.055,0,.055,0a5.8,5.8,0,0,1,5.4,3.479H4.953A5.8,5.8,0,0,1,10.351,39.185ZM10.29,29.83a2.312,2.312,0,1,1-2.312,2.312A2.315,2.315,0,0,1,10.29,29.83ZM59.027,17.118A10.287,10.287,0,0,0,54.5,10.873a6.937,6.937,0,1,0-11.417,0,10.292,10.292,0,0,0-4.619,6.643,3.7,3.7,0,0,0,3.62,4.463H54.572v7.967H46.71a2.312,2.312,0,0,0,0,4.625h7.862a2.312,2.312,0,0,0,4.625,0V17.986A2.3,2.3,0,0,0,59.027,17.118ZM48.791,4.625a2.312,2.312,0,1,1-2.312,2.312A2.315,2.315,0,0,1,48.791,4.625Zm-.055,9.25h.11a5.8,5.8,0,0,1,5.4,3.479h-10.9A5.8,5.8,0,0,1,48.736,13.874ZM22.776,34.581H36.19a3.7,3.7,0,0,0,3.62-4.462,10.292,10.292,0,0,0-4.619-6.643,6.937,6.937,0,1,0-11.417,0,10.292,10.292,0,0,0-4.619,6.643,3.7,3.7,0,0,0,3.62,4.462Zm6.652-8.1h.11a5.8,5.8,0,0,1,5.4,3.479H24.03A5.8,5.8,0,0,1,29.428,26.477Zm.055-9.25a2.312,2.312,0,1,1-2.312,2.312A2.315,2.315,0,0,1,29.483,17.227Zm0,0" transform="translate(1106.303 4223.5)"/><path class="d" d="M56.885,42.664a2.3,2.3,0,0,0-.52.061,2.3,2.3,0,0,0-.52-.061h-28.1a2.312,2.312,0,1,0,0,4.625H54.572v2.659a4.63,4.63,0,0,1-4.625,4.625H9.25a4.63,4.63,0,0,1-4.625-4.625V47.288H17.113a3.7,3.7,0,0,0,3.62-4.462A10.319,10.319,0,0,0,15.983,36.1a6.937,6.937,0,1,0-11.313.1A10.284,10.284,0,0,0,.078,42.826a3.743,3.743,0,0,0-.056,1.155,2.358,2.358,0,0,0-.022.3v5.665A9.26,9.26,0,0,0,9.25,59.2h40.7a9.26,9.26,0,0,0,9.25-9.25V44.976A2.312,2.312,0,0,0,56.885,42.664ZM10.351,39.185l.055,0,.055,0a5.8,5.8,0,0,1,5.4,3.479H4.953A5.8,5.8,0,0,1,10.351,39.185ZM10.29,29.83a2.312,2.312,0,1,1-2.312,2.312A2.315,2.315,0,0,1,10.29,29.83ZM59.027,17.118A10.287,10.287,0,0,0,54.5,10.873a6.937,6.937,0,1,0-11.417,0,10.292,10.292,0,0,0-4.619,6.643,3.7,3.7,0,0,0,3.62,4.463H54.572v7.967H46.71a2.312,2.312,0,0,0,0,4.625h7.862a2.312,2.312,0,0,0,4.625,0V17.986A2.3,2.3,0,0,0,59.027,17.118ZM48.791,4.625a2.312,2.312,0,1,1-2.312,2.312A2.315,2.315,0,0,1,48.791,4.625Zm-.055,9.25h.11a5.8,5.8,0,0,1,5.4,3.479h-10.9A5.8,5.8,0,0,1,48.736,13.874Z" transform="translate(1106.303 4223.5)"/></g></svg>