<svg xmlns="http://www.w3.org/2000/svg" xmlns:xlink="http://www.w3.org/1999/xlink" width="761" height="240" viewBox="0 0 761 240"><defs><style>.a{fill:#fff;}.b{opacity:0.4;fill:url(#c);}.c{fill:#d9b1b0;}.d{fill:#bf7777;}.e{filter:url(#a);}</style><filter id="a" x="0" y="0" width="761" height="240" filterUnits="userSpaceOnUse"><feOffset input="SourceAlpha"/><feGaussianBlur stdDeviation="15" result="b"/><feFlood flood-color="#4d679d" flood-opacity="0.204"/><feComposite operator="in" in2="b"/><feComposite in="SourceGraphic"/></filter><linearGradient id="c" x1="-0.429" y1="0.459" x2="1.299" y2="0.804" gradientUnits="objectBoundingBox"><stop offset="0" stop-color="#ff0808" stop-opacity="0.431"/><stop offset="0.562" stop-color="#c35858" stop-opacity="0"/><stop offset="1" stop-color="#4779bc" stop-opacity="0"/></linearGradient></defs><g transform="translate(-210 -3858.5)"><g class="e" transform="matrix(1, 0, 0, 1, 210, 3858.5)"><path class="a" d="M0,0H601a70,70,0,0,1,70,70v80a0,0,0,0,1,0,0H70A70,70,0,0,1,0,80V0A0,0,0,0,1,0,0Z" transform="translate(45 45)"/></g><path class="b" d="M0,0H86a70,70,0,0,1,70,70v80a0,0,0,0,1,0,0H70A70,70,0,0,1,0,80V0A0,0,0,0,1,0,0Z" transform="translate(755 3903.5)"/><path class="c" d="M18.092,56.694a2.3,2.3,0,0,1-2.3,2.3H9.219A9.229,9.229,0,0,1,0,49.78V9.219A9.229,9.229,0,0,1,9.219,0H37.553a9.229,9.229,0,0,1,9.219,9.219V28.808a2.3,2.3,0,0,1-4.609,0V9.219a4.615,4.615,0,0,0-4.609-4.609H9.219A4.615,4.615,0,0,0,4.609,9.219V49.78a4.615,4.615,0,0,0,4.609,4.609h6.568A2.3,2.3,0,0,1,18.092,56.694ZM35.249,13.828H11.511a2.3,2.3,0,1,0,0,4.609H35.249a2.3,2.3,0,1,0,0-4.609Zm0,9.219H11.511a2.3,2.3,0,1,0,0,4.609H35.249a2.3,2.3,0,1,0,0-4.609ZM17.861,32.265h-6.35a2.3,2.3,0,1,0,0,4.609h6.35a2.3,2.3,0,1,0,0-4.609Zm34.916,8.958V53.267A5.739,5.739,0,0,1,47.044,59H28.2a5.739,5.739,0,0,1-5.732-5.732V41.223A5.739,5.739,0,0,1,28.2,35.491H47.044A5.739,5.739,0,0,1,52.777,41.223ZM28.2,40.1a1.073,1.073,0,0,0-.138.009l8.793,5.468a1.118,1.118,0,0,0,1.187,0L46.853,40.1ZM48.167,53.267V44.711l-7.69,4.781a5.7,5.7,0,0,1-6.054,0L27.08,44.926v8.341A1.124,1.124,0,0,0,28.2,54.389H47.044A1.124,1.124,0,0,0,48.167,53.267Zm0,0" transform="translate(814.612 3949.5)"/><path class="d" d="M18.092,56.694a2.3,2.3,0,0,1-2.3,2.3H9.219A9.229,9.229,0,0,1,0,49.78V9.219A9.229,9.229,0,0,1,9.219,0H37.553a9.229,9.229,0,0,1,9.219,9.219V28.808a2.3,2.3,0,0,1-4.609,0V9.219a4.615,4.615,0,0,0-4.609-4.609H9.219A4.615,4.615,0,0,0,4.609,9.219V49.78a4.615,4.615,0,0,0,4.609,4.609h6.568A2.3,2.3,0,0,1,18.092,56.694Z" transform="translate(814.612 3949.5)"/></g></svg>