<svg xmlns="http://www.w3.org/2000/svg" xmlns:xlink="http://www.w3.org/1999/xlink" width="596" height="260" viewBox="0 0 596 260"><defs><style>.a{fill:url(#a);}.b{fill:#fff;}.c{opacity:0.2;clip-path:url(#d);}.d{opacity:0.502;fill:url(#e);}.e{fill:#647cc7;}.f{filter:url(#b);}</style><linearGradient id="a" x1="1.011" y1="0.964" x2="0.558" y2="0.457" gradientUnits="objectBoundingBox"><stop offset="0" stop-color="#647ec7"/><stop offset="0.719" stop-color="#dbe4f7"/><stop offset="1" stop-color="#eef4ff" stop-opacity="0"/></linearGradient><filter id="b" x="0" y="0" width="596" height="260" filterUnits="userSpaceOnUse"><feOffset input="SourceAlpha"/><feGaussianBlur stdDeviation="10" result="c"/><feFlood flood-color="#3994ff" flood-opacity="0.102"/><feComposite operator="in" in2="c"/><feComposite in="SourceGraphic"/></filter><clipPath id="d"><rect class="a" width="536" height="200" rx="30" transform="translate(1019 3488)"/></clipPath><linearGradient id="e" x1="0.02" y1="0.13" x2="0.707" y2="0.423" gradientUnits="objectBoundingBox"><stop offset="0" stop-color="#eef4ff" stop-opacity="0"/><stop offset="0.448" stop-color="#cbd6f1"/><stop offset="1" stop-color="#647ec7"/></linearGradient></defs><g transform="translate(-955 -2726)"><g class="f" transform="matrix(1, 0, 0, 1, 955, 2726)"><rect class="b" width="536" height="200" rx="30" transform="translate(30 30)"/></g><g class="c" transform="translate(-34 -732)"><path class="d" d="M198.1-53.174C136.383-42.14,116.639-57.107,52.073,6.616c-72.795,76.57-194.138,69.409-210.286,53.547-20.838-20.445-27.895-43.737-47.653-68.226C-225.624-32.608-258-58.35-250.613-75.662s54.544-26.14,91.487-32.746c36.944-6.549,437.617-12.891,463.437-11.98C330.213-119.477,259.825-64.208,198.1-53.174Z" transform="translate(1094.478 3599.708)"/></g><path class="e" d="M20233-6755h0v-5.019a22.88,22.88,0,0,0,15.59-7.046A22.893,22.893,0,0,0,20255-6783v-144a22.893,22.893,0,0,0-6.41-15.935,22.876,22.876,0,0,0-15.59-7.046V-6955a26.836,26.836,0,0,1,10.51,2.122,26.93,26.93,0,0,1,8.584,5.786,26.888,26.888,0,0,1,5.787,8.582A26.817,26.817,0,0,1,20260-6928v146a26.817,26.817,0,0,1-2.123,10.51,26.888,26.888,0,0,1-5.787,8.582,26.91,26.91,0,0,1-8.584,5.786A26.825,26.825,0,0,1,20233-6755Z" transform="translate(-18739 9711)"/></g></svg>