<svg xmlns="http://www.w3.org/2000/svg" xmlns:xlink="http://www.w3.org/1999/xlink" width="348.351" height="334.725" viewBox="0 0 348.351 334.725"><defs><style>.a{fill:none;}.b,.c{fill:#172f78;}.b{opacity:0.8;}.d,.e,.f{fill:#09ffff;}.d{opacity:0.6;}.e{opacity:0.3;}.g{fill:url(#a);}.h{fill:url(#b);}.i{fill:#fff;}.j{fill:#03a7d3;}.k{fill:#11203c;}.l{fill:#06033e;}.ak,.l{opacity:0.4;}.m{fill:url(#c);}.n{fill:url(#d);}.o{fill:#515151;}.p{fill:url(#e);}.ar,.q{fill:#2d2d2d;}.r{fill:url(#f);}.s{fill:#121a46;}.t{fill:url(#g);}.u{fill:url(#h);}.v{fill:#fcd1c5;}.w{fill:#f0f6ff;}.x{fill:#c4ccd6;}.y{fill:url(#i);}.z{fill:#e2b1a6;}.aa{fill:url(#j);}.ab{fill:#263649;}.ac{clip-path:url(#k);}.ad{fill:#334659;}.ae{fill:url(#l);}.af{fill:url(#m);}.ag{fill:url(#n);}.ah{fill:url(#o);}.ai,.ak{fill:#07aadb;}.aj{fill:url(#p);}.al{fill:url(#q);}.am{fill:url(#r);}.an{fill:url(#s);}.ao{fill:url(#t);}.ap{fill:url(#u);}.aq{fill:url(#v);}.ar{opacity:0.63;}.as{fill:url(#w);}.at{fill:url(#x);}.au{fill:url(#y);}.av{fill:#24126a;}.aw{fill:url(#z);}.ax{fill:url(#aa);}.ay{fill:url(#ab);}</style><linearGradient id="a" x1="-0.06" y1="0.5" x2="0.645" y2="0.5" gradientUnits="objectBoundingBox"><stop offset="0" stop-color="#01c8ef"/><stop offset="0.13" stop-color="#04b1dd"/><stop offset="0.55" stop-color="#0e6ba7"/><stop offset="0.85" stop-color="#154085"/><stop offset="1" stop-color="#172f78"/></linearGradient><radialGradient id="b" cx="-0.185" cy="-0.066" r="2.724" gradientTransform="translate(0.211) scale(0.578 1)" gradientUnits="objectBoundingBox"><stop offset="0" stop-color="#01c8ef"/><stop offset="0.14" stop-color="#03bae4"/><stop offset="0.4" stop-color="#0895c8"/><stop offset="0.76" stop-color="#115a9a"/><stop offset="1" stop-color="#172f78"/></radialGradient><radialGradient id="c" cx="-0.206" cy="-0.3" r="1.146" gradientTransform="translate(0.163) scale(0.674 1)" gradientUnits="objectBoundingBox"><stop offset="0" stop-color="#01c8ef"/><stop offset="0.14" stop-color="#02c3eb"/><stop offset="0.3" stop-color="#03b5de"/><stop offset="0.47" stop-color="#059dca"/><stop offset="0.65" stop-color="#097dae"/><stop offset="0.75" stop-color="#0b679b"/><stop offset="0.9" stop-color="#0f447d"/><stop offset="1" stop-color="#122865"/></radialGradient><radialGradient id="d" cx="0.002" cy="0.158" r="2.942" gradientTransform="translate(0.213) scale(0.575 1)" gradientUnits="objectBoundingBox"><stop offset="0" stop-color="#01c8ef"/><stop offset="0.23" stop-color="#079ece"/><stop offset="0.59" stop-color="#1062a0"/><stop offset="0.86" stop-color="#153d83"/><stop offset="1" stop-color="#172f78"/></radialGradient><radialGradient id="e" cx="0.22" cy="0.116" r="0.72" gradientTransform="translate(-0.347) scale(1.695 1)" xlink:href="#d"/><radialGradient id="f" cx="-2.797" cy="-0.301" r="2.091" gradientTransform="translate(-0.738) scale(2.476 1)" xlink:href="#d"/><radialGradient id="g" cx="-0.463" cy="0.503" r="1.153" gradientTransform="translate(0.042) scale(0.917 1)" gradientUnits="objectBoundingBox"><stop offset="0" stop-color="#01c8ef"/><stop offset="0.14" stop-color="#02c3eb"/><stop offset="0.3" stop-color="#03b5df"/><stop offset="0.47" stop-color="#069dca"/><stop offset="0.65" stop-color="#097cae"/><stop offset="0.84" stop-color="#0d538a"/><stop offset="1" stop-color="#122865"/></radialGradient><radialGradient id="h" cx="0.434" cy="-0.025" r="0.709" gradientTransform="translate(0.059) scale(0.882 1)" gradientUnits="objectBoundingBox"><stop offset="0" stop-color="#01c8ef"/><stop offset="0.46" stop-color="#0c7bb3"/><stop offset="0.82" stop-color="#144489"/><stop offset="1" stop-color="#172f78"/></radialGradient><radialGradient id="i" cx="-6.965" cy="0.35" r="2.793" gradientTransform="translate(-1.125) scale(3.25 1)" gradientUnits="objectBoundingBox"><stop offset="0" stop-color="#f9636b"/><stop offset="1" stop-color="#b6246e"/></radialGradient><radialGradient id="j" cx="-0.057" cy="0.149" r="0.94" gradientTransform="translate(0.052) scale(0.897 1)" xlink:href="#i"/><clipPath id="k"><path class="a" d="M365.5,177.953l-.537-.307c-1.964-1.151-1.719-3.07.553-4.451l16.069-9.209a8.533,8.533,0,0,1,7.674-.322l.537.307c1.964,1.151,1.719,3.07-.552,4.451l-16.069,9.209a8.579,8.579,0,0,1-7.674.322Z" transform="translate(-363.636 -162.906)"/></clipPath><radialGradient id="l" cx="-0.72" cy="-0.869" r="1.863" gradientTransform="translate(0.162) scale(0.676 1)" xlink:href="#c"/><radialGradient id="m" cx="-0.071" cy="0.109" r="1.94" xlink:href="#d"/><radialGradient id="n" cx="0.147" cy="0.718" r="1.168" gradientTransform="matrix(-1.635, 0, 0, 1, 97.138, 0)" gradientUnits="objectBoundingBox"><stop offset="0" stop-color="#01c8ef"/><stop offset="0.09" stop-color="#03bee8"/><stop offset="0.24" stop-color="#08a5d7"/><stop offset="0.33" stop-color="#0c92ca"/><stop offset="0.43" stop-color="#107cbc"/><stop offset="0.45" stop-color="#1177b8"/><stop offset="1" stop-color="#112564"/></radialGradient><radialGradient id="o" cx="0.114" cy="1.251" r="0.896" gradientTransform="translate(-0.072) scale(1.631 1)" xlink:href="#n"/><radialGradient id="p" cx="20.196" cy="1.118" r="1.769" gradientTransform="translate(0.197) scale(0.607 1)" xlink:href="#n"/><radialGradient id="q" cx="33.394" cy="0.794" r="1" gradientTransform="translate(-0.318) scale(1.635 1)" xlink:href="#n"/><radialGradient id="r" cx="-1.544" cy="0.705" r="1.804" gradientTransform="translate(0.974) scale(1.631 1)" xlink:href="#n"/><radialGradient id="s" cx="-0.815" cy="1.09" r="2.037" gradientTransform="translate(-0.084) scale(0.897 1)" xlink:href="#n"/><radialGradient id="t" cx="-0.137" cy="0.024" r="2.391" gradientTransform="matrix(-0.606, 0, 0, 1, 26.223, 0)" gradientUnits="objectBoundingBox"><stop offset="0" stop-color="#01c8ef"/><stop offset="0.09" stop-color="#03bee9"/><stop offset="0.24" stop-color="#08a5d7"/><stop offset="0.43" stop-color="#107bbb"/><stop offset="0.45" stop-color="#1177b8"/><stop offset="1" stop-color="#112564"/></radialGradient><radialGradient id="u" cx="-0.379" cy="0.838" r="2.851" gradientTransform="matrix(-0.575, 0, 0, 1, 17.684, 0)" gradientUnits="objectBoundingBox"><stop offset="0" stop-color="#01c8ef"/><stop offset="0.14" stop-color="#02c5ed"/><stop offset="0.25" stop-color="#04bbe6"/><stop offset="0.34" stop-color="#07abdb"/><stop offset="0.43" stop-color="#0b94cb"/><stop offset="0.52" stop-color="#1177b8"/><stop offset="1" stop-color="#172f78"/></radialGradient><radialGradient id="v" cx="-2.841" cy="-1.107" r="2.939" gradientTransform="translate(-0.157) scale(1.313 1)" xlink:href="#c"/><linearGradient id="w" x1="1.057" y1="-0.23" x2="0.117" y2="1.2" gradientTransform="matrix(1, 0, 0, 1, 0, 0)" xlink:href="#h"/><linearGradient id="x" x1="2.333" y1="0.501" x2="3.334" y2="0.501" gradientUnits="objectBoundingBox"><stop offset="0" stop-color="#464646"/><stop offset="1" stop-color="#1a1a1a"/></linearGradient><radialGradient id="y" cx="0.537" cy="0.576" r="0.708" gradientTransform="matrix(-0.576, 0, 0, 1, 4.403, 0)" gradientUnits="objectBoundingBox"><stop offset="0" stop-color="#747474"/><stop offset="1"/></radialGradient><radialGradient id="z" cx="0.019" cy="-0.075" r="1.178" gradientTransform="matrix(-1.185, 0, 0, 1, 10.242, 0)" gradientUnits="objectBoundingBox"><stop offset="0" stop-color="#2f2f2f"/><stop offset="1" stop-color="#6e6e6e"/></radialGradient><radialGradient id="aa" cx="4.562" cy="0.811" r="0.365" gradientTransform="matrix(-3.899, 0, 0, 1, 64.321, 0)" gradientUnits="objectBoundingBox"><stop offset="0" stop-color="#9a9a9a"/><stop offset="1" stop-color="#1d1d1d"/></radialGradient><radialGradient id="ab" cx="-0.02" cy="0.275" r="0.991" gradientTransform="translate(-0.09) scale(1.18 1)" gradientUnits="objectBoundingBox"><stop offset="0"/><stop offset="1" stop-color="#454545"/></radialGradient></defs><g transform="translate(-254.2 -109.651)"><path class="b" d="M294.5,150.863a3.883,3.883,0,1,1-3.883-3.883,3.883,3.883,0,0,1,3.883,3.883Z" transform="translate(17.396 19.962)"/><path class="c" d="M310.034,217.292,288.9,149.21l.6.077,172.568,24.172-.107.752L289.99,150.131l20.781,66.946Z" transform="translate(18.556 21.154)"/><path class="d" d="M387.586,377.419a32.905,32.905,0,0,1-16.1-3.837L260.984,309.8c-4.374-2.532-6.784-5.909-6.784-9.531s2.41-7,6.784-9.515l191.921-94.1c8.871-5.111,23.328-5.111,32.23,0l110.5,47.071c4.374,2.517,6.784,5.909,6.784,9.516s-2.41,7-6.784,9.531L403.793,373.567a32.966,32.966,0,0,1-16.207,3.852ZM469,193.586a32.122,32.122,0,0,0-15.716,3.76L261.444,291.427c-4.113,2.364-6.385,5.51-6.385,8.84s2.271,6.477,6.4,8.856l110.5,63.784c8.671,5.019,22.776,5.019,31.447,0L595.223,262.159c4.128-2.379,6.4-5.525,6.4-8.856s-2.271-6.461-6.385-8.84l-110.5-47.056A32.23,32.23,0,0,0,469,193.586Z" transform="translate(0 44.476)"/><path class="e" d="M387.586,377.419a32.905,32.905,0,0,1-16.1-3.837L260.984,309.8c-4.374-2.532-6.784-5.909-6.784-9.531s2.41-7,6.784-9.515l191.921-94.1c8.871-5.111,23.328-5.111,32.23,0l110.5,47.071c4.374,2.517,6.784,5.909,6.784,9.516s-2.41,7-6.784,9.531L403.793,373.567a32.966,32.966,0,0,1-16.207,3.852ZM469,193.586a32.122,32.122,0,0,0-15.716,3.76L261.444,291.427c-4.113,2.364-6.385,5.51-6.385,8.84s2.271,6.477,6.4,8.856l110.5,63.784c8.671,5.019,22.776,5.019,31.447,0L595.223,262.159c4.128-2.379,6.4-5.525,6.4-8.856s-2.271-6.461-6.385-8.84l-110.5-47.056A32.23,32.23,0,0,0,469,193.586Z" transform="translate(0 66.949)"/><path class="f" d="M387.586,364.13a32.736,32.736,0,0,1-16.1-3.852l-110.5-63.784c-4.374-2.517-6.784-5.909-6.784-9.516s2.41-7,6.784-9.531L452.92,183.336c8.871-5.111,23.328-5.111,32.23,0l110.5,47.056c4.374,2.532,6.784,5.909,6.784,9.531s-2.41,7-6.784,9.515L403.808,360.232a32.8,32.8,0,0,1-16.222,3.9ZM469,180.266a32.123,32.123,0,0,0-15.716,3.745l-191.844,94.1c-4.113,2.364-6.385,5.51-6.385,8.84s2.271,6.477,6.4,8.856l110.5,63.784c8.671,5,22.776,5,31.447,0L595.253,248.793c4.128-2.379,6.4-5.525,6.4-8.856s-2.271-6.461-6.385-8.856l-110.5-47.04A32.229,32.229,0,0,0,469,180.266Z" transform="translate(0 37.353)"/><path class="g" d="M602.207,217.106h0V180.855l-66.931,8.932-50.125-28.93c-8.794-5.08-23.021-5.08-31.831,0L363.506,212.7l-108.676,14.5v37.2h0c.138,3.238,2.287,6.431,6.553,8.9l110.5,63.784c8.794,5.08,23.021,5.08,31.846,0L595.576,226.3c4.251-2.456,6.4-5.648,6.538-8.871h0Z" transform="translate(0.337 25.345)"/><path class="h" d="M595.632,189.872l-110.5-63.784c-8.794-5.08-23.021-5.08-31.831,0L261.408,236.958c-8.794,5.065-8.794,13.306,0,18.417l110.5,63.784c8.794,5.08,23.021,5.08,31.846,0L595.6,208.366C604.426,203.194,604.426,194.937,595.632,189.872Z" transform="translate(0.328 6.752)"/><path class="i" d="M595.614,178.842,403.769,289.636c-8.794,5.08-23.021,5.08-31.846,0l-110.5-63.784c-3.683-2.133-5.8-4.8-6.4-7.582-.829,3.837,1.289,7.843,6.4,10.743l110.5,63.8c8.794,5.065,23.021,5.065,31.846,0L595.614,182c5.1-2.947,7.213-6.952,6.4-10.743C601.415,174.038,599.3,176.708,595.614,178.842Z" transform="translate(0.346 32.946)"/><path class="i" d="M390.553,241.722l-5.233,3.023v-6.032l5.233-3.023Z" transform="translate(70.117 67.4)"/><path class="i" d="M397.683,237.617l-5.233,3.008v-6.032l5.233-3.023Z" transform="translate(73.93 65.197)"/><path class="i" d="M404.813,233.492l-5.233,3.023v-6.047l5.233-3.008Z" transform="translate(77.743 62.999)"/><path class="i" d="M398.983,244.837l-5.233,3.023v-6.047l5.233-3.023Z" transform="translate(74.625 69.058)"/><path class="j" d="M399.78,245.11V238.2l6-3.453v6.922Zm.767-6.477v5.157l4.466-2.578v-5.157Z" transform="translate(77.85 66.897)"/><path class="i" d="M427.683,220.3l-5.233,3.023v-6.047l5.233-3.023Z" transform="translate(89.973 55.935)"/><path class="i" d="M447.323,208.957l-5.234,3.008v-6.032l5.234-3.023Z" transform="translate(100.475 49.871)"/><path class="j" d="M406.46,233.285v-6.922l6-3.453v6.922Zm.767-6.477v5.157l4.466-2.578V224.23Z" transform="translate(81.422 60.566)"/><path class="k" d="M369.558,156.96l78.058,44.953-7.2,4.175L362.36,161.119Z" transform="translate(57.839 25.299)"/><path class="i" d="M365.077,162.685l4.9-2.839,75.357,43.4,2.287-1.335L369.558,156.96l-7.2,4.159Z" transform="translate(57.839 25.299)"/><path class="k" d="M383.808,148.71l78.058,44.968-7.2,4.159L376.61,152.869Z" transform="translate(65.459 20.887)"/><path class="i" d="M379.327,154.435l4.9-2.839L459.564,195l2.3-1.32L383.808,148.71l-7.2,4.159Z" transform="translate(65.459 20.887)"/><path class="k" d="M398.058,140.47,476.1,185.423l-7.183,4.175L390.86,144.629Z" transform="translate(73.08 16.481)"/><path class="i" d="M393.561,146.195l4.911-2.839,75.341,43.4,2.287-1.335L398.058,140.47l-7.2,4.159Z" transform="translate(73.08 16.481)"/><path class="k" d="M341.663,276.425a2.563,2.563,0,0,1-1.259-.368l-61.39-35.407a6.661,6.661,0,0,1-2.839-5.4v-4.6a2.747,2.747,0,0,1,1.105-2.486,2.118,2.118,0,0,1,2.118.138l61.39,35.422a6.676,6.676,0,0,1,2.855,5.387v4.6a2.7,2.7,0,0,1-1.12,2.471A1.534,1.534,0,0,1,341.663,276.425Zm-.875-1.028a1.366,1.366,0,0,0,1.351.138,2.01,2.01,0,0,0,.737-1.811v-4.6a5.909,5.909,0,0,0-2.471-4.727l-61.39-35.407a1.366,1.366,0,0,0-1.351-.153,2.041,2.041,0,0,0-.721,1.826v4.6A5.97,5.97,0,0,0,279.4,240Z" transform="translate(11.744 63.254)"/><path class="l" d="M390.054,268.777l-79.316-45.429c-2.67-1.535-2.333-4.251.752-6.032l35.5-20.535a11.587,11.587,0,0,1,10.436-.43l79.316,45.429c2.686,1.535,2.348,4.236-.752,6.016l-35.5,20.55A11.633,11.633,0,0,1,390.054,268.777Z" transform="translate(29.271 45.809)"/><path class="m" d="M361.107,148.466h0a2.348,2.348,0,0,0-1.32-1.765l-.537-.307a8.533,8.533,0,0,0-7.674.322l-16.054,9.209a3.177,3.177,0,0,0-1.872,2.425h0v2.793h0a2.256,2.256,0,0,0,1.32,1.934l.537.307a8.533,8.533,0,0,0,7.674-.322l16.054-9.209a3.3,3.3,0,0,0,1.872-2.348h0Z" transform="translate(42.486 19.243)"/><path class="n" d="M335.491,160.708l-.537-.307c-1.98-1.136-1.719-3.069.552-4.435l16.054-9.209a8.533,8.533,0,0,1,7.674-.322l.537.307c1.98,1.136,1.734,3.07-.552,4.451L343.165,160.4A8.533,8.533,0,0,1,335.491,160.708Z" transform="translate(42.471 19.264)"/><path class="o" d="M369.786,167.686l-33.626,19.4c-1.658.967-3.07,0-3.07-2.287h0a7.2,7.2,0,0,1,3.07-5.755l38.522-22.223v1.535A11.679,11.679,0,0,1,369.786,167.686Z" transform="translate(42.187 25.224)"/><path class="p" d="M371.9,110.048h0a4.328,4.328,0,0,0-4.313.4l-1.013.583c-3.714,2.149-6.722,7.9-6.722,12.861v66.5l8.932-5.157v2.118l-10.743,8.733L333.72,212.4l34.194,19.338,19.66-15.133,11.2-9.562,6.983-77.827Z" transform="translate(42.524 0)"/><path class="q" d="M345.844,186.868a4.129,4.129,0,0,1,.89-4.205c1.8-1.8,11.25-5.771,11.94-6.139s4.082-2.931,4.082-2.931l1.028-2.333s-19.2,1.872-19.461,2.179-8.978,8.134-8.733,8.472a51.984,51.984,0,0,0,6.032,1.734l1.105,1.535Z" transform="translate(43.522 32.946)"/><path class="r" d="M390.144,122.992l-1,.583c-3.729,2.149-6.738,7.9-6.738,12.861v66.5l-24.05,13.813a7.213,7.213,0,0,0-3.07,5.755h0c0,2.225,1.351,3.254,3.07,2.287l33.626-19.4a11.7,11.7,0,0,0,4.9-9.347V128.041C396.851,123.13,393.828,120.843,390.144,122.992Z" transform="translate(54.058 6.702)"/><path class="s" d="M340.029,192.841a46.333,46.333,0,0,0-6.63,5.049c-1.673,1.872-5,5.709-3.637,7.536s5.986,2.839,10.943-1.719,3.545-4.834,7.766-7.091,5.372-4.727,4.865-6.139-2.594-3.9-3.729-3.361S340.029,192.841,340.029,192.841Z" transform="translate(40.235 41.385)"/><path class="s" d="M354.236,202.055a49.3,49.3,0,0,1-2.7,5.2c-.921,1.3-5.356,8.794-3.069,10.513s6.722,1.243,10.191-2.532,4.251-8.364,5.111-9.884,3.07-5.525,1.98-7.858-1.228-2.717-1.228-2.717Z" transform="translate(50.063 45.523)"/><path class="t" d="M346.356,163.428s-14.734,14.534-17.143,21.824a8.1,8.1,0,0,0,1.826,7.029c2.855,3.069,8.886,13.2,8.886,13.2a7.413,7.413,0,0,0,10.344,1.09s2.624-4.205,1.013-7-5.924-11.741-5.924-11.741,9.439-6.492,14.089-8.134a65.987,65.987,0,0,0,7.152-2.9,22.224,22.224,0,0,1-4.251,8.671c-3.407,4.3-9.116,11.188-7.229,15.977a40.228,40.228,0,0,0,4.788,9.04c1.8,2.763,3.484,8.533,5,9.132s8.564,1.289,9.7-3.3-2.394-13.49-3.99-16.514c0,0,19.031-21.962,20.842-24.372S352.234,159.7,346.356,163.428Z" transform="translate(40.018 28.408)"/><path class="l" d="M347.033,199.571c-1.627-2.809-5.924-11.741-5.924-11.741s9.439-6.492,14.089-8.134a66,66,0,0,0,7.152-2.9,48.773,48.773,0,0,0,5.08-9.7c-10.743-3.146-22.392-5.525-25.324-3.668,1.028,2.578,6.507,2.548,6.507,2.548s2.041,4.973,3.392,5.617a10.513,10.513,0,0,0,4.6,0,12.138,12.138,0,0,1-2.839,2.486c-2.3,1.673-16.79,13.537-16.79,13.537s.813.476,4.6,7.444a34.7,34.7,0,0,1,4.359,11.572S348.644,202.364,347.033,199.571Z" transform="translate(44.267 28.408)"/><path class="l" d="M370.489,168.369c-8.5-.813-18.417-.875-16.192,3.591a14.289,14.289,0,0,0,11.4,7.919c0,2.793-11.741,16.238-11.741,16.238l2.732,5.295c2.716,5.295,2.379,14.933,2.379,14.933a4.282,4.282,0,0,0,2.21-2.793c1.151-4.6-2.394-13.49-3.99-16.514,0,0,19.031-21.962,20.857-24.372C378.685,171.945,375.508,170.272,370.489,168.369Z" transform="translate(53.347 31.171)"/><path class="u" d="M334.6,144.428l2.256-1.75s12.278-6.784,16.268-8.978a27.425,27.425,0,0,0,6.139-5.019,8.534,8.534,0,0,1,6.139-2.594l21.395-.107a46.791,46.791,0,0,0,3.33,4.788c.614.568,6.415,5.433,10.574,9.439a18.141,18.141,0,0,1,4.85,8.073c2.379,8.4,2.348,25.323,2.7,37.417a36.831,36.831,0,0,1-5.126,1.366c-3.637.767-3.192.276-3.192.276s-5.448,12.278-12.861,13.46-17.373-2.271-19.154-13.9c0,0-14.427-2.149-18.34-3.76a.583.583,0,0,1-.246-.905c1.734-2.317,8.242-11.3,8.871-17.143a96.452,96.452,0,0,0,0-19.261s-10.881,4.1-14.35,4.819c0,0-13.245,14.565-18.785,18.525,0,0,1.9-2.977-1.9-5Z" transform="translate(36.882 8.732)"/><path class="l" d="M387.434,167.146c.553-.123,1.059-.23,1.535-.353l-.767-1.535-20.075-2.118-11.726.6-4.021,3.837a17.31,17.31,0,0,0,.952,3.438,29.162,29.162,0,0,0,7.29.23c2.3-.491,20.167,2.133,20.2,2.133a40.932,40.932,0,0,0,3.438-5.955C384.211,167.529,384.426,167.775,387.434,167.146Z" transform="translate(52.502 28.603)"/><path class="v" d="M364.6,161.821a.2.2,0,0,0-.169-.138,46.657,46.657,0,0,1-9.608-1.028,11.618,11.618,0,0,0-5.448-.568c-.138.154-4.42,1.964-4.6,2.7a6.14,6.14,0,0,0-.077,3.775,12.27,12.27,0,0,1,.844,1.4h.445a12.749,12.749,0,0,0,.89,1.535,2.2,2.2,0,0,1,.353.568c.276.6.752,1.535.952,1.535a9.99,9.99,0,0,0,1.949.2c.276-.077.522-.906.4-1.289a.153.153,0,0,1,.123-.2,18.586,18.586,0,0,1,4.6-.107,17.22,17.22,0,0,0,7.106-1.734h0l3.944-.353a.184.184,0,0,0,.153-.23Z" transform="translate(48.251 26.915)"/><path class="w" d="M354.973,138.046a52.81,52.81,0,0,0,.184,25.032s12.892-24.034,14.289-27.948,1.9-6.661.6-8.057-12.953,5.832-12.953,5.832Z" transform="translate(53.133 9.22)"/><path class="x" d="M357.378,153.166s2.456-7.5,2.026-9.93a28.87,28.87,0,0,0-1.044-4.159l2.225-2.041.967,2.026a46.975,46.975,0,0,0,5.2-4.251,40.567,40.567,0,0,1-5.157,3.07,3.607,3.607,0,0,0-1.351-1.289c-.783-.338-2.7,2.3-2.7,2.3l-.353,4.6-1.934,10.62.675,1.535Z" transform="translate(54.042 13.454)"/><path class="y" d="M361.2,137.009s-2.179-3.852-5.019-2.671c0,0-.46,4.742-.077,5.172a12.278,12.278,0,0,0-2.5,5.633,37.171,37.171,0,0,0,1.535,14.074l1.918-3.576a66.656,66.656,0,0,1,1.734-8.978,14.58,14.58,0,0,0,.153-7.367,26.531,26.531,0,0,0,2.256-2.287Z" transform="translate(53.089 13.081)"/><path class="v" d="M350.694,125.6a15.579,15.579,0,0,0-.384,3.576c.215.568.967.952.783,2.118a21.778,21.778,0,0,0,.844,5.832s-.261,1.243.092,1.642.8.368,1.136.952.43,3.622,1.658,4.6a4.6,4.6,0,0,0,3.653,1,5.772,5.772,0,0,0,1.673-.844l1.842.767s9.577-2.717,9.285-9.454v-.706a7.075,7.075,0,0,0,.875-1.535c.2-.614,1.8-3.423.982-4.6,0,0,3.714-14.657-7.674-15.532S352.213,120.488,350.694,125.6Z" transform="translate(51.395 1.976)"/><path class="z" d="M367.877,129.005h0a2.1,2.1,0,0,0-1.32-.4c-1.3.23-1.013-2.486-1.013-2.486a24.432,24.432,0,0,0-.905,3.96c-.675,3.484-7.889,7.674-7.889,7.674l1.842.767S368.123,135.728,367.877,129.005Z" transform="translate(54.839 8.807)"/><path class="aa" d="M350.923,119.978c-1.12,2.379-1.658,5.234.691,7.152,0,0,1.965.537,5.709-1.2a8.7,8.7,0,0,1,6.415-.2,1.535,1.535,0,0,1,1.028,1.535v2.087a1.3,1.3,0,0,0,.813,1.243l1.734.752.338,2.026a.982.982,0,0,0,1.289.752l.445-.153s.261-4.512,3.975-4.282c0,0,3.069-6.523,0-12.478s-11.557-5.54-13.368-4.865a11.816,11.816,0,0,0-3.407,1.535A14.5,14.5,0,0,0,350.923,119.978Z" transform="translate(51.212 1.244)"/><path class="l" d="M373.242,147.14s-1.734,12.785-2.44,16.407l-5.6,2.947,9.945-.6Z" transform="translate(59.358 20.047)"/><path class="l" d="M373.2,130.8s-2.962,10.191-3.591,12.155l-2.379-.261.43,3.223L354.81,162.8l14.258-16.345-.552-2.87,2.164.23Z" transform="translate(53.802 11.309)"/><path class="ab" d="M358.779,180.271s30.143-.982,30.91-1.535.906-8.288.829-12.785c0-3.162,0-15.486-2.7-24.142,2.118,7.321,1,33.227,0,34.547s-29.636,2.087-29.636,2.087h0C358.533,179.519,358.779,180.271,358.779,180.271Z" transform="translate(55.604 17.197)"/><path class="v" d="M323.974,151.839s-.107.767-1.412,1.535-4.6,2.41-5.218,2.885a31.479,31.479,0,0,0-3.07,2.87c-.077.276-.8,2.686-.8,2.839s.246,1.243.246,1.243l-.752,3.561s-.951,1.381.077,1.75a1.289,1.289,0,0,0,1.627-.859,17.266,17.266,0,0,0,2.7-1.535c1.136-.89,5.709-4.6,6.492-4.343s0,1.535-.307,1.765-2.809,2.609-1.78,4.251,1.673-.936,2.348-1.535,2.118-2.578,3.07-2.839,2.5-3.576,2.716-5.049a5.633,5.633,0,0,1,1.642-2.916c.384-.476-.813-4.159-.813-4.159l-4.528-1.412-1.535,1.028Z" transform="translate(31.213 21.518)"/><g class="ac" transform="translate(422.157 191.384)"><path class="ad" d="M386.026,138.757c-.952-1.535-1.381-.384-2.655.844a19.584,19.584,0,0,0-4.973,7.52c-2.026,5.939-1.3,20.781-.629,22.9,0,0-18.877,3.07-20.182,3.07s1.627,9.209,1.627,9.209,30.143-.982,30.91-1.535.905-8.288.829-12.785C390.952,164.08,391.029,146.553,386.026,138.757Z" transform="translate(-367.05 -176.214)"/><path class="ab" d="M358.779,180.271s30.143-.982,30.91-1.535.906-8.288.829-12.785c0-3.162,0-15.486-2.7-24.142,2.118,7.321,1,33.227,0,34.547s-29.636,2.087-29.636,2.087h0C358.533,179.519,358.779,180.271,358.779,180.271Z" transform="translate(-366.553 -174.187)"/></g><path class="ae" d="M391.122,165.7h0a2.409,2.409,0,0,0-1.32-1.78l-.537-.307a8.533,8.533,0,0,0-7.674.322l-16.069,9.209a3.269,3.269,0,0,0-1.872,2.44h0v2.839h0a2.271,2.271,0,0,0,1.32,1.934l.537.307a8.533,8.533,0,0,0,7.674-.322l16.069-9.209a3.345,3.345,0,0,0,1.872-2.363h0Z" transform="translate(58.529 28.451)"/><path class="af" d="M365.5,177.953l-.537-.307c-1.964-1.151-1.719-3.07.553-4.451l16.069-9.209a8.533,8.533,0,0,1,7.674-.322l.537.307c1.964,1.151,1.719,3.07-.552,4.451l-16.069,9.209a8.579,8.579,0,0,1-7.674.322Z" transform="translate(58.521 28.478)"/><path class="ag" d="M276.417,171.56V228.7a1.918,1.918,0,0,0,3.223,1.872l45.229-26.091a9.792,9.792,0,0,0,4.328-7.566V139.76h2.271v57.154a12,12,0,0,1-5.494,9.531l-45.214,26.091a5.633,5.633,0,0,1-2.778.829,3.991,3.991,0,0,1-.614,0l.276.215-1.059-.43h0l-.46-.215a4.6,4.6,0,0,1-2.011-4.19V171.56Z" transform="translate(10.642 16.101)"/><path class="ah" d="M278.782,233.679a5.6,5.6,0,0,0,2.778-.829l45.214-26.091a12.017,12.017,0,0,0,5.51-9.531V140.09H330v57.124a9.822,9.822,0,0,1-4.359,7.566l-45.214,26.091a2.456,2.456,0,0,1-2.348.338,2.41,2.41,0,0,1-.875-2.195V171.89h-2.287v57.078a4.6,4.6,0,0,0,2.026,4.175A3.622,3.622,0,0,0,278.782,233.679Z" transform="translate(11.07 16.277)"/><path class="ai" d="M276,176l103.535,59.855v3.07L276,179.07Z" transform="translate(11.658 35.48)"/><path class="aj" d="M275.3,176.31l104.532,60.347v3.069L275.3,179.318Z" transform="translate(11.283 35.646)"/><path class="ak" d="M275.3,180.941V167.65l103.581,59.809-.675,12.892Z" transform="translate(11.283 31.015)"/><path class="al" d="M344.626,211.08v57.139a1.909,1.909,0,0,0,3.223,1.857l45.229-26.091a9.792,9.792,0,0,0,4.359-7.551V179.28h2.271v57.139a11.971,11.971,0,0,1-5.494,9.515l-45.229,26.091a5.617,5.617,0,0,1-2.763.844,3.956,3.956,0,0,1-.614,0l.276.23-1.074-.445h0l-.445-.215a4.6,4.6,0,0,1-2.01-4.174V211.08Z" transform="translate(47.134 37.234)"/><path class="am" d="M347.013,273.2a5.54,5.54,0,0,0,2.763-.829l45.229-26.091a11.971,11.971,0,0,0,5.494-9.516V179.6h-2.3v57.139a9.792,9.792,0,0,1-4.359,7.551l-45.229,26.091a1.9,1.9,0,0,1-3.223-1.857V211.4h-2.271v57.139a4.6,4.6,0,0,0,2.011,4.175A3.683,3.683,0,0,0,347.013,273.2Z" transform="translate(47.54 37.406)"/><path class="ai" d="M264.19,172.282l67.56-38.952,131.605,80.3-67.637,39Z" transform="translate(5.342 12.662)"/><path class="an" d="M440.814,211.921a5.3,5.3,0,0,0-2.195-4.205l-128.7-74.221c-1.212-.706-2.195,0-2.195,1.658a5.264,5.264,0,0,0,2.195,4.205l124.73,71.934-66.869,38.538,4.6,2.855,67.759-39h0a1.918,1.918,0,0,0,.675-1.765Z" transform="translate(28.62 12.605)"/><path class="ao" d="M265.825,164.765,394.529,239c1.212.706,2.195,0,2.195-1.658h0a5.264,5.264,0,0,0-2.195-4.205L265.825,158.9c-1.212-.691-2.195,0-2.195,1.673h0A5.249,5.249,0,0,0,265.825,164.765Z" transform="translate(5.043 26.195)"/><path class="ap" d="M395.115,247.49a3.439,3.439,0,0,0-.89-.767l-128.7-74.236a1.535,1.535,0,0,0-1.32-.153h0l67.529-38.952h0a1.4,1.4,0,0,1,1.427.107l128.72,74.221a3.392,3.392,0,0,1,.875.767Z" transform="translate(5.348 12.611)"/><path class="i" d="M265.888,158.07l128.275,73.991a3.716,3.716,0,0,1,1.074.645l66.516-38.369h.138a3.392,3.392,0,0,1,.875.767l-67.652,39.106a3.439,3.439,0,0,0-.89-.767l-128.7-74.236a1.535,1.535,0,0,0-1.32-.153h0Z" transform="translate(5.348 25.892)"/><path class="l" d="M377.705,168.225l-14.949,1.535-1.32-1.259s-6.83,1.059-8.656.43a14.149,14.149,0,0,0-4.88-.246v-2.44l10.989-1.535,10.436.645,7.4,2.118Z" transform="translate(50.107 29.443)"/><path class="v" d="M364.6,161.821a.2.2,0,0,0-.169-.138,46.657,46.657,0,0,1-9.608-1.028,11.618,11.618,0,0,0-5.448-.568c-.138.154-4.42,1.964-4.6,2.7a6.14,6.14,0,0,0-.077,3.775,12.27,12.27,0,0,1,.844,1.4h.445a12.749,12.749,0,0,0,.89,1.535,2.2,2.2,0,0,1,.353.568c.276.6.752,1.535.952,1.535a9.99,9.99,0,0,0,1.949.2c.276-.077.522-.906.4-1.289a.153.153,0,0,1,.123-.2,18.586,18.586,0,0,1,4.6-.107,17.22,17.22,0,0,0,7.106-1.734h0l3.944-.353a.184.184,0,0,0,.153-.23Z" transform="translate(48.251 26.915)"/><path class="aq" d="M386.026,138.757c-.952-1.535-1.381-.384-2.655.844a19.584,19.584,0,0,0-4.973,7.52c-2.026,5.939-1.3,20.781-.629,22.9,0,0-18.877,3.07-20.182,3.07s1.627,9.209,1.627,9.209,30.143-.982,30.91-1.535.905-8.288.829-12.785C390.952,164.08,391.029,146.553,386.026,138.757Z" transform="translate(55.108 15.17)"/><path class="l" d="M328.5,162.221s10.743-8.426,12.278-9.209a64.125,64.125,0,0,0,5.54-3.822l-4.267-2.471-8.779,5.295-7.674,7.674-11.833,8.38v1.949s9.761-4.19,10.851-4.911S328.5,162.221,328.5,162.221Z" transform="translate(31.855 19.823)"/><path class="ar" d="M322.121,165.662a22.069,22.069,0,0,1,3.775-2.747c1.535-.675,3.837-2.5,4.128-3.883a18.529,18.529,0,0,1,2.747-4.481l-3.929,2.225-5.694,3.284-9.469,5.494a1.627,1.627,0,0,0,1.78.246,41.851,41.851,0,0,1,4.5-1.964c1.044-.123,2.778-.445,2.778-.445Z" transform="translate(31.807 24.01)"/><path class="v" d="M323.974,151.839s-.107.767-1.412,1.535-4.6,2.41-5.218,2.885a31.479,31.479,0,0,0-3.07,2.87c-.077.276-.8,2.686-.8,2.839s.246,1.243.246,1.243l-.752,3.561s-.951,1.381.077,1.75a1.289,1.289,0,0,0,1.627-.859,17.266,17.266,0,0,0,2.7-1.535c1.136-.89,5.709-4.6,6.492-4.343s0,1.535-.307,1.765-2.809,2.609-1.78,4.251,1.673-.936,2.348-1.535,2.118-2.578,3.07-2.839,2.5-3.576,2.716-5.049a5.633,5.633,0,0,1,1.642-2.916c.384-.476-.813-4.159-.813-4.159l-4.528-1.412-1.535,1.028Z" transform="translate(31.213 21.518)"/><path class="as" d="M360.866,139.16a59.238,59.238,0,0,1,.982-11.94,10.859,10.859,0,0,0-.905.8,27.426,27.426,0,0,1-6.139,5.019c-4.052,2.195-16.268,8.978-16.268,8.978l-2.225,1.75c-7.167,5.617-15.163,17.834-16.33,20.243.568-.737,2.011-1.964,4.773-.506,3.806,2.026,1.98,5.065,1.98,5.065,5.556-4.006,18.709-18.663,18.709-18.663,3.254-.675,13.015-4.313,14.227-4.773A16.191,16.191,0,0,0,360.866,139.16Z" transform="translate(35.176 9.395)"/><path class="l" d="M309.319,171.651l37.77,21.824a1.535,1.535,0,0,0,1.4,0l22.546-13.015c.353-.215.307-.568-.107-.813l-37.77-21.809a1.535,1.535,0,0,0-1.4,0l-22.53,13C308.859,171.053,308.9,171.406,309.319,171.651Z" transform="translate(29.292 25.679)"/><path class="at" d="M308.1,168.819l2.072,1.09,20.888-12.063a1.535,1.535,0,0,1,1.366,0l36.005,20.8c.353-.2,1.918-.952,1.918-.952l-.752,2h0a.429.429,0,0,1-.2.246l-21.993,12.692a1.535,1.535,0,0,1-1.366,0L309.2,171.352a.752.752,0,0,1-.307-.322h0Z" transform="translate(28.823 25.687)"/><path class="au" d="M308.439,170.01l37.77,21.809a1.535,1.535,0,0,0,1.4,0l22.53-13.015c.368-.2.322-.568-.092-.8l-37.77-21.748a1.535,1.535,0,0,0-1.4,0l-22.546,13.015C307.964,169.411,307.964,169.764,308.439,170.01Z" transform="translate(28.806 24.834)"/><path class="av" d="M316.86,163.486l25.569,14.764,1.212-.706L318.072,162.78Z" transform="translate(33.508 28.411)"/><path class="l" d="M315.6,164.216l30.1,17.373,1.212-.691L316.8,163.51Z" transform="translate(32.834 28.801)"/><path class="l" d="M314.33,164.931l30.112,17.389,1.212-.706L315.542,164.24Z" transform="translate(32.155 29.192)"/><path class="av" d="M313.07,165.661l30.112,17.389,1.213-.706L314.282,164.97Z" transform="translate(31.481 29.582)"/><path class="l" d="M349.132,178.481,320,161.66l-1.212.706,28.915,16.7,1.212.691,1.212-.691Z" transform="translate(34.54 27.812)"/><path class="l" d="M332.56,172.551l6.016,3.484,1.212-.706-6.062-3.5Z" transform="translate(41.903 33.25)"/><path class="aw" d="M308.14,174.65l4.773-28.332-.384-.184.568-.322h0a.43.43,0,0,1,.445,0l38.169,22.039a1.09,1.09,0,0,1,.491.967l-4.819,28.546a.322.322,0,0,1-.2.292h0l-.568.322-.092-.522h0l-37.924-21.9a1.074,1.074,0,0,1-.46-.906Z" transform="translate(28.845 19.304)"/><path class="ax" d="M338.791,160.776l.629-.276a1.029,1.029,0,0,1,.077.476l-4.819,28.546a.322.322,0,0,1-.2.292h0l-.568.322-.092-.522h0l-1.918-1.12Z" transform="translate(41.551 27.192)"/><path class="ay" d="M308.244,175.844,346.4,197.883a.381.381,0,0,0,.6-.246l4.819-28.546a1.105,1.105,0,0,0-.491-.967l-38.169-22.1a.384.384,0,0,0-.6.246l-4.8,28.546A1.074,1.074,0,0,0,308.244,175.844Z" transform="translate(28.634 19.414)"/></g></svg>