<svg xmlns="http://www.w3.org/2000/svg" xmlns:xlink="http://www.w3.org/1999/xlink" width="596" height="260" viewBox="0 0 596 260"><defs><style>.a{fill:url(#a);}.b{fill:#fff;}.c{opacity:0.2;clip-path:url(#d);}.d{opacity:0.502;fill:url(#e);}.e{fill:#647cc7;}.f{filter:url(#b);}</style><linearGradient id="a" x1="1.011" y1="0.964" x2="0.558" y2="0.457" gradientUnits="objectBoundingBox"><stop offset="0" stop-color="#647ec7"/><stop offset="0.719" stop-color="#dbe4f7"/><stop offset="1" stop-color="#eef4ff" stop-opacity="0"/></linearGradient><filter id="b" x="0" y="0" width="596" height="260" filterUnits="userSpaceOnUse"><feOffset input="SourceAlpha"/><feGaussianBlur stdDeviation="10" result="c"/><feFlood flood-color="#3994ff" flood-opacity="0.102"/><feComposite operator="in" in2="c"/><feComposite in="SourceGraphic"/></filter><clipPath id="d"><rect class="a" width="536" height="200" rx="30" transform="translate(1019 3488)"/></clipPath><linearGradient id="e" x1="-0.031" y1="0.429" x2="0.925" y2="0.763" gradientUnits="objectBoundingBox"><stop offset="0" stop-color="#eef4ff" stop-opacity="0"/><stop offset="0.251" stop-color="#cbd6f1"/><stop offset="1" stop-color="#647ec7"/></linearGradient></defs><g transform="translate(-955 -2976)"><g class="f" transform="matrix(1, 0, 0, 1, 955, 2976)"><rect class="b" width="536" height="200" rx="30" transform="translate(30 30)"/></g><g class="c" transform="translate(-34 -482)"><path class="d" d="M267.337,244.236c22.66-12.337,42.509-29.282,46.172-48.355,3.748-19.143-8.689-40.272-17.889-61.826-9.285-21.554-15.334-43.392-31.86-70.122C247.318,37.2,220.4,5.581,189.305.689s-66.532,17.016-87.829,42.4c-21.382,25.454-226.611,24.51-246.886,55-20.275,30.559,38.022,55.355,45.6,76.91s25.44,39.356,63.348,47.58c37.909,8.154,77.326,50.945,165.469,60.921S244.677,256.5,267.337,244.236Z" transform="translate(1279.417 3825.252) rotate(-173)"/></g><path class="e" d="M27,200h0A26.977,26.977,0,0,1,0,173V27A26.977,26.977,0,0,1,27,0V5.023A23,23,0,0,0,5,28V172a23,23,0,0,0,22,22.979V200Z" transform="translate(1521.002 3206.002) rotate(180)"/></g></svg>