<svg xmlns="http://www.w3.org/2000/svg" xmlns:xlink="http://www.w3.org/1999/xlink" width="1076" height="1454" viewBox="0 0 1076 1454"><defs><style>.a,.f{fill:#fff;}.a{stroke:#707070;}.b{fill:#6390c1;}.c,.j{fill:none;}.d{clip-path:url(#a);}.e{opacity:0.054;fill:url(#b);}.g{fill:url(#e);}.h{clip-path:url(#f);}.i{clip-path:url(#g);}.j{stroke:#d1e8ff;}.k{filter:url(#c);}</style><clipPath id="a"><rect class="a" width="1076" height="1454" transform="translate(844 2795)"/></clipPath><linearGradient id="b" x1="0.114" y1="1.053" x2="0.45" y2="0.186" gradientUnits="objectBoundingBox"><stop offset="0" stop-color="#5880ea"/><stop offset="0.611" stop-color="#3a57bf" stop-opacity="0.11"/><stop offset="1" stop-color="#3652ba" stop-opacity="0"/></linearGradient><filter id="c" x="358.521" y="292.728" width="1340.729" height="1255.379" filterUnits="userSpaceOnUse"><feOffset input="SourceAlpha"/><feGaussianBlur stdDeviation="49.5" result="d"/><feFlood flood-color="#3796ff" flood-opacity="0.482"/><feComposite operator="in" in2="d"/><feComposite in="SourceGraphic"/></filter><linearGradient id="e" x1="0.444" y1="0.06" x2="0.535" y2="1.051" gradientUnits="objectBoundingBox"><stop offset="0" stop-color="#c9e3ff"/><stop offset="1" stop-color="#647ec7"/></linearGradient><clipPath id="f"><path class="b" d="M165,88.969c22.685-39.458,79.614-39.458,102.3,0l114.175,198.6c22.613,39.333-5.779,88.406-51.149,88.406H101.975c-45.37,0-73.763-49.073-51.149-88.406Z" transform="translate(103.632 0) rotate(16)"/></clipPath><clipPath id="g"><rect class="c" width="1512.129" height="701.664"/></clipPath></defs><g class="d" transform="translate(-844 -2795)"><path class="e" d="M5199.787,3443.894s-486.559,91.381-624.75,148.163-335.9,230.9-463.635,447.3-313.344,343.147-576.877,509.891-595.332,236.977-561.33,504.5,383.647,521.2,896.553,476.1,1518.678-823.522,1518.678-823.522Z" transform="translate(-2045 -1502.894)"/><g class="k" transform="matrix(1, 0, 0, 1, 844, 2795)"><path class="f" d="M363.355,136.791c35.011-60.744,122.673-60.744,157.684,0L805.753,630.773c34.966,60.667-8.82,136.442-78.842,136.442H157.482c-70.022,0-113.808-75.775-78.842-136.442Z" transform="translate(692.63 441.23) rotate(14)"/></g><path class="g" d="M166.555,88.969c22.685-39.458,79.614-39.458,102.3,0l115.729,201.3c22.613,39.333-5.779,88.406-51.149,88.406H101.975c-45.37,0-73.763-49.073-51.149-88.406Z" transform="translate(1425.168 3473.609) rotate(16)"/><g class="h" transform="translate(1353.791 3513.147)"><g class="i" transform="translate(-199.22 -40.174)"><g transform="translate(152.854 -69.146)"><line class="j" x1="994" y2="994" transform="matrix(1, 0.017, -0.017, 1, -594.75, 60.902)"/></g><g transform="translate(169.854 -69.146)"><line class="j" x1="994" y2="994" transform="matrix(1, 0.017, -0.017, 1, -594.75, 60.902)"/></g><g transform="translate(186.854 -69.146)"><line class="j" x1="994" y2="994" transform="matrix(1, 0.017, -0.017, 1, -594.75, 60.902)"/></g><g transform="translate(203.854 -69.146)"><line class="j" x1="994" y2="994" transform="matrix(1, 0.017, -0.017, 1, -594.75, 60.902)"/></g><g transform="translate(220.854 -69.146)"><line class="j" x1="994" y2="994" transform="matrix(1, 0.017, -0.017, 1, -594.75, 60.902)"/></g><g transform="translate(237.854 -69.146)"><line class="j" x1="994" y2="994" transform="matrix(1, 0.017, -0.017, 1, -594.75, 60.902)"/></g><g transform="translate(254.854 -69.146)"><line class="j" x1="994" y2="994" transform="matrix(1, 0.017, -0.017, 1, -594.75, 60.902)"/></g><g transform="translate(271.854 -69.146)"><line class="j" x1="994" y2="994" transform="matrix(1, 0.017, -0.017, 1, -594.75, 60.902)"/></g><g transform="translate(288.854 -69.146)"><line class="j" x1="994" y2="994" transform="matrix(1, 0.017, -0.017, 1, -594.75, 60.902)"/></g><g transform="translate(305.854 -69.146)"><line class="j" x1="994" y2="994" transform="matrix(1, 0.017, -0.017, 1, -594.75, 60.902)"/></g><g transform="translate(322.854 -69.146)"><line class="j" x1="994" y2="994" transform="matrix(1, 0.017, -0.017, 1, -594.75, 60.902)"/></g><g transform="translate(339.854 -69.146)"><line class="j" x1="994" y2="994" transform="matrix(1, 0.017, -0.017, 1, -594.75, 60.902)"/></g><g transform="translate(356.854 -69.146)"><line class="j" x1="994" y2="994" transform="matrix(1, 0.017, -0.017, 1, -594.75, 60.902)"/></g><g transform="translate(373.854 -69.146)"><line class="j" x1="994" y2="994" transform="matrix(1, 0.017, -0.017, 1, -594.75, 60.902)"/></g><g transform="translate(390.854 -69.146)"><line class="j" x1="994" y2="994" transform="matrix(1, 0.017, -0.017, 1, -594.75, 60.902)"/></g><g transform="translate(407.854 -69.146)"><line class="j" x1="994" y2="994" transform="matrix(1, 0.017, -0.017, 1, -594.75, 60.902)"/></g><g transform="translate(424.854 -69.146)"><line class="j" x1="994" y2="994" transform="matrix(1, 0.017, -0.017, 1, -594.75, 60.902)"/></g><g transform="translate(441.854 -69.146)"><line class="j" x1="994" y2="994" transform="matrix(1, 0.017, -0.017, 1, -594.75, 60.902)"/></g><g transform="translate(458.854 -69.146)"><line class="j" x1="994" y2="994" transform="matrix(1, 0.017, -0.017, 1, -594.75, 60.902)"/></g><g transform="translate(475.854 -69.146)"><line class="j" x1="994" y2="994" transform="matrix(1, 0.017, -0.017, 1, -594.75, 60.902)"/></g><g transform="translate(492.854 -69.146)"><line class="j" x1="994" y2="994" transform="matrix(1, 0.017, -0.017, 1, -594.75, 60.902)"/></g><g transform="translate(509.854 -69.146)"><line class="j" x1="994" y2="994" transform="matrix(1, 0.017, -0.017, 1, -594.75, 60.902)"/></g><g transform="translate(526.854 -69.146)"><line class="j" x1="994" y2="994" transform="matrix(1, 0.017, -0.017, 1, -594.75, 60.902)"/></g><g transform="translate(543.854 -69.146)"><line class="j" x1="994" y2="994" transform="matrix(1, 0.017, -0.017, 1, -594.75, 60.902)"/></g><g transform="translate(560.854 -69.146)"><line class="j" x1="994" y2="994" transform="matrix(1, 0.017, -0.017, 1, -594.75, 60.902)"/></g><g transform="translate(577.854 -69.146)"><line class="j" x1="994" y2="994" transform="matrix(1, 0.017, -0.017, 1, -594.75, 60.902)"/></g><g transform="translate(594.854 -69.146)"><line class="j" x1="994" y2="994" transform="matrix(1, 0.017, -0.017, 1, -594.75, 60.902)"/></g><g transform="translate(611.854 -69.146)"><line class="j" x1="994" y2="994" transform="matrix(1, 0.017, -0.017, 1, -594.75, 60.902)"/></g><g transform="translate(628.854 -69.146)"><line class="j" x1="994" y2="994" transform="matrix(1, 0.017, -0.017, 1, -594.75, 60.902)"/></g><g transform="translate(645.854 -69.146)"><line class="j" x1="994" y2="994" transform="matrix(1, 0.017, -0.017, 1, -594.75, 60.902)"/></g><g transform="translate(662.854 -69.146)"><line class="j" x1="994" y2="994" transform="matrix(1, 0.017, -0.017, 1, -594.75, 60.902)"/></g><g transform="translate(679.854 -69.146)"><line class="j" x1="994" y2="994" transform="matrix(1, 0.017, -0.017, 1, -594.75, 60.902)"/></g><g transform="translate(696.854 -69.146)"><line class="j" x1="994" y2="994" transform="matrix(1, 0.017, -0.017, 1, -594.75, 60.902)"/></g><g transform="translate(713.854 -69.146)"><line class="j" x1="994" y2="994" transform="matrix(1, 0.017, -0.017, 1, -594.75, 60.902)"/></g><g transform="translate(730.854 -69.146)"><line class="j" x1="994" y2="994" transform="matrix(1, 0.017, -0.017, 1, -594.75, 60.902)"/></g><g transform="translate(747.854 -69.146)"><line class="j" x1="994" y2="994" transform="matrix(1, 0.017, -0.017, 1, -594.75, 60.902)"/></g><g transform="translate(764.854 -69.146)"><line class="j" x1="994" y2="994" transform="matrix(1, 0.017, -0.017, 1, -594.75, 60.902)"/></g><g transform="translate(781.854 -69.146)"><line class="j" x1="994" y2="994" transform="matrix(1, 0.017, -0.017, 1, -594.75, 60.902)"/></g><g transform="translate(798.854 -69.146)"><line class="j" x1="994" y2="994" transform="matrix(1, 0.017, -0.017, 1, -594.75, 60.902)"/></g><g transform="translate(815.854 -69.146)"><line class="j" x1="994" y2="994" transform="matrix(1, 0.017, -0.017, 1, -594.75, 60.902)"/></g><g transform="translate(832.854 -69.146)"><line class="j" x1="994" y2="994" transform="matrix(1, 0.017, -0.017, 1, -594.75, 60.902)"/></g><g transform="translate(849.854 -69.146)"><line class="j" x1="994" y2="994" transform="matrix(1, 0.017, -0.017, 1, -594.75, 60.902)"/></g><g transform="translate(866.854 -69.146)"><line class="j" x1="994" y2="994" transform="matrix(1, 0.017, -0.017, 1, -594.75, 60.902)"/></g><g transform="translate(883.854 -69.146)"><line class="j" x1="994" y2="994" transform="matrix(1, 0.017, -0.017, 1, -594.75, 60.902)"/></g><g transform="translate(900.854 -69.146)"><line class="j" x1="994" y2="994" transform="matrix(1, 0.017, -0.017, 1, -594.75, 60.902)"/></g><g transform="translate(917.854 -69.146)"><line class="j" x1="994" y2="994" transform="matrix(1, 0.017, -0.017, 1, -594.75, 60.902)"/></g><g transform="translate(934.854 -69.146)"><line class="j" x1="994" y2="994" transform="matrix(1, 0.017, -0.017, 1, -594.75, 60.902)"/></g><g transform="translate(951.854 -69.146)"><line class="j" x1="994" y2="994" transform="matrix(1, 0.017, -0.017, 1, -594.75, 60.902)"/></g><g transform="translate(968.854 -69.146)"><line class="j" x1="994" y2="994" transform="matrix(1, 0.017, -0.017, 1, -594.75, 60.902)"/></g><g transform="translate(985.854 -69.146)"><line class="j" x1="994" y2="994" transform="matrix(1, 0.017, -0.017, 1, -594.75, 60.902)"/></g><g transform="translate(1002.854 -69.146)"><line class="j" x1="994" y2="994" transform="matrix(1, 0.017, -0.017, 1, -594.75, 60.902)"/></g><g transform="translate(1019.854 -69.146)"><line class="j" x1="994" y2="994" transform="matrix(1, 0.017, -0.017, 1, -594.75, 60.902)"/></g><g transform="translate(1036.854 -69.146)"><line class="j" x1="994" y2="994" transform="matrix(1, 0.017, -0.017, 1, -594.75, 60.902)"/></g><g transform="translate(1053.854 -69.146)"><line class="j" x1="994" y2="994" transform="matrix(1, 0.017, -0.017, 1, -594.75, 60.902)"/></g><g transform="translate(1070.854 -69.146)"><line class="j" x1="994" y2="994" transform="matrix(1, 0.017, -0.017, 1, -594.75, 60.902)"/></g><g transform="translate(1087.854 -69.146)"><line class="j" x1="994" y2="994" transform="matrix(1, 0.017, -0.017, 1, -594.75, 60.902)"/></g><g transform="translate(1104.854 -69.146)"><line class="j" x1="994" y2="994" transform="matrix(1, 0.017, -0.017, 1, -594.75, 60.902)"/></g><g transform="translate(1121.854 -69.146)"><line class="j" x1="994" y2="994" transform="matrix(1, 0.017, -0.017, 1, -594.75, 60.902)"/></g><g transform="translate(1138.854 -69.146)"><line class="j" x1="994" y2="994" transform="matrix(1, 0.017, -0.017, 1, -594.75, 60.902)"/></g><g transform="translate(1155.854 -69.146)"><line class="j" x1="994" y2="994" transform="matrix(1, 0.017, -0.017, 1, -594.75, 60.902)"/></g><g transform="translate(1172.854 -69.146)"><line class="j" x1="994" y2="994" transform="matrix(1, 0.017, -0.017, 1, -594.75, 60.902)"/></g><g transform="translate(1189.854 -69.146)"><line class="j" x1="994" y2="994" transform="matrix(1, 0.017, -0.017, 1, -594.75, 60.902)"/></g><g transform="translate(1206.854 -69.146)"><line class="j" x1="994" y2="994" transform="matrix(1, 0.017, -0.017, 1, -594.75, 60.902)"/></g><g transform="translate(1223.854 -69.146)"><line class="j" x1="994" y2="994" transform="matrix(1, 0.017, -0.017, 1, -594.75, 60.902)"/></g><g transform="translate(1240.854 -69.146)"><line class="j" x1="994" y2="994" transform="matrix(1, 0.017, -0.017, 1, -594.75, 60.902)"/></g><g transform="translate(1257.854 -69.146)"><line class="j" x1="994" y2="994" transform="matrix(1, 0.017, -0.017, 1, -594.75, 60.902)"/></g><g transform="translate(1274.854 -69.146)"><line class="j" x1="994" y2="994" transform="matrix(1, 0.017, -0.017, 1, -594.75, 60.902)"/></g><g transform="translate(1291.854 -69.146)"><line class="j" x1="994" y2="994" transform="matrix(1, 0.017, -0.017, 1, -594.75, 60.902)"/></g><g transform="translate(1308.854 -69.146)"><line class="j" x1="994" y2="994" transform="matrix(1, 0.017, -0.017, 1, -594.75, 60.902)"/></g><g transform="translate(1325.854 -69.146)"><line class="j" x1="994" y2="994" transform="matrix(1, 0.017, -0.017, 1, -594.75, 60.902)"/></g><g transform="translate(1342.854 -69.146)"><line class="j" x1="994" y2="994" transform="matrix(1, 0.017, -0.017, 1, -594.75, 60.902)"/></g><g transform="translate(1359.854 -69.146)"><line class="j" x1="994" y2="994" transform="matrix(1, 0.017, -0.017, 1, -594.75, 60.902)"/></g><g transform="translate(1376.854 -69.146)"><line class="j" x1="994" y2="994" transform="matrix(1, 0.017, -0.017, 1, -594.75, 60.902)"/></g><g transform="translate(1393.854 -69.146)"><line class="j" x1="994" y2="994" transform="matrix(1, 0.017, -0.017, 1, -594.75, 60.902)"/></g><g transform="translate(1410.854 -69.146)"><line class="j" x1="994" y2="994" transform="matrix(1, 0.017, -0.017, 1, -594.75, 60.902)"/></g><g transform="translate(1427.854 -69.146)"><line class="j" x1="994" y2="994" transform="matrix(1, 0.017, -0.017, 1, -594.75, 60.902)"/></g><g transform="translate(1444.854 -69.146)"><line class="j" x1="994" y2="994" transform="matrix(1, 0.017, -0.017, 1, -594.75, 60.902)"/></g><g transform="translate(1461.854 -69.146)"><line class="j" x1="994" y2="994" transform="matrix(1, 0.017, -0.017, 1, -594.75, 60.902)"/></g><g transform="translate(1478.854 -69.146)"><line class="j" x1="994" y2="994" transform="matrix(1, 0.017, -0.017, 1, -594.75, 60.902)"/></g><g transform="translate(1495.854 -69.146)"><line class="j" x1="994" y2="994" transform="matrix(1, 0.017, -0.017, 1, -594.75, 60.902)"/></g><g transform="translate(1512.854 -69.146)"><line class="j" x1="994" y2="994" transform="matrix(1, 0.017, -0.017, 1, -594.75, 60.902)"/></g><g transform="translate(1529.854 -69.146)"><line class="j" x1="994" y2="994" transform="matrix(1, 0.017, -0.017, 1, -594.75, 60.902)"/></g><g transform="translate(1546.854 -69.146)"><line class="j" x1="994" y2="994" transform="matrix(1, 0.017, -0.017, 1, -594.75, 60.902)"/></g><g transform="translate(1563.854 -69.146)"><line class="j" x1="994" y2="994" transform="matrix(1, 0.017, -0.017, 1, -594.75, 60.902)"/></g><g transform="translate(1580.854 -69.146)"><line class="j" x1="994" y2="994" transform="matrix(1, 0.017, -0.017, 1, -594.75, 60.902)"/></g><g transform="translate(1597.854 -69.146)"><line class="j" x1="994" y2="994" transform="matrix(1, 0.017, -0.017, 1, -594.75, 60.902)"/></g><g transform="translate(1614.854 -69.146)"><line class="j" x1="994" y2="994" transform="matrix(1, 0.017, -0.017, 1, -594.75, 60.902)"/></g><g transform="translate(1631.854 -69.146)"><line class="j" x1="994" y2="994" transform="matrix(1, 0.017, -0.017, 1, -594.75, 60.902)"/></g><g transform="translate(1648.854 -69.146)"><line class="j" x1="994" y2="994" transform="matrix(1, 0.017, -0.017, 1, -594.75, 60.902)"/></g></g></g></g></svg>