<svg xmlns="http://www.w3.org/2000/svg" xmlns:xlink="http://www.w3.org/1999/xlink" width="596" height="260" viewBox="0 0 596 260"><defs><style>.a{fill:url(#a);}.b{fill:#fff;}.c{opacity:0.2;clip-path:url(#d);}.d{opacity:0.502;fill:url(#e);}.e{fill:#647cc7;}.f{filter:url(#b);}</style><linearGradient id="a" x1="1.011" y1="0.964" x2="0.558" y2="0.457" gradientUnits="objectBoundingBox"><stop offset="0" stop-color="#647ec7"/><stop offset="0.719" stop-color="#dbe4f7"/><stop offset="1" stop-color="#eef4ff" stop-opacity="0"/></linearGradient><filter id="b" x="0" y="0" width="596" height="260" filterUnits="userSpaceOnUse"><feOffset input="SourceAlpha"/><feGaussianBlur stdDeviation="10" result="c"/><feFlood flood-color="#3994ff" flood-opacity="0.102"/><feComposite operator="in" in2="c"/><feComposite in="SourceGraphic"/></filter><clipPath id="d"><rect class="a" width="536" height="200" rx="30" transform="translate(1019 3488)"/></clipPath><linearGradient id="e" x1="0.27" y1="0.622" x2="0.949" y2="0.498" gradientUnits="objectBoundingBox"><stop offset="0" stop-color="#eef4ff" stop-opacity="0"/><stop offset="0.448" stop-color="#cbd6f1"/><stop offset="1" stop-color="#647ec7"/></linearGradient></defs><g transform="translate(-369 -2976)"><g class="f" transform="matrix(1, 0, 0, 1, 369, 2976)"><rect class="b" width="536" height="200" rx="30" transform="translate(30 30)"/></g><g class="c" transform="translate(-620 -482)"><path class="d" d="M115.721-189.428C46.386-119.352-12.627,99.745-40.511,104.637s-75.07-4.011-94.169-29.394C-153.854,49.79-160.348,20.791-178.53-9.7c-18.182-30.559-47.975-62.606-41.176-84.16s50.191-32.544,84.186-40.768c34-8.154,226.557-246.078,250.316-244.943C138.631-378.434,185.056-259.5,115.721-189.428Z" transform="translate(1528.824 3570.889) rotate(-126)"/></g><path class="e" d="M27,0h0a0,0,0,0,1,0,0V200a0,0,0,0,1,0,0h0A27,27,0,0,1,0,173V27A27,27,0,0,1,27,0Z" transform="translate(399 3006)"/><path class="b" d="M23,0h0a0,0,0,0,1,0,0V190a0,0,0,0,1,0,0h0A23,23,0,0,1,0,167V23A23,23,0,0,1,23,0Z" transform="translate(404 3011)"/></g></svg>