<svg xmlns="http://www.w3.org/2000/svg" width="39.605" height="33.638" viewBox="0 0 39.605 33.638"><defs><style>.a{fill:#425aca;}</style></defs><g transform="translate(-11 -5.671)"><g transform="translate(11 5.671)"><path class="a" d="M33,307.345v6.42a.717.717,0,0,0,.716.716H38.68a.717.717,0,0,0,.716-.716V302.471l-3.6,3.6A4.373,4.373,0,0,1,33,307.345Z" transform="translate(-30.315 -280.843)"/><path class="a" d="M142,301.471v11.375a.717.717,0,0,0,.716.716h4.964a.717.717,0,0,0,.716-.716v-6.7a4.327,4.327,0,0,1-2.986-1.269Z" transform="translate(-130.446 -279.925)"/><path class="a" d="M251,279.628v7.4a.717.717,0,0,0,.716.716h4.963a.717.717,0,0,0,.716-.716V273.371l-5.688,5.688A4.261,4.261,0,0,1,251,279.628Z" transform="translate(-230.577 -254.111)"/><path class="a" d="M365.915,170.171,360,176.087V192.23a.717.717,0,0,0,.716.716h4.964a.717.717,0,0,0,.716-.716V170.619c-.163-.138-.285-.26-.374-.342Z" transform="translate(-330.707 -159.308)"/><path class="a" d="M39.268,37.053a1.383,1.383,0,0,0-1.05-.382h-.13c-2.311.106-4.614.22-6.924.325a1.494,1.494,0,0,0-1.066.366,1.213,1.213,0,0,0-.252.374,1.2,1.2,0,0,0,.366,1.448l.578.586c.4.407.806.814,1.212,1.212L18.039,54.954l-6.274-6.274a1.994,1.994,0,0,0-2.823,0L.586,57.029a1.994,1.994,0,0,0,0,2.823l.374.374a1.994,1.994,0,0,0,2.823,0l6.566-6.566,6.274,6.274a2,2,0,0,0,2.832,0L35.208,44.181l1.782,1.774a1.35,1.35,0,0,0,.952.5,1.178,1.178,0,0,0,.57-.155,1.55,1.55,0,0,0,.342-.252,1.654,1.654,0,0,0,.431-1.147c.065-1.5.138-2.994.212-4.5l.106-2.254A1.4,1.4,0,0,0,39.268,37.053Z" transform="translate(0 -36.671)"/></g></g></svg>