<svg xmlns="http://www.w3.org/2000/svg" width="51.57" height="52.919" viewBox="0 0 51.57 52.919"><defs><style>.a{fill:#0085ff;}</style></defs><g transform="translate(337.877 -271.002) rotate(-19)"><g transform="translate(-411.394 156.965)"><path class="a" d="M127.584,201.717A1.717,1.717,0,0,0,125.866,200h-17.69a1.717,1.717,0,0,0,0,3.435h17.69A1.717,1.717,0,0,0,127.584,201.717Z" transform="translate(-99.599 -182.825)"/><path class="a" d="M108.176,280a1.717,1.717,0,0,0,0,3.435H118.92a1.717,1.717,0,1,0,0-3.435Z" transform="translate(-99.599 -255.956)"/><path class="a" d="M39.184,40.532H33.44A3.439,3.439,0,0,1,30,37.1V6.87A3.439,3.439,0,0,1,33.44,3.435H54.555A3.439,3.439,0,0,1,57.99,6.87V17.432a1.717,1.717,0,0,0,3.435,0V6.87A6.878,6.878,0,0,0,54.555,0H33.44a6.878,6.878,0,0,0-6.87,6.87V37.1a6.878,6.878,0,0,0,6.87,6.87h5.744a1.717,1.717,0,0,0,0-3.435Z" transform="translate(-26.57)"/><path class="a" d="M262.729,273.531a5.158,5.158,0,0,0-7.285,0l-9.429,9.408a1.718,1.718,0,0,0-.43.717l-2.053,6.76a1.717,1.717,0,0,0,2.1,2.154l6.932-1.92a1.717,1.717,0,0,0,.755-.44l9.409-9.392A5.158,5.158,0,0,0,262.729,273.531Zm-11.516,13.928-3.487.966,1.021-3.36,6.362-6.348,2.429,2.429Zm9.089-9.071-.333.332-2.429-2.429.332-.331a1.717,1.717,0,0,1,2.43,2.428Z" transform="translate(-224.832 -248.665)"/><path class="a" d="M125.866,120h-17.69a1.717,1.717,0,0,0,0,3.435h17.69a1.717,1.717,0,0,0,0-3.435Z" transform="translate(-99.599 -109.695)"/></g></g></svg>