<svg xmlns="http://www.w3.org/2000/svg" width="44.699" height="54.658" viewBox="0 0 44.699 54.658"><defs><style>.a{fill:#fa4b70;}</style></defs><g transform="matrix(0.978, -0.208, 0.208, 0.978, -52.436, 16.155)"><g transform="translate(53.269)"><path class="a" d="M251.591,12.585l-3.251,3.686,4.187,1.14Z" transform="translate(-219.276 -10.71)"/><path class="a" d="M220.62,60.244l-7.069-1.925-3.3,12.1h7.595Z" transform="translate(-186.865 -49.63)"/><path class="a" d="M75.229,96.083c-.368,0-.783-.02-1.228-.056l1.275,6.174h3.659l-1.351-6.535A5.545,5.545,0,0,1,75.229,96.083Z" transform="translate(-70.912 -81.412)"/><rect class="a" width="7.232" height="20.788" transform="translate(14.394)"/><path class="a" d="M64.949,145.589v23.549a5.816,5.816,0,0,0,5.816,5.816h21.81a5.816,5.816,0,0,0,5.817-5.816V145.589Z" transform="translate(-63.209 -123.897)"/><path class="a" d="M57.155,22.789c.147.006.3.011.432.011a3.98,3.98,0,0,0,2.156-.454c1.764-1.154-.1-4.649-4.582-11.73,0,0-4.971,11.6,1.205,12.126C56.645,22.766,56.9,22.781,57.155,22.789Z" transform="translate(-53.269 -9.034)"/></g></g></svg>