<svg xmlns="http://www.w3.org/2000/svg" width="53.762" height="53.761" viewBox="0 0 53.762 53.761"><defs><style>.a{fill:#0085ff;}</style></defs><g transform="translate(6.625) rotate(8)"><path class="a" d="M23.8,0a23.8,23.8,0,0,0,0,47.6,4.067,4.067,0,0,0,3.967-3.967,3.4,3.4,0,0,0-1.058-2.644,4.7,4.7,0,0,1-1.058-2.644,4.067,4.067,0,0,1,3.967-3.967h4.76A13.094,13.094,0,0,0,47.6,21.155C47.6,9.52,37.022,0,23.8,0ZM9.255,23.8a3.967,3.967,0,1,1,0-7.933,3.967,3.967,0,0,1,0,7.933Zm7.933-10.578a4.067,4.067,0,0,1-3.967-3.967,4.067,4.067,0,0,1,3.967-3.967,4.067,4.067,0,0,1,3.967,3.967A4.067,4.067,0,0,1,17.189,13.222Zm13.222,0a4.067,4.067,0,0,1-3.967-3.967,3.967,3.967,0,1,1,7.933,0A4.067,4.067,0,0,1,30.411,13.222ZM38.344,23.8a3.967,3.967,0,0,1,0-7.933,4.067,4.067,0,0,1,3.967,3.967A4.067,4.067,0,0,1,38.344,23.8Z"/></g></svg>