<svg xmlns="http://www.w3.org/2000/svg" width="54.02" height="54.02" viewBox="0 0 54.02 54.02"><defs><style>.a{fill:#425aca;}</style></defs><path class="a" d="M52.631,39.234,40.41,27.012,51.173,16.249a9.481,9.481,0,0,0-13.4-13.417L26.988,13.59l-12.2-12.2a4.737,4.737,0,0,0-6.7,0l-6.7,6.7a4.745,4.745,0,0,0,0,6.7L13.569,26.974,4.63,35.891c-.47.47-.077-.55-4.464,16.028a1.584,1.584,0,0,0,1.944,1.932c16.726-4.536,15.586-4.126,16.022-4.562l8.876-8.876L39.23,52.635a4.746,4.746,0,0,0,6.7,0l6.7-6.7A4.737,4.737,0,0,0,52.631,39.234Zm-35.67,6.751L7.989,37.012,29.616,15.439l8.945,8.945Zm17.081-34.96,8.939,8.94L40.8,22.147,31.857,13.2Zm5.967-5.952a6.316,6.316,0,0,1,8.926,8.938l-3.715,3.715L36.283,8.789ZM13.618,22.547l4.463-4.462a1.583,1.583,0,1,0-2.238-2.238L11.38,20.309,7,15.924l2.23-2.23a1.583,1.583,0,0,0-2.238-2.238l-2.23,2.23L3.624,12.553a1.577,1.577,0,0,1,0-2.227l6.7-6.7a1.574,1.574,0,0,1,2.227,0l12.2,12.2-8.936,8.913ZM6.575,40.075l7.3,7.305-9.952,2.7ZM50.393,43.7l-6.7,6.7a1.576,1.576,0,0,1-2.227,0l-1.133-1.133,2.23-2.23A1.583,1.583,0,1,0,40.327,44.8l-2.23,2.23L33.712,42.64l4.462-4.462a1.583,1.583,0,0,0-2.238-2.238L31.474,40.4l-2.227-2.227,8.925-8.925L50.393,41.471A1.574,1.574,0,0,1,50.393,43.7Zm0,0" transform="translate(0 0)"/></svg>