<svg xmlns="http://www.w3.org/2000/svg" width="63.666" height="63.597" viewBox="0 0 63.666 63.597"><defs><style>.a{fill:#425aca;stroke:#fff;stroke-width:0.5px;}</style></defs><path class="a" d="M50.994,25.4a3.486,3.486,0,1,1-5.754-2.646A19.962,19.962,0,0,0,28.217,5.664a3.483,3.483,0,0,1-5.441,0A19.962,19.962,0,0,0,5.754,22.751a3.485,3.485,0,1,1-3.969-.4,23.724,23.724,0,0,1,6.81-13.86,24.158,24.158,0,0,1,3.677-3.017H6.346a3.486,3.486,0,1,1,0-3.984H22.637a3.484,3.484,0,0,1,5.72,0H44.648a3.486,3.486,0,1,1,0,3.984H38.723A24.158,24.158,0,0,1,42.4,8.495a23.724,23.724,0,0,1,6.81,13.86A3.485,3.485,0,0,1,50.994,25.4ZM35.625,26.738a7.851,7.851,0,0,1-.224,7.78,1.992,1.992,0,1,1-3.4-2.08,3.854,3.854,0,0,0,.112-3.814l-4.825-8.867v7.688a7.874,7.874,0,0,1,.994,2.8,2.988,2.988,0,0,1-5.976,0,7.9,7.9,0,0,1,1-2.8V20.185L18.68,28.671a3.855,3.855,0,0,0,.1,3.8l3.934,6.271H29.38a1.992,1.992,0,0,1,1.992,1.992l0,5.511a4.647,4.647,0,0,1-4.638,4.646l-2.664,0h-.005a4.643,4.643,0,0,1-4.643-4.638l0-5.267L15.4,34.578l-.013-.021a7.853,7.853,0,0,1-.214-7.774l.006-.012L23.67,11.2a1.991,1.991,0,0,1,1.749-1.038h0a1.991,1.991,0,0,1,1.749,1.04l8.451,15.528ZM27.388,42.727H23.406v3.526a.66.66,0,0,0,.659.657h0l2.664,0a.66.66,0,0,0,.658-.66Zm0,0" transform="translate(14.338 0.309) rotate(16)"/></svg>