<svg xmlns="http://www.w3.org/2000/svg" width="47.719" height="47.678" viewBox="0 0 47.719 47.678"><defs><style>.a{fill:#fa4b70;stroke:#fff;stroke-width:0.8px;}</style></defs><path class="a" d="M20.642,31.081l-.369-.3-.443-.246-.443-.123a2.462,2.462,0,0,0-2.216.665,2.044,2.044,0,0,0-.542.812,2.314,2.314,0,0,0,0,1.871,2.634,2.634,0,0,0,1.33,1.33,2.462,2.462,0,0,0,.936.2,2.684,2.684,0,0,0,.96-.2,2.142,2.142,0,0,0,.788-.542,2.287,2.287,0,0,0,.714-1.723,2.068,2.068,0,0,0-.2-.936,2.29,2.29,0,0,0-.517-.812ZM4.959,17.885a2.462,2.462,0,0,0,1.748-.739L17.146,6.707a2.455,2.455,0,1,0-3.472-3.472L3.235,13.674a2.475,2.475,0,0,0,1.723,4.21Zm43.53,16.693a2.462,2.462,0,0,0-3.472,0L34.577,45.017a2.455,2.455,0,1,0,3.472,3.472L48.488,38.172a2.462,2.462,0,0,0,0-3.595Zm.419-13.935a7.386,7.386,0,0,0-2.142-5.22L36.3,4.959a7.583,7.583,0,0,0-10.439,0l-20.9,20.9a7.386,7.386,0,0,0,0,10.439L15.422,46.765h0a7.386,7.386,0,0,0,10.439,0l20.9-20.9a7.386,7.386,0,0,0,2.142-5.22ZM43.269,22.39,22.39,43.269a2.462,2.462,0,0,1-3.5,0h0L8.455,32.829a2.462,2.462,0,0,1,0-3.5L29.333,8.455a2.462,2.462,0,0,1,3.5,0L43.269,18.894a2.462,2.462,0,0,1,0,3.5Z" transform="translate(-1.949 -1.949)"/></svg>