<svg xmlns="http://www.w3.org/2000/svg" width="60.908" height="57.111" viewBox="0 0 60.908 57.111"><defs><style>.a{fill:#0085ff;stroke:#0085ff;stroke-width:0.8px;}</style></defs><g transform="translate(0.414 -5.063)"><g transform="translate(17.557 23.604)"><g transform="translate(0 0)"><path class="a" d="M74.175,120.178l-1.726-2.147c-5.973-7.428-5.98-7.44-6.039-7.533a4.281,4.281,0,0,1,6.734-5.255c.045.054,1.962,2.434,3.879,4.814,1.876,2.332,3.752,4.663,3.825,4.753l-2.017,1.674L74.98,111.7c-1.876-2.332-3.752-4.663-3.825-4.753a1.662,1.662,0,0,0-2.565,2.1c.147.187,3.7,4.6,5.9,7.343l1.751,2.175Z" transform="translate(-60.595 -88.055)"/><path class="a" d="M63.214,79.13C63.063,78.949,51.762,64.892,51.7,64.8a4.28,4.28,0,0,1,6.691-5.316c.067.072,7.658,9.5,7.721,9.583l-2.058,1.623c-.123-.154-7.433-9.235-7.645-9.491a1.645,1.645,0,0,0-2.241-.151,1.669,1.669,0,0,0-.329,2.237c.182.228,11.212,13.941,11.395,14.167Z" transform="translate(-50.933 -58.066)"/><path class="a" d="M101.331,71.574c-.042-.049-4.63-5.751-4.732-5.9a4.28,4.28,0,0,1,6.72-5.273c.037.041.043.049,4.273,5.3l2.045,2.541-2.015,1.674-2.071-2.57c-1.783-2.214-4.1-5.093-4.217-5.234A1.66,1.66,0,0,0,98.767,64.2c.169.215,4.475,5.572,4.589,5.713Z" transform="translate(-80.371 -58.661)"/><path class="a" d="M82.149,75.2c-.06-.074-7.694-9.562-7.767-9.667a4.281,4.281,0,0,1,6.706-5.3c.07.074,7.677,9.526,7.732,9.6l-2.068,1.61c-.147-.187-7.426-9.23-7.645-9.5a1.65,1.65,0,0,0-2.243-.146,1.668,1.668,0,0,0-.326,2.234c.183.23,7.471,9.291,7.629,9.483Z" transform="translate(-65.806 -58.561)"/></g><path class="a" d="M102.885,102.316A16.3,16.3,0,0,1,90.2,96.256l2.042-1.643a13.618,13.618,0,0,0,19.145,2.073,13.744,13.744,0,0,0,3.747-16.808c-.822-1.024-7.351-9.142-7.56-9.393a1.646,1.646,0,0,0-2.238-.149,1.666,1.666,0,0,0-.329,2.234,1.316,1.316,0,0,1-.293,1.8c-.764.571-1.373.189-1.856-.317l-.009.008c-.013-.02-.026-.038-.038-.056-.138-.151-.266-.31-.385-.456l.079-.087a4.279,4.279,0,0,1,7.053-4.689c.027.026.052.054,7.7,9.567a1.332,1.332,0,0,1,.143.22,16.371,16.371,0,0,1-4.374,20.169A16.108,16.108,0,0,1,102.885,102.316Z" transform="translate(-76.667 -64.147)"/></g><path class="a" d="M28.892,50.351a12.078,12.078,0,0,1-2.506-20.374,12.085,12.085,0,0,1,19.3,6.532l-2.547.625A9.455,9.455,0,1,0,29.988,47.971Z" transform="translate(-14.338 -14.309)"/><path class="a" d="M16.328,44.6a19.707,19.707,0,1,1,22.026-25.82l-2.48.85a17.094,17.094,0,1,0-19.1,22.391Z" transform="translate(0 0)"/></g></svg>