<svg xmlns="http://www.w3.org/2000/svg" width="37" height="35" viewBox="0 0 37 35"><defs><style>.a{fill:#f4f8ff;stroke:#edf2f9;}.b{fill:#2d71e0;}.c{stroke:none;}.d{fill:none;}</style></defs><g transform="translate(-1121 -793)"><g class="a" transform="translate(1121 793)"><rect class="c" width="37" height="35" rx="5"/><rect class="d" x="0.5" y="0.5" width="36" height="34" rx="4.5"/></g><g transform="translate(603 837.207)"><g transform="translate(170 17)"><path class="b" d="M15.6,19.452H7.848a2.909,2.909,0,0,1-2.909-2.909v-9.7A.97.97,0,0,0,3,6.848v9.7a4.848,4.848,0,0,0,4.848,4.848H15.6a.97.97,0,0,0,0-1.939ZM20.452,8.729a1.27,1.27,0,0,0-.058-.262V8.38a1.037,1.037,0,0,0-.184-.271h0L14.392,2.291h0a1.037,1.037,0,0,0-.271-.184h-.087L13.723,2H9.787A2.909,2.909,0,0,0,6.878,4.909v9.7a2.909,2.909,0,0,0,2.909,2.909h7.756A2.909,2.909,0,0,0,20.452,14.6V8.729ZM14.635,5.306l2.511,2.511H15.6a.97.97,0,0,1-.97-.97Zm3.878,9.3a.97.97,0,0,1-.97.97H9.787a.97.97,0,0,1-.97-.97v-9.7a.97.97,0,0,1,.97-.97H12.7V6.848A2.909,2.909,0,0,0,15.6,9.756h2.909Z" transform="translate(355 -55.206)"/></g></g></g></svg>