<svg xmlns="http://www.w3.org/2000/svg" width="14.329" height="22.473" viewBox="0 0 14.329 22.473"><defs><style>.a{fill:#bef7ac;}</style></defs><g transform="translate(14.329) rotate(90)"><g transform="translate(0)"><path class="a" d="M1.7.849A.85.85,0,1,1,.85,0,.849.849,0,0,1,1.7.849Z"/><path class="a" d="M1.7.849A.85.85,0,1,1,.85,0,.849.849,0,0,1,1.7.849Z" transform="translate(4.155)"/><path class="a" d="M1.7.849A.85.85,0,1,1,.849,0,.85.85,0,0,1,1.7.849Z" transform="translate(8.31)"/><path class="a" d="M1.7.849A.85.85,0,1,1,.85,0,.85.85,0,0,1,1.7.849Z" transform="translate(12.464)"/><path class="a" d="M1.7.849A.85.85,0,1,1,.85,0,.849.849,0,0,1,1.7.849Z" transform="translate(16.619)"/><path class="a" d="M1.7.849A.85.85,0,1,1,.85,0,.849.849,0,0,1,1.7.849Z" transform="translate(20.774)"/></g><g transform="translate(0 4.21)"><circle class="a" cx="0.85" cy="0.85" r="0.85" transform="translate(0 0)"/><path class="a" d="M1.7.849A.85.85,0,1,1,.85,0,.849.849,0,0,1,1.7.849Z" transform="translate(4.155 0)"/><path class="a" d="M1.7.849A.85.85,0,1,1,.849,0,.85.85,0,0,1,1.7.849Z" transform="translate(8.31 0)"/><circle class="a" cx="0.85" cy="0.85" r="0.85" transform="translate(12.464 0)"/><circle class="a" cx="0.85" cy="0.85" r="0.85" transform="translate(16.619 0)"/><circle class="a" cx="0.85" cy="0.85" r="0.85" transform="translate(20.774)"/></g><g transform="translate(0 8.42)"><path class="a" d="M1.7.85A.85.85,0,1,1,.85,0,.849.849,0,0,1,1.7.85Z"/><path class="a" d="M1.7.85A.85.85,0,1,1,.85,0,.849.849,0,0,1,1.7.85Z" transform="translate(4.155)"/><path class="a" d="M1.7.85A.85.85,0,1,1,.849,0,.85.85,0,0,1,1.7.85Z" transform="translate(8.31)"/><path class="a" d="M1.7.85A.85.85,0,1,1,.85,0,.85.85,0,0,1,1.7.85Z" transform="translate(12.464)"/><path class="a" d="M1.7.85A.85.85,0,1,1,.85,0,.849.849,0,0,1,1.7.85Z" transform="translate(16.619)"/><path class="a" d="M1.7.85A.85.85,0,1,1,.85,0,.849.849,0,0,1,1.7.85Z" transform="translate(20.774)"/></g><g transform="translate(0 12.63)"><path class="a" d="M1.7.85A.85.85,0,1,1,.85,0,.849.849,0,0,1,1.7.85Z"/><path class="a" d="M1.7.85A.85.85,0,1,1,.85,0,.849.849,0,0,1,1.7.85Z" transform="translate(4.155)"/><path class="a" d="M1.7.85A.85.85,0,1,1,.849,0,.85.85,0,0,1,1.7.85Z" transform="translate(8.31)"/><path class="a" d="M1.7.85A.85.85,0,1,1,.85,0,.85.85,0,0,1,1.7.85Z" transform="translate(12.464)"/><path class="a" d="M1.7.85A.85.85,0,1,1,.85,0,.849.849,0,0,1,1.7.85Z" transform="translate(16.619)"/><path class="a" d="M1.7.85A.85.85,0,1,1,.85,0,.849.849,0,0,1,1.7.85Z" transform="translate(20.774)"/></g></g></svg>