<svg xmlns="http://www.w3.org/2000/svg" width="28" height="28" viewBox="0 0 28 28"><defs><style>.a{fill:none;}.b{fill:#6981a2;}</style></defs><path class="a" d="M0,0H28V28H0Z"/><path class="b" d="M5.36,15.145A14.336,14.336,0,0,1,13.7,1.818a14.336,14.336,0,0,1,8.343,13.327,15.7,15.7,0,0,1-.262,2.864l2.312,2.183a.6.6,0,0,1,.113.719l-2.974,5.452a.6.6,0,0,1-.945.136l-2.662-2.662a1.192,1.192,0,0,0-.843-.349H10.62a1.192,1.192,0,0,0-.842.349L7.115,26.5a.6.6,0,0,1-.945-.136L3.2,20.911a.6.6,0,0,1,.113-.719l2.312-2.183A15.81,15.81,0,0,1,5.36,15.145Zm1.759,7.98.974-.974A3.575,3.575,0,0,1,10.62,21.1h6.164a3.575,3.575,0,0,1,2.527,1.047l.974.974,1.17-2.145L20.145,19.74a2.384,2.384,0,0,1-.707-2.169,13.213,13.213,0,0,0,.223-2.426A12.117,12.117,0,0,0,13.7,4.466,12.117,12.117,0,0,0,7.743,15.145a13.235,13.235,0,0,0,.223,2.428,2.384,2.384,0,0,1-.707,2.169L5.949,20.98Zm6.583-7.98a2.384,2.384,0,1,1,2.384-2.384A2.384,2.384,0,0,1,13.7,15.145Z" transform="translate(0 0)"/></svg>