<svg xmlns="http://www.w3.org/2000/svg" width="28" height="28" viewBox="0 0 28 28"><defs><style>.a{fill:none;}.b{fill:#6981a2;stroke:#fff;stroke-width:0.3px;}</style></defs><path class="a" d="M0,0H28V28H0Z"/><path class="b" d="M8.006,16.568,5.439,19.138l3.424,3.424,13.7-13.7L19.138,5.439,16.567,8.006l1.713,1.712-1.713,1.715L14.855,9.72l-1.712,1.713,1.712,1.712-1.712,1.712-1.712-1.712L9.717,14.857l1.713,1.712L9.717,18.283,8.006,16.567ZM19.994,2.87,25.13,8.006a1.211,1.211,0,0,1,0,1.712L9.719,25.13a1.211,1.211,0,0,1-1.712,0L2.87,19.994a1.211,1.211,0,0,1,0-1.712L18.282,2.87A1.211,1.211,0,0,1,19.994,2.87ZM16.567,21.7l1.713-1.712L21,22.709h1.712V21L19.993,18.28,21.7,16.568,24.9,19.76V24.9H19.761L16.568,21.7ZM6.294,11.431,2.869,8.006a1.211,1.211,0,0,1,0-1.713L6.294,2.869a1.211,1.211,0,0,1,1.712,0l3.427,3.424L9.719,8.006,7.15,5.437,5.438,7.15,8.006,9.717,6.294,11.431Z" transform="translate(0)"/></svg>