<svg xmlns="http://www.w3.org/2000/svg" width="26.508" height="41.572" viewBox="0 0 26.508 41.572"><defs><style>.a{fill:#bef7ac;}</style></defs><g transform="translate(183.68 207.925) rotate(90)"><path class="a" d="M-204.782,158.743a1.571,1.571,0,0,1-1.571,1.572,1.572,1.572,0,0,1-1.572-1.572,1.571,1.571,0,0,1,1.572-1.571A1.571,1.571,0,0,1-204.782,158.743Z"/><path class="a" d="M-197.1,158.743a1.571,1.571,0,0,1-1.571,1.572,1.572,1.572,0,0,1-1.572-1.572,1.571,1.571,0,0,1,1.572-1.571A1.571,1.571,0,0,1-197.1,158.743Z"/><path class="a" d="M-189.41,158.743a1.572,1.572,0,0,1-1.572,1.572,1.571,1.571,0,0,1-1.571-1.572,1.571,1.571,0,0,1,1.571-1.571A1.571,1.571,0,0,1-189.41,158.743Z"/><path class="a" d="M-181.724,158.743a1.572,1.572,0,0,1-1.572,1.572,1.572,1.572,0,0,1-1.572-1.572,1.571,1.571,0,0,1,1.572-1.571A1.571,1.571,0,0,1-181.724,158.743Z"/><path class="a" d="M-174.039,158.743a1.571,1.571,0,0,1-1.571,1.572,1.572,1.572,0,0,1-1.572-1.572,1.571,1.571,0,0,1,1.572-1.571A1.571,1.571,0,0,1-174.039,158.743Z"/><path class="a" d="M-166.353,158.743a1.571,1.571,0,0,1-1.571,1.572,1.572,1.572,0,0,1-1.572-1.572,1.571,1.571,0,0,1,1.572-1.571A1.571,1.571,0,0,1-166.353,158.743Z"/><circle class="a" cx="1.572" cy="1.572" r="1.572" transform="translate(-207.925 164.96)"/><path class="a" d="M-197.1,166.531a1.571,1.571,0,0,1-1.571,1.572,1.572,1.572,0,0,1-1.572-1.572,1.571,1.571,0,0,1,1.572-1.571A1.571,1.571,0,0,1-197.1,166.531Z"/><path class="a" d="M-189.41,166.531a1.572,1.572,0,0,1-1.572,1.572,1.571,1.571,0,0,1-1.571-1.572,1.571,1.571,0,0,1,1.571-1.571A1.571,1.571,0,0,1-189.41,166.531Z"/><circle class="a" cx="1.572" cy="1.572" r="1.572" transform="translate(-184.868 164.96)"/><circle class="a" cx="1.572" cy="1.572" r="1.572" transform="translate(-177.182 164.96)"/><circle class="a" cx="1.572" cy="1.572" r="1.572" transform="translate(-169.496 164.96)"/><path class="a" d="M-204.782,174.319a1.571,1.571,0,0,1-1.571,1.572,1.572,1.572,0,0,1-1.572-1.572,1.572,1.572,0,0,1,1.572-1.572A1.571,1.571,0,0,1-204.782,174.319Z"/><path class="a" d="M-197.1,174.319a1.571,1.571,0,0,1-1.571,1.572,1.572,1.572,0,0,1-1.572-1.572,1.572,1.572,0,0,1,1.572-1.572A1.571,1.571,0,0,1-197.1,174.319Z"/><path class="a" d="M-189.41,174.319a1.572,1.572,0,0,1-1.572,1.572,1.571,1.571,0,0,1-1.571-1.572,1.571,1.571,0,0,1,1.571-1.572A1.572,1.572,0,0,1-189.41,174.319Z"/><path class="a" d="M-181.724,174.319a1.572,1.572,0,0,1-1.572,1.572,1.572,1.572,0,0,1-1.572-1.572,1.572,1.572,0,0,1,1.572-1.572A1.572,1.572,0,0,1-181.724,174.319Z"/><path class="a" d="M-174.039,174.319a1.571,1.571,0,0,1-1.571,1.572,1.572,1.572,0,0,1-1.572-1.572,1.572,1.572,0,0,1,1.572-1.572A1.571,1.571,0,0,1-174.039,174.319Z"/><path class="a" d="M-166.353,174.319a1.571,1.571,0,0,1-1.571,1.572,1.572,1.572,0,0,1-1.572-1.572,1.572,1.572,0,0,1,1.572-1.572A1.571,1.571,0,0,1-166.353,174.319Z"/><path class="a" d="M-204.782,182.107a1.571,1.571,0,0,1-1.571,1.572,1.572,1.572,0,0,1-1.572-1.572,1.572,1.572,0,0,1,1.572-1.572A1.571,1.571,0,0,1-204.782,182.107Z"/><path class="a" d="M-197.1,182.107a1.571,1.571,0,0,1-1.571,1.572,1.572,1.572,0,0,1-1.572-1.572,1.572,1.572,0,0,1,1.572-1.572A1.571,1.571,0,0,1-197.1,182.107Z"/><path class="a" d="M-189.41,182.107a1.572,1.572,0,0,1-1.572,1.572,1.571,1.571,0,0,1-1.571-1.572,1.571,1.571,0,0,1,1.571-1.572A1.572,1.572,0,0,1-189.41,182.107Z"/><path class="a" d="M-181.724,182.107a1.572,1.572,0,0,1-1.572,1.572,1.572,1.572,0,0,1-1.572-1.572,1.572,1.572,0,0,1,1.572-1.572A1.572,1.572,0,0,1-181.724,182.107Z"/><path class="a" d="M-174.039,182.107a1.571,1.571,0,0,1-1.571,1.572,1.572,1.572,0,0,1-1.572-1.572,1.572,1.572,0,0,1,1.572-1.572A1.571,1.571,0,0,1-174.039,182.107Z"/><path class="a" d="M-166.353,182.107a1.571,1.571,0,0,1-1.571,1.572,1.572,1.572,0,0,1-1.572-1.572,1.572,1.572,0,0,1,1.572-1.572A1.571,1.571,0,0,1-166.353,182.107Z"/></g></svg>