<svg xmlns="http://www.w3.org/2000/svg" width="20.455" height="20.454" viewBox="0 0 20.455 20.454"><defs><style>.a{fill:#707070;}</style></defs><path class="a" d="M12.227,2A10.227,10.227,0,1,0,22.454,12.227,10.227,10.227,0,0,0,12.227,2Zm0,2.045a8.12,8.12,0,0,1,5.635,2.27,25.5,25.5,0,0,1-4.94,2.23A29.73,29.73,0,0,0,9.987,4.362a8.12,8.12,0,0,1,2.24-.317Zm-4.2,1.176A27.777,27.777,0,0,1,10.9,9.159a25.681,25.681,0,0,1-6.136.757H4.393A8.182,8.182,0,0,1,8.024,5.222ZM6.091,17.658a8.079,8.079,0,0,1-2.045-5.431v-.3h.7A27.276,27.276,0,0,0,11.9,10.908c.327.624.634,1.268.931,1.933a14.625,14.625,0,0,0-4.387,2.465l-.307.245a21.477,21.477,0,0,0-2.045,2.107Zm6.136,2.751a8.1,8.1,0,0,1-4.572-1.4,18.327,18.327,0,0,1,1.6-1.616l.327-.276a12.917,12.917,0,0,1,4.091-2.322A32.727,32.727,0,0,1,15.1,19.908a8.264,8.264,0,0,1-2.874.5Zm4.735-1.524a35.662,35.662,0,0,0-1.309-4.561H16a.256.256,0,0,1,.123,0h.706a9.644,9.644,0,0,1,3.16.542,8.12,8.12,0,0,1-3.027,4.019Zm-.133-6.658H16.2a1.6,1.6,0,0,0-.4,0,6.791,6.791,0,0,0-.828.1h-.1c-.3-.685-.6-1.35-.941-2.045a27.174,27.174,0,0,0,5.247-2.455,8.182,8.182,0,0,1,1.237,4.4v.522a11.741,11.741,0,0,0-3.58-.522Z" transform="translate(-2 -2)"/></svg>