<svg xmlns="http://www.w3.org/2000/svg" width="327.762" height="297.876" viewBox="0 0 327.762 297.876"><defs><style>.a{fill:#425aca;}.b{fill:#27c2ff;}.c{fill:#3f3f5a;}.d{fill:#fa4b70;}</style></defs><g transform="matrix(-0.998, -0.07, 0.07, -0.998, 318.213, 308.466)"><path class="a" d="M83.327,2.137a5.652,5.652,0,0,1,8.853,0l63.989,85.695A5.652,5.652,0,0,1,151.742,97L5.663,109.5a5.652,5.652,0,0,1-4.426-9.168Z" transform="matrix(1, -0.017, 0.017, 1, 149.015, 2.747)"/><path class="b" d="M45.13,2.137a5.652,5.652,0,0,1,8.853,0l54.741,76.956A5.652,5.652,0,0,1,104.3,88.26L5.663,127.347a5.652,5.652,0,0,1-4.426-9.168Z" transform="translate(213.533 293.122) rotate(-178)"/><path class="a" d="M21.846.56a1.482,1.482,0,0,1,2.321,0L40.944,23.028a1.482,1.482,0,0,1-1.161,2.4l-38.3,3.277A1.482,1.482,0,0,1,.324,26.3Z" transform="translate(24.862 122.534) rotate(60)"/><circle class="c" cx="10.5" cy="10.5" r="10.5" transform="translate(73.529 5.474)"/><path class="d" d="M32.142,3.4a2,2,0,0,1,3.546,0L66.3,62.078A2,2,0,0,1,64.53,65H3.3a2,2,0,0,1-1.773-2.925Z" transform="matrix(-0.035, 0.999, -0.999, -0.035, 334.25, 218.223)"/></g></svg>