<svg xmlns="http://www.w3.org/2000/svg" width="217.876" height="223.363" viewBox="0 0 217.876 223.363"><defs><style>.a{fill:#4a47d5;}.b{fill:#fa4b70;}.c{fill:#3f3f5a;}.d{fill:#27c2ff;}</style></defs><g transform="translate(-1424.413 -1921.385)"><path class="a" d="M58.051,1.485a3.944,3.944,0,0,1,6.168,0L108.8,61.024a3.926,3.926,0,0,1-3.084,6.37L3.945,76.078A3.926,3.926,0,0,1,.861,69.708Z" transform="matrix(1, -0.017, 0.017, 1, 1531.32, 1923.299)"/><path class="b" d="M35.739,1.693a4.476,4.476,0,0,1,7.011,0L86.1,62.634a4.476,4.476,0,0,1-3.505,7.26L4.485,100.847a4.476,4.476,0,0,1-3.505-7.26Z" transform="translate(1534.544 2144.748) rotate(-178)"/><circle class="c" cx="7.5" cy="7.5" r="7.5" transform="translate(1600 2074.47)"/><path class="d" d="M18.571,3.429a2,2,0,0,1,3.552,0L39.182,36.371a2,2,0,0,1-1.776,2.92H3.288a2,2,0,0,1-1.776-2.92Z" transform="matrix(-0.035, 0.999, -0.999, -0.035, 1465.099, 2004.527)"/></g></svg>