<svg xmlns="http://www.w3.org/2000/svg" xmlns:xlink="http://www.w3.org/1999/xlink" width="252" height="190" viewBox="0 0 252 190"><defs><style>.a{opacity:0.098;fill:url(#a);}.b{opacity:0.103;fill:url(#b);}</style><linearGradient id="a" y1="0.844" x2="0.984" y2="0.102" gradientUnits="objectBoundingBox"><stop offset="0" stop-color="#161f67"/><stop offset="1" stop-color="#1727aa"/></linearGradient><linearGradient id="b" x1="1" y1="1" x2="0.046" gradientUnits="objectBoundingBox"><stop offset="0" stop-color="#96e6f9"/><stop offset="1" stop-color="#6a9af4"/></linearGradient></defs><g transform="translate(-1699 -4442)"><path class="a" d="M80,0H183a0,0,0,0,1,0,0V110a80,80,0,0,1-80,80H0a0,0,0,0,1,0,0V80A80,80,0,0,1,80,0Z" transform="translate(1768 4442)"/><path class="b" d="M0,0H57A40,40,0,0,1,97,40v65a0,0,0,0,1,0,0H40A40,40,0,0,1,0,65V0A0,0,0,0,1,0,0Z" transform="translate(1804 4481) rotate(90)"/></g></svg>