<svg xmlns="http://www.w3.org/2000/svg" xmlns:xlink="http://www.w3.org/1999/xlink" width="191.001" height="199" viewBox="0 0 191.001 199"><defs><style>.a{fill:url(#a);}.b{fill:#647ec7;}.c{fill:#fff;stroke:#707070;opacity:0;}.d{stroke:none;}.e{fill:none;}</style><linearGradient id="a" x1="0.063" y1="0.034" x2="1.08" y2="1.033" gradientUnits="objectBoundingBox"><stop offset="0" stop-color="#eef4ff"/><stop offset="0.433" stop-color="#f5f8ff"/><stop offset="0.823" stop-color="#fff"/><stop offset="1" stop-color="#fcfdff"/></linearGradient></defs><g transform="translate(-1074.999 -1646)"><path class="a" d="M97.5-198c-25.2,0-52.5,3.3-74.4,9.9V-150c22.8-6.3,43.5-9,59.4-9,22.8,0,40.5,6,40.5,28.5,0,24-41.1,53.1-107.7,90.3V0H166.8V-39H84c50.7-27.6,86.1-55.8,86.1-93C170.1-179.1,134.1-198,97.5-198Z" transform="translate(1059.699 1844)"/><path class="b" d="M3.76,25.875H18.218a3.764,3.764,0,0,0,3.68-4.537A11.105,11.105,0,0,0,16.752,14.1a7.137,7.137,0,1,0-11.526,0A11.105,11.105,0,0,0,.081,21.338,3.764,3.764,0,0,0,3.76,25.875ZM10.989,7.3A2.605,2.605,0,1,1,8.384,9.9,2.608,2.608,0,0,1,10.989,7.3Zm-.059,9.742h.119a6.583,6.583,0,0,1,6.151,4.3H4.779A6.582,6.582,0,0,1,10.93,17.039ZM55.242,49.487a2.266,2.266,0,0,0-1.759,1.763H40.8a6.582,6.582,0,0,1,6.151-4.3h.119c.02,0,.04,0,.06,0a7.144,7.144,0,1,0-5.882-2.931A11.105,11.105,0,0,0,36.1,51.244a3.764,3.764,0,0,0,3.679,4.537H54.242a3.764,3.764,0,0,0,3.679-4.537A2.266,2.266,0,0,0,55.242,49.487ZM47.012,37.2a2.605,2.605,0,1,1-2.605,2.605A2.608,2.608,0,0,1,47.012,37.2ZM48.938.5H35a9.073,9.073,0,0,0-9.063,9.063v4.645a9.037,9.037,0,0,0,1.96,5.629L26.522,22.6a2.266,2.266,0,0,0,2.928,3.092l5.572-2.418H48.938A9.073,9.073,0,0,0,58,14.207V9.562A9.073,9.073,0,0,0,48.938.5Zm4.531,13.707a4.536,4.536,0,0,1-4.531,4.531H34.552a2.27,2.27,0,0,0-.9.188l-.746.323a2.263,2.263,0,0,0-.8-1.566,4.525,4.525,0,0,1-1.625-3.476V9.562A4.536,4.536,0,0,1,35,5.031H48.938a4.536,4.536,0,0,1,4.531,4.531ZM23,30.406H9.063A9.073,9.073,0,0,0,0,39.468v4.645a9.073,9.073,0,0,0,9.062,9.063H22.98l5.572,2.418A2.265,2.265,0,0,0,31.48,52.5L30.1,49.742a9.039,9.039,0,0,0,1.96-5.629V39.468A9.073,9.073,0,0,0,23,30.406Zm4.531,13.707A4.523,4.523,0,0,1,25.9,47.588a2.266,2.266,0,0,0-.8,1.567l-.746-.324a2.266,2.266,0,0,0-.9-.187H9.063a4.537,4.537,0,0,1-4.531-4.531V39.468a4.537,4.537,0,0,1,4.531-4.531H23a4.537,4.537,0,0,1,4.531,4.531Zm0,0" transform="translate(1207.699 1704.5)"/><g class="c" transform="translate(1075 1646)"><rect class="d" width="191" height="199"/><rect class="e" x="0.5" y="0.5" width="190" height="198"/></g></g></svg>