<svg xmlns="http://www.w3.org/2000/svg" xmlns:xlink="http://www.w3.org/1999/xlink" width="191" height="199" viewBox="0 0 191 199"><defs><style>.a{fill:url(#a);}.b{fill:#647cc7;stroke:#647cc7;stroke-width:0.6px;}.c{fill:#fff;stroke:#707070;opacity:0;}.d{stroke:none;}.e{fill:none;}</style><linearGradient id="a" x1="0.06" x2="0.809" y2="1" gradientUnits="objectBoundingBox"><stop offset="0" stop-color="#eef4ff"/><stop offset="0.749" stop-color="#fafcff"/><stop offset="1" stop-color="#fcfdff" stop-opacity="0"/></linearGradient></defs><g transform="translate(-316 -2370)"><path class="a" d="M115.2-195C76.5-155.7,38.4-112.8,11.7-70.5v36.3H120V0h45.3V-34.2h28.8v-39H165.3v-42.6H120v42.6H63.6c24.6-36.9,67.8-82.5,108-121.8Z" transform="translate(304.301 2565)"/><g transform="translate(445.596 2438.596)"><path class="b" d="M51.869,15.038c.031-.379.048-.76.048-1.14A13.968,13.968,0,0,0,38.019,0,13.664,13.664,0,0,0,29.4,3.021,13.664,13.664,0,0,0,20.79,0a13.969,13.969,0,0,0-13.9,13.9q0,.571.048,1.14A12.071,12.071,0,0,0,0,25.941H0v.017A12.148,12.148,0,0,0,17.344,36.851v8.174h-7.3a5.169,5.169,0,1,0,0,3.446h9.026a1.723,1.723,0,0,0,1.723-1.723V36.3s0,0,0,0a8.6,8.6,0,0,0,6.892,1.552V48.767a5.169,5.169,0,1,0,3.446,0V37.844a8.6,8.6,0,0,0,6.892-1.552s0,0,0,0V46.748a1.723,1.723,0,0,0,1.723,1.723h9.026a5.169,5.169,0,1,0,0-3.446h-7.3V36.846a11.992,11.992,0,0,0,5.169,1.172,12.132,12.132,0,0,0,12.175-12.06v-.017h0A12.071,12.071,0,0,0,51.869,15.038ZM5.169,48.471a1.723,1.723,0,1,1,1.723-1.723A1.725,1.725,0,0,1,5.169,48.471Zm20.79-13.9a5.179,5.179,0,0,1-3.873-1.748A11.081,11.081,0,0,0,24,28.161a1.723,1.723,0,0,0-3.407-.364A8.68,8.68,0,0,1,3.446,25.958v-.009a8.717,8.717,0,0,1,10.731-8.38,6.853,6.853,0,0,0,1.739,2.924,1.723,1.723,0,0,0,2.437-2.437,3.461,3.461,0,0,1-1-2.228,3.423,3.423,0,0,1,1-2.645,1.723,1.723,0,0,0-2.437-2.437,6.845,6.845,0,0,0-1.837,3.3,12.469,12.469,0,0,0-3.739-.012c0-.046,0-.091,0-.137A10.592,10.592,0,0,1,20.79,3.446a10.249,10.249,0,0,1,6.892,2.635V13.9H24.235a1.723,1.723,0,0,0,0,3.446h3.446V34.277A5.184,5.184,0,0,1,25.958,34.573ZM29.4,55.362a1.723,1.723,0,1,1,1.723-1.723A1.725,1.725,0,0,1,29.4,55.362ZM53.639,45.025a1.723,1.723,0,1,1-1.723,1.723A1.725,1.725,0,0,1,53.639,45.025Zm1.723-19.073v.007a8.679,8.679,0,0,1-17.173,1.715,1.723,1.723,0,0,0-3.412.34,11.051,11.051,0,0,0,1.946,4.81,5.162,5.162,0,0,1-5.6,1.453V17.344h3.446a1.723,1.723,0,0,0,0-3.446H31.127V6.081a10.249,10.249,0,0,1,6.892-2.635A10.592,10.592,0,0,1,48.471,13.9c0,.045,0,.091,0,.137a12.465,12.465,0,0,0-3.739.012,6.845,6.845,0,0,0-1.837-3.3,1.723,1.723,0,0,0-2.437,2.437,3.423,3.423,0,0,1,1,2.645,3.465,3.465,0,0,1-1,2.228,1.723,1.723,0,0,0,2.437,2.437,6.853,6.853,0,0,0,1.739-2.924,8.717,8.717,0,0,1,10.731,8.38Z"/><g transform="translate(44.91 20.79)"><path class="b" d="M392.723,181a1.723,1.723,0,1,0,0,3.446,1.83,1.83,0,0,1,1.838,1.723,1.723,1.723,0,1,0,3.446,0A5.263,5.263,0,0,0,392.723,181Z" transform="translate(-391 -181)"/></g><g transform="translate(6.892 20.79)"><path class="b" d="M65.284,181A5.263,5.263,0,0,0,60,186.169a1.723,1.723,0,1,0,3.446,0,1.83,1.83,0,0,1,1.838-1.723,1.723,1.723,0,1,0,0-3.446Z" transform="translate(-60 -181)"/></g></g><g class="c" transform="translate(316 2370)"><rect class="d" width="191" height="199"/><rect class="e" x="0.5" y="0.5" width="190" height="198"/></g></g></svg>