<svg xmlns="http://www.w3.org/2000/svg" xmlns:xlink="http://www.w3.org/1999/xlink" width="191" height="199" viewBox="0 0 191 199"><defs><style>.a{fill:url(#a);}.b{fill:#647cc7;stroke:#647cc7;}.c{fill:#fff;stroke:#707070;opacity:0;}.d{stroke:none;}.e{fill:none;}</style><linearGradient id="a" y1="-0.052" x2="0.866" y2="0.927" gradientUnits="objectBoundingBox"><stop offset="0" stop-color="#eef4ff"/><stop offset="0.601" stop-color="#f9fbff"/><stop offset="1" stop-color="#fcfdff" stop-opacity="0"/></linearGradient></defs><g transform="translate(-1075 -2370)"><path class="a" d="M154.8-156v-39H26.4L17.7-80.4c23.1-4.8,42-6.9,63.9-6.9,28.8,0,39.9,9.9,39.9,23.4,0,18.6-13.2,28.2-44.1,28.2-15.6,0-38.7-3.9-63-9.9V-6C34.8-.6,60,3.3,81.9,3.3c57.3,0,86.7-26.7,86.7-66.9,0-35.4-27.3-61.2-76.2-61.2-14.7,0-21.3,1.5-29.7,3L64.8-156Z" transform="translate(1061 2565)"/><g transform="translate(1150.702 2438.969)"><path class="b" d="M33.443,35.721V46.154a11.964,11.964,0,0,0,23.928,0V35.721A11.962,11.962,0,0,0,47.052,23.934V10.206a10.206,10.206,0,0,0-20.412,0V47.855a6.8,6.8,0,0,1-13.608,0V34.02h1.7a1.7,1.7,0,0,0,1.7-1.7V24.691a8.514,8.514,0,0,1,4.347-7.419l.949-.532a1.7,1.7,0,0,0,.532-2.5L12.693,1.427A1.7,1.7,0,0,0,11.336.744H11.33a1.7,1.7,0,0,0-1.355.674L.346,14.122a1.7,1.7,0,0,0,.5,2.5l1.045.609a8.593,8.593,0,0,1,4.337,7.349v7.742a1.7,1.7,0,0,0,1.7,1.7h1.7V47.855a10.206,10.206,0,0,0,20.412,0V10.206a6.8,6.8,0,0,1,13.608,0v13.73A11.926,11.926,0,0,0,33.443,35.721Zm-20.412-5.1h-3.4v-3.4h3.4ZM4.205,14.663,9.629,7.506v9.5a1.7,1.7,0,1,0,3.4,0V7.566l5.362,7.179a11.924,11.924,0,0,0-5.329,9.07H9.6A12.02,12.02,0,0,0,4.205,14.663ZM43.65,27.387V37.536h-6.8V35.721A8.52,8.52,0,0,1,43.65,27.387Zm1.7,27.272a8.515,8.515,0,0,1-8.505-8.505V40.938H53.969v5.216A8.572,8.572,0,0,1,45.351,54.659Zm8.618-18.938v1.814H47.052V27.383A8.549,8.549,0,0,1,53.969,35.721Zm0,0"/><path class="b" d="M375.009,422h-3.4a1.7,1.7,0,1,0,0,3.4h3.4a1.7,1.7,0,1,0,0-3.4Zm0,0" transform="translate(-327.958 -374.145)"/></g><g class="c" transform="translate(1075 2370)"><rect class="d" width="191" height="199"/><rect class="e" x="0.5" y="0.5" width="190" height="198"/></g></g></svg>