<svg xmlns="http://www.w3.org/2000/svg" xmlns:xlink="http://www.w3.org/1999/xlink" width="191.4" height="199" viewBox="0 0 191.4 199"><defs><style>.a{fill:url(#a);}.b{fill:#647cc7;stroke:#647ac7;stroke-width:0.3px;}.c{fill:#fff;stroke:#707070;opacity:0;}.d{stroke:none;}.e{fill:none;}</style><linearGradient id="a" x2="0.938" y2="0.973" gradientUnits="objectBoundingBox"><stop offset="0" stop-color="#eef4ff"/><stop offset="0.607" stop-color="#fbfdff"/><stop offset="1" stop-color="#fcfdff" stop-opacity="0"/></linearGradient></defs><g transform="translate(-864.6 -2034)"><path class="a" d="M170.4-163.5V-195H20.1v39h89.7L60.9-111v18h2.7c43.5.3,63.6,5.4,63.6,28.5,0,19.2-18.9,29.1-45,29.1C65.7-35.4,42.6-39,18.6-45V-5.7C44.1.6,62.1,3.6,85.5,3.6c51,0,88.8-16.5,88.8-67.8,0-29.4-26.7-50.1-50.1-54.6Z" transform="translate(846 2229)"/><path class="b" d="M57.655,28.715a1.935,1.935,0,0,0-1.91-1.627H48.582l5.677-11.8h0l3.355-6.974a1.935,1.935,0,0,0-.9-2.582L46.248.7a1.935,1.935,0,0,0-2.582.9L38.442,12.461,34.729,1.323a1.935,1.935,0,0,0-3.671,0l-3.87,11.609,0,.014c-.008.025-.015.05-.022.076s-.017.063-.024.095-.011.05-.015.075-.012.073-.017.109c0,.021-.006.042-.008.064-.006.059-.009.118-.009.178V27.088h-3.87V16.72a7.7,7.7,0,0,0,1.935-5.111c0-1.768-1.068-4.113-3.266-7.169C20.393,2.361,18.917.711,18.854.642a1.935,1.935,0,0,0-2.88,0c-.062.07-1.538,1.719-3.033,3.8-2.2,3.057-3.267,5.4-3.267,7.169A7.7,7.7,0,0,0,11.61,16.72V27.088H10.034A1.935,1.935,0,0,0,8.125,28.7a25.934,25.934,0,0,0-.377,3.592L.325,43.429a1.935,1.935,0,0,0,.745,2.8l6.67,3.335v6.673a5.967,5.967,0,0,0,1.67,4.138,5.685,5.685,0,0,0,4.135,1.8h9.674v1.935a1.935,1.935,0,0,0,1.935,1.935h23.54A1.935,1.935,0,0,0,50.619,64.3a82.374,82.374,0,0,1,5.657-22.122A25.47,25.47,0,0,0,57.655,28.715ZM46.314,5.024l6.974,3.355-1.677,3.487-3.487-1.677a1.935,1.935,0,0,0-1.678,3.487l3.487,1.678-1.678,3.487-3.487-1.677a1.935,1.935,0,1,0-1.678,3.487l3.487,1.677-2.29,4.76H38.7V20.854ZM34.079,11.609h-2.37l1.185-3.556Zm-3.12,3.87h3.87V27.088h-3.87ZM17.414,4.932c2.056,2.578,3.87,5.479,3.87,6.677a3.87,3.87,0,1,1-7.74,0C13.545,10.376,15.363,7.5,17.414,4.932ZM15.48,19.1a7.766,7.766,0,0,0,3.87,0v7.984H15.48Zm37.2,21.644a87.871,87.871,0,0,0-5.716,21.426H27.089V60.239A1.935,1.935,0,0,0,25.154,58.3H13.545a2.055,2.055,0,0,1-1.935-2.064V48.372a1.935,1.935,0,0,0-1.07-1.731L4.761,43.752l6.524-9.786a1.933,1.933,0,0,0,.325-1.073,18.175,18.175,0,0,1,.107-1.935H54.039A21.321,21.321,0,0,1,52.68,40.748Zm0,0" transform="translate(953 2089)"/><g class="c" transform="translate(865 2034)"><rect class="d" width="191" height="199"/><rect class="e" x="0.5" y="0.5" width="190" height="198"/></g></g></svg>