<svg xmlns="http://www.w3.org/2000/svg" xmlns:xlink="http://www.w3.org/1999/xlink" width="191.501" height="199.711" viewBox="0 0 191.501 199.711"><defs><style>.a{fill:#fff;stroke:#707070;opacity:0;}.b{stroke:rgba(0,0,0,0);stroke-miterlimit:10;fill:url(#a);}.c{fill:#647ec7;}.d{stroke:none;}.e{fill:none;}</style><linearGradient id="a" y1="0.053" x2="0.946" y2="1" gradientUnits="objectBoundingBox"><stop offset="0" stop-color="#eef4ff"/><stop offset="0.65" stop-color="#fcfdff"/><stop offset="1" stop-color="#fff"/></linearGradient></defs><g transform="translate(-402.499 -1645.389)"><g class="a" transform="translate(403 1646)"><rect class="d" width="191" height="199"/><rect class="e" x="0.5" y="0.5" width="190" height="198"/></g><path class="b" d="M53.4,198.6v-.5H.4v-45h53V48.6L0,56.4V19.8L98.4,0V153.1h54v45h-54v.5Z" transform="translate(402.999 1646)"/><path class="c" d="M2.468,34.591a2.3,2.3,0,0,0,.279-.017,2.267,2.267,0,0,0,1.974-2.527q-.046-.375-.081-.754H7.825a2.268,2.268,0,0,0,0-4.535H4.643A24.342,24.342,0,0,1,9.03,14.9a44.852,44.852,0,0,0,6.077,1.619,52.577,52.577,0,0,0-1.14,9.839,2.267,2.267,0,0,0,2.21,2.323h.058A2.268,2.268,0,0,0,18.5,26.474a47.735,47.735,0,0,1,1.092-9.239c2.295.284,4.7.465,7.167.534v3.773a2.268,2.268,0,1,0,4.535,0V17.769c2.5-.07,4.936-.255,7.261-.546a47.157,47.157,0,0,1,1.114,9.361A2.268,2.268,0,0,0,41.935,28.8h.054a2.267,2.267,0,0,0,2.214-2.32A51.867,51.867,0,0,0,43.036,16.5a44.489,44.489,0,0,0,5.987-1.6,24.345,24.345,0,0,1,4.387,11.855H49.662a2.268,2.268,0,0,0,0,4.535h3.751q-.035.378-.081.754a2.267,2.267,0,0,0,1.974,2.527,2.292,2.292,0,0,0,.279.017A2.268,2.268,0,0,0,57.833,32.6a29.4,29.4,0,0,0,.218-3.575A29.025,29.025,0,0,0,8.5,8.5,28.834,28.834,0,0,0,0,29.025,29.405,29.405,0,0,0,.22,32.6,2.269,2.269,0,0,0,2.468,34.591Zm9.8-23.409a24.6,24.6,0,0,1,6.514-4.4q-.365.6-.708,1.244a29.05,29.05,0,0,0-1.757,4.117C14.885,11.87,13.529,11.548,12.271,11.182Zm8.62,1.644c1.468-3.9,3.512-6.681,5.868-7.774v8.18C24.742,13.173,22.775,13.036,20.891,12.827Zm10.4.405V5.055c2.275,1.061,3.887,3.514,4.747,5.13a23.677,23.677,0,0,1,1.19,2.633C35.325,13.033,33.333,13.172,31.294,13.232Zm8.751-5.177q-.343-.646-.711-1.241a24.57,24.57,0,0,1,6.447,4.367c-1.237.36-2.568.676-3.977.948A29.065,29.065,0,0,0,40.045,8.055ZM52.822,46.27a7.143,7.143,0,1,0-11.542-.009c-.036.021-.072.041-.108.063a15.3,15.3,0,0,0-5.608-4.5,8.5,8.5,0,1,0-13.073,0,15.3,15.3,0,0,0-5.609,4.5l-.107-.064a7.143,7.143,0,1,0-11.542.009,11.114,11.114,0,0,0-5.15,7.24A3.768,3.768,0,0,0,3.765,58.05h14.47l.045,0,.082,0H39.62c.043,0,.085,0,.128,0,.024,0,.047,0,.071,0h14.47a3.768,3.768,0,0,0,3.683-4.541A11.116,11.116,0,0,0,52.822,46.27Zm-5.768-6.814a2.608,2.608,0,1,1-2.608,2.608A2.611,2.611,0,0,1,47.054,39.456Zm-22-3.061a3.968,3.968,0,1,1,3.968,3.968A3.973,3.973,0,0,1,25.058,36.4Zm3.968,8.5a10.894,10.894,0,0,1,10.607,8.6.085.085,0,0,1-.022.019h-21.2A10.894,10.894,0,0,1,29.027,44.9ZM11,39.456a2.608,2.608,0,1,1-2.608,2.608A2.61,2.61,0,0,1,11,39.456Zm-.059,9.75h.119a6.518,6.518,0,0,1,3.6,1.078,15.237,15.237,0,0,0-.687,2.342,4.581,4.581,0,0,0-.093.888H4.784A6.588,6.588,0,0,1,10.94,49.207Zm33.236,4.308a4.46,4.46,0,0,0-.091-.916c-.013-.061-.028-.12-.045-.179a15.229,15.229,0,0,0-.641-2.135,6.522,6.522,0,0,1,3.6-1.078h.119a6.588,6.588,0,0,1,6.157,4.308Zm0,0" transform="translate(500.524 1701.946)"/></g></svg>