<svg xmlns="http://www.w3.org/2000/svg" width="1920.001" height="1227.036" viewBox="0 0 1920.001 1227.036">
    <defs>
        <style>
            .cls-1{fill:url(#linear-gradient)}
        </style>
        <linearGradient id="linear-gradient" x1=".5" x2=".5" y2="1" gradientUnits="objectBoundingBox">
            <stop offset="0" stop-color="#c6dec6"/>
            <stop offset="1" stop-color="#fff"/>
        </linearGradient>
    </defs>
    <path id="Green-Gradient" d="M-2487.587 1375.946V148.91h1920v5.185a1218.585 1218.585 0 0 0-91.481 46.639A1017.258 1017.258 0 0 0-769.14 272.1c-19.345 14.514-37.538 29.474-54.072 44.463a585 585 0 0 0-49.2 50.048c-7.731 8.927-15.058 18.03-21.779 27.056-6.976 9.369-13.493 18.917-19.37 28.378-6.09 9.8-11.663 19.789-16.563 29.675a315.27 315.27 0 0 0-13.361 30.947 359.918 359.918 0 0 1-17.335 39.565 360.4 360.4 0 0 1-21.274 36.138 374.088 374.088 0 0 1-24.773 32.856 399.929 399.929 0 0 1-27.833 29.724c-9.527 9.2-19.773 18.188-30.452 26.726-10.3 8.237-21.28 16.27-32.632 23.879-10.927 7.324-22.492 14.449-34.371 21.176-11.413 6.463-23.415 12.726-35.671 18.617-44.187 21.237-93.6 38.657-146.878 51.776-22.769 5.607-46.251 10.418-69.8 14.3-21.019 3.465-42.106 6.195-62.674 8.114a929.187 929.187 0 0 0-131.574 22.1 977.677 977.677 0 0 0-75.487 21.522 991.48 991.48 0 0 0-80.113 30.287 1004.924 1004.924 0 0 0-83.359 40.389 1020.364 1020.364 0 0 0-42.466 24.4 1035.104 1035.104 0 0 0-42.76 27.427 1053.212 1053.212 0 0 0-42.88 30.622 1079.194 1079.194 0 0 0-42.83 33.983 1111.714 1111.714 0 0 0-42.606 37.511 1149.45 1149.45 0 0 0-42.209 41.207c-25.992 26.708-52.875 52.344-79.9 76.2-24.643 21.747-49.969 42.507-75.272 61.7a1118.534 1118.534 0 0 1-129.835 85.443c-17.208 9.609-34.419 18.524-51.156 26.5-13.6 6.478-26.96 12.371-39.708 17.516-22.245 8.977-35.772 12.908-38.258 13.6z" class="cls-1" transform="translate(2487.587 -148.909)"/>
</svg>
