<svg xmlns="http://www.w3.org/2000/svg" width="369.972" height="291.609" viewBox="0 0 369.972 291.609"><defs><style>.a{fill:#f8f8f8;}.b,.f{fill:#fff;}.b,.d,.e,.h{stroke:#28699a;}.b,.e{stroke-width:1.5px;}.c{fill:#fff6ce;}.d,.e{fill:none;stroke-miterlimit:10;}.d{stroke-width:2px;}.g,.h,.k{fill:#28699a;}.h{stroke-width:0.2px;}.i{fill:#d8fbff;}.j,.k{stroke:none;}</style></defs><g transform="translate(-1086.496 -425)"><g transform="translate(1086.5 425)"><g transform="translate(37.429)"><path class="a" d="M642.146,272.671A154.3,154.3,0,1,0,391.163,392.916H584.529A154,154,0,0,0,642.146,272.671Z" transform="translate(-339.546 -118.371)"/></g><g transform="translate(105.187 24.588)"><g transform="translate(46.37 181.096)"><path class="b" d="M0,0H36.768a0,0,0,0,1,0,0V14.148A14.307,14.307,0,0,1,22.461,28.456H14.307A14.307,14.307,0,0,1,0,14.148V0A0,0,0,0,1,0,0Z" transform="translate(18.428 39.961)"/><path class="b" d="M0,0H58.629a0,0,0,0,1,0,0V43.422A10.767,10.767,0,0,1,47.863,54.189h-37.1A10.767,10.767,0,0,1,0,43.422V0A0,0,0,0,1,0,0Z" transform="translate(7.658)"/><path class="b" d="M505.212,332.1H445.8a7.062,7.062,0,0,1-7.063-7.063h0a7.062,7.062,0,0,1,7.063-7.062h59.41a7.062,7.062,0,0,1,7.063,7.062h0A7.062,7.062,0,0,1,505.212,332.1Z" transform="translate(-438.739 -307.101)"/><path class="b" d="M505.212,351.841H445.8a7.063,7.063,0,0,1-7.063-7.063h0a7.063,7.063,0,0,1,7.063-7.063h59.41a7.063,7.063,0,0,1,7.063,7.063h0A7.063,7.063,0,0,1,505.212,351.841Z" transform="translate(-438.739 -305.424)"/></g><path class="b" d="M562.757,224.462c0-42.561-37.331-77.063-83.38-77.063S396,181.9,396,224.462c0,25.506,13.409,48.113,34.063,62.139l-.005,0s9.683,5.323,10.759,19.76v10.371c0,4.866,4.268,8.811,9.533,8.811h58.17c5.265,0,9.532-3.945,9.532-8.811V306.273c1.107-14.384,10.577-19.621,10.577-19.621l0,0C549.317,272.626,562.757,250,562.757,224.462Z" transform="translate(-395.999 -140.493)"/><circle class="c" cx="67.826" cy="67.826" r="67.826" transform="translate(12.671 132.535) rotate(-77.695)"/><g transform="translate(51.308 86.533)"><path class="d" d="M466.566,319.312V232.43a11.639,11.639,0,0,0-11.638-11.638h0A11.639,11.639,0,0,0,443.29,232.43v6.5a11.638,11.638,0,0,0,11.638,11.638l20.092.054" transform="translate(-443.29 -220.792)"/><path class="d" d="M481.3,319.312V232.43a11.639,11.639,0,0,1,11.638-11.638h0a11.639,11.639,0,0,1,11.638,11.638v6.5a11.638,11.638,0,0,1-11.638,11.638l-21.635.054" transform="translate(-440.911 -220.792)"/></g></g><g transform="translate(0 272.862)"><line class="e" y1="2.17" x2="369.964"/><line class="e" x2="109.303" transform="translate(130 17.998)"/></g></g><g transform="translate(1183.196 597.059) rotate(180)"><path class="f" d="M392.112,512.037l2.5-5.223L388.741,505Z" transform="translate(-388.157 -504.409)"/><g class="g" transform="translate(-386.685 -502.933)"><path class="j" d="M 390.6399536132812 511.2453918457031 C 390.3782653808594 511.2453918457031 390.1358947753906 511.0927124023438 390.0224609375 510.8563842773438 L 386.6515502929688 503.8146057128906 C 386.5344543457031 503.5693664550781 386.5736083984375 503.2776489257812 386.7512512207031 503.0713500976562 C 386.8818054199219 502.9196472167969 387.0693969726562 502.8326721191406 387.2659301757812 502.8326721191406 C 387.3362426757812 502.8326721191406 387.4060668945312 502.8438110351562 387.4734802246094 502.8658142089844 L 393.3408203125 504.6842041015625 C 393.5307922363281 504.7431640625 393.6855163574219 504.8814697265625 393.7653198242188 505.0636291503906 C 393.8454284667969 505.2463989257812 393.8419799804688 505.4541625976562 393.7558898925781 505.6336364746094 L 391.2577514648438 510.8562622070312 C 391.1446228027344 511.0926513671875 390.9021301269531 511.2453918457031 390.6399536132812 511.2453918457031 Z M 388.5635986328125 504.6368713378906 L 390.6399230957031 508.9747009277344 L 392.1789855957031 505.7577209472656 L 388.5635986328125 504.6368713378906 Z"/><path class="k" d="M 390.6399536132812 511.1453857421875 C 390.8651123046875 511.1453857421875 391.0703125 511.0162963867188 391.1675415039062 510.8131103515625 L 393.6657104492188 505.5903930664062 C 393.7390747070312 505.4375 393.7418823242188 505.25927734375 393.6737060546875 505.103759765625 C 393.605712890625 504.9485473632812 393.4732666015625 504.8300170898438 393.3112182617188 504.7797241210938 L 387.4424438476562 502.9608764648438 C 387.3840026855469 502.9418029785156 387.3245849609375 502.9326477050781 387.2659301757812 502.9326477050781 C 387.0991821289062 502.9326477050781 386.9389038085938 503.0066223144531 386.8270263671875 503.1365966796875 C 386.6752319335938 503.3128662109375 386.6419677734375 503.5624389648438 386.7417602539062 503.7714233398438 L 390.1126098632812 510.8131103515625 C 390.2101440429688 511.0162963867188 390.4151000976562 511.1453857421875 390.6399536132812 511.1453857421875 M 388.3745727539062 504.4735717773438 L 392.3191528320312 505.6964721679688 L 390.6399536132812 509.2063598632812 L 388.3745727539062 504.4735717773438 M 390.6399536132812 511.3453979492188 C 390.3400573730469 511.3453979492188 390.0622863769531 511.1704406738281 389.9323120117188 510.899658203125 L 386.5613708496094 503.8577880859375 C 386.4271240234375 503.5766906738281 386.4719543457031 503.242431640625 386.6754760742188 503.006103515625 C 386.8250427246094 502.8323364257812 387.0402526855469 502.732666015625 387.2659301757812 502.732666015625 C 387.3468017578125 502.732666015625 387.4270935058594 502.7454833984375 387.5045166015625 502.770751953125 L 393.3704223632812 504.5886840820312 C 393.5881652832031 504.6562805175781 393.7654418945312 504.8147583007812 393.8569030761719 505.0234985351562 C 393.94873046875 505.2329711914062 393.9447631835938 505.4711303710938 393.8460388183594 505.6769104003906 L 391.3479614257812 510.8994140625 C 391.2183227539062 511.1703491210938 390.9404296875 511.3453979492188 390.6399536132812 511.3453979492188 Z M 388.7526245117188 504.8001708984375 L 390.6399230957031 508.7430419921875 L 392.0388488769531 505.8189697265625 L 388.7526245117188 504.8001708984375 Z"/></g></g><g transform="translate(1189.482 699.597) rotate(180)"><path class="c" d="M382.484,156.091v-7.1a4.687,4.687,0,0,0-4.67-4.7H371.3a4.687,4.687,0,0,0-4.667,4.7v7.1Z" transform="translate(-366.045 -143.698)"/><path class="h" d="M384.47,157.673H365.158a.584.584,0,0,1-.585-.585V148.5a6.279,6.279,0,0,1,6.27-6.273h7.939a6.28,6.28,0,0,1,6.273,6.273v8.589A.584.584,0,0,1,384.47,157.673ZM365.742,156.5h18.144v-8a5.11,5.11,0,0,0-5.1-5.1h-7.939a5.108,5.108,0,0,0-5.1,5.1Z" transform="translate(-364.573 -142.226)"/></g><g transform="translate(1189.239 685.32) rotate(180)"><path class="f" d="M385.09,197.008l1.218-2.5H367.485l1.22,2.5-1.22,3.266,1.22,3.2-1.22,2.564h18.823l-1.218-2.564,1.218-3.2Z" transform="translate(-366.9 -193.923)"/><g class="g" transform="translate(-365.428 -192.451)"><path class="j" d="M 384.8358459472656 205.2525634765625 L 366.0128173828125 205.2525634765625 C 365.7764282226562 205.2525634765625 365.5600280761719 205.1330871582031 365.4338684082031 204.9329833984375 C 365.3077392578125 204.7337341308594 365.2929382324219 204.4872741699219 365.394287109375 204.2738800048828 L 366.4891662597656 201.9740295410156 L 365.3729858398438 199.0450592041016 C 365.3137512207031 198.8900146484375 365.3132629394531 198.7185211181641 365.3716125488281 198.562255859375 L 366.4891357421875 195.5721588134766 L 365.3976135253906 193.3363189697266 C 365.2934265136719 193.1225738525391 365.3061218261719 192.874755859375 365.4316101074219 192.6733245849609 C 365.5585021972656 192.4713745117188 365.7756958007812 192.3510131835938 366.0128173828125 192.3510131835938 L 384.8358459472656 192.3510131835938 C 385.0733642578125 192.3510131835938 385.2903137207031 192.4714813232422 385.4161987304688 192.6732635498047 C 385.5406188964844 192.8711853027344 385.5541381835938 193.1249542236328 385.4512939453125 193.3352508544922 L 384.3614807128906 195.5721435546875 L 385.47705078125 198.5623016357422 C 385.5351867675781 198.7192840576172 385.53466796875 198.8906707763672 385.4756469726562 199.0451354980469 L 384.3614501953125 201.9740447998047 L 385.4543762207031 204.2738647460938 C 385.5552673339844 204.4870147705078 385.5404663085938 204.7337188720703 385.4148864746094 204.9339447021484 C 385.2878112792969 205.1336517333984 385.0714721679688 205.2525634765625 384.8358459472656 205.2525634765625 Z M 367.0968017578125 203.8833465576172 L 383.7526245117188 203.8833465576172 L 382.9992065429688 202.2975921630859 C 382.919189453125 202.1301422119141 382.9112854003906 201.9341125488281 382.9776306152344 201.7599945068359 L 384.1044311523438 198.7990264892578 L 382.9762573242188 195.7755737304688 C 382.9109802246094 195.6013031005859 382.9201965332031 195.4048919677734 383.0014953613281 195.2368011474609 L 383.7406311035156 193.72021484375 L 367.1087036132812 193.72021484375 L 367.848388671875 195.2353668212891 C 367.9306640625 195.4046173095703 367.940185546875 195.6015625 367.8745422363281 195.7758636474609 L 366.7447814941406 198.7990417480469 L 367.8732604980469 201.7599945068359 C 367.9396057128906 201.9339294433594 367.9318542480469 202.1299285888672 367.8519287109375 202.2976837158203 L 367.0968017578125 203.8833465576172 Z"/><path class="k" d="M 384.8358459472656 205.1525573730469 C 385.0360107421875 205.1525573730469 385.2227478027344 205.0496368408203 385.3301696777344 204.8807983398438 C 385.4367980957031 204.7108154296875 385.4498901367188 204.4981536865234 385.3640441894531 204.3167877197266 L 384.2528076171875 201.9783935546875 L 385.3822326660156 199.0094451904297 C 385.4328308105469 198.8769836425781 385.4328308105469 198.7308502197266 385.3833618164062 198.5972442626953 L 384.2528076171875 195.5669097900391 L 385.3614501953125 193.2913208007812 C 385.4495849609375 193.111083984375 385.4382019042969 192.8961791992188 385.3313598632812 192.7261962890625 C 385.2244262695312 192.5547790527344 385.037109375 192.4510192871094 384.8358459472656 192.4510192871094 L 366.0128173828125 192.4510192871094 C 365.811279296875 192.4510192871094 365.6242065429688 192.5547790527344 365.5164794921875 192.7261962890625 C 365.4098815917969 192.8973236083984 365.3990783691406 193.111083984375 365.4874877929688 193.2924499511719 L 366.5978393554688 195.5669097900391 L 365.4653015136719 198.5972442626953 C 365.4158325195312 198.7297058105469 365.4158325195312 198.8769836425781 365.4664306640625 199.0094451904297 L 366.5978393554688 201.9783935546875 L 365.484619140625 204.3167877197266 C 365.3984680175781 204.4981536865234 365.4115905761719 204.7108154296875 365.5184631347656 204.8796539306641 C 365.6256103515625 205.0496368408203 365.8124084472656 205.1525573730469 366.0128173828125 205.1525573730469 L 384.8358459472656 205.1525573730469 M 366.9486083984375 193.6202087402344 L 383.9006042480469 193.6202087402344 L 383.0915222167969 195.2803649902344 C 383.0219116210938 195.4242248535156 383.0139465332031 195.5910797119141 383.0699462890625 195.7406158447266 L 384.2113037109375 198.7993774414062 L 383.0710754394531 201.7955932617188 C 383.0145263671875 201.9439849853516 383.0207824707031 202.11083984375 383.0895385742188 202.2546844482422 L 383.9108581542969 203.9833526611328 L 366.9384155273438 203.9833526611328 L 367.7616577148438 202.2546844482422 C 367.8301696777344 202.11083984375 367.83642578125 201.9439849853516 367.7798156738281 201.7955932617188 L 366.6379089355469 198.7993774414062 L 367.7809753417969 195.7406158447266 C 367.8372802734375 195.5910797119141 367.8290100097656 195.4242248535156 367.7585144042969 195.2792358398438 L 366.9486083984375 193.6202087402344 M 384.8358459472656 205.3525543212891 L 366.0128173828125 205.3525543212891 C 365.7418823242188 205.3525543212891 365.4938354492188 205.2156372070312 365.3492736816406 204.9863128662109 C 365.2048034667969 204.7580413818359 365.1877746582031 204.4755554199219 365.3039855957031 204.2309722900391 L 366.3804931640625 201.9696807861328 L 365.279541015625 199.0806732177734 C 365.2116394042969 198.9029388427734 365.2110595703125 198.7063598632812 365.2779541015625 198.5272827148438 L 366.3804016113281 195.5774078369141 L 365.3077392578125 193.3801879882812 C 365.1883544921875 193.13525390625 365.2029418945312 192.8512725830078 365.3467102050781 192.6204528808594 C 365.4922485351562 192.3888854980469 365.7410888671875 192.2510223388672 366.0128173828125 192.2510223388672 L 384.8358459472656 192.2510223388672 C 385.1080932617188 192.2510223388672 385.3567810058594 192.3890838623047 385.5010681152344 192.6203308105469 C 385.6435546875 192.8470458984375 385.6590576171875 193.1380310058594 385.5411376953125 193.3791809082031 L 384.4701843261719 195.577392578125 L 385.5707397460938 198.52734375 C 385.6373901367188 198.7073059082031 385.63671875 198.9037017822266 385.5690612792969 199.0808258056641 L 384.4700927734375 201.9696960449219 L 385.544677734375 204.2309417724609 C 385.6603088378906 204.4752349853516 385.6434020996094 204.7577972412109 385.4996032714844 204.9870758056641 C 385.3537292480469 205.2163391113281 385.1058654785156 205.3525543212891 384.8358459472656 205.3525543212891 Z M 367.2551879882812 203.7833557128906 L 383.5943908691406 203.7833557128906 L 382.9088745117188 202.3405151367188 C 382.8171997070312 202.148681640625 382.8081359863281 201.9239654541016 382.8841857910156 201.7243804931641 L 383.9975891113281 198.7986907958984 L 382.882568359375 195.8105316162109 C 382.8078002929688 195.6108856201172 382.8183288574219 195.3858184814453 382.9114990234375 195.1932525634766 L 383.5806579589844 193.8202056884766 L 367.268798828125 193.8202056884766 L 367.938232421875 195.1914978027344 C 368.0325622558594 195.3854827880859 368.0434265136719 195.6112060546875 367.9681396484375 195.8110961914062 L 366.8516845703125 198.7986907958984 L 367.9667053222656 201.724365234375 C 368.0427551269531 201.9236907958984 368.0338134765625 202.1483612060547 367.9421997070312 202.3406982421875 L 367.2551879882812 203.7833557128906 Z"/></g></g><g transform="translate(1189.239 679.554) rotate(180)"><line class="f" x2="18.823" transform="translate(0.584 0.585)"/><path class="h" d="M384.837,213.9H366.013a.585.585,0,0,1,0-1.169h18.823a.585.585,0,0,1,0,1.169Z" transform="translate(-365.429 -212.734)"/></g><g transform="translate(1189.239 673.787) rotate(180)"><g transform="translate(0 0)"><g transform="translate(0.584 0.585)"><path class="i" d="M369.208,293.128l1.072,4.39.815-2.2h.969V235.075h-4.579v60.263h.929Z" transform="translate(-367.485 -229.93)"/></g><path class="h" d="M377.5,300.615a.585.585,0,0,1-.425-.184l-4.055-4.3-2.846,2.05a.584.584,0,0,1-.342.111h-3.821a.584.584,0,0,1-.584-.584V233.6a.584.584,0,0,1,.584-.584h18.823a.584.584,0,0,1,.584.584v64.091a.584.584,0,0,1-.584.585h-3.8l-3.2,2.231A.581.581,0,0,1,377.5,300.615Zm-4.407-5.839a.584.584,0,0,1,.426.184l4.062,4.3,2.936-2.047a.584.584,0,0,1,.334-.1h3.4V234.188H366.6v62.939h3.047l3.108-2.24A.583.583,0,0,1,373.095,294.776Z" transform="translate(-365.429 -233.019)"/></g><g transform="translate(0 61.757)"><path class="f" d="M382.324,454.655l-3.35,2.336-4.407-4.67-3.261,2.351h-3.821l6.043,12.623,5.869,1.819,6.911-14.442v-.017Z" transform="translate(-366.9 -451.737)"/><g class="g" transform="translate(-365.428 -450.265)"><path class="j" d="M 377.9244995117188 468.3267517089844 C 377.8530883789062 468.3267517089844 377.7843933105469 468.3162231445312 377.7202758789062 468.2954406738281 L 371.8523559570312 466.47705078125 C 371.6715087890625 466.4212646484375 371.5202331542969 466.2906799316406 371.4374084472656 466.1187744140625 L 365.3948364257812 453.4957580566406 C 365.2928771972656 453.2821655273438 365.3074340820312 453.0352783203125 365.4337463378906 452.8352355957031 C 365.5591125488281 452.63525390625 365.7755737304688 452.5157165527344 366.0126342773438 452.5157165527344 L 369.6119384765625 452.5157165527344 L 372.6939697265625 450.2942504882812 C 372.8109130859375 450.2095336914062 372.9494018554688 450.1646728515625 373.0943298339844 450.1646728515625 C 373.2825012207031 450.1646728515625 373.4640808105469 450.2431640625 373.5925903320312 450.3799743652344 L 377.5948791503906 454.6195068359375 L 380.4601135253906 452.6214599609375 C 380.5752563476562 452.5411682128906 380.7106323242188 452.4986877441406 380.8516235351562 452.4986877441406 L 384.835693359375 452.4986877441406 C 385.2131042480469 452.4986877441406 385.5201416015625 452.8057250976562 385.5201416015625 453.18310546875 C 385.5201416015625 453.2913513183594 385.4952392578125 453.408203125 385.4534912109375 453.4956359863281 L 378.5417175292969 467.9376525878906 C 378.4293212890625 468.1739196777344 378.18701171875 468.3267517089844 377.9244995117188 468.3267517089844 Z M 372.543212890625 465.2576904296875 L 377.5619812011719 466.8130493164062 L 383.75732421875 453.8678894042969 L 381.0669860839844 453.8678894042969 L 377.8932495117188 456.0808715820312 C 377.7773742675781 456.1614074707031 377.6419372558594 456.2039184570312 377.5015258789062 456.2039184570312 C 377.3136901855469 456.2039489746094 377.1321105957031 456.1254577636719 377.0033569335938 455.9886474609375 L 373.0081787109375 451.755859375 L 370.2336730957031 453.7551574707031 C 370.1163940429688 453.83984375 369.9779052734375 453.8846740722656 369.833251953125 453.8846740722656 L 367.0992126464844 453.8846740722656 L 372.543212890625 465.2576904296875 Z"/><path class="k" d="M 377.9244995117188 468.2267456054688 C 378.1439514160156 468.2267456054688 378.3525695800781 468.1024780273438 378.4515075683594 467.8944702148438 L 385.3632507324219 453.4525756835938 C 385.4008178710938 453.3738403320312 385.4201354980469 453.2698364257812 385.4201354980469 453.18310546875 C 385.4201354980469 452.8601684570312 385.1589050292969 452.5986938476562 384.835693359375 452.5986938476562 L 380.8516235351562 452.5986938476562 C 380.7324829101562 452.5986938476562 380.6153869628906 452.6350708007812 380.5173034667969 452.7034912109375 L 377.5813598632812 454.7508544921875 L 373.5196838378906 450.4484252929688 C 373.4055480957031 450.3268737792969 373.2503967285156 450.2646789550781 373.0943298339844 450.2646789550781 C 372.9748840332031 450.2646789550781 372.8548583984375 450.3011474609375 372.75244140625 450.3753662109375 L 369.6441955566406 452.61572265625 L 366.0126342773438 452.61572265625 C 365.8116760253906 452.61572265625 365.6248779296875 452.7186279296875 365.518310546875 452.8886108398438 C 365.4108276367188 453.058837890625 365.3983154296875 453.2709350585938 365.4850463867188 453.4525756835938 L 371.5274963378906 466.0753784179688 C 371.5985717773438 466.222900390625 371.7261962890625 466.33349609375 371.8819580078125 466.3815307617188 L 377.7510681152344 468.2003173828125 C 377.8081970214844 468.2188110351562 377.8664855957031 468.2267456054688 377.9244995117188 468.2267456054688 M 366.9404907226562 453.78466796875 L 369.833251953125 453.78466796875 C 369.9557495117188 453.78466796875 370.0751647949219 453.7462768554688 370.1752014160156 453.6740112304688 L 373.0207824707031 451.62353515625 L 377.0762023925781 455.9201049804688 C 377.1902465820312 456.0413208007812 377.3451232910156 456.1039428710938 377.5015258789062 456.1039123535156 C 377.6175842285156 456.1039123535156 377.7344665527344 456.0694274902344 377.8360595703125 455.9988403320312 L 381.0355529785156 453.7678833007812 L 383.9160461425781 453.7678833007812 L 377.6148986816406 466.9341430664062 L 372.4718627929688 465.3402709960938 L 366.9404907226562 453.78466796875 M 377.9244995117188 468.4267578125 C 377.8426208496094 468.4267578125 377.7635498046875 468.4145812988281 377.689453125 468.3905944824219 L 371.82275390625 466.5725708007812 C 371.6155395507812 466.5086669921875 371.4421691894531 466.3590393066406 371.3473205566406 466.1621704101562 L 365.3046569824219 453.5389099121094 C 365.187744140625 453.2940673828125 365.2044372558594 453.0111083984375 365.3492126464844 452.7818298339844 C 365.4927978515625 452.5527954101562 365.7409362792969 452.4157104492188 366.0126342773438 452.4157104492188 L 369.5796203613281 452.4157104492188 L 372.635498046875 450.2131042480469 C 372.7693786621094 450.1161193847656 372.9281921386719 450.064697265625 373.0943298339844 450.064697265625 C 373.3099975585938 450.064697265625 373.5181579589844 450.1546325683594 373.6654663085938 450.3115234375 L 377.6083984375 454.4881591796875 L 380.4028930664062 452.5394592285156 C 380.534912109375 452.4473876953125 380.6900634765625 452.398681640625 380.8516235351562 452.398681640625 L 384.835693359375 452.398681640625 C 385.2682495117188 452.398681640625 385.6201477050781 452.7505798339844 385.6201477050781 453.18310546875 C 385.6201477050781 453.3055419921875 385.5915832519531 453.4384765625 385.5437622070312 453.5387268066406 L 378.6318969726562 467.9808044433594 C 378.5031433105469 468.2515258789062 378.2253723144531 468.4267578125 377.9244995117188 468.4267578125 Z M 372.6145324707031 465.1751098632812 L 377.5090942382812 466.6919555664062 L 383.5986022949219 453.9678955078125 L 381.098388671875 453.9678955078125 L 377.950439453125 456.1629028320312 C 377.8175964355469 456.2552185058594 377.6624755859375 456.3039245605469 377.5015258789062 456.3039245605469 C 377.2862243652344 456.3039245605469 377.078125 456.2139892578125 376.9305419921875 456.0571594238281 L 372.9955749511719 451.8882141113281 L 370.2921142578125 453.8362731933594 C 370.1577758789062 453.9333190917969 369.9990539550781 453.9846496582031 369.833251953125 453.9846496582031 L 367.2579650878906 453.9846496582031 L 372.6145324707031 465.1751098632812 Z"/></g></g></g><g transform="translate(1182.157 673.787) rotate(180)"><line class="f" y1="61.757" transform="translate(0.585 0.585)"/><g class="g" transform="translate(-390.34 -233.019)"><path class="j" d="M 390.9244995117188 296.0450744628906 C 390.5470886230469 296.0450744628906 390.2400512695312 295.7378845214844 390.2400512695312 295.3602905273438 L 390.2400512695312 233.6034698486328 C 390.2400512695312 233.2260589599609 390.5470886230469 232.9189910888672 390.9244995117188 232.9189910888672 C 391.3020629882812 232.9189910888672 391.6092529296875 233.2260589599609 391.6092529296875 233.6034698486328 L 391.6092529296875 295.3602905273438 C 391.6092529296875 295.7378845214844 391.3020629882812 296.0450744628906 390.9244995117188 296.0450744628906 Z"/><path class="k" d="M 390.9244995117188 295.945068359375 C 391.2477111816406 295.945068359375 391.5092468261719 295.6835021972656 391.5092468261719 295.3602905273438 L 391.5092468261719 233.6034698486328 C 391.5092468261719 233.2805328369141 391.2477111816406 233.0189971923828 390.9244995117188 233.0189971923828 C 390.6015625 233.0189971923828 390.3400573730469 233.2805328369141 390.3400573730469 233.6034698486328 L 390.3400573730469 295.3602905273438 C 390.3400573730469 295.6835021972656 390.6015625 295.945068359375 390.9244995117188 295.945068359375 M 390.9244995117188 296.1450500488281 C 390.4919738769531 296.1450500488281 390.1400756835938 295.7930297851562 390.1400756835938 295.3602905273438 L 390.1400756835938 233.6034698486328 C 390.1400756835938 233.1709136962891 390.4919738769531 232.8190002441406 390.9244995117188 232.8190002441406 C 391.3572082519531 232.8190002441406 391.709228515625 233.1709136962891 391.709228515625 233.6034698486328 L 391.709228515625 295.3602905273438 C 391.709228515625 295.7930297851562 391.3572082519531 296.1450500488281 390.9244995117188 296.1450500488281 Z"/></g></g><g transform="translate(1174.4 644.111) rotate(180)"><line class="f" y1="34.415" transform="translate(0.585 0.584)"/><g class="g" transform="translate(-417.629 -337.413)"><path class="j" d="M 418.2135009765625 373.0966491699219 C 417.8360595703125 373.0966491699219 417.5289916992188 372.7894897460938 417.5289916992188 372.4119262695312 L 417.5289916992188 337.9974670410156 C 417.5289916992188 337.6200561523438 417.8360595703125 337.3130187988281 418.2135009765625 337.3130187988281 C 418.591064453125 337.3130187988281 418.8982238769531 337.6200561523438 418.8982238769531 337.9974670410156 L 418.8982238769531 372.4119262695312 C 418.8982238769531 372.7894897460938 418.591064453125 373.0966491699219 418.2135009765625 373.0966491699219 Z"/><path class="k" d="M 418.2135009765625 372.9966430664062 C 418.5367126464844 372.9966430664062 418.7982177734375 372.7351379394531 418.7982177734375 372.4119262695312 L 418.7982177734375 337.9974670410156 C 418.7982177734375 337.6742553710938 418.5367126464844 337.4130249023438 418.2135009765625 337.4130249023438 C 417.8905639648438 337.4130249023438 417.6289978027344 337.6742553710938 417.6289978027344 337.9974670410156 L 417.6289978027344 372.4119262695312 C 417.6289978027344 372.7351379394531 417.8905639648438 372.9966430664062 418.2135009765625 372.9966430664062 M 418.2135009765625 373.1966552734375 C 417.7809143066406 373.1966552734375 417.4289855957031 372.8446350097656 417.4289855957031 372.4119262695312 L 417.4289855957031 337.9974670410156 C 417.4289855957031 337.5649108886719 417.7809143066406 337.2130126953125 418.2135009765625 337.2130126953125 C 418.6461791992188 337.2130126953125 418.9981994628906 337.5649108886719 418.9981994628906 337.9974670410156 L 418.9981994628906 372.4119262695312 C 418.9981994628906 372.8446350097656 418.6461791992188 373.1966552734375 418.2135009765625 373.1966552734375 Z"/></g></g><g transform="translate(1174.4 659.331) rotate(180)"><line class="f" y1="9.27" transform="translate(0.585 0.585)"/></g></g></svg>