<svg xmlns="http://www.w3.org/2000/svg" width="373.302" height="333.25" viewBox="0 0 373.302 333.25"><defs><style>.a{fill:#f2f6f9;}.b,.g{fill:#03dbf4;}.c,.e{fill:none;}.c{stroke:#4a47d5;stroke-linecap:round;stroke-miterlimit:10;stroke-width:1.5px;}.d,.f,.h,.k{fill:#28699a;}.h{stroke:#28699a;stroke-width:0.8px;}.i{fill:#00e5ff;stroke:#00e5ff;stroke-width:0.5px;}.j,.k,.l{stroke:none;}.l{fill:#fff;}</style></defs><g transform="translate(-1153 -391.616)"><g transform="translate(82 10)"><path class="a" d="M48.865,172.136c-3.923-1.583-7.75-3.36-11.568-5.181a1.508,1.508,0,0,1-1.038-1.5,20.538,20.538,0,0,0-.317-3.008,1.65,1.65,0,0,1,.519-1.6,12.541,12.541,0,0,0,3.888-6.9c.07-.413.29-.537.686-.554a1.564,1.564,0,0,0,1.583-1.416c.255-1.451.493-2.912.73-4.363a1.437,1.437,0,0,0-1.064-1.8c-.589-.167-.484-.44-.431-.871a15.191,15.191,0,0,0-.035-5.911,13.529,13.529,0,0,0-9.395-9.668,6.337,6.337,0,0,0-5.172.449,6.14,6.14,0,0,1-2.894.4c-3.932.167-7.512,3.774-8.6,7.917a15.348,15.348,0,0,0-.378,6.976c.088.4.026.563-.361.73a1.553,1.553,0,0,0-.941,1.891c.255,1.425.422,2.859.677,4.275a1.562,1.562,0,0,0,1.513,1.381.7.7,0,0,1,.757.6,16,16,0,0,0,4.134,7.275.912.912,0,0,1,.29.809c-.141,1.232-.264,2.463-.369,3.7a1.217,1.217,0,0,1-.8,1.135c-3.457,1.636-6.905,3.29-10.468,4.671a22.429,22.429,0,0,0-6.756,3.747,8.166,8.166,0,0,0-3.07,6.606c.053,2.6.009,5.181.018,7.767a4.283,4.283,0,0,0,2.463,3.976,5.885,5.885,0,0,0,2.929.589h23.3c5.647,0,11.295.026,16.942-.009,2.6-.009,11.735-2.234,11.761-4.557.035-2.657.018-5.313.009-7.97a8.013,8.013,0,0,0-3-6.342A19.827,19.827,0,0,0,48.865,172.136Zm39.049,9.808a4.831,4.831,0,0,0-2.551-4.3,14.912,14.912,0,0,0-3.95-1.46c-3.272-.836-6.571-1.61-9.808-2.6a2.043,2.043,0,0,1-1.627-2.129,4.215,4.215,0,0,0-.079-1c-.15-.616.114-.73.669-.765a26.6,26.6,0,0,0,9.659-2.569c1.328-.616,1.363-.651.422-1.768a15.494,15.494,0,0,1-3.923-9.3c-.114-2.076-.044-4.161-.1-6.246a12.215,12.215,0,0,0-1.223-5.348,5.973,5.973,0,0,0-5.234-3.545c-.774-.044-1.372-.026-1.733-.9a2.42,2.42,0,0,0-1.707-1.161,10.177,10.177,0,0,0-3.994-.2c-4.266.369-7.416,2.357-9.2,6.325a19.315,19.315,0,0,0-1.5,6.844,56.428,56.428,0,0,1-.413,6.334c-.387,2.182-.757,4.372-2.234,6.166a13.615,13.615,0,0,1-2.419,2.164,5.269,5.269,0,0,0,1.478.968,22.267,22.267,0,0,0,9.712,2.3c1.363.026,1.363.035,1.214,1.346-.026.229-.044.466-.053.7a1.588,1.588,0,0,1-1.2,1.566c-.7.211-.818.4-.273,1.012a10.059,10.059,0,0,1,2.7,7.072c-.018,2.252-.035,4.5.009,6.756.035,2.032-.026,4.029-1.416,5.92.493.035.757.062,1.02.062q8.986,0,17.954,0c2.146,0,4.3.044,6.448-.079a3.493,3.493,0,0,0,3.352-3.51c.035-2.885.035-5.779-.009-8.665Z" transform="translate(1182.678 252.609)"/><rect class="b" width="50" height="6" rx="1" transform="translate(1183 441)"/><rect class="b" width="20" height="6" rx="1" transform="translate(1243 441)"/><path class="b" d="M6.77.778a1,1,0,0,1,1.459,0l5.192,5.538A1,1,0,0,1,12.692,8H2.308a1,1,0,0,1-.73-1.684Z" transform="translate(1263 527) rotate(180)"/><rect class="a" width="14" height="21" rx="3" transform="translate(1366 677)"/><g transform="translate(1109.502 416.972)"><path class="c" d="M499.5,200.034s15.639-18.767,44.832-37.534" transform="translate(-499.5 -134.871)"/><path class="c" d="M666,136a148.477,148.477,0,0,1,52.13,13.554" transform="translate(-492.407 -136)"/><path class="c" d="M773,193s13.554,16.682,18.767,29.193" transform="translate(-487.849 -133.572)"/><path class="c" d="M805,260s5.213,26.065,2.085,46.917" transform="translate(-486.486 -130.718)"/><path class="c" d="M733.326,417.3s-126.3,43.186-154.826-80.8" transform="translate(-496.135 -127.459)"/><path class="c" d="M583.5,291.119A99.12,99.12,0,0,1,611.65,251.5" transform="translate(-495.922 -131.08)"/><path class="c" d="M671,239s25.022,3.128,40.661,22.937" transform="translate(-492.194 -131.612)"/><path class="c" d="M725.511,299s1.043,26.065-12.511,39.619" transform="translate(-490.405 -129.056)"/><path class="c" d="M671.626,358.3s-47.96-2.085-38.576-56.3" transform="translate(-493.863 -128.928)"/><g transform="translate(250.816 258.517)"><path class="d" d="M24.136,2H7.981A3.234,3.234,0,0,0,4.75,5.231V31.079A3.234,3.234,0,0,0,7.981,34.31H24.136a3.234,3.234,0,0,0,3.231-3.231V5.231A3.234,3.234,0,0,0,24.136,2ZM7.981,31.079V5.231H24.136l0,25.848Z" transform="translate(-4.75 -2)"/><ellipse class="b" cx="2" cy="1.5" rx="2" ry="1.5" transform="translate(9.682 24.512)"/></g><rect class="b" width="4" height="11" rx="1" transform="translate(194.498 219.028)"/><path class="d" d="M25.876,12a3.711,3.711,0,0,0-2.845-1.336H17.39l.693-1.769A5.109,5.109,0,0,0,13.27,2a1.237,1.237,0,0,0-1.126.73L8.619,10.66H5.711A3.711,3.711,0,0,0,2,14.371v8.66a3.711,3.711,0,0,0,3.711,3.711H21.46A3.711,3.711,0,0,0,25.109,23.7l1.571-8.66A3.711,3.711,0,0,0,25.876,12ZM8.186,24.268H5.711a1.237,1.237,0,0,1-1.237-1.237v-8.66a1.237,1.237,0,0,1,1.237-1.237H8.186Zm16.082-9.674L22.7,23.254a1.237,1.237,0,0,1-1.237,1.014H10.66V12.157l3.365-7.571a2.61,2.61,0,0,1,1.707,3.439l-.656,1.769a2.474,2.474,0,0,0,2.313,3.34h5.641a1.262,1.262,0,0,1,1.237,1.46Z" transform="translate(188.312 204.813)"/></g><circle class="b" cx="12.5" cy="12.5" r="12.5" transform="translate(1074 492)"/><path class="d" d="M41.335,39.462l-10.778-10.6a17.035,17.035,0,0,0,4.557-11.579A17.417,17.417,0,0,0,17.559,0,17.416,17.416,0,0,0,0,17.279,17.421,17.421,0,0,0,17.559,34.559,17.669,17.669,0,0,0,28.608,30.7L39.424,41.339a1.37,1.37,0,0,0,1.911,0,1.308,1.308,0,0,0,0-1.878ZM17.559,31.9A14.738,14.738,0,0,1,2.7,17.279,14.742,14.742,0,0,1,17.559,2.654,14.74,14.74,0,0,1,32.41,17.279,14.736,14.736,0,0,1,17.559,31.9Z" transform="translate(1071 485.176)"/><g class="e" transform="translate(1176.627 254.91)"><path class="j" d="M48.865,172.136c-3.923-1.583-7.75-3.36-11.568-5.181a1.508,1.508,0,0,1-1.038-1.5,20.538,20.538,0,0,0-.317-3.008,1.65,1.65,0,0,1,.519-1.6,12.541,12.541,0,0,0,3.888-6.9c.07-.413.29-.537.686-.554a1.564,1.564,0,0,0,1.583-1.416c.255-1.451.493-2.912.73-4.363a1.437,1.437,0,0,0-1.064-1.8c-.589-.167-.484-.44-.431-.871a15.191,15.191,0,0,0-.035-5.911,13.529,13.529,0,0,0-9.395-9.668,6.337,6.337,0,0,0-5.172.449,6.14,6.14,0,0,1-2.894.4c-3.932.167-7.512,3.774-8.6,7.917a15.348,15.348,0,0,0-.378,6.976c.088.4.026.563-.361.73a1.553,1.553,0,0,0-.941,1.891c.255,1.425.422,2.859.677,4.275a1.562,1.562,0,0,0,1.513,1.381.7.7,0,0,1,.757.6,16,16,0,0,0,4.134,7.275.912.912,0,0,1,.29.809c-.141,1.232-.264,2.463-.369,3.7a1.217,1.217,0,0,1-.8,1.135c-3.457,1.636-6.905,3.29-10.468,4.671a22.429,22.429,0,0,0-6.756,3.747,8.166,8.166,0,0,0-3.07,6.606c.053,2.6.009,5.181.018,7.767a4.283,4.283,0,0,0,2.463,3.976,5.885,5.885,0,0,0,2.929.589h23.3c5.647,0,11.295.026,16.942-.009a71.468,71.468,0,0,0,7.767-.106,4.444,4.444,0,0,0,3.994-4.451c.035-2.657.018-5.313.009-7.97a8.013,8.013,0,0,0-3-6.342A19.827,19.827,0,0,0,48.865,172.136Zm39.049,9.808a4.831,4.831,0,0,0-2.551-4.3,14.912,14.912,0,0,0-3.95-1.46c-3.272-.836-6.571-1.61-9.808-2.6a2.043,2.043,0,0,1-1.627-2.129,4.215,4.215,0,0,0-.079-1c-.15-.616.114-.73.669-.765a26.6,26.6,0,0,0,9.659-2.569c1.328-.616,1.363-.651.422-1.768a15.494,15.494,0,0,1-3.923-9.3c-.114-2.076-.044-4.161-.1-6.246a12.215,12.215,0,0,0-1.223-5.348,5.973,5.973,0,0,0-5.234-3.545c-.774-.044-1.372-.026-1.733-.9a2.42,2.42,0,0,0-1.707-1.161,10.177,10.177,0,0,0-3.994-.2c-4.266.369-7.416,2.357-9.2,6.325a19.315,19.315,0,0,0-1.5,6.844,56.428,56.428,0,0,1-.413,6.334c-.387,2.182-.757,4.372-2.234,6.166a13.615,13.615,0,0,1-2.419,2.164,5.269,5.269,0,0,0,1.478.968,22.267,22.267,0,0,0,9.712,2.3c1.363.026,1.363.035,1.214,1.346-.026.229-.044.466-.053.7a1.588,1.588,0,0,1-1.2,1.566c-.7.211-.818.4-.273,1.012a10.059,10.059,0,0,1,2.7,7.072c-.018,2.252-.035,4.5.009,6.756.035,2.032-.026,4.029-1.416,5.92.493.035.757.062,1.02.062q8.986,0,17.954,0c2.146,0,4.3.044,6.448-.079a3.493,3.493,0,0,0,3.352-3.51c.035-2.885.035-5.779-.009-8.665Z"/><path class="k" d="M 50.04818725585938 191.8968353271484 C 51.27238845825195 191.8968353271484 52.25326538085938 191.8505859375 53.13259887695312 191.7515716552734 C 54.2352409362793 191.6262359619141 54.98469543457031 190.7848052978516 54.99756240844727 189.6532897949219 C 55.02743911743164 187.3966979980469 55.01871871948242 185.0920104980469 55.01028060913086 182.8632049560547 C 55.00883865356445 182.4832153320312 55.00740051269531 182.1032409667969 55.00614547729492 181.7232513427734 L 55.00613403320312 181.7192840576172 L 55.00613403320312 181.7153015136719 C 55.00613403320312 179.8935699462891 54.31972122192383 178.4576263427734 52.84537506103516 177.1958312988281 C 51.54909515380859 176.0857391357422 49.99771881103516 175.1846313476562 47.96633529663086 174.3613433837891 C 43.88132095336914 172.7126922607422 39.92768096923828 170.8682861328125 36.26370620727539 169.1207580566406 L 36.25473403930664 169.1164855957031 L 36.24578857421875 169.1121215820312 C 34.6801872253418 168.3494110107422 33.87715911865234 167.1262664794922 33.85902786254883 165.4766845703125 L 33.85900115966797 165.4740142822266 L 33.85897445678711 165.4713439941406 C 33.85179901123047 164.6536712646484 33.72457504272461 163.7851104736328 33.57157516479492 162.8161926269531 L 33.57025527954102 162.8078155517578 L 33.56898880004883 162.7994232177734 C 33.35322189331055 161.367431640625 33.75869750976562 160.1342010498047 34.77420425415039 159.1337890625 C 36.64811325073242 157.2667083740234 37.66691970825195 155.4956207275391 37.98020172119141 153.5606536865234 L 37.98174667358398 153.5510711669922 L 37.9833869934082 153.5414733886719 C 38.20584487915039 152.2346649169922 39.08831024169922 151.3256530761719 40.34109497070312 151.0650939941406 C 40.5280647277832 149.9837188720703 40.70833587646484 148.8866271972656 40.88365936279297 147.8151550292969 C 40.17809295654297 147.4290771484375 39.81625747680664 146.8834075927734 39.63133239746094 146.4447326660156 C 39.32261276245117 145.7124176025391 39.41549301147461 145.0475769042969 39.46013259887695 144.7280731201172 C 39.4638671875 144.7013244628906 39.46785354614258 144.6735687255859 39.47082901000977 144.6493072509766 L 39.4920654296875 144.4735260009766 C 39.70174789428711 142.7391052246094 39.89981460571289 141.1008758544922 39.50296020507812 139.6566314697266 C 38.41018676757812 135.6498413085938 35.84664154052734 133.0258941650391 31.66804122924805 131.6355743408203 C 31.20930671691895 131.4834442138672 30.75165367126465 131.4063110351562 30.30776023864746 131.4063110351562 C 29.65216064453125 131.4063110351562 29.01361465454102 131.5750885009766 28.40985298156738 131.9079742431641 L 28.40719985961914 131.9094390869141 L 28.4045467376709 131.9109039306641 C 27.16146659851074 132.5921783447266 25.93212127685547 132.5921783447266 25.11862754821777 132.5921783447266 L 25.05564117431641 132.5921783447266 L 24.99374771118164 132.5921630859375 C 24.80840110778809 132.5921630859375 24.62800025939941 132.5927581787109 24.45888137817383 132.5999298095703 C 23.17411994934082 132.654541015625 21.81754684448242 133.2984924316406 20.63905334472656 134.4131774902344 C 19.41300010681152 135.5728302001953 18.50229454040527 137.1059417724609 18.07470703125 138.7301177978516 L 18.07358741760254 138.7343597412109 L 18.07245445251465 138.7385864257812 C 17.49469375610352 140.9010314941406 17.38180923461914 142.8239898681641 17.72753715515137 144.6168212890625 C 18.00181198120117 145.9292602539062 17.55246162414551 147.0563354492188 16.51279830932617 147.7362060546875 C 16.61245727539062 148.3296203613281 16.69945907592773 148.9178009033203 16.78416061401367 149.4904327392578 C 16.86436080932617 150.0326385498047 16.94122314453125 150.5522308349609 17.02634429931641 151.0647125244141 C 18.17146110534668 151.328369140625 18.99649429321289 152.1267852783203 19.33160018920898 153.323486328125 L 19.33829307556152 153.3473663330078 L 19.34448051452637 153.3713836669922 C 19.95261383056641 155.729736328125 21.1070671081543 157.7574920654297 22.87380027770996 159.5705261230469 L 22.87934684753418 159.5762176513672 L 22.88486671447754 159.5819396972656 C 23.82189559936523 160.5563507080078 23.91689682006836 161.6155090332031 23.82832717895508 162.3395080566406 C 23.69066619873047 163.5451049804688 23.56930732727051 164.7619171142578 23.46759605407715 165.9564208984375 C 23.35152053833008 167.3858795166016 22.59945678710938 168.4610595703125 21.29207420349121 169.0669403076172 L 20.65641403198242 169.3679656982422 C 17.43137359619141 170.8955841064453 14.09653377532959 172.4752197265625 10.67748069763184 173.8006134033203 C 8.585213661193848 174.6147003173828 6.403707027435303 175.5808410644531 4.621067047119141 177.1268463134766 C 3.0561203956604 178.4799041748047 2.344280481338501 179.9873962402344 2.380813837051392 181.8688049316406 C 2.415560483932495 183.5770874023438 2.409027099609375 185.2948455810547 2.40272045135498 186.9560241699219 C 2.399320602416992 187.8492889404297 2.395813941955566 188.7729644775391 2.3988938331604 189.6769256591797 L 2.39890718460083 189.6809997558594 L 2.39890718460083 189.6850738525391 C 2.39890718460083 190.4126739501953 2.604080438613892 191.0084381103516 3.605427265167236 191.5510711669922 L 3.614760398864746 191.5561218261719 L 3.624053955078125 191.5612487792969 C 3.995347261428833 191.7667388916016 4.507347106933594 191.8505401611328 5.391280651092529 191.8505401611328 L 28.6937198638916 191.8505401611328 C 30.38940048217773 191.8505401611328 32.11285400390625 191.8529663085938 33.77956008911133 191.8552856445312 C 35.44461441040039 191.8576202392578 37.16634750366211 191.8600463867188 38.85866546630859 191.8600463867188 C 41.47466659545898 191.8600463867188 43.62350845336914 191.8542327880859 45.62120056152344 191.8417816162109 L 45.62458801269531 191.8417663574219 L 45.62797546386719 191.8417663574219 C 45.68929290771484 191.841552734375 45.75064086914062 191.8414459228516 45.81197357177734 191.8414459228516 C 46.54245376586914 191.8414459228516 47.27297210693359 191.8557739257812 47.97943878173828 191.86962890625 C 48.66164016723633 191.8830108642578 49.3670654296875 191.8968353271484 50.04818725585938 191.8968353271484 M 80.80901336669922 191.8054046630859 C 81.88687896728516 191.8054046630859 83.16032409667969 191.7955627441406 84.43286895751953 191.7225494384766 L 84.43620300292969 191.7223663330078 L 84.43954467773438 191.72216796875 C 85.08096313476562 191.6871795654297 85.51594543457031 191.230712890625 85.52197265625 190.5862884521484 L 85.52200317382812 190.5828857421875 L 85.52204132080078 190.5794525146484 C 85.55813598632812 187.6198425292969 85.55521392822266 184.7267761230469 85.5133056640625 181.9775085449219 C 85.49905395507812 180.9562225341797 85.07814788818359 180.2578582763672 84.1485595703125 179.7130737304688 L 84.14558410644531 179.7113342285156 L 84.14260101318359 179.7095794677734 C 83.17438507080078 179.1384124755859 82.01667022705078 178.8148193359375 80.81845092773438 178.5075988769531 C 80.06653594970703 178.3155670166016 79.29774475097656 178.1229400634766 78.55426788330078 177.9366607666016 C 76.04518890380859 177.3079986572266 73.45068359375 176.6579284667969 70.9007568359375 175.8818511962891 C 68.80522918701172 175.2396392822266 67.59365081787109 173.6342315673828 67.57669067382812 171.4773101806641 L 67.57661437988281 171.4678649902344 L 67.57661437988281 171.4584197998047 C 67.57661437988281 171.3160552978516 67.57661437988281 171.1028900146484 67.56503295898438 171.0211944580078 C 67.26954650878906 169.8033447265625 67.63627624511719 168.9651031494141 67.99602508544922 168.4763946533203 C 68.78970336914062 167.3982391357422 70.01218414306641 167.3206329345703 70.41666412353516 167.2949523925781 C 72.87016296386719 167.1419982910156 75.29003143310547 166.5766296386719 77.77290344238281 165.5730743408203 C 76.92859649658203 164.4065856933594 76.23496246337891 163.2039642333984 75.70311737060547 161.9827270507812 C 74.89905548095703 160.1363983154297 74.43613433837891 158.1860809326172 74.32730865478516 156.1874847412109 C 74.25517272949219 154.8779144287109 74.25297546386719 153.5750274658203 74.25083923339844 152.3150329589844 C 74.24948120117188 151.5092926025391 74.24806976318359 150.6761322021484 74.22768402099609 149.8705596923828 L 74.22747802734375 149.8628234863281 L 74.22733306884766 149.8550872802734 C 74.19570159912109 148.1788024902344 73.88063812255859 146.7698211669922 73.26418304443359 145.5479431152344 C 72.51954650878906 144.0831909179688 71.52497863769531 143.3938751220703 70.0394287109375 143.3128509521484 L 70.03670501708984 143.3126983642578 L 70.03397369384766 143.3125457763672 L 69.91714477539062 143.3061981201172 C 69.12924957275391 143.2643432617188 67.33909606933594 143.1692504882812 66.371337890625 141.2670440673828 C 66.29659271240234 141.2387542724609 66.18856048583984 141.2016296386719 66.03298950195312 141.1543731689453 L 66.02782440185547 141.1528015136719 L 66.02268218994141 141.1512145996094 C 65.59157562255859 141.0181121826172 65.10803985595703 140.9561309814453 64.50098419189453 140.9561309814453 C 64.00308227539062 140.9561309814453 63.46401214599609 140.9991912841797 62.95563888549805 141.0457000732422 L 62.94981384277344 141.0462341308594 L 62.94397354125977 141.0467529296875 C 59.39023971557617 141.3544769287109 57.0960807800293 142.9174652099609 55.72286605834961 145.9682769775391 C 54.99354553222656 147.5831756591797 54.59646606445312 149.4360961914062 54.43546676635742 151.9739685058594 C 54.39516067504883 152.6189270019531 54.37662887573242 153.2669677734375 54.35700225830078 153.9530639648438 C 54.31433486938477 155.4452056884766 54.27019882202148 156.9881591796875 53.98978805541992 158.5771026611328 L 53.97129440307617 158.6814422607422 C 53.56275939941406 160.9859008789062 53.0997200012207 163.5978393554688 51.24494552612305 165.8500061035156 L 51.24213409423828 165.8534240722656 L 51.23931884765625 165.8568267822266 C 51.19465637207031 165.9106597900391 51.14973449707031 165.9637298583984 51.10440063476562 166.0162811279297 C 53.27090835571289 166.8656768798828 55.61187744140625 167.3074340820312 58.20902633666992 167.3610992431641 C 59.18638610839844 167.3800048828125 60.29415893554688 167.4014129638672 61.14545440673828 168.3741149902344 C 61.99337387084961 169.3429718017578 61.86998748779297 170.4244537353516 61.76077270507812 171.3816680908203 C 61.74176025390625 171.5463256835938 61.72877502441406 171.7204437255859 61.72216033935547 171.8991394042969 L 61.72133255004883 171.9212951660156 L 61.72010803222656 171.9434051513672 C 61.6685791015625 172.8708343505859 61.36478042602539 173.6860656738281 60.85441589355469 174.3306884765625 C 62.27548217773438 176.4437408447266 62.98097610473633 178.8409576416016 62.95528030395508 181.4789428710938 C 62.93809509277344 183.6768188476562 62.92033386230469 185.9495391845703 62.96369552612305 188.1691741943359 L 62.96374893188477 188.1718292236328 L 62.96378707885742 188.1744995117188 C 62.98422241210938 189.3544158935547 62.96722412109375 190.5712738037109 62.72512817382812 191.7982177734375 C 63.87008285522461 191.7985992431641 65.01486206054688 191.7991485595703 66.15936279296875 191.7997131347656 C 68.15360260009766 191.8006896972656 70.14718627929688 191.8016662597656 72.14026641845703 191.8016662597656 C 74.37728118896484 191.8016662597656 76.33287811279297 191.8003845214844 78.12234497070312 191.7977600097656 C 78.57272338867188 191.7977600097656 79.02354431152344 191.7996826171875 79.47458648681641 191.8016052246094 C 79.91925048828125 191.8034973144531 80.3641357421875 191.8054046630859 80.80901336669922 191.8054046630859 M 50.04819107055664 194.2968444824219 C 48.63813781738281 194.2968444824219 47.2251091003418 194.241455078125 45.81197738647461 194.241455078125 C 45.75337600708008 194.241455078125 45.69476318359375 194.2415466308594 45.63616180419922 194.2417449951172 C 43.37668609619141 194.2558288574219 41.11814498901367 194.2600402832031 38.85866928100586 194.2600402832031 C 35.47066497802734 194.2600402832031 32.08172607421875 194.2505493164062 28.6937198638916 194.2505493164062 C 20.92624092102051 194.2505493164062 13.15876007080078 194.2505493164062 5.391280651092529 194.2505493164062 C 4.370867252349854 194.2505493164062 3.368040561676025 194.1625671386719 2.461973905563354 193.6611633300781 C 0.8873738646507263 192.8078918457031 -0.001092829625122249 191.5147552490234 -0.001092829625122249 189.6850738525391 C -0.009892829693853855 187.0988464355469 0.03409383818507195 184.5126342773438 -0.01869282871484756 181.9176177978516 C -0.07146616280078888 179.199462890625 1.036907196044922 177.0530700683594 3.051360607147217 175.3113403320312 C 5.039413928985596 173.5872039794922 7.388134002685547 172.5052185058594 9.80721378326416 171.56396484375 C 13.36988067626953 170.1828765869141 16.81818771362305 168.5291290283203 20.2752799987793 166.8929443359375 C 20.81188011169434 166.6466369628906 21.03180122375488 166.3123474121094 21.07578659057617 165.7581787109375 C 21.18134689331055 164.517822265625 21.30449295043945 163.2863311767578 21.44524002075195 162.0547943115234 C 21.48922729492188 161.7117004394531 21.3748664855957 161.4741821289062 21.15494728088379 161.2454986572266 C 19.14050674438477 159.1782684326172 17.74184036254883 156.7680053710938 17.0205078125 153.9706573486328 C 16.89734649658203 153.5308380126953 16.69502639770508 153.3988647460938 16.26398658752441 153.3724975585938 C 15.41950702667236 153.3108978271484 14.9005069732666 152.8007049560547 14.75096035003662 151.9914093017578 C 14.49585342407227 150.5751342773438 14.32872009277344 149.1412963867188 14.0736141204834 147.7162170410156 C 13.91526699066162 146.8277893066406 14.2055606842041 146.1768188476562 15.01486682891846 145.824951171875 C 15.40192031860352 145.6578216552734 15.46349430084229 145.4994812011719 15.37553405761719 145.0948638916016 C 14.91809368133545 142.7461090087891 15.13801383972168 140.423828125 15.75378704071045 138.1190948486328 C 16.84457397460938 133.9758605957031 20.42482757568359 130.3692321777344 24.35694694519043 130.2020874023438 C 24.5732421875 130.1929168701172 24.78522300720215 130.1921539306641 24.99375343322754 130.1921539306641 C 25.03553199768066 130.1921539306641 25.07712745666504 130.1921844482422 25.11862564086914 130.1921844482422 C 25.864013671875 130.1921844482422 26.56503868103027 130.1822509765625 27.25106811523438 129.8062591552734 C 28.22517395019531 129.2691802978516 29.25915718078613 129.0063018798828 30.30775451660156 129.0063018798828 C 31.01099014282227 129.0063018798828 31.72080230712891 129.1245422363281 32.42351913452148 129.3575897216797 C 37.20893478393555 130.9497985839844 40.47249221801758 134.0902099609375 41.81838607788086 139.025146484375 C 42.35499954223633 140.9779815673828 42.09109497070312 142.9660339355469 41.85358810424805 144.9365081787109 C 41.80080032348633 145.3675231933594 41.69524002075195 145.6402130126953 42.28462600708008 145.8073425292969 C 43.14669418334961 146.0448608398438 43.49856185913086 146.7134246826172 43.34901428222656 147.6106719970703 C 43.11150741577148 149.0621185302734 42.87400054931641 150.5223693847656 42.61889266967773 151.9738159179688 C 42.4693489074707 152.8535003662109 41.9239616394043 153.3373107910156 41.03549194335938 153.3900909423828 C 40.63964080810547 153.4076995849609 40.41971969604492 153.5308380126953 40.34934616088867 153.9442443847656 C 39.90070724487305 156.7152099609375 38.39646530151367 158.9143676757812 36.46121215820312 160.8408355712891 C 35.95980072021484 161.3334350585938 35.84543991088867 161.7996673583984 35.94219970703125 162.4418487548828 C 36.10054779052734 163.4446563720703 36.25008010864258 164.4474792480469 36.25888061523438 165.4502868652344 C 36.26768112182617 166.2507629394531 36.61074829101562 166.6202697753906 37.29689407348633 166.9545288085938 C 41.11465454101562 168.7754211425781 44.94121551513672 170.5523529052734 48.86454772949219 172.1357574462891 C 50.86140060424805 172.9450531005859 52.75269317626953 173.9566650390625 54.40646743774414 175.3729248046875 C 56.35933303833008 177.0442657470703 57.40613555908203 179.1290893554688 57.40613555908203 181.7153015136719 C 57.41493225097656 184.3719024658203 57.43253326416016 187.0284576416016 57.39734649658203 189.6850738525391 C 57.37094879150391 192.0073852539062 55.72597503662109 193.8722534179688 53.40364074707031 194.1362152099609 C 52.28796768188477 194.2618408203125 51.16902542114258 194.2968444824219 50.04819107055664 194.2968444824219 Z M 80.80902099609375 194.2053985595703 C 79.91286468505859 194.2053985595703 79.01671600341797 194.19775390625 78.12234497070312 194.19775390625 C 76.12818145751953 194.2006988525391 74.13475036621094 194.2016754150391 72.14026641845703 194.2016754150391 C 68.15202331542969 194.2016754150391 64.16175079345703 194.19775390625 60.16829299926758 194.19775390625 C 59.90438842773438 194.19775390625 59.64049530029297 194.17138671875 59.14788055419922 194.1362152099609 C 60.53774642944336 192.2448883056641 60.59933471679688 190.2480621337891 60.56414794921875 188.2160339355469 C 60.52016067504883 185.964111328125 60.53774642944336 183.7121124267578 60.55534744262695 181.4601898193359 C 60.58173370361328 178.7508544921875 59.6668815612793 176.3845062255859 57.85477447509766 174.3876953125 C 57.30937194824219 173.7807159423828 57.42372131347656 173.5872039794922 58.1274528503418 173.3760681152344 C 58.88397216796875 173.1561279296875 59.27981567382812 172.6019744873047 59.32379913330078 171.8102722167969 C 59.33259963989258 171.57275390625 59.35020065307617 171.3352355957031 59.3765869140625 171.1065521240234 C 59.5261344909668 169.7958526611328 59.5261344909668 169.7870178222656 58.16263961791992 169.7606506347656 C 54.75831985473633 169.6902923583984 51.50354766845703 168.9953155517578 48.45109558105469 167.4559173583984 C 47.94968032836914 167.2096252441406 47.44826889038086 166.9545288085938 46.9732551574707 166.48828125 C 47.87050628662109 165.8197479248047 48.70619964599609 165.1512145996094 49.392333984375 164.3242950439453 C 50.87018585205078 162.5298004150391 51.23963928222656 160.3394470214844 51.62669372558594 158.1578521728516 C 51.99615859985352 156.0642547607422 51.90819931030273 153.9354858398438 52.04014587402344 151.8242645263672 C 52.18969345092773 149.4667663574219 52.55034637451172 147.1620330810547 53.53557205200195 144.98046875 C 55.32130813598633 141.0131683349609 58.47052001953125 139.025146484375 62.73691940307617 138.6556854248047 C 63.32715225219727 138.6016693115234 63.91562652587891 138.5561218261719 64.50098419189453 138.5561218261719 C 65.25041961669922 138.5561218261719 65.99471282958984 138.6308135986328 66.73062896728516 138.8580017089844 C 67.42555999755859 139.0691223144531 68.16449737548828 139.3505859375 68.43718719482422 140.0191497802734 C 68.79784393310547 140.8900299072266 69.39602661132812 140.8724212646484 70.17013549804688 140.9164123535156 C 72.58924102783203 141.0483551025391 74.31337738037109 142.3150787353516 75.4041748046875 144.4614410400391 C 76.2486572265625 146.1328277587891 76.59172058105469 147.9449462890625 76.62690734863281 149.809814453125 C 76.67969512939453 151.8946380615234 76.60932159423828 153.9794464111328 76.72367858886719 156.0554656982422 C 76.91719055175781 159.6093139648438 78.36863708496094 162.6529388427734 80.64698791503906 165.3535308837891 C 81.58824157714844 166.4706878662109 81.55303955078125 166.5058898925781 80.22476196289062 167.1216278076172 C 77.15470886230469 168.5555114746094 73.95272064208984 169.4791717529297 70.56598663330078 169.6902923583984 C 70.01180267333984 169.7254791259766 69.74789428710938 169.8398132324219 69.89743804931641 170.4555816650391 C 69.97661590576172 170.7722625732422 69.97661590576172 171.1241149902344 69.97661590576172 171.4584197998047 C 69.98539733886719 172.5755767822266 70.51321411132812 173.2528991699219 71.60400390625 173.5872039794922 C 74.84117126464844 174.5724334716797 78.13993072509766 175.3465270996094 81.41230773925781 176.1822204589844 C 82.78459930419922 176.5340881347656 84.13929748535156 176.921142578125 85.36203002929688 177.6424560546875 C 86.99819946289062 178.6013031005859 87.88668060302734 180.0527496337891 87.91307067871094 181.9440307617188 L 87.91307067871094 181.9440155029297 C 87.95705413818359 184.8293304443359 87.95705413818359 187.7234039306641 87.92186737060547 190.6087188720703 C 87.90428161621094 192.4912109375 86.50559997558594 194.0130004882812 84.57032012939453 194.1186065673828 C 83.31830596923828 194.1904449462891 82.06352996826172 194.2053985595703 80.80902099609375 194.2053985595703 Z"/></g><g class="f" transform="translate(1347.418 423.772)"><path class="j" d="M 34.37635803222656 43.58504104614258 L 9.275269508361816 43.58504104614258 C 5.952919483184814 43.58504104614258 3.249999523162842 40.88212203979492 3.249999523162842 37.55979156494141 L 3.249999523162842 8.275252342224121 C 3.249999523162842 7.259712219238281 4.076209545135498 6.433502197265625 5.09175968170166 6.433502197265625 L 11.36702919006348 6.433502197265625 L 11.61702919006348 6.433502197265625 L 11.61702919006348 6.183502197265625 L 11.61702919006348 4.091752529144287 C 11.61702919006348 3.076212406158447 12.44323921203613 2.250002384185791 13.45877933502197 2.250002384185791 C 14.47432994842529 2.250002384185791 15.30053901672363 3.076212406158447 15.30053901672363 4.091752529144287 L 15.30053901672363 6.183502197265625 L 15.30053901672363 6.433502197265625 L 15.55053901672363 6.433502197265625 L 19.73406028747559 6.433502197265625 L 19.98406028747559 6.433502197265625 L 19.98406028747559 6.183502197265625 L 19.98406028747559 4.091752529144287 C 19.98406028747559 3.076212406158447 20.81027030944824 2.250002384185791 21.82580947875977 2.250002384185791 C 22.84136009216309 2.250002384185791 23.66757011413574 3.076212406158447 23.66757011413574 4.091752529144287 L 23.66757011413574 6.183502197265625 L 23.66757011413574 6.433502197265625 L 23.91757011413574 6.433502197265625 L 28.10108947753906 6.433502197265625 L 28.35108947753906 6.433502197265625 L 28.35108947753906 6.183502197265625 L 28.35108947753906 4.091752529144287 C 28.35108947753906 3.076212406158447 29.17729949951172 2.250002384185791 30.19283866882324 2.250002384185791 C 31.20838928222656 2.250002384185791 32.03459930419922 3.076212406158447 32.03459930419922 4.091752529144287 L 32.03459930419922 6.183502197265625 L 32.03459930419922 6.433502197265625 L 32.28459930419922 6.433502197265625 L 38.55986785888672 6.433502197265625 C 39.57540893554688 6.433502197265625 40.40161895751953 7.259712219238281 40.40161895751953 8.275252342224121 L 40.40161895751953 37.55979156494141 C 40.40161895751953 40.88212203979492 37.69869995117188 43.58504104614258 34.37635803222656 43.58504104614258 Z M 6.933509349822998 10.11701202392578 L 6.933509349822998 10.36701202392578 L 6.933509349822998 37.55979156494141 C 6.933509349822998 38.85104370117188 7.98401927947998 39.90154266357422 9.275269508361816 39.90154266357422 L 34.37635803222656 39.90154266357422 C 35.66761016845703 39.90154266357422 36.71810913085938 38.85104370117188 36.71810913085938 37.55979156494141 L 36.71810913085938 10.36701202392578 L 36.71810913085938 10.11701202392578 L 36.46810913085938 10.11701202392578 L 32.28459930419922 10.11701202392578 L 32.03459930419922 10.11701202392578 L 32.03459930419922 10.36701202392578 L 32.03459930419922 12.45876216888428 C 32.03459930419922 13.47430229187012 31.20838928222656 14.30051231384277 30.19283866882324 14.30051231384277 C 29.17729949951172 14.30051231384277 28.35108947753906 13.47430229187012 28.35108947753906 12.45876216888428 L 28.35108947753906 10.36701202392578 L 28.35108947753906 10.11701202392578 L 28.10108947753906 10.11701202392578 L 23.91757011413574 10.11701202392578 L 23.66757011413574 10.11701202392578 L 23.66757011413574 10.36701202392578 L 23.66757011413574 12.45876216888428 C 23.66757011413574 13.47430229187012 22.84136009216309 14.30051231384277 21.82580947875977 14.30051231384277 C 20.81027030944824 14.30051231384277 19.98406028747559 13.47430229187012 19.98406028747559 12.45876216888428 L 19.98406028747559 10.36701202392578 L 19.98406028747559 10.11701202392578 L 19.73406028747559 10.11701202392578 L 15.55053901672363 10.11701202392578 L 15.30053901672363 10.11701202392578 L 15.30053901672363 10.36701202392578 L 15.30053901672363 12.45876216888428 C 15.30053901672363 13.47430229187012 14.47432994842529 14.30051231384277 13.45877933502197 14.30051231384277 C 12.44323921203613 14.30051231384277 11.61702919006348 13.47430229187012 11.61702919006348 12.45876216888428 L 11.61702919006348 10.36701202392578 L 11.61702919006348 10.11701202392578 L 11.36702919006348 10.11701202392578 L 7.183509349822998 10.11701202392578 L 6.933509349822998 10.11701202392578 Z M 30.19283866882324 31.03453254699707 L 13.45877933502197 31.03453254699707 C 12.44323921203613 31.03453254699707 11.61702919006348 30.20832252502441 11.61702919006348 29.19278335571289 C 11.61702919006348 28.17723274230957 12.44323921203613 27.35102272033691 13.45877933502197 27.35102272033691 L 30.19283866882324 27.35102272033691 C 31.20838928222656 27.35102272033691 32.03459930419922 28.17723274230957 32.03459930419922 29.19278335571289 C 32.03459930419922 30.20832252502441 31.20838928222656 31.03453254699707 30.19283866882324 31.03453254699707 Z M 30.19283866882324 22.66752243041992 L 17.64229965209961 22.66752243041992 C 16.62674903869629 22.66752243041992 15.80053901672363 21.84131240844727 15.80053901672363 20.82577323913574 C 15.80053901672363 19.81022262573242 16.62674903869629 18.98401260375977 17.64229965209961 18.98401260375977 L 30.19283866882324 18.98401260375977 C 31.20838928222656 18.98401260375977 32.03459930419922 19.81022262573242 32.03459930419922 20.82577323913574 C 32.03459930419922 21.84131240844727 31.20838928222656 22.66752243041992 30.19283866882324 22.66752243041992 Z"/><path class="l" d="M 34.37635803222656 43.33504104614258 C 37.56084823608398 43.33504104614258 40.15161895751953 40.7442741394043 40.15161895751953 37.55979156494141 L 40.15161895751953 8.275252342224121 C 40.15161895751953 7.397562503814697 39.43756103515625 6.683502197265625 38.55986785888672 6.683502197265625 L 32.28459930419922 6.683502197265625 L 31.78459930419922 6.683502197265625 L 31.78459930419922 6.183502197265625 L 31.78459930419922 4.091752529144287 C 31.78459930419922 3.214062452316284 31.0705394744873 2.500002384185791 30.19283866882324 2.500002384185791 C 29.31514930725098 2.500002384185791 28.60108947753906 3.214062452316284 28.60108947753906 4.091752529144287 L 28.60108947753906 6.183502197265625 L 28.60108947753906 6.683502197265625 L 28.10108947753906 6.683502197265625 L 23.91757011413574 6.683502197265625 L 23.41757011413574 6.683502197265625 L 23.41757011413574 6.183502197265625 L 23.41757011413574 4.091752529144287 C 23.41757011413574 3.214062452316284 22.70351028442383 2.500002384185791 21.82580947875977 2.500002384185791 C 20.9481201171875 2.500002384185791 20.23406028747559 3.214062452316284 20.23406028747559 4.091752529144287 L 20.23406028747559 6.183502197265625 L 20.23406028747559 6.683502197265625 L 19.73406028747559 6.683502197265625 L 15.55053901672363 6.683502197265625 L 15.05053901672363 6.683502197265625 L 15.05053901672363 6.183502197265625 L 15.05053901672363 4.091752529144287 C 15.05053901672363 3.214062452316284 14.33647918701172 2.500002384185791 13.45877933502197 2.500002384185791 C 12.58108901977539 2.500002384185791 11.86702919006348 3.214062452316284 11.86702919006348 4.091752529144287 L 11.86702919006348 6.183502197265625 L 11.86702919006348 6.683502197265625 L 11.36702919006348 6.683502197265625 L 5.09175968170166 6.683502197265625 C 4.214059352874756 6.683502197265625 3.499999523162842 7.397562503814697 3.499999523162842 8.275252342224121 L 3.499999523162842 37.55979156494141 C 3.499999523162842 40.7442741394043 6.090779304504395 43.33504104614258 9.275269508361816 43.33504104614258 L 34.37635803222656 43.33504104614258 M 6.683509349822998 9.867012023925781 L 7.183509349822998 9.867012023925781 L 11.36702919006348 9.867012023925781 L 11.86702919006348 9.867012023925781 L 11.86702919006348 10.36701202392578 L 11.86702919006348 12.45876216888428 C 11.86702919006348 13.33645248413086 12.58108901977539 14.05051231384277 13.45877933502197 14.05051231384277 C 14.33647918701172 14.05051231384277 15.05053901672363 13.33645248413086 15.05053901672363 12.45876216888428 L 15.05053901672363 10.36701202392578 L 15.05053901672363 9.867012023925781 L 15.55053901672363 9.867012023925781 L 19.73406028747559 9.867012023925781 L 20.23406028747559 9.867012023925781 L 20.23406028747559 10.36701202392578 L 20.23406028747559 12.45876216888428 C 20.23406028747559 13.33645248413086 20.9481201171875 14.05051231384277 21.82580947875977 14.05051231384277 C 22.70351028442383 14.05051231384277 23.41757011413574 13.33645248413086 23.41757011413574 12.45876216888428 L 23.41757011413574 10.36701202392578 L 23.41757011413574 9.867012023925781 L 23.91757011413574 9.867012023925781 L 28.10108947753906 9.867012023925781 L 28.60108947753906 9.867012023925781 L 28.60108947753906 10.36701202392578 L 28.60108947753906 12.45876216888428 C 28.60108947753906 13.33645248413086 29.31514930725098 14.05051231384277 30.19283866882324 14.05051231384277 C 31.0705394744873 14.05051231384277 31.78459930419922 13.33645248413086 31.78459930419922 12.45876216888428 L 31.78459930419922 10.36701202392578 L 31.78459930419922 9.867012023925781 L 32.28459930419922 9.867012023925781 L 36.46810913085938 9.867012023925781 L 36.96810913085938 9.867012023925781 L 36.96810913085938 10.36701202392578 L 36.96810913085938 37.55979156494141 C 36.96810913085938 38.9888916015625 35.80545806884766 40.15154266357422 34.37635803222656 40.15154266357422 L 9.275269508361816 40.15154266357422 C 7.846169471740723 40.15154266357422 6.683509349822998 38.9888916015625 6.683509349822998 37.55979156494141 L 6.683509349822998 10.36701202392578 L 6.683509349822998 9.867012023925781 M 30.19283866882324 30.78453254699707 C 31.0705394744873 30.78453254699707 31.78459930419922 30.07047271728516 31.78459930419922 29.19278335571289 C 31.78459930419922 28.31508255004883 31.0705394744873 27.60102272033691 30.19283866882324 27.60102272033691 L 13.45877933502197 27.60102272033691 C 12.58108901977539 27.60102272033691 11.86702919006348 28.31508255004883 11.86702919006348 29.19278335571289 C 11.86702919006348 30.07047271728516 12.58108901977539 30.78453254699707 13.45877933502197 30.78453254699707 L 30.19283866882324 30.78453254699707 M 30.19283866882324 22.41752243041992 C 31.0705394744873 22.41752243041992 31.78459930419922 21.70346260070801 31.78459930419922 20.82577323913574 C 31.78459930419922 19.94807243347168 31.0705394744873 19.23401260375977 30.19283866882324 19.23401260375977 L 17.64229965209961 19.23401260375977 C 16.76459884643555 19.23401260375977 16.05053901672363 19.94807243347168 16.05053901672363 20.82577323913574 C 16.05053901672363 21.70346260070801 16.76459884643555 22.41752243041992 17.64229965209961 22.41752243041992 L 30.19283866882324 22.41752243041992 M 34.37635803222656 43.83504104614258 L 9.275269508361816 43.83504104614258 C 5.809539318084717 43.83504104614258 2.999999523162842 41.0255126953125 2.999999523162842 37.55979156494141 L 2.999999523162842 8.275252342224121 C 2.999999523162842 7.120012283325195 3.936509370803833 6.183502197265625 5.09175968170166 6.183502197265625 L 11.36702919006348 6.183502197265625 L 11.36702919006348 4.091752529144287 C 11.36702919006348 2.936512470245361 12.30353927612305 2.000002384185791 13.45877933502197 2.000002384185791 C 14.61402988433838 2.000002384185791 15.55053901672363 2.936512470245361 15.55053901672363 4.091752529144287 L 15.55053901672363 6.183502197265625 L 19.73406028747559 6.183502197265625 L 19.73406028747559 4.091752529144287 C 19.73406028747559 2.936512470245361 20.67057037353516 2.000002384185791 21.82580947875977 2.000002384185791 C 22.98106002807617 2.000002384185791 23.91757011413574 2.936512470245361 23.91757011413574 4.091752529144287 L 23.91757011413574 6.183502197265625 L 28.10108947753906 6.183502197265625 L 28.10108947753906 4.091752529144287 C 28.10108947753906 2.936512470245361 29.03759956359863 2.000002384185791 30.19283866882324 2.000002384185791 C 31.34808921813965 2.000002384185791 32.28459930419922 2.936512470245361 32.28459930419922 4.091752529144287 L 32.28459930419922 6.183502197265625 L 38.55986785888672 6.183502197265625 C 39.71511077880859 6.183502197265625 40.65161895751953 7.120012283325195 40.65161895751953 8.275252342224121 L 40.65161895751953 37.55979156494141 C 40.65161895751953 41.0255126953125 37.84209060668945 43.83504104614258 34.37635803222656 43.83504104614258 Z M 7.183509349822998 10.36701202392578 L 7.183509349822998 37.55979156494141 C 7.183509349822998 38.71503067016602 8.120029449462891 39.65154266357422 9.275269508361816 39.65154266357422 L 34.37635803222656 39.65154266357422 C 35.53160095214844 39.65154266357422 36.46810913085938 38.71503067016602 36.46810913085938 37.55979156494141 L 36.46810913085938 10.36701202392578 L 32.28459930419922 10.36701202392578 L 32.28459930419922 12.45876216888428 C 32.28459930419922 13.6140022277832 31.34808921813965 14.55051231384277 30.19283866882324 14.55051231384277 C 29.03759956359863 14.55051231384277 28.10108947753906 13.6140022277832 28.10108947753906 12.45876216888428 L 28.10108947753906 10.36701202392578 L 23.91757011413574 10.36701202392578 L 23.91757011413574 12.45876216888428 C 23.91757011413574 13.6140022277832 22.98106002807617 14.55051231384277 21.82580947875977 14.55051231384277 C 20.67057037353516 14.55051231384277 19.73406028747559 13.6140022277832 19.73406028747559 12.45876216888428 L 19.73406028747559 10.36701202392578 L 15.55053901672363 10.36701202392578 L 15.55053901672363 12.45876216888428 C 15.55053901672363 13.6140022277832 14.61402988433838 14.55051231384277 13.45877933502197 14.55051231384277 C 12.30353927612305 14.55051231384277 11.36702919006348 13.6140022277832 11.36702919006348 12.45876216888428 L 11.36702919006348 10.36701202392578 L 7.183509349822998 10.36701202392578 Z M 30.19283866882324 31.28453254699707 L 13.45877933502197 31.28453254699707 C 12.30353927612305 31.28453254699707 11.36702919006348 30.3480224609375 11.36702919006348 29.19278335571289 C 11.36702919006348 28.03753280639648 12.30353927612305 27.10102272033691 13.45877933502197 27.10102272033691 L 30.19283866882324 27.10102272033691 C 31.34808921813965 27.10102272033691 32.28459930419922 28.03753280639648 32.28459930419922 29.19278335571289 C 32.28459930419922 30.34801292419434 31.34808921813965 31.28453254699707 30.19283866882324 31.28453254699707 Z M 30.19283866882324 22.91752243041992 L 17.64229965209961 22.91752243041992 C 16.4870491027832 22.91752243041992 15.55053901672363 21.98101234436035 15.55053901672363 20.82577323913574 C 15.55053901672363 19.67052268981934 16.4870491027832 18.73401260375977 17.64229965209961 18.73401260375977 L 30.19283866882324 18.73401260375977 C 31.34808921813965 18.73401260375977 32.28459930419922 19.67052268981934 32.28459930419922 20.82577323913574 C 32.28459930419922 21.98101234436035 31.34808921813965 22.91752243041992 30.19283866882324 22.91752243041992 Z"/></g><path class="d" d="M31.034,4.853a4.86,4.86,0,0,0-8.3-3.429L3.171,21.065a5.822,5.822,0,0,0-1.4,2.277l-.018.056L0,31.086,7.71,29.36l.057-.019a5.832,5.832,0,0,0,2.279-1.406L29.613,8.291A4.828,4.828,0,0,0,31.034,4.853ZM4.276,27.642l-.818-.818.59-2.6,2.83,2.832ZM27.894,6.577,8.9,25.649,5.46,22.207,18.471,9.143l1.981,1.981,1.716-1.716L20.184,7.423,22.03,5.57l1.988,1.988,1.716-1.716L23.742,3.851l.711-.714a2.433,2.433,0,1,1,3.442,3.44ZM12.766,28.633H31.034V31.06H10.348Zm0,0" transform="translate(1407.622 504.608)"/><g transform="translate(1380.12 622.713)"><path class="b" d="M5,0H49a5,5,0,0,1,5,5V29a0,0,0,0,1,0,0H0a0,0,0,0,1,0,0V5A5,5,0,0,1,5,0Z" transform="translate(7.88 7.288)"/><path class="a" d="M0,0H54a0,0,0,0,1,0,0V5a0,0,0,0,1,0,0H2A2,2,0,0,1,0,3V0A0,0,0,0,1,0,0Z" transform="translate(7.88 36.288)"/><g transform="translate(0)"><g transform="translate(0 0)"><path class="d" d="M55.211,19.6H8.972C4.638,19.6,0,21.96,0,28.572v31c0,6.611,4.638,8.972,8.972,8.972H26.087v5.714H23.244a1.38,1.38,0,1,0,0,2.761H41.463a1.38,1.38,0,1,0,0-2.761H38.1V68.544H55.211c6.611,0,8.972-4.638,8.972-8.972v-31C64.182,21.96,59.545,19.6,55.211,19.6ZM35.335,74.258H28.847V68.544h6.487ZM61.422,59.572c0,1.863-.607,6.211-6.211,6.211H8.972c-1.863,0-6.211-.607-6.211-6.211V57.6H61.422Zm0-4.72H2.761V28.627c0-5.6,4.348-6.211,6.211-6.211H55.211c1.863,0,6.211.607,6.211,6.211Z" transform="translate(0 -19.6)"/></g></g></g><g class="g" transform="translate(1349.073 427.082)"><path class="j" d="M 28.53788948059082 27.72467041015625 L 11.80383014678955 27.72467041015625 C 10.78829002380371 27.72467041015625 9.962080001831055 26.89846038818359 9.962080001831055 25.88291931152344 C 9.962080001831055 24.86736869812012 10.78829002380371 24.04115867614746 11.80383014678955 24.04115867614746 L 28.53788948059082 24.04115867614746 C 29.55344009399414 24.04115867614746 30.3796501159668 24.86736869812012 30.3796501159668 25.88291931152344 C 30.3796501159668 26.89846038818359 29.55344009399414 27.72467041015625 28.53788948059082 27.72467041015625 Z M 28.53788948059082 19.3576602935791 L 15.98735046386719 19.3576602935791 C 14.97179985046387 19.3576602935791 14.14558982849121 18.53145027160645 14.14558982849121 17.51590919494629 C 14.14558982849121 16.50037002563477 14.97179985046387 15.67415904998779 15.98735046386719 15.67415904998779 L 28.53788948059082 15.67415904998779 C 29.55344009399414 15.67415904998779 30.3796501159668 16.50037002563477 30.3796501159668 17.51590919494629 C 30.3796501159668 18.53145027160645 29.55344009399414 19.3576602935791 28.53788948059082 19.3576602935791 Z"/><path class="l" d="M 28.53788948059082 27.47467041015625 C 29.41559028625488 27.47467041015625 30.1296501159668 26.7606086730957 30.1296501159668 25.88291931152344 C 30.1296501159668 25.00522041320801 29.41559028625488 24.29115867614746 28.53788948059082 24.29115867614746 L 11.80383014678955 24.29115867614746 C 10.92613983154297 24.29115867614746 10.21208000183105 25.00522041320801 10.21208000183105 25.88291931152344 C 10.21208000183105 26.7606086730957 10.92613983154297 27.47467041015625 11.80383014678955 27.47467041015625 L 28.53788948059082 27.47467041015625 M 28.53788948059082 19.1076602935791 C 29.41559028625488 19.1076602935791 30.1296501159668 18.39359855651855 30.1296501159668 17.51590919494629 C 30.1296501159668 16.63821983337402 29.41559028625488 15.92415904998779 28.53788948059082 15.92415904998779 L 15.98735046386719 15.92415904998779 C 15.10965061187744 15.92415904998779 14.39558982849121 16.63821983337402 14.39558982849121 17.51590919494629 C 14.39558982849121 18.39359855651855 15.10965061187744 19.1076602935791 15.98735046386719 19.1076602935791 L 28.53788948059082 19.1076602935791 M 28.53788948059082 27.97467041015625 L 11.80383014678955 27.97467041015625 C 10.64859008789062 27.97467041015625 9.712080001831055 27.03816032409668 9.712080001831055 25.88291931152344 C 9.712080001831055 24.72766876220703 10.64859008789062 23.79115867614746 11.80383014678955 23.79115867614746 L 28.53788948059082 23.79115867614746 C 29.69313049316406 23.79115867614746 30.6296501159668 24.72766876220703 30.6296501159668 25.88291931152344 C 30.6296501159668 27.03816032409668 29.69313049316406 27.97467041015625 28.53788948059082 27.97467041015625 Z M 28.53788948059082 19.6076602935791 L 15.98735046386719 19.6076602935791 C 14.83209991455078 19.6076602935791 13.89558982849121 18.67115020751953 13.89558982849121 17.51590919494629 C 13.89558982849121 16.36067008972168 14.83209991455078 15.42415904998779 15.98735046386719 15.42415904998779 L 28.53788948059082 15.42415904998779 C 29.69313049316406 15.42415904998779 30.6296501159668 16.36065864562988 30.6296501159668 17.51590919494629 C 30.6296501159668 18.67115020751953 29.69313049316406 19.6076602935791 28.53788948059082 19.6076602935791 Z"/></g><path class="b" d="M10.717,22.962H28.985v2.427H8.3Zm0,0" transform="translate(1409.671 510.279)"/><g transform="translate(1173.058 576.086) rotate(-8)"><path class="h" d="M.159,23.025A24,24,0,0,0,6.551,34.5l.026.027v3.44a.822.822,0,0,0,.822.822H22.192a.822.822,0,0,0,.822-.822V34.435a20.393,20.393,0,0,0,3.287-11.1v-6.4a3.286,3.286,0,0,0-5.116-2.73,3.285,3.285,0,0,0-4.931-1.644A3.287,3.287,0,0,0,11.508,10.8V3.287a3.287,3.287,0,0,0-6.575,0V15.12l-2.246,1.5A6.066,6.066,0,0,0,.159,23.025ZM3.6,17.985l1.334-.89v5.587a.822.822,0,0,0,1.644,0V3.287a1.644,1.644,0,0,1,3.287,0V19.4a.822.822,0,1,0,1.644,0V13.643a1.644,1.644,0,1,1,3.287,0V19.4a.822.822,0,1,0,1.644,0V15.286a1.644,1.644,0,0,1,3.287,0V19.4a.822.822,0,1,0,1.644,0V16.93a1.644,1.644,0,0,1,3.287,0v6.4a18.749,18.749,0,0,1-3.149,10.4.823.823,0,0,0-.138.456v2.959H8.221V34.189a.822.822,0,0,0-.241-.581A22.4,22.4,0,0,1,1.758,22.649,4.416,4.416,0,0,1,3.6,17.985Zm0,0" transform="translate(0 3.287)"/></g><path class="d" d="M27.407,4H6.484A4.484,4.484,0,0,0,2,8.484V23.429a4.484,4.484,0,0,0,4.484,4.484H27.407a4.484,4.484,0,0,0,4.484-4.484V8.484A4.484,4.484,0,0,0,27.407,4Zm-.613,2.989-8.788,8.788a1.495,1.495,0,0,1-2.122,0L7.1,6.989ZM28.9,23.429a1.5,1.5,0,0,1-1.495,1.495H6.484a1.5,1.5,0,0,1-1.495-1.495V9.1l8.788,8.788a4.484,4.484,0,0,0,6.337,0L28.9,9.1Z" transform="translate(1238.411 512.634)"/><g transform="translate(1326.216 555.58)"><path d="M9.7,20.914l1.79-2.237-5.763-4.61,5.763-4.61L9.7,7.219,2.537,12.948a1.433,1.433,0,0,0,0,2.237Zm13.248-13.7-1.79,2.237,5.763,4.61-5.763,4.61,1.79,2.237,7.161-5.729a1.433,1.433,0,0,0,0-2.237Z" transform="translate(-2 -0.865)"/><path class="d" d="M0,0H26.409V2.866H0Z" transform="translate(18.585 0.622) rotate(102.527)"/></g><g transform="translate(1173.059 585.086) rotate(-8)"><path class="i" d="M.822,7.4a.822.822,0,0,0,.822-.822,4.931,4.931,0,0,1,9.862,0,.822.822,0,0,0,1.644,0A6.575,6.575,0,0,0,0,6.575.822.822,0,0,0,.822,7.4Zm0,0" transform="translate(3.038 -9.903)"/></g><g transform="translate(1326.216 555.58)"><path class="b" d="M9.7,20.914l1.79-2.237-5.763-4.61,5.763-4.61L9.7,7.219,2.537,12.948a1.433,1.433,0,0,0,0,2.237Zm13.248-13.7-1.79,2.237,5.763,4.61-5.763,4.61,1.79,2.237,7.161-5.729a1.433,1.433,0,0,0,0-2.237Z" transform="translate(-2 -0.865)"/></g><rect class="b" width="10" height="3" rx="1" transform="translate(1187.762 609.717) rotate(-8)"/></g><path class="d" d="M14.806-14.3H11.4v7.766c0,2.574-1.276,3.762-3.278,3.762S4.84-3.96,4.84-6.534V-14.3H1.43v7.744c0,4.224,1.936,6.82,6.644,6.82,4.818,0,6.732-2.6,6.732-6.82ZM25.564-7.194,30.756-14.3H26.488L23.342-9.548,20.174-14.3H15.818L21.23-7.194,15.8,0H19.91l3.476-4.686L26.774,0H31.02Zm14.124-7.37c-4.29,0-8.382,2.288-8.382,7.414,0,5.258,3.74,7.414,8.338,7.414A22.28,22.28,0,0,0,44-.22V-3.432a15.331,15.331,0,0,1-4.092.7c-2.794.022-5.038-1.386-5.038-4.444,0-2.816,1.782-4.4,5.1-4.4a12.221,12.221,0,0,1,4,.66v-3.036A16.278,16.278,0,0,0,39.688-14.564ZM51.92-11.528c-3.828,0-6.49,2.046-6.49,5.9,0,3.872,2.662,5.9,6.49,5.9,3.806,0,6.446-2.046,6.446-5.9C58.366-9.46,55.726-11.528,51.92-11.528Zm-.088,2.75a2.894,2.894,0,0,1,3.08,3.146,2.932,2.932,0,0,1-2.948,3.146,2.962,2.962,0,0,1-3.08-3.146A2.863,2.863,0,0,1,51.832-8.778Zm19.954-2.64V-14.3H60.676V0H71.94V-2.882H64.086V-5.918H71.06V-8.69H64.086v-2.728Z" transform="translate(1340 619)"/></g></svg>