<svg xmlns="http://www.w3.org/2000/svg" width="650.65" height="558.486" viewBox="0 0 650.65 558.486">
    <defs>
        <style>
            .cls-1{fill:#c3002f}.cls-2{fill:rgba(0,0,0,.15)}.cls-3{fill:#fff}.cls-4{fill:#8f96ac}.cls-5{fill:#d7deed}.cls-6{fill:#c7cfe2}.cls-7{fill:#707487}.cls-8{fill:#5b5d6e}.cls-9{opacity:.97}.cls-10{fill:#afb9d2}.cls-11{fill:#ff6464}.cls-12{fill:#ffd782}.cls-13{fill:#c3e678}.cls-14{fill:#00d2ff}.cls-15{fill:#c4b3af}.cls-16{fill:#dfd7d5}.cls-17{fill:#d2c5c2}.cls-18{fill:#4a696f}.cls-19{fill:#3e5959}.cls-20{fill:#ff4949}.cls-21{fill:#ce1717}.cls-22{fill:#56c225}.cls-23{fill:#388b12}.cls-24{fill:#ff9f00}.cls-25{fill:#cf8100}.cls-26{fill:#213636}.cls-27{fill:#f0785a}.cls-28{fill:#f0c419}.cls-29{fill:#a3a0fb}.cls-30{fill:#71c285}.cls-31{fill:#d15241}.cls-32{fill:#2d93ba}.cls-33{fill:#27a2db}.cls-34{fill:#3ea69b}.cls-35{fill:#44c4a1}.cls-36{fill:#fcd462}.cls-37{fill:#f6c358}.cls-38{fill:#e56353}.cls-39{fill:#14a085}.cls-40{fill:#f29c1f}.cls-41{fill:#e57e25}.cls-42{fill:#ff5023}.cls-43{fill:#cdcdd0}.cls-44{fill:#acabb1}.cls-45,.cls-46{fill:#d32f72}.cls-45,.cls-49,.cls-50{stroke:rgba(0,0,0,0)}.cls-45{opacity:.775}.cls-47{fill:#6aa7ef}.cls-48{fill:#76ddc9}.cls-49,.cls-51{fill:#ffd348}.cls-50{fill:#6a32d6;opacity:.639}.cls-52{fill:#f7639c}
        </style>
    </defs>
    <g id="Confetti-Creative" transform="translate(-301.55 -774.481)">
        <g id="Nissan-Sales-App-Icon" transform="translate(-51.001 1064.5)">
            <ellipse id="Ellipse_21" cx="138.5" cy="143.5" class="cls-1" data-name="Ellipse 21" rx="138.5" ry="143.5" transform="translate(388.001 -51.5)"/>
            <path id="Path_504" d="M-843.762 237.137l84.1 92.989s-9.937 37.183-54.293 70.029S-917.8 420.436-917.8 420.436l-59.237-72.136 65.158-55.75z" class="cls-2" data-name="Path 504" transform="translate(1416.145 -188.142)"/>
            <g id="growth_1_" data-name="growth (1)" transform="translate(439.271 28.5)">
                <ellipse id="Ellipse_16" cx="49.463" cy="49.462" class="cls-3" data-name="Ellipse 16" rx="49.463" ry="49.462" transform="translate(44.016 3.621)"/>
                <path id="Path_421" d="M292.771 148.355a2.833 2.833 0 0 1-2.128-.965l-17.619-20.136L261 141.681a2.828 2.828 0 0 1-4.345-3.621l14.145-16.971a2.826 2.826 0 0 1 2.138-1.018 2.64 2.64 0 0 1 2.163.965l16.93 19.347 15.144-32.811a2.829 2.829 0 0 1 5.137 2.37l-16.971 36.769a2.829 2.829 0 0 1-2.166 1.614 2.687 2.687 0 0 1-.404.03z" class="cls-4" data-name="Path 421" transform="translate(-191.462 -71.989)"/>
                <path id="Rectangle_1476" d="M0 0h10.233v26H0z" class="cls-5" data-name="Rectangle 1476" transform="rotate(45 -76.257 107.736)"/>
                <path id="Path_422" d="M202.44 273.247a59.73 59.73 0 0 0 7.236 7.236l6.472-6.472-7.236-7.236z" class="cls-6" data-name="Path 422" transform="translate(-155.063 -181.299)"/>
                <path id="Path_423" d="M230.293 0a53.74 53.74 0 1 0 53.741 53.74A53.741 53.741 0 0 0 230.293 0zm0 98.994a45.254 45.254 0 1 1 45.256-45.254 45.255 45.255 0 0 1-45.256 45.254z" class="cls-5" data-name="Path 423" transform="translate(-137.47)"/>
                <path id="Path_424" d="M11.9 354.875l-6-6a5.657 5.657 0 0 1 0-8l30.254-30.252a5.657 5.657 0 0 1 8 0l6 6a5.657 5.657 0 0 1 0 8L19.9 354.875a5.657 5.657 0 0 1-8 0z" class="cls-7" data-name="Path 424" transform="translate(-4.243 -209.972)"/>
                <path id="Path_425" d="M11.556 346.533L41.81 316.28a5.657 5.657 0 0 1 8 0l.35.35-.006-.007-6-6a5.657 5.657 0 0 0-8 0L5.9 340.876a5.657 5.657 0 0 0 0 8l5.652 5.651a5.656 5.656 0 0 1 .004-7.994z" class="cls-8" data-name="Path 425" transform="translate(-4.243 -209.972)"/>
                <path id="Path_426" d="M157.293 328.109l3.486-3.485a5.657 5.657 0 0 0 0-8l-6-6a5.657 5.657 0 0 0-8 0l-3.485 3.485z" class="cls-6" data-name="Path 426" transform="translate(-114.868 -209.973)"/>
                <g id="Group_258" class="cls-9" data-name="Group 258" transform="translate(28.425 98.994)">
                    <path id="Path_427" d="M148.95 319.765l3.485-3.485a5.657 5.657 0 0 1 8 0l.349.349-.005-.007-6-6a5.657 5.657 0 0 0-8 0l-3.485 3.485z" class="cls-10" data-name="Path 427" transform="translate(-143.293 -308.966)"/>
                </g>
                <ellipse id="Ellipse_12" cx="5.657" cy="5.657" class="cls-11" data-name="Ellipse 12" rx="5.657" ry="5.657" transform="translate(61.71 62.225)"/>
                <ellipse id="Ellipse_13" cx="5.657" cy="5.657" class="cls-12" data-name="Ellipse 13" rx="5.657" ry="5.657" transform="translate(75.853 45.255)"/>
                <ellipse id="Ellipse_14" cx="5.657" cy="5.657" class="cls-13" data-name="Ellipse 14" rx="5.657" ry="5.657" transform="translate(95.652 67.882)"/>
                <ellipse id="Ellipse_15" cx="5.657" cy="5.657" class="cls-14" data-name="Ellipse 15" rx="5.657" ry="5.657" transform="translate(112.623 31.113)"/>
            </g>
        </g>
        <g id="Retail-Icon" transform="translate(307.742 925.737)">
            <path id="Path_538" d="M65.367 211.76A2.363 2.363 0 0 1 64 207.466l13.543-8.726a2.364 2.364 0 0 1 2.727 3.863l-13.543 8.726a2.365 2.365 0 0 1-1.36.431zm0 0" class="cls-15" data-name="Path 538" transform="translate(-53.542 -167.075)"/>
            <path id="Path_539" d="M205.213 164.694a2.362 2.362 0 0 1-.484-4.674l12.016-2.778a2.363 2.363 0 1 1 .973 4.624l-12.018 2.778a2.371 2.371 0 0 1-.489.05zm0 0" class="cls-15" data-name="Path 539" transform="translate(-171.366 -132.434)"/>
            <path id="Path_540" d="M333.292 68.265a2.363 2.363 0 0 1-1.569-4.128l14.2-12.62a2.361 2.361 0 0 1 3.138 3.53l-14.2 12.621a2.348 2.348 0 0 1-1.569.597zm0 0" class="cls-15" data-name="Path 540" transform="translate(-279.27 -42.896)"/>
            <g id="Group_335" data-name="Group 335" transform="translate(.874)">
                <path id="Path_545" d="M15.588 241a7.088 7.088 0 1 0 7.088 7.088A7.078 7.078 0 0 0 15.588 241zm0 0" class="cls-16" data-name="Path 545" transform="translate(-8.5 -203.041)"/>
                <path id="Path_546" d="M150.588 151a7.088 7.088 0 1 0 7.088 7.088 7.078 7.078 0 0 0-7.088-7.088zm0 0" class="cls-16" data-name="Path 546" transform="translate(-122.236 -127.216)"/>
                <path id="Path_547" d="M285.588 121a7.088 7.088 0 1 0 7.088 7.088 7.078 7.078 0 0 0-7.088-7.088zm0 0" class="cls-16" data-name="Path 547" transform="translate(-235.973 -101.942)"/>
                <path id="Path_548" d="M420.588 0a7.088 7.088 0 1 0 7.088 7.088A7.078 7.078 0 0 0 420.588 0zm0 0" class="cls-16" data-name="Path 548" transform="translate(-349.709)"/>
            </g>
            <path id="Path_549" d="M458.5 14.176V0a7.088 7.088 0 0 1 0 14.176zm0 0" class="cls-17" data-name="Path 549" transform="translate(-386.747)"/>
            <path id="Path_550" d="M445.863 34.725a2.363 2.363 0 1 1 2.363-2.363 2.366 2.366 0 0 1-2.363 2.363zm0 0" class="cls-18" data-name="Path 550" transform="translate(-374.11 -25.275)"/>
            <path id="Path_551" d="M460.863 32.363A2.366 2.366 0 0 0 458.5 30v4.725a2.366 2.366 0 0 0 2.363-2.362zm0 0" class="cls-19" data-name="Path 551" transform="translate(-386.747 -25.275)"/>
            <path id="Path_553" d="M323.5 135.176V121a7.088 7.088 0 1 1 0 14.176zm0 0" class="cls-17" data-name="Path 553" transform="translate(-273.011 -101.942)"/>
            <path id="Path_554" d="M310.863 155.725a2.363 2.363 0 1 1 2.363-2.363 2.366 2.366 0 0 1-2.363 2.363zm0 0" class="cls-18" data-name="Path 554" transform="translate(-260.373 -127.216)"/>
            <path id="Path_555" d="M325.863 153.363A2.366 2.366 0 0 0 323.5 151v4.725a2.366 2.366 0 0 0 2.363-2.362zm0 0" class="cls-19" data-name="Path 555" transform="translate(-273.011 -127.216)"/>
            <path id="Path_557" d="M188.5 165.176V151a7.088 7.088 0 1 1 0 14.176zm0 0" class="cls-17" data-name="Path 557" transform="translate(-159.274 -127.216)"/>
            <path id="Path_558" d="M175.863 185.725a2.363 2.363 0 1 1 2.363-2.363 2.366 2.366 0 0 1-2.363 2.363zm0 0" class="cls-18" data-name="Path 558" transform="translate(-146.637 -152.491)"/>
            <path id="Path_559" d="M190.863 183.363A2.366 2.366 0 0 0 188.5 181v4.725a2.366 2.366 0 0 0 2.363-2.362zm0 0" class="cls-19" data-name="Path 559" transform="translate(-159.274 -152.491)"/>
            <path id="Path_561" d="M53.5 255.176V241a7.088 7.088 0 1 1 0 14.176zm0 0" class="cls-17" data-name="Path 561" transform="translate(-45.538 -203.041)"/>
            <path id="Path_562" d="M40.863 275.725a2.363 2.363 0 1 1 2.363-2.363 2.366 2.366 0 0 1-2.363 2.363zm0 0" class="cls-18" data-name="Path 562" transform="translate(-32.9 -228.315)"/>
            <path id="Path_563" d="M55.863 273.363A2.366 2.366 0 0 0 53.5 271v4.725a2.366 2.366 0 0 0 2.363-2.362zm0 0" class="cls-19" data-name="Path 563" transform="translate(-45.538 -228.315)"/>
            <path id="Rectangle_1492" d="M0 0h14.026v61.715H0z" class="cls-20" data-name="Rectangle 1492" transform="translate(64.778 19.547)"/>
            <path id="Rectangle_1493" d="M0 0h14.026v5.61H0z" class="cls-21" data-name="Rectangle 1493" transform="translate(64.778 75.652)"/>
            <path id="Rectangle_1494" d="M0 0h14.026v42.079H0z" class="cls-22" data-name="Rectangle 1494" transform="translate(45.141 39.184)"/>
            <path id="Rectangle_1495" d="M0 0h14.026v5.61H0z" class="cls-23" data-name="Rectangle 1495" transform="translate(45.141 75.652)"/>
            <path id="Rectangle_1496" d="M0 0h14.026v36.468H0z" class="cls-24" data-name="Rectangle 1496" transform="translate(22.699 44.795)"/>
            <path id="Rectangle_1497" d="M0 0h14.026v5.61H0z" class="cls-25" data-name="Rectangle 1497" transform="translate(22.699 75.652)"/>
            <path id="Rectangle_1498" d="M0 0h14.026v25.247H0z" class="cls-19" data-name="Rectangle 1498" transform="translate(.257 56.016)"/>
            <path id="Rectangle_1499" d="M0 0h14.026v5.61H0z" class="cls-26" data-name="Rectangle 1499" transform="translate(.257 75.652)"/>
        </g>
        <g id="Icon-Graph-WV" transform="translate(453 884.352)">
            <path id="Path_360" d="M31 44.479h44.441A47.859 47.859 0 0 0 31 .038z" class="cls-27" data-name="Path 360" transform="translate(20.169)"/>
            <path id="Path_361" d="M61.871 60.1a47.687 47.687 0 0 0 12.568-29.138H32.733z" class="cls-28" data-name="Path 361" transform="translate(21.296 20.12)"/>
            <path id="Path_362" d="M44.566 46.414V.038A47.845 47.845 0 0 0 11.775 79.2z" class="cls-29" data-name="Path 362"/>
            <path id="Path_363" d="M40.419 32.376L9.962 62.833a47.806 47.806 0 0 0 61.8.883z" class="cls-30" data-name="Path 363" transform="translate(6.481 21.039)"/>
        </g>
        <g id="Graph-NetRevenue" transform="translate(598.396 913.2)">
            <path id="Path_565" d="M105.9 2.564c-.018-.093-.053-.178-.079-.268a3.2 3.2 0 0 0-.1-.328 3.137 3.137 0 0 0-.155-.3c-.045-.084-.082-.171-.135-.251a3.212 3.212 0 0 0-.386-.477l-.007-.009-.019-.016a3.164 3.164 0 0 0-.461-.38c-.081-.054-.168-.092-.252-.138a3.188 3.188 0 0 0-.292-.155 3.124 3.124 0 0 0-.321-.1c-.09-.027-.176-.062-.27-.081a3.152 3.152 0 0 0-.595-.061h-8.4a3.19 3.19 0 0 0 0 6.379h.754L86 15.653 78.1 7.68a3.134 3.134 0 0 0-4.465 0l-15 15.154-6.386-6.449a3.226 3.226 0 0 0-4.466 0L35.716 28.572a3.212 3.212 0 0 0 0 4.511 3.136 3.136 0 0 0 4.466 0l9.833-9.932L56.4 29.6a3.134 3.134 0 0 0 4.465 0l15-15.154 7.894 7.973a3.226 3.226 0 0 0 4.466 0l11.415-11.53v.762a3.158 3.158 0 1 0 6.316 0V3.189a3.222 3.222 0 0 0-.056-.625z" class="cls-31" data-name="Path 565" transform="translate(-7.536)"/>
            <path id="Rectangle_1484" d="M0 0h13.878v4.536H0z" class="cls-32" data-name="Rectangle 1484" transform="translate(25.603 80.514)"/>
            <path id="Rectangle_1485" d="M0 0h13.878v32.733H0z" class="cls-33" data-name="Rectangle 1485" transform="translate(25.603 47.781)"/>
            <path id="Rectangle_1486" d="M0 0h13.878v4.536H0z" class="cls-34" data-name="Rectangle 1486" transform="translate(45.977 80.514)"/>
            <path id="Rectangle_1487" d="M0 0h13.878v21.003H0z" class="cls-35" data-name="Rectangle 1487" transform="translate(45.977 59.511)"/>
            <path id="Rectangle_1488" d="M0 0h13.878v42.444H0z" class="cls-36" data-name="Rectangle 1488" transform="translate(66.351 38.068)"/>
            <path id="Rectangle_1489" d="M0 0h13.878v4.536H0z" class="cls-37" data-name="Rectangle 1489" transform="translate(66.351 80.514)"/>
            <path id="Rectangle_1490" d="M0 0h13.878v54.83H0z" class="cls-38" data-name="Rectangle 1490" transform="translate(86.726 25.685)"/>
            <path id="Rectangle_1491" d="M0 0h13.878v4.536H0z" class="cls-31" data-name="Rectangle 1491" transform="translate(86.726 80.514)"/>
        </g>
        <g id="Icon-Graph-CMP-i" transform="translate(671 1066.337)">
            <path id="Path_367" d="M3 65.272L16.572 51.7l9.048 12.064 10.556-22.62 9.048 12.064 16.588-25.636 9.048 12.064L87.448 14v64.844H3z" class="cls-30" data-name="Path 367" transform="translate(.053 -1.518)"/>
            <path id="Path_368" d="M26.282 66.958l-9.514-12.687L4.425 66.614l-2.132-2.132 14.8-14.8 8.582 11.441L36.232 38.5l9.259 12.347 16.588-25.634 9.048 12.064 15.413-23.82 2.533 1.638-17.762 27.451-9.048-12.064-16.588 25.636-8.837-11.78z" class="cls-28" data-name="Path 368" transform="translate(-.306 -1.794)"/>
        </g>
        <g id="Graph-TdC" transform="translate(782 948.091)">
            <path id="Rectangle_1469" d="M0 0h13.091v58.909H0z" class="cls-39" data-name="Rectangle 1469" transform="translate(41.273 7)"/>
            <path id="Rectangle_1470" d="M0 0h13.091v18.327H0z" class="cls-40" data-name="Rectangle 1470" transform="translate(21.636 47.582)"/>
            <path id="Rectangle_1471" d="M0 0h13.091v30.109H0z" class="cls-41" data-name="Rectangle 1471" transform="translate(2 35.8)"/>
            <path id="Rectangle_1472" d="M0 0h13.091v48.436H0z" class="cls-30" data-name="Rectangle 1472" transform="translate(60.909 17.473)"/>
        </g>
        <g id="Icon-Graph-VME" transform="translate(686 770.179)">
            <path id="XMLID_1447_" d="M0 0h11.36v53.435H0z" class="cls-42" transform="translate(5.68 34.813)"/>
            <path id="XMLID_1450_" d="M0 0h11.36v35.693H0z" class="cls-42" transform="translate(22.721 52.555)"/>
            <path id="XMLID_1453_" d="M0 0h11.36v48.106H0z" class="cls-42" transform="translate(39.761 40.142)"/>
            <path id="XMLID_1456_" d="M0 0h11.36v40.181H0z" class="cls-42" transform="translate(56.801 48.067)"/>
            <path id="XMLID_1459_" d="M34.081 315H0v7.574h36.921V315z" class="cls-43" transform="translate(0 -226.752)"/>
            <path id="XMLID_1460_" d="M226.241 315H195v7.574h36.921V315z" class="cls-44" transform="translate(-158.079 -226.752)"/>
        </g>
        <g id="Group_399" data-name="Group 399" transform="rotate(-126.02 805.37 391.19)">
            <g id="Group_398" data-name="Group 398" transform="translate(180.982 11.801)">
                <g id="Group_397" data-name="Group 397">
                    <path id="Union_27" d="M10.949 35.242a43.3 43.3 0 0 1 1.388-8.627c.014-.063.027-.125.046-.188q-.628 3.983-1.258 7.958l-.053.261.053-.261c-.012.074-.026.142-.031.216 0-.074.019-.142.031-.216l1.258-7.958a.061.061 0 0 1 .01-.031c.573-2.258 2.089-3.331 4.015-4.632a18.733 18.733 0 0 0 3.615-3.03q.274-.31.526-.637-.25.327-.526.637C16.11 13.074 1.111 18.263.037 9.018-.305 6.094 1.83 2.892 1.491 0c1.273 10.9 20.46 1.716 20.925 12.983a11.5 11.5 0 0 1-.04 1.446c-.131 1.514-.5 3.058-.736 4.513-.337 2.074-.488 4.419-1.361 6.364-1.017 2.275-3.045 3.6-4.992 4.948a10.081 10.081 0 0 0 2.232.746c.248.06-1.581 9-1.462 9.02-2.496-.56-5.112-1.893-5.108-4.778zm.123-.6c0-.013.011-.019.015-.032-.004.017-.01.024-.014.037zm.022-.045c.032-.192.068-.378.1-.57-.032.197-.068.382-.1.573zm9.784-11.316a10.573 10.573 0 0 0 .069-1.164 10.573 10.573 0 0 1-.068 1.169zm0 0l1.445-8.858v.014l-1.444 8.849z" class="cls-45" data-name="Union 27"/>
                </g>
            </g>
        </g>
        <path id="Path_502" d="M155.393 52.269l6.9-3.993.621-7.946 5.929 5.327 7.749-1.865-3.234 7.285 4.168 6.794-7.927-.824-5.174 6.063-1.666-7.794z" class="cls-46" data-name="Path 502" transform="translate(642.607 832.67)"/>
        <g id="Group_418" data-name="Group 418" transform="translate(101.824 782.63)">
            <path id="Path_580" d="M489.092 67.751c-1.91-7.529-13.62-4.576-11.7 2.966s13.615 4.576 11.7-2.966z" class="cls-47" data-name="Path 580"/>
        </g>
        <path id="Path_579" d="M112.925 112.141c-.03 3.8-3.287 5.434-5.862 7.592-2.833 2.377-3.848 5.623-2.409 9.1.323.779 2.321 1.78 3 2.287s2.716 1.434 3.043 2.225c-1.441-3.479-.415-6.711 2.409-9.1 2.57-2.174 5.833-3.776 5.86-7.592 0-.447-2.607-1.994-3-2.287s-3.048-1.782-3.043-2.225z" class="cls-48" data-name="Path 579" transform="rotate(-120 753.003 484.821)"/>
        <g id="Group_403" data-name="Group 403" transform="rotate(36 -1427.258 1647.148)">
            <g id="Group_402" data-name="Group 402" transform="translate(15.612 79.732)">
                <path id="Union_25" d="M13.386 102.836c-.091-.536-.162-1.085-.239-1.647-.4-3.024-.964-6.116-1.069-9.169-.183-5.607 3.085-10.3 4.451-15.5a23.81 23.81 0 0 0-1.147-1.794C14.1 72.874 12.6 71.2 11.16 69.47c-2.542-3.071-4.765-6.145-5.467-10.2l-.063-.349.054-.005-.054.005C4.863 54.625 3.548 49 4.8 44.745c1.559-5.283 6.373-8.64 10.681-11.36 4.327-2.728 9.105-5.515 11.392-10.442a15.153 15.153 0 0 0 1.055-3.207 14.5 14.5 0 0 0-2.768-4.5c-.323-.332-.662-.65-1.013-.948a16.337 16.337 0 0 0-6.756-3.448 17 17 0 0 0-5.1-.473 14.4 14.4 0 0 0-8.716 3.573A6.2 6.2 0 0 1 .01 9.719C-.252 4.177 4.711.889 9.574.176a16.779 16.779 0 0 1 13.3 3.8 12.3 12.3 0 0 1 .979.917 13.83 13.83 0 0 1 2 2.638 23.11 23.11 0 0 1 2.6 8.631c.163 1.126.3 2.274.445 3.42.655 5.179 1.4 10.274-1.393 14.981-4.797 8.083-17.999 10.59-21.145 19.669a12.664 12.664 0 0 0 .93 1.609c1.28 1.842 2.775 3.516 4.2 5.231 2.57 3.093 4.867 6.231 5.6 10.323.022.119.043.236.063.361.842 4.662 1.977 10.247.85 14.889-.924 3.831-2.838 7.183-3.883 10.85a8.642 8.642 0 0 1-1.9-4.1 8.642 8.642 0 0 0 1.9 4.1c.154.18.318.353.494.533.75.753.569 4.129.7 5.164.107.869.027 4.362.548 5.118a9.436 9.436 0 0 1-2.476-5.474zm.019 0zm0 0q-.01-.267-.011-.53 0 .263.011.53zm-.05-.639c-.03-.3-.064-.585-.1-.884.035.3.069.585.1.884zm-.057-.438v-.041zm4.67-21.868c-.1-.022-.444-1.337-.814-2.188.37.85.71 2.165.815 2.187zm-.255-2.947a13.577 13.577 0 0 1 .261 2.947 13.578 13.578 0 0 0-.261-2.947c-.206-1.725-.4-3.449-.61-5.179.207 1.729.405 3.453.611 5.178zm-.571.735l-.031-.069zm-.042-5.915q.01.271.01.54.005-.269-.01-.54zM5.683 58.912zm0 0zm-.065-.71a201.379 201.379 0 0 0 0-.002zm-.19-1.752c0-.023 0-.046-.008-.069.003.019.005.046.007.069zm-.04-.35l-.047-.43c.016.135.031.278.047.43zm-.055-.506c-.813-7.36-.615-4.864.816-1.794C5.41 52.209 5 50.777 4.887 50.777s.053 1.254.446 4.812zm.926-1.562zm22.681-32.14c-.228-3.212-.394-5.123-.512-5.729.118.606.285 2.517.512 5.729zm-.686-4.6a8.789 8.789 0 0 1 .079-1.291 8.786 8.786 0 0 0-.079 1.299zm.133-1.3v-.011zm0-.011a.077.077 0 0 0-.012-.019.077.077 0 0 1 .007.02zm-.019-.024zm-27.1 3.594c0-.013 0-.026-.006-.038C.85 16.247.427 12.981.01 9.719a6.2 6.2 0 0 0 3.565 4.221 7.074 7.074 0 0 0-2.289 5.706l.022.237c-.008-.113-.026-.22-.043-.331zm-.173-1C.69 15.691.216 12.794.018 9.907a1.793 1.793 0 0 1-.008-.188c.417 3.261.84 6.528 1.249 9.795a26.143 26.143 0 0 1-.167-.959z" class="cls-49" data-name="Union 25"/>
            </g>
        </g>
        <g id="Group_407" data-name="Group 407" transform="rotate(31 -614.738 1575.071)">
            <g id="Group_406" data-name="Group 406">
                <g id="Group_405" data-name="Group 405">
                    <path id="Union_26" d="M-4144.778-1089.015h.013-.013c-.024-.325-.036-.659-.051-1a55.372 55.372 0 0 1-.132-5.555c.213-3.367 2.513-5.984 3.662-9.015-.183-.39-.388-.771-.606-1.144-.69-1.184-1.524-2.278-2.314-3.4a12.989 12.989 0 0 1-2.8-6.44l-.018-.212h.035v-.428.428h-.035c-.225-2.618-.715-6.061.308-8.537 1.274-3.07 4.456-4.79 7.287-6.16s5.969-2.753 7.673-5.566a8.879 8.879 0 0 0 .841-1.857 8.658 8.658 0 0 0-1.456-2.859 8.994 8.994 0 0 0-.574-.628 10.307 10.307 0 0 0-3.991-2.472 11.02 11.02 0 0 0-3.135-.591 9.145 9.145 0 0 0-5.615 1.613 3.772 3.772 0 0 1-1.966-2.742c.16-3.335 3.429-5.006 6.489-5.14a10.725 10.725 0 0 1 8.029 3.078 7.6 7.6 0 0 1 .554.608 8.465 8.465 0 0 1 1.086 1.7 8.465 8.465 0 0 0-1.086-1.7 7.6 7.6 0 0 0-.554-.608 9.91 9.91 0 0 0 .661-1.26 11.207 11.207 0 0 0 .6-1.8 13.607 13.607 0 0 0-.592-1.479c-.364-.8-.1-2.271-.136-3.135-.029-.8.25-2.427-.073-3.137a19.6 19.6 0 0 1 1.379 7.82v0a7.67 7.67 0 0 1 0 1.593v.008c0 .617-.013 1.226-.025 1.821a12.412 12.412 0 0 1-.174 1.875 13.565 13.565 0 0 1 1.109 5.324c.034.684.051 1.379.077 2.074.106 3.141.271 6.236-1.735 8.886-3.441 4.551-11.777 5.258-14.257 10.5a7.632 7.632 0 0 0 .484 1.019c.687 1.18 1.517 2.272 2.3 3.385 1.415 2.007 2.656 4.022 2.871 6.518.006.072.013.145.018.22.251 2.842.631 6.255-.337 8.966-.8 2.24-2.178 4.131-3.039 6.264a5.107 5.107 0 0 1-.944-2.569 5.107 5.107 0 0 0 .944 2.569c.085.118.176.231.274.349.422.5.115 2.507.137 3.135.016.526-.237 2.613.042 3.1a5.6 5.6 0 0 1-1.215-3.419zm.018-.385c0-.181-.005-.354-.01-.535 0 .181.01.354.01.535zm-.009-.266v-.025.025zm4.17-12.813c-.062 0-.194-.794-.372-1.332.179.539.311 1.333.371 1.333zm.011-1.781a9.5 9.5 0 0 1 0 1.777 9.5 9.5 0 0 0 0-1.777c-.028-1.045-.05-2.089-.077-3.138.027 1.05.049 2.098.077 3.139zm-.394.416l-.029-.083c.011.027.02.056.03.084zm-6.031-13.019c-.085-5.464-.157-4.062.551-2.075-.338-.948-.5-1.762-.564-1.763a31.525 31.525 0 0 0 .014 3.839zm.667-1.764l-.02-.05zm-.031-.082l-.025-.067zm-.038-.1l-.025-.068zm-.025-.068l-.011-.029zm16.055-20.222q0-.673-.024-.911.025.24.025.91zm-.122-.793v-.031c.007.012.007.023.001.033zm.072-.244zm-.905-8.851a4.161 4.161 0 0 1-.378-1.173 4.162 4.162 0 0 0 .378 1.175zm0 0c.009 0 .017-.01.024-.027-.004.014-.012.028-.021.029zm.032-1.671l-.022-.4c.01.123.018.258.03.402zm-.559-.107c.1-.421.206-1.156.305-1.376-.096.221-.2.957-.302 1.378zm.364-1.439zm-14.465 15.28a3.489 3.489 0 0 1-1.484-2.635v.143c0-.066 0-.13-.007-.2v-.026c-.063-1.981-.137-3.963-.205-5.94a3.772 3.772 0 0 0 1.966 2.742c2.474 1.317 6.539.32 8.7-.989a.369.369 0 0 0 .049-.034 10.307 10.307 0 0 1 3.991 2.472 11.131 11.131 0 0 1-3.827 3.835 11.374 11.374 0 0 1-5.622 1.664 6.068 6.068 0 0 1-3.558-1.03zm-1.541-3.3c-.083-1.74-.208-3.5-.165-5.243a1.086 1.086 0 0 1 .007-.114c.068 1.977.142 3.959.205 5.94-.017-.187-.038-.381-.044-.58z" class="cls-50" data-name="Union 26" transform="translate(4427.356 1262.613)"/>
                </g>
            </g>
        </g>
        <path id="Path_577" d="M506.215 185.334c-2.638-3.607-.709-7.441.209-11.289 1.009-4.233-.312-8.011-4.111-10.285-.852-.51-3.444-.052-4.437-.054s-3.577.551-4.439.035c3.8 2.274 5.1 6.049 4.114 10.285-.9 3.859-2.86 7.664-.209 11.289.309.426 3.864.052 4.437.054s4.131-.456 4.437-.035z" class="cls-51" data-name="Path 577" transform="rotate(49.98 -564.185 428.074)"/>
        <g id="Group_404" data-name="Group 404" transform="translate(695.097 860.84)">
            <path id="Path_529" d="M242.938 153.657c.817 9.1 14.954 7.835 14.131-1.276-.817-9.091-14.954-7.835-14.131 1.276z" class="cls-52" data-name="Path 529"/>
        </g>
        <path id="Path_558-2" d="M319.376 162.034l-3.427 6.974 3.8 6.777-7.692-1.1-5.27 5.71-1.327-7.657-7.059-3.248 6.872-3.628.907-7.718 5.574 5.415z" class="cls-48" data-name="Path 558" transform="translate(325.598 908.859)"/>
    </g>
</svg>
