<svg xmlns="http://www.w3.org/2000/svg" xmlns:xlink="http://www.w3.org/1999/xlink" width="292" height="292" viewBox="0 0 292 292"><defs><style>.a,.d,.e{fill:#fff;}.b{fill:none;stroke-width:5px;}.b,.c,.d,.e{stroke:#2d71e0;}.b,.e{stroke-linecap:round;stroke-linejoin:round;}.c{fill:#e5eefc;}.c,.d{stroke-miterlimit:10;}.c,.d,.e{stroke-width:4px;}.f{fill:#2d71e0;}.g{filter:url(#a);}</style><filter id="a" x="0" y="0" width="292" height="292" filterUnits="userSpaceOnUse"><feOffset dy="12" input="SourceAlpha"/><feGaussianBlur stdDeviation="12" result="b"/><feFlood flood-opacity="0.078"/><feComposite operator="in" in2="b"/><feComposite in="SourceGraphic"/></filter></defs><g transform="translate(-291 -3326)"><g class="g" transform="matrix(1, 0, 0, 1, 291, 3326)"><circle class="a" cx="110" cy="110" r="110" transform="translate(36 24)"/></g><g transform="translate(-363.25 3218.083)"><path class="b" d="M792.639,208.5h65.692a7.169,7.169,0,0,1,7.169,7.169v69.662a7.169,7.169,0,0,1-7.169,7.169H761.518a7.169,7.169,0,0,1-7.169-7.169V249.157"/><rect class="c" width="11" height="50.453" rx="1.255" transform="translate(792.023 229.5)"/><rect class="c" width="11" height="20.761" rx="1.207" transform="translate(769.28 259.192)"/><rect class="c" width="11" height="34.602" rx="1.244" transform="translate(815.368 245.351)"/><rect class="c" width="11" height="46.453" rx="1.926" transform="translate(838.714 233.5)"/><rect class="d" width="46.75" height="43.059" rx="2.91" transform="translate(734.25 195.607)"/><line class="e" y2="8.612" transform="translate(746.245 191.917)"/><line class="e" y2="8.612" transform="translate(757.317 191.917)"/><line class="e" y2="8.612" transform="translate(768.39 191.917)"/><rect class="f" width="6.151" height="4.921" transform="translate(743.477 207.91)"/><rect class="f" width="6.151" height="4.921" transform="translate(754.549 207.91)"/><rect class="f" width="6.151" height="4.921" transform="translate(765.622 207.91)"/><rect class="f" width="6.151" height="4.921" transform="translate(743.477 216.522)"/><rect class="f" width="6.151" height="4.921" transform="translate(754.549 216.522)"/><rect class="f" width="6.151" height="4.921" transform="translate(765.622 216.522)"/><rect class="f" width="6.151" height="4.921" transform="translate(743.477 225.134)"/><rect class="f" width="6.151" height="4.921" transform="translate(754.549 225.134)"/><rect class="f" width="6.151" height="4.921" transform="translate(765.622 225.134)"/></g></g></svg>