<svg xmlns="http://www.w3.org/2000/svg" xmlns:xlink="http://www.w3.org/1999/xlink" width="82" height="50" viewBox="0 0 82 50"><defs><style>.a{fill:url(#a);}.b{fill:#6981ca;}</style><linearGradient id="a" x1="1.465" y1="0.555" x2="-0.021" y2="0.587" gradientUnits="objectBoundingBox"><stop offset="0" stop-color="#c9e3ff"/><stop offset="1" stop-color="#647ec7"/></linearGradient></defs><g transform="translate(-1181 -7269)"><path class="a" d="M-1985,1607h-66a8.009,8.009,0,0,1-8-8v-34a8.009,8.009,0,0,1,8-8h66a8.009,8.009,0,0,1,8,8v34A8.009,8.009,0,0,1-1985,1607Zm-66-48a6.007,6.007,0,0,0-6,6v34a6.006,6.006,0,0,0,6,6h66a6.007,6.007,0,0,0,6-6v-34a6.007,6.007,0,0,0-6-6Z" transform="translate(3240 5712)"/><path class="b" d="M23.964,11.461H3.178l7.959,7.581A1.042,1.042,0,0,1,9.7,20.551L.611,11.893A2.083,2.083,0,0,1,.629,8.928L9.7.288A1.042,1.042,0,1,1,11.138,1.8L3.145,9.377H23.964a1.042,1.042,0,1,1,0,2.084Z" transform="translate(1209.497 7283.081)"/></g></svg>