<svg xmlns="http://www.w3.org/2000/svg" width="28" height="28" viewBox="0 0 28 28"><defs><style>.a{fill:none;}.b{fill:#6981a2;}</style></defs><path class="a" d="M0,0H28V28H0Z"/><path class="b" d="M11.466,21.048H12.75V15.1h2.5v5.952h1.284a6.738,6.738,0,0,1,2.175-3.9c.141-.145,1.04-1.032,1.146-1.158a6.9,6.9,0,0,0-.75-9.7A7.777,7.777,0,0,0,8.9,6.29a6.9,6.9,0,0,0-.754,9.7c.108.127,1.009,1.015,1.147,1.16a6.739,6.739,0,0,1,2.176,3.9Zm.034,2.381v1.19h5v-1.19ZM6.193,17.476a9.2,9.2,0,0,1,1-12.93,10.369,10.369,0,0,1,13.613,0,9.2,9.2,0,0,1,1,12.93c-.775.919-2.8,2.379-2.8,4.164v2.976A2.443,2.443,0,0,1,16.5,27h-5A2.443,2.443,0,0,1,9,24.619V21.643C9,19.857,6.969,18.4,6.193,17.476Z" transform="translate(0 0)"/></svg>