<svg xmlns="http://www.w3.org/2000/svg" xmlns:xlink="http://www.w3.org/1999/xlink" width="260" height="73.847" viewBox="0 0 260 73.847">
  <defs>
    <clipPath id="clip-path">
      <path id="Path_803" data-name="Path 803" d="M91.478,50.962H88.091l-6.639-9.484v9.484H78.2V36.871h3.929l6.1,8.807V36.871h3.252V50.962Zm6.368,0H94.459V36.871h3.387V50.962ZM106.653,36.6a21.042,21.042,0,0,1,4.878.677v2.981a20.57,20.57,0,0,0-5.149-.677c-2.032,0-2.71.542-2.71,1.219,0,.406.271.813,1.49,1.219l3.658.948c2.574.677,3.658,2.032,3.658,3.794,0,2.845-2.032,4.471-6.233,4.471a19.582,19.582,0,0,1-5.691-.813V47.3a24.086,24.086,0,0,0,5.284.948c2.168,0,3.252-.271,3.252-1.219,0-.677-.677-1.219-1.9-1.49l-3.523-.948a4.021,4.021,0,0,1-3.252-3.929c-.135-2.574,1.9-4.065,6.233-4.065Zm13.956,0a21.042,21.042,0,0,1,4.878.677v2.981a20.57,20.57,0,0,0-5.149-.677c-2.032,0-2.71.542-2.71,1.219,0,.406.271.813,1.49,1.219l3.658.948c2.574.677,3.658,2.032,3.658,3.794,0,2.845-2.032,4.471-6.233,4.471a19.582,19.582,0,0,1-5.691-.813V47.3a24.086,24.086,0,0,0,5.284.948c2.168,0,3.252-.271,3.252-1.219,0-.677-.677-1.219-1.9-1.49l-3.523-.948a4.021,4.021,0,0,1-3.252-3.929c-.135-2.574,1.9-4.065,6.233-4.065Zm18.156,14.362-.813-2.574h-6.639c-.271.813-.542,1.761-.813,2.574h-3.523a118.89,118.89,0,0,1,5.284-14.091H137a97.776,97.776,0,0,1,5.42,14.091h-3.658Zm-6.639-5.42h4.742c-.677-2.032-1.49-3.929-2.439-6.233-.813,2.032-1.49,4.2-2.3,6.233Zm24.66,5.42H153.4l-6.639-9.484v9.484h-3.252V36.871h3.929l6.1,8.807V36.871h3.252V50.962Zm8.265-14.091h5.555c3.929,0,7.588,1.49,7.588,6.91,0,5.284-3.794,7.181-7.859,7.181h-5.42V36.871Zm3.387,2.845v8.4h2.032c2.845,0,4.336-1.355,4.336-4.2a3.848,3.848,0,0,0-4.2-4.2Zm15.717,11.246H180.9V36.871h3.387V50.962Zm10.7-14.362a12.311,12.311,0,0,1,4.2.677v2.981a12.9,12.9,0,0,0-3.929-.677c-3.252,0-5.013,1.49-5.013,4.336,0,3.252,2.3,4.336,4.471,4.336a9.149,9.149,0,0,0,1.9-.271V43.51h3.252v6.91a18.56,18.56,0,0,1-5.42.677c-3.929,0-7.723-2.168-7.723-7.317,0-5.013,3.929-7.181,8.265-7.181Zm11.11,14.362h-3.387V36.871h3.387V50.962Zm14.5-11.246H215.86V50.962h-3.387V39.716h-4.607V36.871h12.6v2.845ZM232.39,50.962l-.813-2.574h-6.639c-.271.813-.542,1.761-.813,2.574H220.6a118.889,118.889,0,0,1,5.284-14.091h4.742a97.776,97.776,0,0,1,5.42,14.091H232.39Zm-6.5-5.42h4.742c-.677-2.032-1.49-3.929-2.439-6.233-.813,2.032-1.626,4.2-2.3,6.233Zm14.769,2.574h6.639v2.845H237.268V36.871h3.387V48.117Z" transform="translate(-78.2 -36.6)" fill="#fff"/>
    </clipPath>
    <clipPath id="clip-path-2">
      <path id="Path_804" data-name="Path 804" d="M81.245,22.148a5.779,5.779,0,0,1,3.252.813,2.884,2.884,0,0,1,1.084,2.574,3.066,3.066,0,0,1-1.219,2.71,5.658,5.658,0,0,1-3.116.948H79.89v4.065H78.4V22.013h2.845Zm0,5.962a2.812,2.812,0,0,0,2.032-.542c.542-.406.677-.948.677-1.9a2.341,2.341,0,0,0-.677-1.761,3.265,3.265,0,0,0-2.032-.542H79.89v4.607h1.355Zm9.62-3.523a3.5,3.5,0,0,1,2.845,1.219,4.895,4.895,0,0,1,.948,3.252,5.839,5.839,0,0,1-.406,2.3A3.164,3.164,0,0,1,92.9,32.988a3.988,3.988,0,0,1-4.878-.677,4.895,4.895,0,0,1-.948-3.252,5.839,5.839,0,0,1,.406-2.3,3.164,3.164,0,0,1,1.355-1.626,5.023,5.023,0,0,1,2.032-.542Zm0,1.219c-1.49,0-2.168,1.084-2.168,3.252s.677,3.252,2.168,3.252,2.168-1.084,2.168-3.252-.677-3.252-2.168-3.252Zm16.124-.948-1.9,8.536H103.06l-1.49-7.181-1.49,7.181H98.046l-2.032-8.536H97.5l1.49,7.588,1.626-7.588h1.626l1.626,7.588,1.49-7.588h1.626Zm8.4,4.065v.813h-5.42a2.8,2.8,0,0,0,.677,2.032,2.244,2.244,0,0,0,1.626.677,2.641,2.641,0,0,0,1.084-.135,7.988,7.988,0,0,0,1.084-.542l.677.948a5.035,5.035,0,0,1-2.981,1.084,3.5,3.5,0,0,1-2.845-1.219,4.895,4.895,0,0,1-.948-3.252,7.086,7.086,0,0,1,.406-2.439,3.7,3.7,0,0,1,1.219-1.626,3.111,3.111,0,0,1,1.9-.542,3.261,3.261,0,0,1,2.574,1.084,5.016,5.016,0,0,1,.948,3.116Zm-1.49-.542a2.649,2.649,0,0,0-.542-1.9,1.941,1.941,0,0,0-1.49-.677c-1.219,0-1.9.948-2.032,2.71l4.065-.135Zm7.588-3.794a1.718,1.718,0,0,1,.813.135l-.271,1.49a5.869,5.869,0,0,1-.677-.135A1.74,1.74,0,0,0,120,26.62a7.248,7.248,0,0,0-.813,1.761v4.878h-1.49V24.723h1.355l.135,1.761a4.036,4.036,0,0,1,.948-1.49,3.976,3.976,0,0,1,1.355-.406Zm8.943,4.336v.813h-5.42a2.8,2.8,0,0,0,.677,2.032,2.244,2.244,0,0,0,1.626.677,2.641,2.641,0,0,0,1.084-.135,7.987,7.987,0,0,0,1.084-.542l.677.948a5.035,5.035,0,0,1-2.981,1.084,3.5,3.5,0,0,1-2.845-1.219,4.895,4.895,0,0,1-.948-3.252,7.086,7.086,0,0,1,.406-2.439,3.7,3.7,0,0,1,1.219-1.626,3.111,3.111,0,0,1,1.9-.542,3.261,3.261,0,0,1,2.574,1.084,5.016,5.016,0,0,1,.948,3.116Zm-1.49-.542a2.649,2.649,0,0,0-.542-1.9,1.941,1.941,0,0,0-1.49-.677c-1.219,0-1.9.948-2.032,2.71l4.065-.135Zm10.568-7.046V33.394h-1.355l-.135-1.219a4.124,4.124,0,0,1-1.084,1.084,2.614,2.614,0,0,1-1.355.406,2.9,2.9,0,0,1-2.439-1.219,5.779,5.779,0,0,1-.813-3.252,6.329,6.329,0,0,1,.406-2.3,3.7,3.7,0,0,1,1.219-1.626,2.723,2.723,0,0,1,1.761-.542,3.339,3.339,0,0,1,2.3,1.084V21.335Zm-3.658,11.11a3.956,3.956,0,0,0,1.219-.271,2.135,2.135,0,0,0,.948-.948v-4.2a1.822,1.822,0,0,0-.948-.813,2.552,2.552,0,0,0-1.084-.271,1.556,1.556,0,0,0-1.49.813,5.411,5.411,0,0,0-.542,2.439,4.074,4.074,0,0,0,.542,2.439,1.49,1.49,0,0,0,1.355.813Zm14.9-7.859a2.662,2.662,0,0,1,2.3,1.219,5.779,5.779,0,0,1,.813,3.252,5.839,5.839,0,0,1-.406,2.3,3.7,3.7,0,0,1-1.219,1.626,2.723,2.723,0,0,1-1.761.542,3.1,3.1,0,0,1-2.3-1.084l-.135.948h-1.355V21.335l1.49-.135v4.742a3.276,3.276,0,0,1,2.574-1.355Zm-.542,7.859a1.557,1.557,0,0,0,1.49-.813,4.074,4.074,0,0,0,.542-2.439,4.283,4.283,0,0,0-.542-2.574,1.7,1.7,0,0,0-1.49-.813c-.813,0-1.355.406-2.032,1.355v4.065a2.3,2.3,0,0,0,.813.813,3.12,3.12,0,0,0,1.219.406Zm9.755.948a7.1,7.1,0,0,1-1.355,2.439,4.52,4.52,0,0,1-2.574,1.084L155.9,35.7a8.42,8.42,0,0,0,1.355-.406,1.992,1.992,0,0,0,.813-.677,5.309,5.309,0,0,0,.542-1.219h-.542l-2.845-8.536h1.626l2.3,7.452,2.3-7.452h1.49l-2.981,8.536Z" transform="translate(-78.4 -21.2)" fill="#fff"/>
    </clipPath>
    <clipPath id="clip-path-3">
      <path id="Path_805" data-name="Path 805" d="M51.111,79.366c.406-.133.813-.133,1.084-.265.406-.133.542-.4.813-.663a6.093,6.093,0,0,1,2.3-1.193c2.032-.663,4.065-.663,4.607,0s-.677,1.855-2.71,2.518c-1.761.663-3.658.663-4.336.133a.19.19,0,0,0-.271,0l-2.032.4a4.3,4.3,0,0,1-3.116.928,6.9,6.9,0,0,1-2.574-.265,4.889,4.889,0,0,0-.813-.133,15.053,15.053,0,0,1-2.439-.133,65.9,65.9,0,0,1-9.891-2.12,4.709,4.709,0,0,0-1.355-.133,6.654,6.654,0,0,1-3.387-.53,6.525,6.525,0,0,1-3.252-2.385c-.135-.133-.542-.8-.813-.928a33.528,33.528,0,0,1-3.523-2.518.709.709,0,0,0-.542-.265,1.743,1.743,0,0,1-1.49-.663c-.813-.663-1.084-1.723-.542-2.253s1.49-.4,2.3.265a2.541,2.541,0,0,1,.813,1.723.783.783,0,0,0,.135.53A33.8,33.8,0,0,0,23.336,73.8a6.741,6.741,0,0,0,1.626.133,6.842,6.842,0,0,1,3.387.53,6.982,6.982,0,0,0,2.845-.133c.813-.265,1.9-.663,3.116-1.193.406-.133.406-.663.271-.928a1.514,1.514,0,0,1-.271-1.325c.135-1.723,2.3-3.048,5.013-2.783a5.559,5.559,0,0,1,4.2,2.12,1.908,1.908,0,0,0,1.761.53c.677-.133,5.149-1.193,5.42-1.193s.542-.4.542-.53a3.439,3.439,0,0,1,2.168-1.193,4,4,0,0,1,2.845.265,1.958,1.958,0,0,0,1.49.133l4.2-1.325a.727.727,0,0,0,.406-.663,3.833,3.833,0,0,1,1.626-2.385c1.49-.928,3.252-.928,3.929,0,.677,1.06.135,2.65-1.355,3.578a3.5,3.5,0,0,1-3.523.4,1.468,1.468,0,0,0-1.084-.133l-4.2,1.325c-.542.133-.677.4-.677.663a3.3,3.3,0,0,1-.542.928c-.271.265,0,.53.271.663.813.4,1.626.928,2.845,1.458.677.265,1.761.8,3.387,1.458.271.133.677,0,.813,0a1.318,1.318,0,0,1,1.49-.265.616.616,0,0,0,.677,0c1.084-.53,2.574-1.458,4.742-2.518.406-.133.542-.663.677-.928a3.954,3.954,0,0,1,.813-1.458c.813-.928,2.032-1.325,2.574-.928s.271,1.59-.542,2.65c-.813.928-1.9,1.325-2.439.928-.135-.133-.271-.133-.542,0l-5.284,2.783-.271.265a2.768,2.768,0,0,1-.542.8,1.3,1.3,0,0,1-1.761.133.48.48,0,0,1-.135-.4c0-.133,0-.265-.271-.265-1.9-.8-3.252-1.325-4.065-1.723-1.355-.663-2.3-1.193-3.252-1.59a2.05,2.05,0,0,0-.948-.133,3.57,3.57,0,0,1-3.252-.663c-.135-.133-.271-.133-.542-.133H50.7c-.406.133-.677.133-1.084.265h-.135c-2.3.53-3.794.8-5.013,1.06a.689.689,0,0,0-.677.53c-.135.4-.542.663-.813.928a.494.494,0,0,0-.135.8c.677.8,1.626,2.12,3.252,4.108a1.558,1.558,0,0,0,1.084.4h.406a6.9,6.9,0,0,1,2.574.265c0,.133.406.4.948.265Zm-10.7-5.036a3.375,3.375,0,0,1-1.626,0,3.82,3.82,0,0,1-1.761-.4,2.346,2.346,0,0,0-1.355,0q-1.423.6-4.471,1.59a.66.66,0,0,0-.135.663,1.136,1.136,0,0,1,.406.8c.135.4.271.663.677.8a45.155,45.155,0,0,0,9.349,1.988,12.671,12.671,0,0,0,2.3.133,2.47,2.47,0,0,1,1.084-.8c-1.626-2.12-2.845-3.578-3.387-4.373a2.622,2.622,0,0,0-1.084-.4Zm-12.465.8c-1.626-.663-3.252-.663-3.523-.133s.948,1.458,2.71,2.12c1.626.663,3.252.663,3.523.133.135-.265-.135-.663-.677-1.06h-.135v-.133a12.413,12.413,0,0,0-1.9-.928Zm19.375,5.433c1.219,0,2.032-.4,2.032-.663s-.948-.53-2.168-.4c-1.219,0-2.032.4-2.032.663s.948.53,2.168.4Zm-29.4-9.939A.93.93,0,0,0,19,70.884c.135-.265,0-.663-.406-1.06a.93.93,0,0,0-1.084-.265c-.271.265,0,.663.406,1.06Zm45.661-3.976a1.673,1.673,0,0,0,2.3,0c.813-.53,1.219-1.458.813-1.988a1.673,1.673,0,0,0-2.3,0c-.813.53-1.219,1.458-.813,1.988ZM52.331,69.957c.135.53,1.084.8,1.9.53.948-.133,1.49-.8,1.355-1.325s-1.084-.8-1.9-.53c-.948.265-1.626.8-1.355,1.325Zm-16.666,1.06c0,1.193,1.49,2.253,3.387,2.385s3.523-.53,3.523-1.59c0-1.193-1.49-2.253-3.387-2.385-2.032-.265-3.523.4-3.523,1.59Zm36.312-.4c.135.133.813-.133,1.219-.663s.677-1.193.542-1.325-.813.133-1.219.663c-.542.53-.813,1.193-.542,1.325ZM64.39,74.993c.271-.265.406-.53.135-.8a.664.664,0,0,0-.813.133c-.271.265-.406.53-.135.8a.648.648,0,0,0,.813-.133ZM53.821,79.366c.271.265,1.626.133,2.981-.265s2.168-.928,1.9-1.193-1.626-.133-2.981.265-2.168.928-1.9,1.193ZM47.453,18.01c.135.265.135.4.542,1.193A2.107,2.107,0,0,0,50.028,20.4a6.222,6.222,0,0,1,4.742,2.253,5.23,5.23,0,0,0,2.981,1.723,52.491,52.491,0,0,1,6.1.928c1.626.4,2.3,0,2.574-.53.406-.928,1.084-1.458,1.626-1.458,1.084,0,2.032,1.59,2.168,3.578a1.623,1.623,0,0,0,.813,1.193L74.958,29.8c.271.133.406,0,.406-.133.135-.663.406-1.06.677-1.06.406,0,.542.928.542,2.12s-.406,1.988-.677,1.988-.406-.53-.542-1.325a.711.711,0,0,0-.406-.53l-3.929-1.458a.653.653,0,0,0-.948.4C69.674,31,69,31.792,68.184,31.792c-1.084,0-2.032-1.325-2.168-3.18-.135-.928-1.219-1.193-1.761-1.325a60.524,60.524,0,0,0-6.639-.928,2.452,2.452,0,0,0-2.439.8,6.353,6.353,0,0,1-5.42,2.65,6.387,6.387,0,0,1-5.691-2.915,1,1,0,0,0-1.084-.53c-.542.133-1.49.265-2.032.4a.679.679,0,0,0-.542.663c-.135,1.59-1.9,2.783-3.929,2.783a4.843,4.843,0,0,1-2.845-.928,2.678,2.678,0,0,0-2.168-.4c-1.219.4-2.574.8-3.929,1.325a1.238,1.238,0,0,0-.677,1.193,3.091,3.091,0,0,1-2.439,2.915V45.441a2.883,2.883,0,0,1,0,5.7v9.674h-1.9V51.139a2.978,2.978,0,0,1-2.439-2.783,3.251,3.251,0,0,1,2.439-2.915V34.31a2.978,2.978,0,0,1-2.439-2.783,3.123,3.123,0,0,1,.677-1.855,1.179,1.179,0,0,0,0-1.193,5.468,5.468,0,0,1-.542-1.325c-.135-.4-.406-.928-.542-1.325-.271-.8-.542-1.988-1.084-2.12a1.687,1.687,0,0,1-.677-.265c-.271-.133-.542-.133-.948.265a23.959,23.959,0,0,0-2.439,3.578,1.249,1.249,0,0,0-.135.928,1.438,1.438,0,0,1-.948,1.723c-.677.133-1.355-.4-1.626-1.325a1.284,1.284,0,0,1,.948-1.723h.406c.406,0,.542,0,.677-.265a32.129,32.129,0,0,1,2.71-3.843,1.289,1.289,0,0,0,.406-1.06,2.939,2.939,0,0,1,1.626-2.385,2.535,2.535,0,0,1,3.387.928c.406.8,0,1.458.813,1.855a7.254,7.254,0,0,0,2.032.663,14.663,14.663,0,0,1,.677-1.723c.271-.663-.542-1.325-.677-1.723-.677-1.325.271-3.313,2.3-4.241a8.655,8.655,0,0,0,1.219-.53,2.076,2.076,0,0,0,1.355-.928c1.084-1.325,1.9-2.385,2.3-2.915.135-.265.135-.4,0-.53-.271-.133-.406-.265-.677-.265-.271-.133-.542-.133-1.355.265s-1.219.663-1.49.8a1.959,1.959,0,0,0-.677.8,6.031,6.031,0,0,1-1.9,1.988c-1.49,1.06-3.252,1.193-3.794.4s.271-2.253,1.761-3.18a5.892,5.892,0,0,1,2.845-.928,2.055,2.055,0,0,0,.813-.133,19.7,19.7,0,0,0,2.168-.4c.271-.133.948-.4,1.219-.53s.542-.4.677-.4a6.744,6.744,0,0,1,3.523-1.193c2.3-.133,4.2.4,4.336,1.458s-1.626,1.988-3.929,2.12c-.813,0-1.626,0-2.032.663-.406.53-1.219,1.458-2.3,2.915a.477.477,0,0,0,0,.8,8.788,8.788,0,0,1,1.084.928,1.134,1.134,0,0,0,.948,0c1.084-.4,1.9-.663,3.116-1.06.406-.133,1.219-.4,2.168-.663a2.262,2.262,0,0,0,1.219-.928c.406-1.193,2.168-2.12,4.2-2.12a4.768,4.768,0,0,1,1.219.133,5.6,5.6,0,0,0,2.574,0c1.219-.265,2.574-.663,4.065-.928L47.589,9c-1.355-.133-2.439-.663-2.439-1.06s1.219-.663,2.574-.53a6,6,0,0,1,2.032.663,30.824,30.824,0,0,1,4.607.53c.542-.4,2.032-.265,3.523.265,1.9.663,3.252,1.59,3.116,2.253-.271.663-1.9.663-3.794,0a4.766,4.766,0,0,0-1.761-.4,3.439,3.439,0,0,1-1.084.133l3.523,1.458a7.516,7.516,0,0,0,2.981,0,10.434,10.434,0,0,1,3.794.53c3.658,1.193,5.826,4.108,5.013,6.493s-4.471,3.313-7.994,2.12c-3.658-1.193-5.962-4.108-5.013-6.493.406-.928.542-2.12-.542-2.65l-2.981-1.193c-1.49.265-2.981.663-4.2.928a1.019,1.019,0,0,0-.813,1.325c.135.53.135.4.135.53a1.827,1.827,0,0,1-.677,1.458,1.5,1.5,0,0,0-.406,1.723,4.041,4.041,0,0,0,.271.928Zm-4.742-1.458a6.647,6.647,0,0,1-2.439-.928,1.739,1.739,0,0,0-1.626,0c-.948.265-1.626.53-2.032.663-.813.265-1.49.53-2.168.8A3.827,3.827,0,0,0,32.007,18.8a5.5,5.5,0,0,1-2.032,1.855,5.779,5.779,0,0,1-2.032.53,1.269,1.269,0,0,0-1.084.8,14.663,14.663,0,0,0-.677,1.723c.135,0,.406.133.542.133a49.438,49.438,0,0,0,6.1,1.06,1.808,1.808,0,0,0,1.49-.265,4.7,4.7,0,0,1,4.336,0,3.82,3.82,0,0,0,1.761.4c.813,0,1.355-.133,1.9-.133.813-.133,1.626-1.193,1.9-1.59a3.6,3.6,0,0,1,.948-1.06,1.947,1.947,0,0,0,.677-1.988,3.5,3.5,0,0,0-.542-1.06,8.423,8.423,0,0,0-.813-1.458,2.387,2.387,0,0,0-1.761-1.193ZM32.685,26.624a1,1,0,0,1,.271-.663,52.615,52.615,0,0,1-6.5-1.193c-.271,0-.406-.133-.677-.133a.406.406,0,0,1-.135.265c-.271.8-.542,1.855-1.084,3.313a.519.519,0,0,0,.135.663,3.523,3.523,0,0,0,.677.265,1.533,1.533,0,0,0,1.49-.133,48.734,48.734,0,0,1,4.607-1.59,1.185,1.185,0,0,0,1.219-.8Zm-8.13-2.12v-.133c-.813-.265-1.49-.53-2.032-.663a1.865,1.865,0,0,0-1.49,0c-.135.133,0,0-.406.133s-.271,1.06,0,1.855a4.656,4.656,0,0,0,.542,1.193c.135.4.406.663.542,1.06s.406.8.813.663c.135,0,.406-.133.542-.133.271,0,.271-.265.406-.53.406-1.458.813-2.65,1.084-3.445ZM23.471,50.609a2.438,2.438,0,0,0,2.574-2.385,2.463,2.463,0,0,0-2.71-2.253,2.438,2.438,0,0,0-2.574,2.385,2.755,2.755,0,0,0,2.71,2.253Zm0-16.83a2.438,2.438,0,0,0,2.574-2.385,2.463,2.463,0,0,0-2.71-2.253,2.438,2.438,0,0,0-2.574,2.385,2.534,2.534,0,0,0,2.71,2.253Zm6.1-14.047c1.49-.663,2.168-2.12,1.761-3.048-.542-.928-2.032-1.193-3.523-.4s-2.168,2.12-1.761,3.048,2.032,1.06,3.523.4Zm-9.213,3.313a1.647,1.647,0,0,0,.948-2.12,1.6,1.6,0,0,0-2.168-.663,1.647,1.647,0,0,0-.948,2.12,1.522,1.522,0,0,0,2.168.663Zm-6.5,5.566c-.135-.53-.542-.928-.813-.8-.271,0-.542.53-.406,1.06s.542.928.813.8a.991.991,0,0,0,.406-1.06Zm35.905-.265c2.574,0,4.742-1.458,4.742-3.313s-2.168-3.313-4.742-3.313-4.742,1.458-4.742,3.313,2.032,3.313,4.742,3.313Zm18.427,2.518c.677,0,1.219-1.458,1.219-3.313s-.542-3.313-1.219-3.313-1.219,1.458-1.219,3.313.542,3.313,1.219,3.313Zm7.723,1.325c.135,0,.271-.53.271-1.325s0-1.325-.135-1.325-.271.53-.271,1.325a7.584,7.584,0,0,0,.135,1.325ZM36.478,28.876c1.355,0,2.439-.8,2.439-1.855s-1.084-1.855-2.439-1.855-2.439.8-2.439,1.855,1.219,1.855,2.439,1.855ZM25.774,13.5c.948-.663,1.626-1.458,1.355-1.855s-1.355-.133-2.3.53-1.626,1.458-1.355,1.855,1.219.133,2.3-.53Zm9.62-3.313c1.761-.133,3.116-.663,3.116-1.325,0-.53-1.49-.928-3.252-.8s-3.116.663-3.116,1.325,1.49.928,3.252.8Zm8.4,5.566c1.9,0,3.523-.8,3.523-1.855s-1.626-1.723-3.523-1.723-3.523.8-3.523,1.855,1.626,1.723,3.523,1.723Zm10.3-6.626a26.055,26.055,0,0,0-4.2-.53c-.135,0-.135.133-.406.133-.135,0,0,.133.135.265.677.265,1.761.8,3.252,1.325l1.219-.133c.677-.133.813-.265.677-.4a3.017,3.017,0,0,1-.677-.663Zm3.252,1.193c1.219.4,2.439.53,2.439.265.135-.265-.813-.8-2.168-1.193s-2.439-.53-2.439-.265c-.135.133.813.8,2.168,1.193ZM47.453,8.336A2.6,2.6,0,0,0,49.079,8.2c0-.133-.677-.4-1.49-.53a2.6,2.6,0,0,0-1.626.133c0,.133.677.4,1.49.53ZM62.086,20.263c2.981.928,5.826.4,6.368-1.193s-1.355-3.843-4.2-4.771c-2.981-.928-5.826-.4-6.368,1.193s1.355,3.843,4.2,4.771Zm14.9,28.889c-.271,0-.406-.8-.135-1.59.135-.8.542-1.325.813-1.325s.406.8.135,1.59c-.135.663-.542,1.325-.813,1.325Zm.135-.663q.2,0,.406-.8c.135-.4.135-.8,0-.8s-.271.265-.406.8q-.2.6,0,.8ZM74.145,20.263c-.406.265-1.084,0-1.49-.663a1.147,1.147,0,0,1,.135-1.59c.406-.265,1.084,0,1.49.663s.406,1.325-.135,1.59Zm-.271-.53q.2-.2,0-.8c-.135-.265-.406-.53-.677-.4q-.2.2,0,.8a1.245,1.245,0,0,0,.677.4Zm-50.4,13.252A1.466,1.466,0,1,1,25.1,31.527a1.524,1.524,0,0,1-1.626,1.458Zm0,16.565a1.381,1.381,0,0,1-1.49-1.325,1.471,1.471,0,0,1,1.49-1.325,1.334,1.334,0,1,1,0,2.65Zm25.879,1.59v9.674h-1.9V51.139a3.1,3.1,0,0,1-2.439-2.783A3.372,3.372,0,0,1,48.4,45.309a3.3,3.3,0,0,1,3.523,2.915,3.4,3.4,0,0,1-2.574,2.915Zm-.948-.53a2.438,2.438,0,0,0,2.574-2.385,2.463,2.463,0,0,0-2.71-2.253,2.438,2.438,0,0,0-2.574,2.385,2.638,2.638,0,0,0,2.71,2.253Zm0-.928a1.381,1.381,0,0,1-1.49-1.325,1.471,1.471,0,0,1,1.49-1.325,1.381,1.381,0,0,1,1.49,1.325,1.471,1.471,0,0,1-1.49,1.325Z" transform="translate(-11.747 -7.374)" fill="#fff"/>
    </clipPath>
    <clipPath id="clip-path-4">
      <path id="Path_806" data-name="Path 806" d="M13.575,27.535c2.574,0,5.42.813,5.42,3.794v6.233H17.1V31.6c0-1.355-1.626-2.574-3.658-2.574S9.51,30.11,9.374,31.6v5.826h-1.9V27.535h1.9v1.219a6.725,6.725,0,0,1,4.2-1.219Zm66.12,0c2.574,0,5.555.813,5.555,3.929V37.7h-1.9V31.736c0-1.355-1.626-2.574-3.658-2.574s-3.929,1.084-4.065,2.574v5.826H73.6V27.671h1.9V28.89a6.035,6.035,0,0,1,4.2-1.355ZM35.253,27.4a7.768,7.768,0,0,1,5.555,1.761l-1.626.948a5.971,5.971,0,0,0-3.794-1.084c-1.761,0-3.523.135-3.523,1.219S34.44,31.465,37.15,31.6s3.929,1.084,3.794,3.116-2.439,3.116-5.42,3.116A10.1,10.1,0,0,1,28.75,35.8l1.626-1.084a7.984,7.984,0,0,0,5.013,1.49c2.845,0,3.658-.948,3.658-1.49s0-1.626-4.742-1.626c-1.9,0-4.742-.542-4.607-2.981.135-2.168,2.845-2.71,5.555-2.71Zm14.362,0a7.768,7.768,0,0,1,5.555,1.761l-1.626.948a5.971,5.971,0,0,0-3.794-1.084c-1.761,0-3.523.135-3.523,1.219S48.8,31.465,51.513,31.6s3.929,1.084,3.794,3.116-2.439,3.116-5.42,3.116A10.1,10.1,0,0,1,43.112,35.8l1.626-1.084a7.984,7.984,0,0,0,5.013,1.49c2.845,0,3.658-.948,3.658-1.49s0-1.626-4.742-1.626c-1.9,0-4.742-.542-4.607-2.981,0-2.168,2.71-2.71,5.555-2.71ZM19.13,40.543l-.135,14.227H17.1V53.415c-.948,1.084-3.252,1.49-4.607,1.49C9.374,54.9,6.8,53.144,6.8,49.756c0-3.252,2.71-5.284,5.826-5.284a8.038,8.038,0,0,1,4.607,1.355l.135-5.555,1.761.271Zm-10.3,9.349c0,2.3,1.9,3.523,3.929,3.523s4.471-.677,4.471-3.523-2.574-3.658-4.336-3.523c-1.761,0-4.065,1.084-4.065,3.523ZM63.978,27.4c4.471.135,5.013,1.49,5.013,3.387v4.065c0,1.761.948,1.219,1.761,1.355v1.355a7.27,7.27,0,0,1-2.71-.135,1.428,1.428,0,0,1-.813-1.355,5.111,5.111,0,0,1-4.471,1.9c-2.981,0-4.878-1.219-4.878-3.387,0-2.439,2.439-3.116,5.013-3.116H67.23c0-2.032-.135-2.574-3.116-2.574-1.49,0-3.523.271-3.523,1.219H58.558c.271-2.71,3.929-2.71,5.42-2.71Zm-4.2,7.181c0,1.355,1.761,2.032,3.252,1.9,2.981-.406,4.336-1.49,4.2-3.387H63.165c-1.9-.135-3.387.135-3.387,1.49ZM73.056,44.743c4.471.135,5.013,1.49,5.013,3.387V52.2c0,1.761.948,1.219,1.761,1.355V54.9a7.27,7.27,0,0,1-2.71-.135,1.428,1.428,0,0,1-.813-1.355,5.111,5.111,0,0,1-4.471,1.9c-2.981,0-4.878-1.219-4.878-3.387,0-2.439,2.439-3.116,5.013-3.116h4.336c0-2.032-.135-2.574-3.116-2.574-1.49,0-3.523.271-3.523,1.219H67.636c.135-2.845,3.794-2.845,5.42-2.71ZM68.72,51.789c0,1.355,1.761,2.032,3.252,1.9,2.981-.406,4.336-1.49,4.2-3.387H72.107c-1.9-.135-3.387.135-3.387,1.49ZM43.383,45.014v9.349c0,4.065-2.845,4.607-5.826,4.742-1.9.135-6.233-.271-5.962-3.523h1.9c0,1.49,1.9,2.032,3.523,2.032s4.2-.406,4.471-2.168c0,0,0-.677-.135-2.032a6.638,6.638,0,0,1-4.607,1.626c-3.116,0-5.826-1.626-5.826-5.013,0-3.252,2.71-5.284,5.826-5.149a6.49,6.49,0,0,1,4.607,1.49V45.15l2.032-.135Zm-6.233,8.4c2.032,0,4.336-1.084,4.336-3.523s-2.574-3.523-4.336-3.523-4.065,1.084-4.065,3.658c.135,2.168,2.032,3.252,4.065,3.387Zm25.608-8.536v1.355h-2.71v5.691c0,1.761,1.626,1.219,2.71,1.219v1.626c-2.71,0-4.742.542-4.607-2.981V46.233H56.39V44.879h1.761V41.627h1.9v3.252h2.71Zm20.595-4.2h2.168V54.9H83.353V40.678Z" transform="translate(-6.8 -27.4)" fill="#fff"/>
    </clipPath>
  </defs>
  <g id="Powered_by_nissan_digital" data-name="Powered by nissan digital" transform="translate(-84 -739)">
    <g id="Group_2741" data-name="Group 2741" transform="translate(174.905 777.521)">
      <g id="Group_2740" data-name="Group 2740" transform="translate(0 0)" clip-path="url(#clip-path)">
        <rect id="Rectangle_1938" data-name="Rectangle 1938" width="182.508" height="28.182" transform="translate(-6.639 -6.775)" fill="#fff"/>
      </g>
    </g>
    <g id="Group_2744" data-name="Group 2744" transform="translate(177.889 757.214)" clip-path="url(#clip-path-2)">
      <rect id="Rectangle_1939" data-name="Rectangle 1939" width="98.097" height="29.266" transform="translate(-6.775 -6.775)" fill="#fff"/>
    </g>
    <g id="Group_2748" data-name="Group 2748" transform="translate(90.703 739)" clip-path="url(#clip-path-3)">
      <rect id="Rectangle_1940" data-name="Rectangle 1940" width="79.534" height="87.462" transform="translate(-6.568 -6.856)" fill="#fff"/>
    </g>
    <g id="Group_2752" data-name="Group 2752" transform="translate(84 765.106)" clip-path="url(#clip-path-4)">
      <rect id="Rectangle_1941" data-name="Rectangle 1941" width="92.27" height="45.39" transform="translate(-6.775 -6.775)" fill="#fff"/>
    </g>
  </g>
</svg>
