<svg xmlns="http://www.w3.org/2000/svg" width="28" height="28" viewBox="0 0 28 28"><defs><style>.a{fill:none;}.b{fill:#6981a2;}</style></defs><path class="a" d="M0,0H28V28H0Z"/><path class="b" d="M10.078,4.532l3.085-3.085a1.183,1.183,0,0,1,1.673,0l3.085,3.085h4.362a1.183,1.183,0,0,1,1.183,1.183v4.362l3.085,3.085a1.183,1.183,0,0,1,0,1.673l-3.085,3.085v4.362a1.183,1.183,0,0,1-1.183,1.183H17.922l-3.085,3.085a1.183,1.183,0,0,1-1.673,0l-3.085-3.085H5.716a1.183,1.183,0,0,1-1.183-1.183V17.922L1.447,14.837a1.183,1.183,0,0,1,0-1.673l3.085-3.085V5.716A1.183,1.183,0,0,1,5.716,4.532ZM6.9,6.9v4.16L3.958,14,6.9,16.941V21.1h4.16L14,24.042,16.941,21.1H21.1v-4.16L24.042,14,21.1,11.059V6.9h-4.16L14,3.958,11.059,6.9ZM14,18.734A4.734,4.734,0,1,1,18.734,14,4.734,4.734,0,0,1,14,18.734Zm0-2.367A2.367,2.367,0,1,0,11.633,14,2.367,2.367,0,0,0,14,16.367Z"/></svg>