<svg xmlns="http://www.w3.org/2000/svg" width="29.005" height="29.015" viewBox="0 0 29.005 29.015"><defs><style>.a{fill:#6981a2;stroke:#6981a2;}</style></defs><g transform="translate(-240.496 -517.579)"><g transform="translate(240 517.168)"><path class="a" d="M24.7.02c-1.41.148-3.106,1.087-5.185,2.869-3.762,3.224-8.2,8.792-11.057,12.8a6.1,6.1,0,0,0-5.588,2.195C.483,20.868,2.484,23.535.23,25.912A.821.821,0,0,0,.5,27.231c3.689,1.579,8.4.595,10.616-1.737a6.479,6.479,0,0,0,1.718-5.511C16.788,16.95,22.25,12.274,25.343,8.4,27.055,6.247,27.924,4.52,28,3.113A2.881,2.881,0,0,0,24.7.02ZM9.927,24.365c-1.5,1.578-4.807,2.5-7.753,1.711,1.647-2.627.231-4.983,1.98-7.17,1.435-1.794,4.322-2.3,6-.619C12.114,20.247,11.2,23.021,9.927,24.365Zm.168-8.14c.4-.556,1.033-1.415,1.821-2.442l2.692,2.692c-.991.815-1.819,1.469-2.356,1.886A5.407,5.407,0,0,0,10.1,16.225Zm16.266-13.2C26.177,6.471,18.495,13.2,15.872,15.419l-2.941-2.942C15.089,9.745,21.422,2.015,24.876,1.651A1.246,1.246,0,0,1,26.361,3.025Z" transform="translate(0.995 0.913)"/></g></g></svg>