<svg xmlns="http://www.w3.org/2000/svg" width="36" height="54" viewBox="0 0 36 54">
  <path id="Scroll-Down-mouse" d="M-1286-766v-18a18.053,18.053,0,0,1,18-18,18.053,18.053,0,0,1,18,18v18a18.053,18.053,0,0,1-18,18,18.053,18.053,0,0,1-18-18Zm4-18v18a14.041,14.041,0,0,0,14,14,14.041,14.041,0,0,0,14-14v-18a14.041,14.041,0,0,0-14-14,14.041,14.041,0,0,0-14,14Zm12,1v-6a2.006,2.006,0,0,1,2-2,2.006,2.006,0,0,1,2,2v6a2.006,2.006,0,0,1-2,2A2.006,2.006,0,0,1-1270-783Z" transform="translate(1286 802)"/>
</svg>
