<svg xmlns="http://www.w3.org/2000/svg" xmlns:xlink="http://www.w3.org/1999/xlink" width="292" height="292" viewBox="0 0 292 292"><defs><style>.a{fill:#fff;}.b{fill:#e5eefc;}.c,.d{fill:none;stroke:#2d71e0;stroke-linecap:round;stroke-linejoin:round;}.c{stroke-width:5px;}.d{stroke-width:4px;}.e{filter:url(#a);}</style><filter id="a" x="0" y="0" width="292" height="292" filterUnits="userSpaceOnUse"><feOffset dy="12" input="SourceAlpha"/><feGaussianBlur stdDeviation="12" result="b"/><feFlood flood-opacity="0.078"/><feComposite operator="in" in2="b"/><feComposite in="SourceGraphic"/></filter></defs><g transform="translate(-205 -3687)"><g transform="translate(-86 361)"><g class="e" transform="matrix(1, 0, 0, 1, 291, 3326)"><circle class="a" cx="110" cy="110" r="110" transform="translate(36 24)"/></g></g><g transform="translate(-755.744 3561.582)"><path class="b" d="M1084.289,232.523v5.129c0,14.162,11.482,27.222,25.644,27.222s25.644-13.06,25.644-27.222v-5.129" transform="translate(-2.78 -3.735)"/><path class="c" d="M1096.933,189.059a32.1,32.1,0,0,0-18.885,27.307q-.083,1.186-.084,2.4h-3.156v10.455h7.891v5.129c0,14.162,11.481,27.222,25.644,27.222s25.644-13.06,25.644-27.222v-5.129h8.679V218.762h-3.156q0-.948-.052-1.883a32.142,32.142,0,0,0-18.533-27.65" transform="translate(-2.059 -0.429)"/><path class="c" d="M1102.7,214.585l-3.479-27.487a3.147,3.147,0,0,1,2.921-3.68h17.688a3.147,3.147,0,0,1,2.92,3.68l-3.479,27.487" transform="translate(-3.913 0)"/><line class="c" x2="51.288" transform="translate(1080.64 228.788)"/><path class="c" d="M1143.391,328.566H1158.5a7.741,7.741,0,0,0,7.662-8.842l-4.474-31.148a7.743,7.743,0,0,0-4.12-5.782l-26.729-13.759a3.835,3.835,0,0,0-4.647,1.319l-15.664,20.553a3.834,3.834,0,0,1-6.223.07l-17.094-21.459a3.832,3.832,0,0,0-4.665-1.219l-26.8,14.431a7.742,7.742,0,0,0-4.011,5.85l-3.931,31.279a7.74,7.74,0,0,0,7.681,8.706h73.4" transform="translate(0 -6.431)"/><line class="c" x1="1.187" y2="9.132" transform="translate(1091.042 257.343)"/><line class="c" x1="1.093" y1="10.413" transform="translate(1121.36 257.307)"/><line class="c" y1="16.959" transform="translate(1106.821 286.043)"/><path class="d" d="M1148.155,344.493v-22.57l8.464-4.232c0-22.57-8.464-21.865-8.464-21.865v11.99h-11.99v-11.99s-8.463-.7-8.463,21.865l8.463,4.232v22.57" transform="translate(-6.082 -8.55)"/></g></g></svg>