<svg xmlns="http://www.w3.org/2000/svg" width="24.126" height="26.807" viewBox="0 0 24.126 26.807"><defs><style>.a{fill:#6981a2;}</style></defs><path class="a" d="M20.424,18.084H9.7a1.34,1.34,0,1,0,0,2.681H20.424a1.34,1.34,0,1,0,0-2.681Zm0-5.361H12.382a1.34,1.34,0,0,0,0,2.681h8.042a1.34,1.34,0,1,0,0-2.681Zm5.361-8.042H21.764V3.34a1.34,1.34,0,0,0-2.681,0v1.34H16.4V3.34a1.34,1.34,0,0,0-2.681,0v1.34H11.042V3.34a1.34,1.34,0,1,0-2.681,0v1.34H4.34A1.34,1.34,0,0,0,3,6.021V24.785a4.021,4.021,0,0,0,4.021,4.021H23.1a4.021,4.021,0,0,0,4.021-4.021V6.021A1.34,1.34,0,0,0,25.785,4.681Zm-1.34,20.1a1.34,1.34,0,0,1-1.34,1.34H7.021a1.34,1.34,0,0,1-1.34-1.34V7.361H8.361V8.7a1.34,1.34,0,1,0,2.681,0V7.361h2.681V8.7a1.34,1.34,0,1,0,2.681,0V7.361h2.681V8.7a1.34,1.34,0,1,0,2.681,0V7.361h2.681Z" transform="translate(-3 -2)"/></svg>