<svg xmlns="http://www.w3.org/2000/svg" xmlns:xlink="http://www.w3.org/1999/xlink" width="581" height="1445" viewBox="0 0 581 1445"><defs><style>.a{fill:#fff;stroke:#707070;}.b{stroke:rgba(0,0,0,0);}.b,.e{fill:url(#a);}.c,.h{fill:none;}.d{clip-path:url(#b);}.f{clip-path:url(#d);}.g{clip-path:url(#e);}.h{stroke:#d1e8ff;}.i,.j{stroke:none;}.j{fill:rgba(0,0,0,0);}</style><linearGradient id="a" x1="0.101" y1="0.198" x2="1.063" y2="0.938" gradientUnits="objectBoundingBox"><stop offset="0" stop-color="#3686f2"/><stop offset="1" stop-color="#0c155e"/></linearGradient><clipPath id="b"><rect class="a" width="581" height="1445" transform="translate(0 4040)"/></clipPath><clipPath id="d"><path class="b" d="M787.689,0a134,134,0,0,1,116.38,67.579l212.023,371.5a134,134,0,0,1,0,132.841l-212.023,371.5A134,134,0,0,1,787.689,1011H366.311a134,134,0,0,1-116.38-67.579L37.908,571.921a134,134,0,0,1,0-132.841l212.023-371.5A134,134,0,0,1,366.311,0Z" transform="translate(-636 4594.106)"/></clipPath><clipPath id="e"><rect class="c" width="1403" height="706.707"/></clipPath></defs><g class="d" transform="translate(0 -4040)"><g class="e" transform="translate(-910 4070.106)"><path class="i" d="M787.689,0a134,134,0,0,1,116.38,67.579l212.023,371.5a134,134,0,0,1,0,132.841l-212.023,371.5A134,134,0,0,1,787.689,1011H366.311a134,134,0,0,1-116.38-67.579L37.908,571.921a134,134,0,0,1,0-132.841l212.023-371.5A134,134,0,0,1,366.311,0Z"/><path class="j" d="M 366.3109130859375 1.00006103515625 C 354.527099609375 1.00006103515625 342.7965087890625 2.56390380859375 331.445068359375 5.648193359375 C 320.279052734375 8.6820068359375 309.5393676757812 13.169189453125 299.5241088867188 18.9847412109375 C 289.5089111328125 24.80047607421875 280.2883911132812 31.90374755859375 272.1187744140625 40.09771728515625 C 263.8133544921875 48.427734375 256.6405029296875 57.840576171875 250.7996826171875 68.07501220703125 L 38.7762451171875 439.5750122070312 C 33.020751953125 449.6593017578125 28.6077880859375 460.4569091796875 25.65966796875 471.6676025390625 C 22.758544921875 482.6998901367188 21.2874755859375 494.082763671875 21.2874755859375 505.4998779296875 C 21.2874755859375 516.9171752929688 22.758544921875 528.300048828125 25.65966796875 539.332275390625 C 28.6077880859375 550.5430297851562 33.020751953125 561.3404541015625 38.7762451171875 571.4247436523438 L 250.7994995117188 942.9248657226562 C 256.640380859375 953.1593017578125 263.813232421875 962.5723266601562 272.11865234375 970.90234375 C 280.2882080078125 979.09619140625 289.5087890625 986.1995849609375 299.52392578125 992.0153198242188 C 309.5392456054688 997.8308715820312 320.2789306640625 1002.318054199219 331.4449462890625 1005.351867675781 C 342.7965087890625 1008.436157226562 354.527099609375 1010 366.3109130859375 1010 L 787.6890869140625 1010 C 799.472900390625 1010 811.2034912109375 1008.436157226562 822.554931640625 1005.351867675781 C 833.720947265625 1002.318054199219 844.460693359375 997.8308715820312 854.4759521484375 992.0153198242188 C 864.4912109375 986.1995849609375 873.7117919921875 979.09619140625 881.88134765625 970.90234375 C 890.186767578125 962.5721435546875 897.359619140625 953.1593017578125 903.2005004882812 942.9248657226562 L 1115.2236328125 571.4249267578125 C 1120.979125976562 561.340576171875 1125.39208984375 550.543212890625 1128.340087890625 539.3324584960938 C 1131.2412109375 528.3001708984375 1132.712280273438 516.9173583984375 1132.712280273438 505.5000305175781 C 1132.712280273438 494.0828857421875 1131.2412109375 482.7000122070312 1128.340087890625 471.667724609375 C 1125.39208984375 460.45703125 1120.979125976562 449.6594848632812 1115.2236328125 439.5751953125 L 903.2005004882812 68.0751953125 C 897.359619140625 57.84075927734375 890.186767578125 48.42791748046875 881.88134765625 40.09771728515625 C 873.7117919921875 31.90386962890625 864.4912109375 24.80047607421875 854.4759521484375 18.9847412109375 C 844.460693359375 13.169189453125 833.720947265625 8.6820068359375 822.554931640625 5.648193359375 C 811.2034912109375 2.56390380859375 799.472900390625 1.00006103515625 787.6890869140625 1.00006103515625 L 366.3109130859375 1.00006103515625 M 366.3109130859375 6.103515625e-05 L 787.6890869140625 6.103515625e-05 C 835.8013916015625 6.103515625e-05 880.220947265625 25.79345703125 904.069091796875 67.5794677734375 L 1116.09228515625 439.0794677734375 C 1139.58544921875 480.2437744140625 1139.58544921875 530.7564697265625 1116.09228515625 571.9205932617188 L 904.069091796875 943.4205932617188 C 880.220947265625 985.2066040039062 835.8013916015625 1011 787.6890869140625 1011 L 366.3109130859375 1011 C 318.198486328125 1011 273.779052734375 985.2066040039062 249.9309692382812 943.4205932617188 L 37.9075927734375 571.9204711914062 C 14.4141845703125 530.75634765625 14.4141845703125 480.2435913085938 37.9075927734375 439.079345703125 L 249.9310913085938 67.579345703125 C 273.7792358398438 25.79345703125 318.1986694335938 6.103515625e-05 366.3109130859375 6.103515625e-05 Z"/></g><g class="f" transform="translate(36 1)"><g class="g" transform="translate(-607.854 4693.146)"><g transform="translate(152.854 -69.146)"><line class="h" x1="994" y2="994" transform="matrix(0.966, -0.259, 0.259, 0.966, -715.198, 215.068)"/></g><g transform="translate(178.854 -69.146)"><line class="h" x1="994" y2="994" transform="matrix(0.966, -0.259, 0.259, 0.966, -715.198, 215.068)"/></g><g transform="translate(204.854 -69.146)"><line class="h" x1="994" y2="994" transform="matrix(0.966, -0.259, 0.259, 0.966, -715.198, 215.068)"/></g><g transform="translate(230.854 -69.146)"><line class="h" x1="994" y2="994" transform="matrix(0.966, -0.259, 0.259, 0.966, -715.198, 215.068)"/></g><g transform="translate(256.854 -69.146)"><line class="h" x1="994" y2="994" transform="matrix(0.966, -0.259, 0.259, 0.966, -715.198, 215.068)"/></g><g transform="translate(282.854 -69.146)"><line class="h" x1="994" y2="994" transform="matrix(0.966, -0.259, 0.259, 0.966, -715.198, 215.068)"/></g><g transform="translate(308.854 -69.146)"><line class="h" x1="994" y2="994" transform="matrix(0.966, -0.259, 0.259, 0.966, -715.198, 215.068)"/></g><g transform="translate(334.854 -69.146)"><line class="h" x1="994" y2="994" transform="matrix(0.966, -0.259, 0.259, 0.966, -715.198, 215.068)"/></g><g transform="translate(360.854 -69.146)"><line class="h" x1="994" y2="994" transform="matrix(0.966, -0.259, 0.259, 0.966, -715.198, 215.068)"/></g><g transform="translate(386.854 -69.146)"><line class="h" x1="994" y2="994" transform="matrix(0.966, -0.259, 0.259, 0.966, -715.198, 215.068)"/></g><g transform="translate(412.854 -69.146)"><line class="h" x1="994" y2="994" transform="matrix(0.966, -0.259, 0.259, 0.966, -715.198, 215.068)"/></g><g transform="translate(438.854 -69.146)"><line class="h" x1="994" y2="994" transform="matrix(0.966, -0.259, 0.259, 0.966, -715.198, 215.068)"/></g><g transform="translate(464.854 -69.146)"><line class="h" x1="994" y2="994" transform="matrix(0.966, -0.259, 0.259, 0.966, -715.198, 215.068)"/></g><g transform="translate(490.854 -69.146)"><line class="h" x1="994" y2="994" transform="matrix(0.966, -0.259, 0.259, 0.966, -715.198, 215.068)"/></g><g transform="translate(516.854 -69.146)"><line class="h" x1="994" y2="994" transform="matrix(0.966, -0.259, 0.259, 0.966, -715.198, 215.068)"/></g><g transform="translate(542.854 -69.146)"><line class="h" x1="994" y2="994" transform="matrix(0.966, -0.259, 0.259, 0.966, -715.198, 215.068)"/></g><g transform="translate(568.854 -69.146)"><line class="h" x1="994" y2="994" transform="matrix(0.966, -0.259, 0.259, 0.966, -715.198, 215.068)"/></g><g transform="translate(594.854 -69.146)"><line class="h" x1="994" y2="994" transform="matrix(0.966, -0.259, 0.259, 0.966, -715.198, 215.068)"/></g><g transform="translate(620.854 -69.146)"><line class="h" x1="994" y2="994" transform="matrix(0.966, -0.259, 0.259, 0.966, -715.198, 215.068)"/></g><g transform="translate(646.854 -69.146)"><line class="h" x1="994" y2="994" transform="matrix(0.966, -0.259, 0.259, 0.966, -715.198, 215.068)"/></g><g transform="translate(672.854 -69.146)"><line class="h" x1="994" y2="994" transform="matrix(0.966, -0.259, 0.259, 0.966, -715.198, 215.068)"/></g><g transform="translate(698.854 -69.146)"><line class="h" x1="994" y2="994" transform="matrix(0.966, -0.259, 0.259, 0.966, -715.198, 215.068)"/></g><g transform="translate(724.854 -69.146)"><line class="h" x1="994" y2="994" transform="matrix(0.966, -0.259, 0.259, 0.966, -715.198, 215.068)"/></g><g transform="translate(750.854 -69.146)"><line class="h" x1="994" y2="994" transform="matrix(0.966, -0.259, 0.259, 0.966, -715.198, 215.068)"/></g><g transform="translate(776.854 -69.146)"><line class="h" x1="994" y2="994" transform="matrix(0.966, -0.259, 0.259, 0.966, -715.198, 215.068)"/></g><g transform="translate(802.854 -69.146)"><line class="h" x1="994" y2="994" transform="matrix(0.966, -0.259, 0.259, 0.966, -715.198, 215.068)"/></g><g transform="translate(828.854 -69.146)"><line class="h" x1="994" y2="994" transform="matrix(0.966, -0.259, 0.259, 0.966, -715.198, 215.068)"/></g><g transform="translate(854.854 -69.146)"><line class="h" x1="994" y2="994" transform="matrix(0.966, -0.259, 0.259, 0.966, -715.198, 215.068)"/></g><g transform="translate(880.854 -69.146)"><line class="h" x1="994" y2="994" transform="matrix(0.966, -0.259, 0.259, 0.966, -715.198, 215.068)"/></g><g transform="translate(906.854 -69.146)"><line class="h" x1="994" y2="994" transform="matrix(0.966, -0.259, 0.259, 0.966, -715.198, 215.068)"/></g><g transform="translate(932.854 -69.146)"><line class="h" x1="994" y2="994" transform="matrix(0.966, -0.259, 0.259, 0.966, -715.198, 215.068)"/></g><g transform="translate(958.854 -69.146)"><line class="h" x1="994" y2="994" transform="matrix(0.966, -0.259, 0.259, 0.966, -715.198, 215.068)"/></g><g transform="translate(984.854 -69.146)"><line class="h" x1="994" y2="994" transform="matrix(0.966, -0.259, 0.259, 0.966, -715.198, 215.068)"/></g><g transform="translate(1010.854 -69.146)"><line class="h" x1="994" y2="994" transform="matrix(0.966, -0.259, 0.259, 0.966, -715.198, 215.068)"/></g><g transform="translate(1036.854 -69.146)"><line class="h" x1="994" y2="994" transform="matrix(0.966, -0.259, 0.259, 0.966, -715.198, 215.068)"/></g><g transform="translate(1062.854 -69.146)"><line class="h" x1="994" y2="994" transform="matrix(0.966, -0.259, 0.259, 0.966, -715.198, 215.068)"/></g><g transform="translate(1088.854 -69.146)"><line class="h" x1="994" y2="994" transform="matrix(0.966, -0.259, 0.259, 0.966, -715.198, 215.068)"/></g><g transform="translate(1114.854 -69.146)"><line class="h" x1="994" y2="994" transform="matrix(0.966, -0.259, 0.259, 0.966, -715.198, 215.068)"/></g><g transform="translate(1140.854 -69.146)"><line class="h" x1="994" y2="994" transform="matrix(0.966, -0.259, 0.259, 0.966, -715.198, 215.068)"/></g><g transform="translate(1166.854 -69.146)"><line class="h" x1="994" y2="994" transform="matrix(0.966, -0.259, 0.259, 0.966, -715.198, 215.068)"/></g><g transform="translate(1192.854 -69.146)"><line class="h" x1="994" y2="994" transform="matrix(0.966, -0.259, 0.259, 0.966, -715.198, 215.068)"/></g><g transform="translate(1218.854 -69.146)"><line class="h" x1="994" y2="994" transform="matrix(0.966, -0.259, 0.259, 0.966, -715.198, 215.068)"/></g><g transform="translate(1244.854 -69.146)"><line class="h" x1="994" y2="994" transform="matrix(0.966, -0.259, 0.259, 0.966, -715.198, 215.068)"/></g><g transform="translate(1270.854 -69.146)"><line class="h" x1="994" y2="994" transform="matrix(0.966, -0.259, 0.259, 0.966, -715.198, 215.068)"/></g><g transform="translate(1296.854 -69.146)"><line class="h" x1="994" y2="994" transform="matrix(0.966, -0.259, 0.259, 0.966, -715.198, 215.068)"/></g><g transform="translate(1322.854 -69.146)"><line class="h" x1="994" y2="994" transform="matrix(0.966, -0.259, 0.259, 0.966, -715.198, 215.068)"/></g><g transform="translate(1348.854 -69.146)"><line class="h" x1="994" y2="994" transform="matrix(0.966, -0.259, 0.259, 0.966, -715.198, 215.068)"/></g><g transform="translate(1374.854 -69.146)"><line class="h" x1="994" y2="994" transform="matrix(0.966, -0.259, 0.259, 0.966, -715.198, 215.068)"/></g><g transform="translate(1400.854 -69.146)"><line class="h" x1="994" y2="994" transform="matrix(0.966, -0.259, 0.259, 0.966, -715.198, 215.068)"/></g><g transform="translate(1426.854 -69.146)"><line class="h" x1="994" y2="994" transform="matrix(0.966, -0.259, 0.259, 0.966, -715.198, 215.068)"/></g><g transform="translate(1452.854 -69.146)"><line class="h" x1="994" y2="994" transform="matrix(0.966, -0.259, 0.259, 0.966, -715.198, 215.068)"/></g><g transform="translate(1478.854 -69.146)"><line class="h" x1="994" y2="994" transform="matrix(0.966, -0.259, 0.259, 0.966, -715.198, 215.068)"/></g><g transform="translate(1504.854 -69.146)"><line class="h" x1="994" y2="994" transform="matrix(0.966, -0.259, 0.259, 0.966, -715.198, 215.068)"/></g><g transform="translate(1530.854 -69.146)"><line class="h" x1="994" y2="994" transform="matrix(0.966, -0.259, 0.259, 0.966, -715.198, 215.068)"/></g></g></g></g></svg>