<svg xmlns="http://www.w3.org/2000/svg" xmlns:xlink="http://www.w3.org/1999/xlink" width="750" height="340" viewBox="0 0 750 340"><defs><style>.a{fill:#fff;}.b{opacity:0.5;fill:url(#c);}.c{fill:#78c6de;}.d{filter:url(#a);}</style><filter id="a" x="0" y="0" width="750" height="340" filterUnits="userSpaceOnUse"><feOffset input="SourceAlpha"/><feGaussianBlur stdDeviation="15" result="b"/><feFlood flood-opacity="0.102"/><feComposite operator="in" in2="b"/><feComposite in="SourceGraphic"/></filter><linearGradient id="c" y1="0.5" x2="0.963" y2="1.036" gradientUnits="objectBoundingBox"><stop offset="0" stop-color="#ebfbff" stop-opacity="0"/><stop offset="1" stop-color="#95d7eb"/></linearGradient></defs><g transform="translate(-129 -4669)"><g class="d" transform="matrix(1, 0, 0, 1, 129, 4669)"><rect class="a" width="660" height="250" rx="30" transform="translate(45 45)"/></g><circle class="b" cx="55" cy="55" r="55" transform="translate(210 4784)"/><g transform="translate(202 4807)"><path class="c" d="M63,43V41H61V27H55V41H53V31H47V41H45V35H39v6H37v8H33V47a4,4,0,0,0-4-4H16a2,2,0,0,1,0-4H29a4,4,0,0,0,4-4V31.464A5.993,5.993,0,0,0,43,27c0-.116,0-.232-.011-.349A5.979,5.979,0,0,0,45.462,17,5.935,5.935,0,0,0,47,13a6,6,0,0,0-4.017-5.656,6.2,6.2,0,0,0-.1-1.557A6.007,6.007,0,0,0,32,3.683,6,6,0,0,0,21,7c0,.116,0,.232.011.349A5.979,5.979,0,0,0,18.538,17,5.935,5.935,0,0,0,17,21a6,6,0,0,0,4.017,5.656,6.2,6.2,0,0,0,.1,1.557,6,6,0,0,0,9.663,3.444c.078-.063.142-.138.217-.2V35a2,2,0,0,1-2,2H16a4,4,0,1,0,0,8H29a2,2,0,0,1,2,2v2H8A7,7,0,0,0,8,63H51.217L61.5,58.324a2.553,2.553,0,0,0,0-4.648L51.217,49H39V43ZM57,29h2V41H57Zm-8,4h2v8H49Zm-8,4h2v4H41ZM34.479,3.9a4,4,0,0,1,6.44,2.28A4.3,4.3,0,0,1,41,7a6.006,6.006,0,0,0-6,6h2a4,4,0,1,1,8,0,3.946,3.946,0,0,1-1.116,2.741A6,6,0,0,0,35,21h2a4,4,0,1,1,4.7,3.927l-1.029.182.227,1.02A4,4,0,1,1,33,27V7a3.986,3.986,0,0,1,1.479-3.105Zm-4.958,26.21a4,4,0,0,1-6.44-2.28A4.3,4.3,0,0,1,23,27a6.006,6.006,0,0,0,6-6H27a4,4,0,0,1-8,0,3.946,3.946,0,0,1,1.116-2.741A6,6,0,0,0,29,13H27a4,4,0,1,1-4.7-3.927l1.029-.182L23.1,7.871A4,4,0,1,1,31,7V27a3.986,3.986,0,0,1-1.479,3.1ZM17,61H15V51h2Zm2-4,30.132,0L47.8,59l1.334,2H19Zm31.2,2,2-3-2-3,1.158-1.735L55,52.917v6.167l-3.639,1.654Zm-1.071-4L19,55V51H49.13L47.8,53ZM3,56a5.006,5.006,0,0,1,5-5h5V61H8A5.006,5.006,0,0,1,3,56Zm58,0a.554.554,0,0,1-.324.5L57,58.175V53.826L60.676,55.5A.552.552,0,0,1,61,56Z" transform="translate(0)"/><path class="c" d="M5,26H15.222v2.044H5Z" transform="translate(0.089 -0.019)"/><path class="c" d="M5,30H15.222v2.044H5Z" transform="translate(0.089 -0.021)"/><path class="c" d="M9,34h2.044v2.044H9Z" transform="translate(0.178 -0.024)"/><path class="c" d="M13,34h2.044v2.044H13Z" transform="translate(-0.009 -0.024)"/><path class="c" d="M5,34H7.044v2.044H5Z" transform="translate(0.089 -0.024)"/></g></g></svg>