<svg xmlns="http://www.w3.org/2000/svg" xmlns:xlink="http://www.w3.org/1999/xlink" width="189.176" height="82.563" viewBox="0 0 189.176 82.563"><defs><style>.a{fill:url(#a);}.b{fill:#183ebc;}.c{fill:url(#b);}.d{fill:#fff;}.e,.f{stroke:none;}.f{fill:rgba(0,0,0,0);}</style><linearGradient id="a" x1="0.017" y1="0.075" x2="0.971" y2="0.958" gradientUnits="objectBoundingBox"><stop offset="0" stop-color="#a0c5f0"/><stop offset="1" stop-color="#284de8"/></linearGradient><linearGradient id="b" y1="0.5" x2="1" y2="0.5" gradientUnits="objectBoundingBox"><stop offset="0" stop-color="#4363ea"/><stop offset="1" stop-color="#4969ea" stop-opacity="0"/></linearGradient></defs><g transform="translate(9.192 8.255)"><g class="a" transform="translate(-11.182 -8.255)"><path class="e" d="M65.809,0a9.938,9.938,0,0,1,8.619,4.99L92.421,36.333c.732,1.275,4.871,4.456,13.122,5.184.708.064,1.783.113,2.92.113-9.923,0-15.108,2.971-16.042,4.6L74.428,77.572a9.938,9.938,0,0,1-8.619,4.99H29.921a9.938,9.938,0,0,1-8.619-4.99L3.309,46.229a9.938,9.938,0,0,1,0-9.9L21.3,4.99A9.938,9.938,0,0,1,29.921,0Z"/><path class="f" d="M 29.92093658447266 0.9999923706054688 C 26.72887420654297 0.9999923706054688 23.75867462158203 2.719734191894531 22.16944885253906 5.488075256347656 L 4.176345825195312 36.83127975463867 C 2.600608825683594 39.57612228393555 2.600608825683594 42.98637771606445 4.176345825195312 45.73123550415039 L 22.16944885253906 77.07440948486328 C 23.75867462158203 79.84276580810547 26.72886657714844 81.56249237060547 29.92092132568359 81.56249237060547 L 65.80938720703125 81.56249237060547 C 69.00144958496094 81.56249237060547 71.97163391113281 79.84276580810547 73.56086730957031 77.07442474365234 L 91.55397796630859 45.73123550415039 C 92.24464416503906 44.52809143066406 94.13314819335938 43.30586242675781 96.73522186279297 42.37793731689453 C 97.53363800048828 42.09321594238281 98.5382080078125 41.78891754150391 99.75680541992188 41.51542282104492 C 95.08189392089844 40.23564910888672 92.32273864746094 38.17044448852539 91.55397796630859 36.83126449584961 L 73.56086730957031 5.488090515136719 C 71.97163391113281 2.719734191894531 69.00144958496094 0.9999923706054688 65.80938720703125 0.9999923706054688 L 29.92093658447266 0.9999923706054688 M 29.92093658447266 -7.62939453125e-06 L 65.80938720703125 -7.62939453125e-06 C 69.36860656738281 -7.62939453125e-06 72.65608978271484 1.903434753417969 74.42811584472656 4.990219116210938 L 92.42123413085938 36.33340835571289 C 93.15294647216797 37.60805130004883 97.29250335693359 40.78929138183594 105.5433349609375 41.51755142211914 C 106.251708984375 41.58156585693359 107.3259658813477 41.63086318969727 108.4628524780273 41.63086318969727 C 98.53970336914062 41.63086318969727 93.35524749755859 44.60206604003906 92.42123413085938 46.22909164428711 L 74.42811584472656 77.57228088378906 C 72.65608978271484 80.65904998779297 69.36862182617188 82.56249237060547 65.80938720703125 82.56249237060547 L 29.92092132568359 82.56249237060547 C 26.3616943359375 82.56249237060547 23.07421875 80.65904998779297 21.30219268798828 77.57228088378906 L 3.309089660644531 46.22909164428711 C 1.550102233886719 43.16503524780273 1.550102233886719 39.39746475219727 3.309089660644531 36.33340835571289 L 21.30219268798828 4.990219116210938 C 23.07421875 1.903434753417969 26.3616943359375 -7.62939453125e-06 29.92093658447266 -7.62939453125e-06 Z"/></g><g class="b" transform="translate(-0.016 1.649)"><path class="e" d="M49.357,0A8,8,0,0,1,56.3,4.031l13.429,23.5a8,8,0,0,1,0,7.938L56.3,58.969A8,8,0,0,1,49.357,63H22.643A8,8,0,0,1,15.7,58.969L2.268,35.469a8,8,0,0,1,0-7.938L15.7,4.031A8,8,0,0,1,22.643,0Z"/><path class="f" d="M 22.6425895690918 1 C 20.13689041137695 1 17.80804824829102 2.351478576660156 16.56488037109375 4.527030944824219 L 3.136306762695312 28.02703094482422 C 1.912178039550781 30.16923904418945 1.912178039550781 32.83075714111328 3.136306762695312 34.97296905517578 L 16.56486892700195 58.47296905517578 C 17.80804061889648 60.64850997924805 20.13687896728516 61.9999885559082 22.642578125 62 L 49.357421875 62 C 51.86310958862305 61.9999885559082 54.19194793701172 60.64850997924805 55.43512725830078 58.47296905517578 L 68.86370086669922 34.97296905517578 C 70.08780670166016 32.83077239990234 70.08780670166016 30.16923141479492 68.86370086669922 28.02703094482422 L 55.43512725830078 4.527030944824219 C 54.19194793701172 2.351478576660156 51.86310958862305 1 49.357421875 1 L 22.6425895690918 1 M 22.6425895690918 0 L 49.357421875 0 C 52.228271484375 0 54.87902069091797 1.538288116455078 56.30337142944336 4.030891418457031 L 69.73194122314453 27.53089141845703 C 71.13733673095703 29.99034881591797 71.13733673095703 33.00965118408203 69.73194122314453 35.46910858154297 L 56.30337142944336 58.96910858154297 C 54.87902069091797 61.46170806884766 52.228271484375 62.9999885559082 49.357421875 63 L 22.642578125 63 C 19.77172088623047 62.9999885559082 17.1209716796875 61.46170806884766 15.69662857055664 58.96910858154297 L 2.26806640625 35.46910858154297 C 0.8626480102539062 33.00965118408203 0.8626480102539062 29.99034881591797 2.26806640625 27.53089141845703 L 15.69664001464844 4.030891418457031 C 17.12097930908203 1.538288116455078 19.771728515625 0 22.6425895690918 0 Z"/></g><rect class="c" width="92" height="2" transform="translate(87.984 32.149)"/><g transform="translate(15.982 13.647)"><path class="d" d="M134.629,125.137l-.11-.11a.781.781,0,0,0-1.1,0l-9.482,9.482,0,0a.812.812,0,0,0-.068.079l-.007.009a.814.814,0,0,0-.055.087l-.006.012c-.01.02-.02.041-.029.063,0,.006,0,.012-.006.018s-.013.038-.019.058-.011.035-.015.053-.007.038-.01.057-.005.037-.007.056,0,.038,0,.057,0,.038,0,.057,0,.037.007.056.006.038.01.057.009.035.015.053.012.039.019.058,0,.012.006.018c.009.021.019.042.03.063l.006.011a.85.85,0,0,0,.055.087l.007.009a.785.785,0,0,0,.069.08l0,0,2.287,2.287a.78.78,0,0,0,1.1-1.1l-.955-.955H133.3v6.928l-1.689-1.689a.78.78,0,0,0-1.1,1.1l2.91,2.911a.781.781,0,0,0,1.1,0l.11-.11L144,135.612a.78.78,0,0,0,0-1.1Zm-8.26,9.143,6.928-6.929v6.929Zm8.489,8.268V127.573l7.488,7.488Zm0,0" transform="translate(-114.041 -115.048)"/><path class="d" d="M145.418,4.757a.775.775,0,0,0,.31-.065l.012,0a16.718,16.718,0,0,1,4.68-1.282V5.057a.78.78,0,0,0,.78.78h4.277a.78.78,0,0,0,.78-.78V.78a.78.78,0,0,0-.78-.78H151.2a.78.78,0,0,0-.78.78V1.835a18.272,18.272,0,0,0-5.307,1.423l-.006,0a.78.78,0,0,0,.311,1.5Zm6.562-3.2H154.7V4.277H151.98Zm0,0" transform="translate(-133.336)"/><path class="d" d="M67.124,377.494a16.588,16.588,0,0,1-3.857-3.983.78.78,0,1,0-1.286.883,18.149,18.149,0,0,0,4.219,4.357.78.78,0,0,0,.924-1.257Zm0,0" transform="translate(-57.012 -344.014)"/><path class="d" d="M229.371,438.456l-.019.009a16.715,16.715,0,0,1-4.867,1.3v-1.693a.78.78,0,0,0-.78-.78h-4.277a.78.78,0,0,0-.78.78v4.277a.78.78,0,0,0,.78.78h4.277a.78.78,0,0,0,.78-.78v-1.013a18.264,18.264,0,0,0,5.493-1.444l.018-.008a.78.78,0,0,0-.625-1.43Zm-6.446,3.114h-2.716v-2.716h2.716Zm0,0" transform="translate(-201.564 -403.125)"/><path class="d" d="M384.529,71.267a.78.78,0,0,0,.2-1.085,18.144,18.144,0,0,0-4.222-4.355.78.78,0,1,0-.924,1.258,16.582,16.582,0,0,1,3.859,3.981.78.78,0,0,0,1.085.2Zm0,0" transform="translate(-349.632 -60.545)"/><path class="d" d="M442.35,215.738h-4.277a.78.78,0,0,0-.78.78V220.8a.78.78,0,0,0,.78.78h1.6a16.757,16.757,0,0,1-1.405,4.5.78.78,0,0,0,1.41.669,18.313,18.313,0,0,0,1.575-5.171h1.1a.78.78,0,0,0,.78-.78v-4.277A.78.78,0,0,0,442.35,215.738Zm-.78,4.276h-2.716V217.3h2.716Zm0,0" transform="translate(-403.125 -198.882)"/><path class="d" d="M5.837,152.674V148.4a.78.78,0,0,0-.78-.78H3.5a16.762,16.762,0,0,1,1.434-4.658.78.78,0,1,0-1.409-.67,18.307,18.307,0,0,0-1.6,5.328H.78a.78.78,0,0,0-.78.78v4.277a.78.78,0,0,0,.78.78H5.057A.78.78,0,0,0,5.837,152.674Zm-1.561-.78H1.561v-2.716H4.277Zm0,0" transform="translate(0 -130.76)"/><path class="d" d="M448.492,152.141a.781.781,0,0,0,.759.6.789.789,0,0,0,.179-.021l.048-.011a.78.78,0,0,0-.357-1.519l-.048.011A.78.78,0,0,0,448.492,152.141Zm0,0" transform="translate(-413.43 -139.359)"/><path class="d" d="M181.006,303.784l-.048.011a.78.78,0,1,0,.357,1.519l.048-.011a.78.78,0,1,0-.357-1.519Zm0,0" transform="translate(-166.265 -280.028)"/></g></g></svg>