<svg xmlns="http://www.w3.org/2000/svg" xmlns:xlink="http://www.w3.org/1999/xlink" width="750" height="340" viewBox="0 0 750 340"><defs><style>.a{fill:#fff;}.b{opacity:0.498;fill:url(#c);}.c{fill:#eb9595;}.d{filter:url(#a);}</style><filter id="a" x="0" y="0" width="750" height="340" filterUnits="userSpaceOnUse"><feOffset input="SourceAlpha"/><feGaussianBlur stdDeviation="15" result="b"/><feFlood flood-opacity="0.102"/><feComposite operator="in" in2="b"/><feComposite in="SourceGraphic"/></filter><linearGradient id="c" x1="1.436" y1="0.5" x2="0" y2="0.482" gradientUnits="objectBoundingBox"><stop offset="0" stop-color="#ffb4b4"/><stop offset="1" stop-color="#eb9595" stop-opacity="0"/></linearGradient></defs><g transform="translate(-129 -4359)"><g class="d" transform="matrix(1, 0, 0, 1, 129, 4359)"><rect class="a" width="660" height="250" rx="30" transform="translate(45 45)"/></g><rect class="b" width="110" height="110" rx="30" transform="translate(210 4474)"/><g transform="translate(200 4491.574)"><path class="c" d="M72.42,53.494l-14.376-11.5v6.938H47.762A22.727,22.727,0,0,0,51.7,40.6l4.058-1.05V30.929L51.71,29.9a22.6,22.6,0,0,0-2.732-6.569l2.147-3.6-6.1-6.1-3.6,2.146a22.61,22.61,0,0,0-6.568-2.732L33.832,9H25.211l-1.026,4.052a22.579,22.579,0,0,0-6.568,2.732l-3.6-2.146-6.1,6.1,2.147,3.6a22.617,22.617,0,0,0-2.732,6.569L3.282,30.93v8.619l4.055,1.035a22.592,22.592,0,0,0,3.958,8.347H1v9.127H58.044V65ZM3.282,55.776V51.212h10a23.06,23.06,0,0,0,6.372,4.563Zm26.24,0A20.6,20.6,0,0,1,9.414,39.421l-.145-.7-3.706-.947V32.705l3.7-.937.145-.7a20.351,20.351,0,0,1,2.947-7.087l.392-.6-1.962-3.293,3.585-3.585,3.293,1.963.6-.392a20.351,20.351,0,0,1,7.087-2.947l.7-.145.937-3.7h5.069l.937,3.7.7.145a20.351,20.351,0,0,1,7.087,2.947l.6.392,3.293-1.963,3.585,3.585-1.962,3.293.392.6a20.351,20.351,0,0,1,2.947,7.087l.145.7,3.7.938v5.073l-3.709.959-.144.695a20.473,20.473,0,0,1-4.814,9.5H37.708a15.939,15.939,0,1,0-8.186,2.283h30.8V46.741l8.441,6.753-8.441,6.753V55.776Zm0-6.845A13.691,13.691,0,1,1,43.212,35.24,13.706,13.706,0,0,1,29.522,48.931Z"/><path class="c" d="M18.916,29.128,16.8,28.281a11.468,11.468,0,0,0-.673,2.438l2.254.358a9.088,9.088,0,0,1,.537-1.95Z" transform="translate(2.131 2.716)"/><path class="c" d="M18.3,32.507l-2.277.14a11.325,11.325,0,0,0,.437,2.494l2.189-.641A9.133,9.133,0,0,1,18.3,32.507Z" transform="translate(2.116 3.312)"/><path class="c" d="M17.26,37a11.486,11.486,0,0,0,1.468,2.059l1.7-1.522a9.113,9.113,0,0,1-1.175-1.649Z" transform="translate(2.291 3.788)"/><path class="c" d="M29.845,33.409A3.418,3.418,0,0,0,27.564,30.2V22H25.282v8.2a3.414,3.414,0,0,0,1.141,6.635,3.367,3.367,0,0,0,1.466-.343L31.32,39.92l1.613-1.613L29.5,34.875A3.367,3.367,0,0,0,29.845,33.409ZM26.423,34.55a1.141,1.141,0,1,1,1.141-1.141A1.143,1.143,0,0,1,26.423,34.55Z" transform="translate(3.099 1.831)"/></g></g></svg>