<svg xmlns="http://www.w3.org/2000/svg" xmlns:xlink="http://www.w3.org/1999/xlink" width="750" height="340" viewBox="0 0 750 340"><defs><style>.a{fill:#fff;}.b{opacity:0.5;fill:url(#c);}.c{fill:#ddb674;}.d{filter:url(#a);}</style><filter id="a" x="0" y="0" width="750" height="340" filterUnits="userSpaceOnUse"><feOffset input="SourceAlpha"/><feGaussianBlur stdDeviation="15" result="b"/><feFlood flood-opacity="0.102"/><feComposite operator="in" in2="b"/><feComposite in="SourceGraphic"/></filter><linearGradient id="c" x1="0.836" y1="0.369" x2="0.052" y2="0.918" gradientUnits="objectBoundingBox"><stop offset="0" stop-color="#ebcc95"/><stop offset="1" stop-color="#ffefd1" stop-opacity="0"/></linearGradient></defs><g transform="translate(-59 -5530)"><g class="d" transform="matrix(1, 0, 0, 1, 59, 5530)"><rect class="a" width="660" height="250" rx="30" transform="translate(45 45)"/></g><path class="b" d="M51.42,36.315a24,24,0,0,1,41.641,0l30.816,53.748A24,24,0,0,1,103.056,126H41.425A24,24,0,0,1,20.6,90.063Z" transform="translate(122.611 5624.748)"/><g transform="translate(131 5675.161)"><path class="c" d="M31.948,40.315c1.069,0,2.024.026,2.973,0,.7-.026,1.081-.5,1.087-1.336V34.893a3.392,3.392,0,0,1,3.011-3.587c.6-.089.513-.43.513-.8V11c0-1.1.367-1.482,1.454-1.482H66.434c1.044,0,1.416.39,1.416,1.434V58.206c0,1.035-.384,1.434-1.434,1.434H41.04c-1.164,0-1.505-.367-1.505-1.577V33.454c-.981.138-1.339.5-1.35,1.35-.017,1.362,0,2.724,0,4.086a3.307,3.307,0,0,1-3.558,3.6c-.645,0-1.3.04-1.935,0s-.76.189-.757.771c.02,4.828,0,9.657,0,14.485v.717a1.121,1.121,0,0,1-1.124,1.147c-.215.02-.43,0-.645,0H5.36c-1.468,0-1.74-.287-1.74-1.766V11.167c0-1.376.3-1.677,1.689-1.677H30.182c1.485,0,1.76.287,1.76,1.755V39.5ZM41.8,33.434v6.508H65.634v-28.2H41.785V31.183h2.543l.146-.206a11.239,11.239,0,0,1-1.044-.86,1.081,1.081,0,1,1,1.525-1.531c.992.966,1.975,1.947,2.939,2.942a1.068,1.068,0,0,1-.02,1.649q-1.4,1.434-2.836,2.841A1.1,1.1,0,1,1,43.5,34.466c.287-.321.6-.631.989-1.026ZM27.575,42.528v7.836c0,1.3-.313,1.629-1.588,1.629H9.567c-1.284,0-1.594-.324-1.594-1.626v-16.7c0-.86.381-1.282,1.187-1.284q8.6-.017,17.2,0c.809,0,1.19.421,1.2,1.279v6.595h2.113V26.994H5.848V57.346H7.981V55.5c.023-.986.367-1.342,1.356-1.342H26.253c.932,0,1.3.378,1.316,1.3v1.907h2.116V42.534Zm-2.242-2.213V34.581H10.212V49.722H25.333V42.488a10.984,10.984,0,0,1-1.2,0,1.113,1.113,0,0,0-1.333.8,3.727,3.727,0,0,1-4.9,1.846,3.779,3.779,0,0,1-2.07-4.771,3.607,3.607,0,0,1,3.131-2.492,3.679,3.679,0,0,1,3.747,1.875c.143.227.4.51.631.536a17.545,17.545,0,0,0,1.993.032ZM41.779,56.46l21.12-14.1-.072-.135H41.779ZM65.66,43.154,44.54,57.231l.06.126H65.66ZM29.706,12.523,9.027,24.594l.066.126H29.706ZM5.833,23.926,26.477,11.884l-.049-.118H5.833Zm4.381,32.445v.975H25.327v-.975Zm9.175-16.343a1.614,1.614,0,1,0,1.463.762,1.614,1.614,0,0,0-1.463-.762Z" transform="translate(-3.62 -9.49)"/><path class="c" d="M144.29,42.087V40h19.5v2.076Z" transform="translate(-103.957 -31.252)"/><path class="c" d="M158.448,55.33v2.082H144.37V55.33Z" transform="translate(-104.014 -42.187)"/><path class="c" d="M163.24,87.682V85.6h14.049v2.082Z" transform="translate(-117.474 -63.778)"/><path class="c" d="M177.187,70.309V72.43c-.227.02-.43.057-.637.057-4.229,0-8.458-.014-12.687,0-.631,0-.823-.161-.806-.8.04-1.391,0-1.391,1.416-1.391h12.713Z" transform="translate(-117.343 -52.865)"/><path class="c" d="M174.152,101v2.07H163.36V101Z" transform="translate(-117.56 -74.762)"/><path class="c" d="M144.29,26.97V24.88h9.68v2.09Z" transform="translate(-103.957 -20.467)"/><path class="c" d="M19,80.084V78h6.434v2.073Z" transform="translate(-14.59 -58.357)"/></g></g></svg>