<svg xmlns="http://www.w3.org/2000/svg" width="106.791" height="28" viewBox="0 0 106.791 28"><defs><style>.a{fill:#09c13b;}.b{fill:#fff;}</style></defs><g transform="translate(-130)"><path class="a" d="M25,99.791,11,92.917-3,99.791V-3.563C-3-5.461-2.053-7-.884-7H22.884C24.053-7,25-5.461,25-3.563Z" transform="translate(229.791 3) rotate(90)"/><path class="b" d="M7.425,0A19.9,19.9,0,0,0,5.379-2.618,2.2,2.2,0,0,0,7.117-4.763c0-1.947-1.584-2.387-2.981-2.387H.77V0h1.7V-2.277H3.619A13.3,13.3,0,0,1,5.291,0ZM2.508-3.718V-5.709h1.3c1.034,0,1.529.308,1.529.946,0,.748-.517,1.045-1.5,1.045ZM14.2-2.211v-.77a2.516,2.516,0,0,0-2.827-2.783,2.857,2.857,0,0,0-3.135,2.9C8.239-.781,9.548.132,11.572.132A8.005,8.005,0,0,0,13.9-.275v-1.3a8.277,8.277,0,0,1-2.288.385c-.638,0-1.562-.176-1.672-1.023ZM9.955-3.245a1.266,1.266,0,0,1,1.43-1.221c.7,0,1.1.462,1.111,1.221Zm8.514-2.519A2.913,2.913,0,0,0,15.3-2.794c0,2.035,1.5,2.926,3.41,2.926A9.742,9.742,0,0,0,20.559-.1V-1.5a5.583,5.583,0,0,1-1.782.253,1.61,1.61,0,0,1-1.749-1.595,1.54,1.54,0,0,1,1.738-1.551,4.273,4.273,0,0,1,1.793.363V-5.445A6.05,6.05,0,0,0,18.469-5.764Zm6.292,0c-1.914,0-3.245,1.023-3.245,2.948S22.847.132,24.761.132s3.223-1.023,3.223-2.948S26.664-5.764,24.761-5.764Zm-.044,1.375a1.447,1.447,0,0,1,1.54,1.573,1.466,1.466,0,0,1-1.474,1.573,1.481,1.481,0,0,1-1.54-1.573A1.431,1.431,0,0,1,24.717-4.389ZM37.158-5.764a3.5,3.5,0,0,0-2.3.858,1.861,1.861,0,0,0-1.793-.858,3.624,3.624,0,0,0-2.134.715l-.176-.594H29.414V0h1.661V-3.861a2.508,2.508,0,0,1,1.452-.528c.737,0,.979.4.979,1.089V0h1.661V-3.509c0-.121,0-.231-.011-.341a2.511,2.511,0,0,1,1.463-.539c.737,0,.979.4.979,1.089V0h1.661V-3.509C39.259-5.236,38.4-5.764,37.158-5.764Zm11.605,0a3.5,3.5,0,0,0-2.3.858,1.861,1.861,0,0,0-1.793-.858,3.624,3.624,0,0,0-2.134.715l-.176-.594H41.019V0H42.68V-3.861a2.508,2.508,0,0,1,1.452-.528c.737,0,.979.4.979,1.089V0h1.661V-3.509c0-.121,0-.231-.011-.341a2.511,2.511,0,0,1,1.463-.539c.737,0,.979.4.979,1.089V0h1.661V-3.509C50.864-5.236,50.006-5.764,48.763-5.764Zm9.493,3.553v-.77a2.516,2.516,0,0,0-2.827-2.783,2.857,2.857,0,0,0-3.135,2.9C52.294-.781,53.6.132,55.627.132a8.005,8.005,0,0,0,2.332-.407v-1.3a8.277,8.277,0,0,1-2.288.385c-.638,0-1.562-.176-1.672-1.023ZM54.01-3.245a1.266,1.266,0,0,1,1.43-1.221c.7,0,1.1.462,1.111,1.221ZM63.5-5.764a4.373,4.373,0,0,0-2.3.715l-.176-.594H59.686V0h1.661V-3.861a2.761,2.761,0,0,1,1.617-.528c.737,0,.979.4.979,1.089V0H65.6V-3.509C65.6-5.236,64.746-5.764,63.5-5.764ZM73.315-7.6H71.654v2.233a3.613,3.613,0,0,0-1.573-.4,2.768,2.768,0,0,0-3.047,2.915A2.845,2.845,0,0,0,70.015.11a3.466,3.466,0,0,0,1.914-.594L72.083,0h1.232ZM68.761-2.86A1.4,1.4,0,0,1,70.279-4.4a2.6,2.6,0,0,1,1.375.407v2.31a2.367,2.367,0,0,1-1.331.429A1.461,1.461,0,0,1,68.761-2.86Zm11.946.649v-.77A2.516,2.516,0,0,0,77.88-5.764a2.857,2.857,0,0,0-3.135,2.9c0,2.079,1.309,2.992,3.333,2.992A8.005,8.005,0,0,0,80.41-.275v-1.3a8.277,8.277,0,0,1-2.288.385c-.638,0-1.562-.176-1.672-1.023ZM76.461-3.245a1.266,1.266,0,0,1,1.43-1.221c.7,0,1.1.462,1.111,1.221ZM88.088-7.6H86.427v2.233a3.613,3.613,0,0,0-1.573-.4,2.768,2.768,0,0,0-3.047,2.915A2.845,2.845,0,0,0,84.788.11,3.466,3.466,0,0,0,86.7-.484L86.856,0h1.232ZM83.534-2.86A1.4,1.4,0,0,1,85.052-4.4a2.6,2.6,0,0,1,1.375.407v2.31a2.367,2.367,0,0,1-1.331.429A1.461,1.461,0,0,1,83.534-2.86Z" transform="translate(142 18)"/></g></svg>