<svg xmlns="http://www.w3.org/2000/svg" xmlns:xlink="http://www.w3.org/1999/xlink" width="258.336" height="255.895" viewBox="0 0 258.336 255.895"><defs><style>.a{opacity:0.2;fill:url(#a);}.b,.d{fill:none;}.b{stroke:#7078a8;stroke-width:2px;}.c{stroke:none;}</style><linearGradient id="a" x1="-0.118" y1="-0.128" x2="1.049" y2="1.138" gradientUnits="objectBoundingBox"><stop offset="0" stop-color="#c8dafa"/><stop offset="1" stop-color="#629cfa" stop-opacity="0"/></linearGradient></defs><g transform="translate(0)"><path class="a" d="M0,0H94.725a70,70,0,0,1,70,70V171.061a0,0,0,0,1,0,0H70a70,70,0,0,1-70-70V0A0,0,0,0,1,0,0Z" transform="translate(0 0)"/><g class="b" transform="translate(33.371 255.895) rotate(-90)"><path class="c" d="M0,0H122.655a100,100,0,0,1,100,100V224.965a0,0,0,0,1,0,0H100a100,100,0,0,1-100-100V0A0,0,0,0,1,0,0Z"/><path class="d" d="M2,1H122.655a99,99,0,0,1,99,99V222.965a1,1,0,0,1-1,1H100a99,99,0,0,1-99-99V2A1,1,0,0,1,2,1Z"/></g></g></svg>