<svg xmlns="http://www.w3.org/2000/svg" xmlns:xlink="http://www.w3.org/1999/xlink" width="331" height="331" viewBox="0 0 331 331"><defs><style>.a{fill:none;}.b{clip-path:url(#a);}.c{fill:#bbbfdb;}</style><clipPath id="a"><rect class="a" width="331" height="331"/></clipPath></defs><g class="b"><g transform="translate(-1382 -4320)"><rect class="c" width="2" height="7" transform="translate(1387.992 4322.069) rotate(47)"/></g><g transform="translate(-1356 -4320)"><rect class="c" width="2" height="7" transform="translate(1387.992 4322.069) rotate(47)"/></g><g transform="translate(-1330 -4320)"><rect class="c" width="2" height="7" transform="translate(1387.992 4322.069) rotate(47)"/></g><g transform="translate(-1304 -4320)"><rect class="c" width="2" height="7" transform="translate(1387.992 4322.069) rotate(47)"/></g><g transform="translate(-1278 -4320)"><rect class="c" width="2" height="7" transform="translate(1387.992 4322.069) rotate(47)"/></g><g transform="translate(-1252 -4320)"><rect class="c" width="2" height="7" transform="translate(1387.992 4322.069) rotate(47)"/></g><g transform="translate(-1226 -4320)"><rect class="c" width="2" height="7" transform="translate(1387.992 4322.069) rotate(47)"/></g><g transform="translate(-1200 -4320)"><rect class="c" width="2" height="7" transform="translate(1387.992 4322.069) rotate(47)"/></g><g transform="translate(-1174 -4320)"><rect class="c" width="2" height="7" transform="translate(1387.992 4322.069) rotate(47)"/></g><g transform="translate(-1148 -4320)"><rect class="c" width="2" height="7" transform="translate(1387.992 4322.069) rotate(47)"/></g><g transform="translate(-1122 -4320)"><rect class="c" width="2" height="7" transform="translate(1387.992 4322.069) rotate(47)"/></g><g transform="translate(-1096 -4320)"><rect class="c" width="2" height="7" transform="translate(1387.992 4322.069) rotate(47)"/></g><g transform="translate(-1070 -4320)"><rect class="c" width="2" height="7" transform="translate(1387.992 4322.069) rotate(47)"/></g><g transform="translate(-1382 -4275)"><rect class="c" width="2" height="7" transform="translate(1387.992 4322.069) rotate(47)"/></g><g transform="translate(-1356 -4275)"><rect class="c" width="2" height="7" transform="translate(1387.992 4322.069) rotate(47)"/></g><g transform="translate(-1330 -4275)"><rect class="c" width="2" height="7" transform="translate(1387.992 4322.069) rotate(47)"/></g><g transform="translate(-1304 -4275)"><rect class="c" width="2" height="7" transform="translate(1387.992 4322.069) rotate(47)"/></g><g transform="translate(-1278 -4275)"><rect class="c" width="2" height="7" transform="translate(1387.992 4322.069) rotate(47)"/></g><g transform="translate(-1252 -4275)"><rect class="c" width="2" height="7" transform="translate(1387.992 4322.069) rotate(47)"/></g><g transform="translate(-1226 -4275)"><rect class="c" width="2" height="7" transform="translate(1387.992 4322.069) rotate(47)"/></g><g transform="translate(-1200 -4275)"><rect class="c" width="2" height="7" transform="translate(1387.992 4322.069) rotate(47)"/></g><g transform="translate(-1174 -4275)"><rect class="c" width="2" height="7" transform="translate(1387.992 4322.069) rotate(47)"/></g><g transform="translate(-1148 -4275)"><rect class="c" width="2" height="7" transform="translate(1387.992 4322.069) rotate(47)"/></g><g transform="translate(-1122 -4275)"><rect class="c" width="2" height="7" transform="translate(1387.992 4322.069) rotate(47)"/></g><g transform="translate(-1096 -4275)"><rect class="c" width="2" height="7" transform="translate(1387.992 4322.069) rotate(47)"/></g><g transform="translate(-1070 -4275)"><rect class="c" width="2" height="7" transform="translate(1387.992 4322.069) rotate(47)"/></g><g transform="translate(-1382 -4230)"><rect class="c" width="2" height="7" transform="translate(1387.992 4322.069) rotate(47)"/></g><g transform="translate(-1356 -4230)"><rect class="c" width="2" height="7" transform="translate(1387.992 4322.069) rotate(47)"/></g><g transform="translate(-1330 -4230)"><rect class="c" width="2" height="7" transform="translate(1387.992 4322.069) rotate(47)"/></g><g transform="translate(-1304 -4230)"><rect class="c" width="2" height="7" transform="translate(1387.992 4322.069) rotate(47)"/></g><g transform="translate(-1278 -4230)"><rect class="c" width="2" height="7" transform="translate(1387.992 4322.069) rotate(47)"/></g><g transform="translate(-1252 -4230)"><rect class="c" width="2" height="7" transform="translate(1387.992 4322.069) rotate(47)"/></g><g transform="translate(-1226 -4230)"><rect class="c" width="2" height="7" transform="translate(1387.992 4322.069) rotate(47)"/></g><g transform="translate(-1200 -4230)"><rect class="c" width="2" height="7" transform="translate(1387.992 4322.069) rotate(47)"/></g><g transform="translate(-1174 -4230)"><rect class="c" width="2" height="7" transform="translate(1387.992 4322.069) rotate(47)"/></g><g transform="translate(-1148 -4230)"><rect class="c" width="2" height="7" transform="translate(1387.992 4322.069) rotate(47)"/></g><g transform="translate(-1122 -4230)"><rect class="c" width="2" height="7" transform="translate(1387.992 4322.069) rotate(47)"/></g><g transform="translate(-1096 -4230)"><rect class="c" width="2" height="7" transform="translate(1387.992 4322.069) rotate(47)"/></g><g transform="translate(-1070 -4230)"><rect class="c" width="2" height="7" transform="translate(1387.992 4322.069) rotate(47)"/></g><g transform="translate(-1382 -4185)"><rect class="c" width="2" height="7" transform="translate(1387.992 4322.069) rotate(47)"/></g><g transform="translate(-1356 -4185)"><rect class="c" width="2" height="7" transform="translate(1387.992 4322.069) rotate(47)"/></g><g transform="translate(-1330 -4185)"><rect class="c" width="2" height="7" transform="translate(1387.992 4322.069) rotate(47)"/></g><g transform="translate(-1304 -4185)"><rect class="c" width="2" height="7" transform="translate(1387.992 4322.069) rotate(47)"/></g><g transform="translate(-1278 -4185)"><rect class="c" width="2" height="7" transform="translate(1387.992 4322.069) rotate(47)"/></g><g transform="translate(-1252 -4185)"><rect class="c" width="2" height="7" transform="translate(1387.992 4322.069) rotate(47)"/></g><g transform="translate(-1226 -4185)"><rect class="c" width="2" height="7" transform="translate(1387.992 4322.069) rotate(47)"/></g><g transform="translate(-1200 -4185)"><rect class="c" width="2" height="7" transform="translate(1387.992 4322.069) rotate(47)"/></g><g transform="translate(-1174 -4185)"><rect class="c" width="2" height="7" transform="translate(1387.992 4322.069) rotate(47)"/></g><g transform="translate(-1148 -4185)"><rect class="c" width="2" height="7" transform="translate(1387.992 4322.069) rotate(47)"/></g><g transform="translate(-1122 -4185)"><rect class="c" width="2" height="7" transform="translate(1387.992 4322.069) rotate(47)"/></g><g transform="translate(-1096 -4185)"><rect class="c" width="2" height="7" transform="translate(1387.992 4322.069) rotate(47)"/></g><g transform="translate(-1070 -4185)"><rect class="c" width="2" height="7" transform="translate(1387.992 4322.069) rotate(47)"/></g><g transform="translate(-1382 -4140)"><rect class="c" width="2" height="7" transform="translate(1387.992 4322.069) rotate(47)"/></g><g transform="translate(-1356 -4140)"><rect class="c" width="2" height="7" transform="translate(1387.992 4322.069) rotate(47)"/></g><g transform="translate(-1330 -4140)"><rect class="c" width="2" height="7" transform="translate(1387.992 4322.069) rotate(47)"/></g><g transform="translate(-1304 -4140)"><rect class="c" width="2" height="7" transform="translate(1387.992 4322.069) rotate(47)"/></g><g transform="translate(-1278 -4140)"><rect class="c" width="2" height="7" transform="translate(1387.992 4322.069) rotate(47)"/></g><g transform="translate(-1252 -4140)"><rect class="c" width="2" height="7" transform="translate(1387.992 4322.069) rotate(47)"/></g><g transform="translate(-1226 -4140)"><rect class="c" width="2" height="7" transform="translate(1387.992 4322.069) rotate(47)"/></g><g transform="translate(-1200 -4140)"><rect class="c" width="2" height="7" transform="translate(1387.992 4322.069) rotate(47)"/></g><g transform="translate(-1174 -4140)"><rect class="c" width="2" height="7" transform="translate(1387.992 4322.069) rotate(47)"/></g><g transform="translate(-1148 -4140)"><rect class="c" width="2" height="7" transform="translate(1387.992 4322.069) rotate(47)"/></g><g transform="translate(-1122 -4140)"><rect class="c" width="2" height="7" transform="translate(1387.992 4322.069) rotate(47)"/></g><g transform="translate(-1096 -4140)"><rect class="c" width="2" height="7" transform="translate(1387.992 4322.069) rotate(47)"/></g><g transform="translate(-1070 -4140)"><rect class="c" width="2" height="7" transform="translate(1387.992 4322.069) rotate(47)"/></g><g transform="translate(-1382 -4095)"><rect class="c" width="2" height="7" transform="translate(1387.992 4322.069) rotate(47)"/></g><g transform="translate(-1356 -4095)"><rect class="c" width="2" height="7" transform="translate(1387.992 4322.069) rotate(47)"/></g><g transform="translate(-1330 -4095)"><rect class="c" width="2" height="7" transform="translate(1387.992 4322.069) rotate(47)"/></g><g transform="translate(-1304 -4095)"><rect class="c" width="2" height="7" transform="translate(1387.992 4322.069) rotate(47)"/></g><g transform="translate(-1278 -4095)"><rect class="c" width="2" height="7" transform="translate(1387.992 4322.069) rotate(47)"/></g><g transform="translate(-1252 -4095)"><rect class="c" width="2" height="7" transform="translate(1387.992 4322.069) rotate(47)"/></g><g transform="translate(-1226 -4095)"><rect class="c" width="2" height="7" transform="translate(1387.992 4322.069) rotate(47)"/></g><g transform="translate(-1200 -4095)"><rect class="c" width="2" height="7" transform="translate(1387.992 4322.069) rotate(47)"/></g><g transform="translate(-1174 -4095)"><rect class="c" width="2" height="7" transform="translate(1387.992 4322.069) rotate(47)"/></g><g transform="translate(-1148 -4095)"><rect class="c" width="2" height="7" transform="translate(1387.992 4322.069) rotate(47)"/></g><g transform="translate(-1122 -4095)"><rect class="c" width="2" height="7" transform="translate(1387.992 4322.069) rotate(47)"/></g><g transform="translate(-1096 -4095)"><rect class="c" width="2" height="7" transform="translate(1387.992 4322.069) rotate(47)"/></g><g transform="translate(-1070 -4095)"><rect class="c" width="2" height="7" transform="translate(1387.992 4322.069) rotate(47)"/></g><g transform="translate(-1382 -4050)"><rect class="c" width="2" height="7" transform="translate(1387.992 4322.069) rotate(47)"/></g><g transform="translate(-1356 -4050)"><rect class="c" width="2" height="7" transform="translate(1387.992 4322.069) rotate(47)"/></g><g transform="translate(-1330 -4050)"><rect class="c" width="2" height="7" transform="translate(1387.992 4322.069) rotate(47)"/></g><g transform="translate(-1304 -4050)"><rect class="c" width="2" height="7" transform="translate(1387.992 4322.069) rotate(47)"/></g><g transform="translate(-1278 -4050)"><rect class="c" width="2" height="7" transform="translate(1387.992 4322.069) rotate(47)"/></g><g transform="translate(-1252 -4050)"><rect class="c" width="2" height="7" transform="translate(1387.992 4322.069) rotate(47)"/></g><g transform="translate(-1226 -4050)"><rect class="c" width="2" height="7" transform="translate(1387.992 4322.069) rotate(47)"/></g><g transform="translate(-1200 -4050)"><rect class="c" width="2" height="7" transform="translate(1387.992 4322.069) rotate(47)"/></g><g transform="translate(-1174 -4050)"><rect class="c" width="2" height="7" transform="translate(1387.992 4322.069) rotate(47)"/></g><g transform="translate(-1148 -4050)"><rect class="c" width="2" height="7" transform="translate(1387.992 4322.069) rotate(47)"/></g><g transform="translate(-1122 -4050)"><rect class="c" width="2" height="7" transform="translate(1387.992 4322.069) rotate(47)"/></g><g transform="translate(-1096 -4050)"><rect class="c" width="2" height="7" transform="translate(1387.992 4322.069) rotate(47)"/></g><g transform="translate(-1070 -4050)"><rect class="c" width="2" height="7" transform="translate(1387.992 4322.069) rotate(47)"/></g><g transform="translate(-1382 -4005)"><rect class="c" width="2" height="7" transform="translate(1387.992 4322.069) rotate(47)"/></g><g transform="translate(-1356 -4005)"><rect class="c" width="2" height="7" transform="translate(1387.992 4322.069) rotate(47)"/></g><g transform="translate(-1330 -4005)"><rect class="c" width="2" height="7" transform="translate(1387.992 4322.069) rotate(47)"/></g><g transform="translate(-1304 -4005)"><rect class="c" width="2" height="7" transform="translate(1387.992 4322.069) rotate(47)"/></g><g transform="translate(-1278 -4005)"><rect class="c" width="2" height="7" transform="translate(1387.992 4322.069) rotate(47)"/></g><g transform="translate(-1252 -4005)"><rect class="c" width="2" height="7" transform="translate(1387.992 4322.069) rotate(47)"/></g><g transform="translate(-1226 -4005)"><rect class="c" width="2" height="7" transform="translate(1387.992 4322.069) rotate(47)"/></g><g transform="translate(-1200 -4005)"><rect class="c" width="2" height="7" transform="translate(1387.992 4322.069) rotate(47)"/></g><g transform="translate(-1174 -4005)"><rect class="c" width="2" height="7" transform="translate(1387.992 4322.069) rotate(47)"/></g><g transform="translate(-1148 -4005)"><rect class="c" width="2" height="7" transform="translate(1387.992 4322.069) rotate(47)"/></g><g transform="translate(-1122 -4005)"><rect class="c" width="2" height="7" transform="translate(1387.992 4322.069) rotate(47)"/></g><g transform="translate(-1096 -4005)"><rect class="c" width="2" height="7" transform="translate(1387.992 4322.069) rotate(47)"/></g><g transform="translate(-1070 -4005)"><rect class="c" width="2" height="7" transform="translate(1387.992 4322.069) rotate(47)"/></g></g></svg>