<svg xmlns="http://www.w3.org/2000/svg" width="78" height="138" viewBox="0 0 78 138">
    <defs>
        <style>
            .cls-1{fill:#fff;stroke:#fff}.cls-2{fill:#c3002f}.cls-3{stroke:none}.cls-4{fill:none}.cls-5{filter:url(#Rectangle_62)}
        </style>
        <filter id="Rectangle_62" width="78" height="138" x="0" y="0" filterUnits="userSpaceOnUse">
            <feOffset dy="3"/>
            <feGaussianBlur result="blur" stdDeviation="3"/>
            <feFlood flood-opacity=".161"/>
            <feComposite in2="blur" operator="in"/>
            <feComposite in="SourceGraphic"/>
        </filter>
    </defs>
    <g id="Right" transform="translate(19 12)">
        <g class="cls-5" transform="translate(-19 -12)">
            <g id="Rectangle_62-2" class="cls-1" data-name="Rectangle 62">
                <path d="M60 0v120A60 60 0 0 1 0 60 60 60 0 0 1 60 0z" class="cls-3" transform="translate(9 6)"/>
                <path d="M59.2.5a.3.3 0 0 1 .3.3v118.41a.3.3 0 0 1-.295.3A58.7 58.7 0 0 1 .5 60.8v-1.6A58.7 58.7 0 0 1 59.2.5z" class="cls-4" transform="translate(9 6)"/>
            </g>
        </g>
        <path id="Arrow-Right" d="M70.192 13.929L56.7.443a1.515 1.515 0 1 0-2.145 2.14L66.978 15l-12.42 12.416a1.515 1.515 0 0 0 2.142 2.141l13.494-13.486a1.528 1.528 0 0 0-.002-2.142z" class="cls-2" transform="translate(-33.631 39)"/>
    </g>
</svg>
