<svg xmlns="http://www.w3.org/2000/svg" width="1920" height="1872" viewBox="0 0 1920 1872">
    <defs>
        <style>
            .cls-1{fill:#888}.cls-2{fill:#fff}
        </style>
    </defs>
    <g id="RoaD" transform="translate(6 -3757)">
        <path id="Road-Base" d="M-2125 2005v-.183a271.381 271.381 0 0 1-44.414-5.3 268.665 268.665 0 0 1-50.682-15.733 269.906 269.906 0 0 1-45.863-24.894 271.948 271.948 0 0 1-39.96-32.969 271.892 271.892 0 0 1-32.969-39.96 269.885 269.885 0 0 1-24.894-45.863 268.592 268.592 0 0 1-15.733-50.682A272.041 272.041 0 0 1-2385 1735a272.045 272.045 0 0 1 5.485-54.415 268.713 268.713 0 0 1 15.733-50.682 269.987 269.987 0 0 1 24.894-45.863 272.009 272.009 0 0 1 32.969-39.959 271.918 271.918 0 0 1 39.96-32.97 269.979 269.979 0 0 1 45.863-24.894 268.581 268.581 0 0 1 50.682-15.732 271.371 271.371 0 0 1 44.414-5.3v-.593c3.974.271 8.011.41 12 .41a175.338 175.338 0 0 0 35.067-3.535 173.129 173.129 0 0 0 32.661-10.139 174.1 174.1 0 0 0 29.557-16.042 175.352 175.352 0 0 0 25.752-21.247 175.25 175.25 0 0 0 21.246-25.752 173.923 173.923 0 0 0 16.043-29.556 173.119 173.119 0 0 0 10.139-32.662A175.339 175.339 0 0 0-1939 1291a175.353 175.353 0 0 0-3.535-35.068 173.048 173.048 0 0 0-10.139-32.661 173.835 173.835 0 0 0-16.043-29.557 175.291 175.291 0 0 0-21.246-25.752 175.33 175.33 0 0 0-25.752-21.247 174.038 174.038 0 0 0-29.557-16.043 173.067 173.067 0 0 0-32.661-10.138A175.207 175.207 0 0 0-2113 1117c-3.983 0-8.022.138-12 .41v-.526a271.616 271.616 0 0 1-46.414-5.368 268.727 268.727 0 0 1-50.682-15.733 269.989 269.989 0 0 1-45.863-24.895 271.9 271.9 0 0 1-39.96-32.968 271.932 271.932 0 0 1-32.969-39.96 269.865 269.865 0 0 1-24.894-45.863 268.593 268.593 0 0 1-15.733-50.682A272.03 272.03 0 0 1-2387 847a272.041 272.041 0 0 1 5.485-54.416 268.633 268.633 0 0 1 15.733-50.681 269.984 269.984 0 0 1 24.894-45.863 271.845 271.845 0 0 1 32.969-39.959 271.813 271.813 0 0 1 39.96-32.97 269.916 269.916 0 0 1 45.863-24.894 268.508 268.508 0 0 1 50.682-15.732A271.9 271.9 0 0 1-2117 577v-.046c1.316.03 2.661.045 4 .045a175.267 175.267 0 0 0 35.067-3.535 173.063 173.063 0 0 0 32.661-10.138 174.033 174.033 0 0 0 29.557-16.043 175.258 175.258 0 0 0 25.752-21.247 175.245 175.245 0 0 0 21.246-25.752 173.926 173.926 0 0 0 16.043-29.556 173.08 173.08 0 0 0 10.139-32.662A175.339 175.339 0 0 0-1939 403a175.354 175.354 0 0 0-3.535-35.068 173.07 173.07 0 0 0-10.139-32.661 173.908 173.908 0 0 0-16.043-29.557 175.345 175.345 0 0 0-21.246-25.752 175.336 175.336 0 0 0-25.752-21.247 174.033 174.033 0 0 0-29.557-16.043 173.059 173.059 0 0 0-32.661-10.139A175.269 175.269 0 0 0-2113 229c-1.327 0-2.673.015-4 .046V229h-964v-96h965v.017c1.018-.011 2.023-.017 3-.017a271.972 271.972 0 0 1 54.414 5.486 268.6 268.6 0 0 1 50.682 15.732 269.976 269.976 0 0 1 45.863 24.894 272.009 272.009 0 0 1 39.96 32.97 271.9 271.9 0 0 1 32.969 39.959 270.045 270.045 0 0 1 24.894 45.863 268.688 268.688 0 0 1 15.733 50.682A272.026 272.026 0 0 1-1843 403a272.024 272.024 0 0 1-5.485 54.414 268.586 268.586 0 0 1-15.733 50.682 269.993 269.993 0 0 1-24.894 45.863 271.893 271.893 0 0 1-32.969 39.96 271.94 271.94 0 0 1-39.96 32.969 269.911 269.911 0 0 1-45.863 24.894 268.632 268.632 0 0 1-50.682 15.733A271.973 271.973 0 0 1-2113 673c-.662 0-1.33 0-2-.007v.018c-.667-.007-1.34-.011-2-.011a175.2 175.2 0 0 0-35.067 3.535 173.059 173.059 0 0 0-32.661 10.138 173.973 173.973 0 0 0-29.557 16.043 175.28 175.28 0 0 0-25.753 21.247 175.307 175.307 0 0 0-21.245 25.752 173.848 173.848 0 0 0-16.042 29.557 173.093 173.093 0 0 0-10.14 32.661A175.356 175.356 0 0 0-2291 847a175.347 175.347 0 0 0 3.534 35.067 173.135 173.135 0 0 0 10.14 32.662 173.943 173.943 0 0 0 16.042 29.556 175.294 175.294 0 0 0 21.245 25.752 175.3 175.3 0 0 0 25.753 21.247 174.059 174.059 0 0 0 29.557 16.043 173.192 173.192 0 0 0 32.661 10.138A175.335 175.335 0 0 0-2117 1021c.69 0 1.363 0 2-.012v.019q1-.007 2-.007a271.969 271.969 0 0 1 54.414 5.486 268.6 268.6 0 0 1 50.682 15.732 269.977 269.977 0 0 1 45.863 24.894 271.914 271.914 0 0 1 39.96 32.97 271.906 271.906 0 0 1 32.969 39.959 269.978 269.978 0 0 1 24.894 45.863 268.6 268.6 0 0 1 15.733 50.682A272.027 272.027 0 0 1-1843 1291a272.025 272.025 0 0 1-5.485 54.414 268.635 268.635 0 0 1-15.733 50.682 269.991 269.991 0 0 1-24.894 45.863 271.992 271.992 0 0 1-32.969 39.96 272 272 0 0 1-39.96 32.969 270.007 270.007 0 0 1-45.863 24.894 268.643 268.643 0 0 1-50.682 15.733A272.036 272.036 0 0 1-2113 1561v.011c-.667-.008-1.34-.012-2-.012a175.27 175.27 0 0 0-35.067 3.535 173.062 173.062 0 0 0-32.661 10.139 174.037 174.037 0 0 0-29.557 16.042 175.338 175.338 0 0 0-25.752 21.247 175.3 175.3 0 0 0-21.246 25.752 173.953 173.953 0 0 0-16.042 29.557 173.079 173.079 0 0 0-10.139 32.661A175.293 175.293 0 0 0-2289 1735a175.269 175.269 0 0 0 3.535 35.067 173.11 173.11 0 0 0 10.139 32.662 173.926 173.926 0 0 0 16.042 29.556 175.231 175.231 0 0 0 21.246 25.752 175.177 175.177 0 0 0 25.752 21.247 173.968 173.968 0 0 0 29.557 16.043 173.071 173.071 0 0 0 32.661 10.138A175.267 175.267 0 0 0-2115 1909c.69 0 1.364 0 2-.011v.011h952v96z" class="cls-1" transform="translate(3075 3624)"/>
        <path id="Road-Marking" d="M-1260 1921v-5h50v5zm-95 0v-5h50v5zm-100 0v-5h50v5zm-92 0v-5h50v5zm-96 0v-5h50v5zm-95 0v-5h50v5zm-100 0v-5h50v5zm-92 0v-5h50v5zm-99 0v-5h50v5zm-100 0v-5h50v5zm-46.559-4.592a225.291 225.291 0 0 1-33.044-9.451l2.131-4.6a220.626 220.626 0 0 0 31.926 9.1c3.655.748 7.389 1.412 11.1 1.975l-.733 5a226.822 226.822 0 0 1-11.38-2.024zm-80.805-34.006a227.907 227.907 0 0 1-19.612-14.865l3.177-3.916a222.763 222.763 0 0 0 19.241 14.588 222.43 222.43 0 0 0 16.26 9.988l-2.153 4.579a226.141 226.141 0 0 1-16.914-10.376zm-61.04-61.044a225.67 225.67 0 0 1-7.312-11.563l4.283-2.647a221.77 221.77 0 0 0 7.19 11.379 222.953 222.953 0 0 0 16.689 21.684l-3.28 3.9a227.863 227.863 0 0 1-17.566-22.753zm-33.781-79.733l4.871-1.261a220.071 220.071 0 0 0 11.714 38.259l-4.64 1.948a225.108 225.108 0 0 1-11.945-38.946zM-2356 1695a229.274 229.274 0 0 1 1.912-29.51h5.063a224.2 224.2 0 0 0-1.953 29.495c0 3.662.092 7.377.273 11.04l-5.012.345A236.34 236.34 0 0 1-2356 1695zm8.742-62.454a225.3 225.3 0 0 1 9.017-25.516 221.47 221.47 0 0 1 5.421-11.844l4.713 1.791a222.565 222.565 0 0 0-5.508 12 220.358 220.358 0 0 0-8.574 24.11zm31.573-66.416a227.837 227.837 0 0 1 25.874-30.937 268.2 268.2 0 0 1 2.9-2.853l3.4 3.693c-.91.878-1.837 1.789-2.755 2.707a222.886 222.886 0 0 0-25.352 30.325zm52.225-53.538a221.691 221.691 0 0 1 7.095-4.995 226.439 226.439 0 0 1 32.511-18.253l2.137 4.545a221.437 221.437 0 0 0-31.841 17.869 222.913 222.913 0 0 0-6.592 4.631zm63.888-32.683a225.275 225.275 0 0 1 24.012-6.318 227.121 227.121 0 0 1 30.805-4.117v5.032a221.978 221.978 0 0 0-29.795 4 220.288 220.288 0 0 0-23.148 6.071zm90.869-7.461l-.761-4.993a217.1 217.1 0 0 0 11.245-2 220.373 220.373 0 0 0 31.927-9.1l2.13 4.6a225.212 225.212 0 0 1-33.044 9.451 224.027 224.027 0 0 1-11.5 2.041zm75.389-25.672l-2.153-4.577a221.877 221.877 0 0 0 16.259-9.988 222.793 222.793 0 0 0 19.242-14.589l3.178 3.917a227.913 227.913 0 0 1-19.612 14.861 226.657 226.657 0 0 1-16.913 10.374zm60.38-48.665l-3.28-3.9a222.913 222.913 0 0 0 16.689-21.684c2.5-3.7 4.918-7.527 7.19-11.379l4.285 2.648a226.203 226.203 0 0 1-7.311 11.562 227.839 227.839 0 0 1-17.573 22.754zm39.406-63.541l-4.638-1.948a220.149 220.149 0 0 0 11.714-38.259l4.873 1.261a225.2 225.2 0 0 1-11.948 38.947zm16.479-74.2l-5.011-.344c.181-3.658.273-7.372.273-11.041a224.112 224.112 0 0 0-1.954-29.495h5.063a229.328 229.328 0 0 1 1.912 29.51c0 3.768-.1 7.593-.283 11.369zm-13.529-73.282a220.556 220.556 0 0 0-8.574-24.11 217.71 217.71 0 0 0-5.508-12l4.714-1.792a225.016 225.016 0 0 1 5.422 11.845 225.261 225.261 0 0 1 9.016 25.517l-5.069.54zm-55.928-94.347c-.9-.9-1.826-1.81-2.755-2.707l3.4-3.693c.985.95 1.961 1.909 2.905 2.853a227.8 227.8 0 0 1 25.874 30.938l-4.072 2.934a222.95 222.95 0 0 0-25.351-30.326zm-26.11-22.35a221.203 221.203 0 0 0-6.592-4.631 221.649 221.649 0 0 0-31.841-17.869l2.138-4.545a226.5 226.5 0 0 1 32.511 18.254 227.528 227.528 0 0 1 7.095 4.995l-3.309 3.8zm-62.456-31.809a220.359 220.359 0 0 0-23.147-6.071 221.766 221.766 0 0 0-26.384-3.752l.787-4.974a226.842 226.842 0 0 1 26.61 3.807 225.455 225.455 0 0 1 24.012 6.319l-1.876 4.671zm-104.487-13.173a225.263 225.263 0 0 1-33.044-9.451l2.13-4.6a220.435 220.435 0 0 0 31.926 9.1 220.37 220.37 0 0 0 11.1 1.975l-.733 5c-3.81-.579-7.638-1.26-11.379-2.025zm-80.806-34.006a228.021 228.021 0 0 1-19.612-14.865l3.177-3.916a222.923 222.923 0 0 0 19.241 14.589 221.86 221.86 0 0 0 16.26 9.987l-2.153 4.579a226.67 226.67 0 0 1-16.913-10.377zm-61.04-61.044c-2.538-3.757-5-7.646-7.311-11.563l4.283-2.647a221.084 221.084 0 0 0 7.19 11.379 222.89 222.89 0 0 0 16.689 21.684l-3.281 3.9a228.046 228.046 0 0 1-17.57-22.754zm-33.781-79.733l4.872-1.261a220.152 220.152 0 0 0 11.714 38.259l-4.64 1.948a225.258 225.258 0 0 1-11.946-38.947zM-2360 804a229.449 229.449 0 0 1 1.911-29.51h5.064a224.157 224.157 0 0 0-1.954 29.495c0 3.663.092 7.377.273 11.04l-5.011.345A230.04 230.04 0 0 1-2360 804zm8.742-62.454a225.594 225.594 0 0 1 9.017-25.516 221.47 221.47 0 0 1 5.421-11.844l4.712 1.791a222.55 222.55 0 0 0-5.507 12 220.368 220.368 0 0 0-8.575 24.11zm31.574-66.416a227.838 227.838 0 0 1 25.874-30.937c.957-.957 1.933-1.916 2.9-2.853l3.4 3.693c-.91.878-1.837 1.789-2.755 2.707a222.879 222.879 0 0 0-25.353 30.325zm52.224-53.538a222.824 222.824 0 0 1 7.095-4.995 226.456 226.456 0 0 1 32.512-18.253l2.136 4.545a221.337 221.337 0 0 0-31.841 17.869 221.644 221.644 0 0 0-6.593 4.631zm63.888-32.683a225.306 225.306 0 0 1 24.013-6.318 227.106 227.106 0 0 1 30.805-4.117v5.032a221.954 221.954 0 0 0-29.794 4 220.211 220.211 0 0 0-23.148 6.071zm94.87-5.46l-.761-4.994a216.227 216.227 0 0 0 11.245-2 220.3 220.3 0 0 0 31.927-9.1l2.13 4.6a225.217 225.217 0 0 1-33.044 9.45 225.198 225.198 0 0 1-11.495 2.042zm75.388-25.673l-2.153-4.578a221.822 221.822 0 0 0 16.259-9.988 222.715 222.715 0 0 0 19.242-14.589l3.178 3.917A227.6 227.6 0 0 1-2016.4 547.4a226.4 226.4 0 0 1-16.913 10.374zm60.381-48.664l-3.28-3.9a222.876 222.876 0 0 0 16.689-21.685c2.5-3.7 4.92-7.53 7.19-11.379l4.285 2.648a226.387 226.387 0 0 1-7.311 11.562 227.8 227.8 0 0 1-17.573 22.755zm39.406-63.541l-4.637-1.948a220.149 220.149 0 0 0 11.714-38.259l4.873 1.262a225.181 225.181 0 0 1-11.948 38.946zm16.479-74.2l-5.011-.345c.181-3.658.273-7.372.273-11.041a224.123 224.123 0 0 0-1.954-29.495h5.063a229.338 229.338 0 0 1 1.912 29.51c0 3.769-.1 7.6-.283 11.37zm-13.529-73.283a220.511 220.511 0 0 0-8.574-24.11 218.392 218.392 0 0 0-5.508-12l4.714-1.791a225.802 225.802 0 0 1 5.422 11.844 225.5 225.5 0 0 1 9.016 25.517l-5.069.54zm-55.928-94.347c-.9-.9-1.823-1.806-2.755-2.706l3.4-3.694a227.81 227.81 0 0 1 2.905 2.853 227.892 227.892 0 0 1 25.874 30.938l-4.072 2.934a223.029 223.029 0 0 0-25.352-30.327zm-26.11-22.35a221.247 221.247 0 0 0-6.593-4.631 221.545 221.545 0 0 0-31.841-17.868l2.138-4.546A226.489 226.489 0 0 1-2016.4 172.6a222.267 222.267 0 0 1 7.095 5l-3.309 3.8zm-62.456-31.808a220.2 220.2 0 0 0-23.147-6.071 220.966 220.966 0 0 0-16.569-2.733v-5.062c5.9.727 11.813 1.7 17.582 2.876a225.444 225.444 0 0 1 24.012 6.319l-1.876 4.671zM-2201 138v-5h50v5zm-95 0v-5h50v5zm-100 0v-5h50v5zm-92 0v-5h50v5zm-96 0v-5h50v5zm-95 0v-5h50v5zm-100 0v-5h50v5zm-92 0v-5h50v5zm-99 0v-5h50v5zm-100 0v-5h50v5z" class="cls-2" transform="translate(3100 3667)"/>
    </g>
</svg>
