<svg xmlns="http://www.w3.org/2000/svg" xmlns:xlink="http://www.w3.org/1999/xlink" width="431" height="590" viewBox="0 0 431 590"><defs><style>.a,.b{fill:none;}.b{stroke:#707070;}.c{fill:#e6f0f9;}.d{fill:#fff;}.e{fill:url(#c);}.f{clip-path:url(#d);}.g{fill:#bec7d1;}.h{clip-path:url(#e);}.i{fill:#e0e0e0;}.j{filter:url(#a);}</style><filter id="a" x="0" y="107" width="431" height="483" filterUnits="userSpaceOnUse"><feOffset dx="8" dy="8" input="SourceAlpha"/><feGaussianBlur stdDeviation="10" result="b"/><feFlood flood-opacity="0.078"/><feComposite operator="in" in2="b"/><feComposite in="SourceGraphic"/></filter><linearGradient id="c" x1="1" y1="0.156" x2="0.016" y2="0.898" gradientUnits="objectBoundingBox"><stop offset="0" stop-color="#161f67"/><stop offset="1" stop-color="#1727aa"/></linearGradient><clipPath id="d"><rect class="a" width="167.555" height="172.655"/></clipPath><clipPath id="e"><path class="b" d="M1464.876,6564.979v67.885h-98.443v130.06h187.85V6564.979Z"/></clipPath></defs><g transform="translate(-1222 -9186)"><path class="c" d="M100,0h65a0,0,0,0,1,0,0V64A100,100,0,0,1,65,164H0a0,0,0,0,1,0,0V100A100,100,0,0,1,100,0Z" transform="translate(1354 9186)"/><g class="j" transform="matrix(1, 0, 0, 1, 1222, 9186)"><path class="d" d="M0,0H371a0,0,0,0,1,0,0V423a0,0,0,0,1,0,0H100A100,100,0,0,1,0,323V0A0,0,0,0,1,0,0Z" transform="translate(22 129)"/></g><path class="e" d="M51,0h96a51,51,0,0,1,51,51v0a51,51,0,0,1-51,51H0a0,0,0,0,1,0,0V51A51,51,0,0,1,51,0Z" transform="translate(1408 9269)"/><g class="f" transform="translate(1306 9388)"><g transform="translate(-21592 -17020)"><rect class="g" width="45" height="5" transform="translate(21596.914 17021.025) rotate(45)"/></g><g transform="translate(-21569 -17020)"><rect class="g" width="45" height="5" transform="translate(21596.914 17021.025) rotate(45)"/></g><g transform="translate(-21546 -17020)"><rect class="g" width="45" height="5" transform="translate(21596.914 17021.025) rotate(45)"/></g><g transform="translate(-21523 -17020)"><rect class="g" width="45" height="5" transform="translate(21596.914 17021.025) rotate(45)"/></g><g transform="translate(-21500 -17020)"><rect class="g" width="45" height="5" transform="translate(21596.914 17021.025) rotate(45)"/></g><g transform="translate(-21477 -17020)"><rect class="g" width="45" height="5" transform="translate(21596.914 17021.025) rotate(45)"/></g><g transform="translate(-21454 -17020)"><rect class="g" width="45" height="5" transform="translate(21596.914 17021.025) rotate(45)"/></g><g transform="translate(-21431 -17020)"><rect class="g" width="45" height="5" transform="translate(21596.914 17021.025) rotate(45)"/></g><g transform="translate(-21592 -16997)"><rect class="g" width="45" height="5" transform="translate(21596.914 17021.025) rotate(45)"/></g><g transform="translate(-21569 -16997)"><rect class="g" width="45" height="5" transform="translate(21596.914 17021.025) rotate(45)"/></g><g transform="translate(-21546 -16997)"><rect class="g" width="45" height="5" transform="translate(21596.914 17021.025) rotate(45)"/></g><g transform="translate(-21523 -16997)"><rect class="g" width="45" height="5" transform="translate(21596.914 17021.025) rotate(45)"/></g><g transform="translate(-21500 -16997)"><rect class="g" width="45" height="5" transform="translate(21596.914 17021.025) rotate(45)"/></g><g transform="translate(-21477 -16997)"><rect class="g" width="45" height="5" transform="translate(21596.914 17021.025) rotate(45)"/></g><g transform="translate(-21454 -16997)"><rect class="g" width="45" height="5" transform="translate(21596.914 17021.025) rotate(45)"/></g><g transform="translate(-21431 -16997)"><rect class="g" width="45" height="5" transform="translate(21596.914 17021.025) rotate(45)"/></g><g transform="translate(-21592 -16974)"><rect class="g" width="45" height="5" transform="translate(21596.914 17021.025) rotate(45)"/></g><g transform="translate(-21569 -16974)"><rect class="g" width="45" height="5" transform="translate(21596.914 17021.025) rotate(45)"/></g><g transform="translate(-21546 -16974)"><rect class="g" width="45" height="5" transform="translate(21596.914 17021.025) rotate(45)"/></g><g transform="translate(-21523 -16974)"><rect class="g" width="45" height="5" transform="translate(21596.914 17021.025) rotate(45)"/></g><g transform="translate(-21500 -16974)"><rect class="g" width="45" height="5" transform="translate(21596.914 17021.025) rotate(45)"/></g><g transform="translate(-21477 -16974)"><rect class="g" width="45" height="5" transform="translate(21596.914 17021.025) rotate(45)"/></g><g transform="translate(-21454 -16974)"><rect class="g" width="45" height="5" transform="translate(21596.914 17021.025) rotate(45)"/></g><g transform="translate(-21431 -16974)"><rect class="g" width="45" height="5" transform="translate(21596.914 17021.025) rotate(45)"/></g><g transform="translate(-21592 -16951)"><rect class="g" width="45" height="5" transform="translate(21596.914 17021.025) rotate(45)"/></g><g transform="translate(-21569 -16951)"><rect class="g" width="45" height="5" transform="translate(21596.914 17021.025) rotate(45)"/></g><g transform="translate(-21546 -16951)"><rect class="g" width="45" height="5" transform="translate(21596.914 17021.025) rotate(45)"/></g><g transform="translate(-21523 -16951)"><rect class="g" width="45" height="5" transform="translate(21596.914 17021.025) rotate(45)"/></g><g transform="translate(-21500 -16951)"><rect class="g" width="45" height="5" transform="translate(21596.914 17021.025) rotate(45)"/></g><g transform="translate(-21477 -16951)"><rect class="g" width="45" height="5" transform="translate(21596.914 17021.025) rotate(45)"/></g><g transform="translate(-21454 -16951)"><rect class="g" width="45" height="5" transform="translate(21596.914 17021.025) rotate(45)"/></g><g transform="translate(-21431 -16951)"><rect class="g" width="45" height="5" transform="translate(21596.914 17021.025) rotate(45)"/></g><g transform="translate(-21592 -16928)"><rect class="g" width="45" height="5" transform="translate(21596.914 17021.025) rotate(45)"/></g><g transform="translate(-21569 -16928)"><rect class="g" width="45" height="5" transform="translate(21596.914 17021.025) rotate(45)"/></g><g transform="translate(-21546 -16928)"><rect class="g" width="45" height="5" transform="translate(21596.914 17021.025) rotate(45)"/></g><g transform="translate(-21523 -16928)"><rect class="g" width="45" height="5" transform="translate(21596.914 17021.025) rotate(45)"/></g><g transform="translate(-21500 -16928)"><rect class="g" width="45" height="5" transform="translate(21596.914 17021.025) rotate(45)"/></g><g transform="translate(-21477 -16928)"><rect class="g" width="45" height="5" transform="translate(21596.914 17021.025) rotate(45)"/></g><g transform="translate(-21454 -16928)"><rect class="g" width="45" height="5" transform="translate(21596.914 17021.025) rotate(45)"/></g><g transform="translate(-21431 -16928)"><rect class="g" width="45" height="5" transform="translate(21596.914 17021.025) rotate(45)"/></g><g transform="translate(-21592 -16905)"><rect class="g" width="45" height="5" transform="translate(21596.914 17021.025) rotate(45)"/></g><g transform="translate(-21569 -16905)"><rect class="g" width="45" height="5" transform="translate(21596.914 17021.025) rotate(45)"/></g><g transform="translate(-21546 -16905)"><rect class="g" width="45" height="5" transform="translate(21596.914 17021.025) rotate(45)"/></g><g transform="translate(-21523 -16905)"><rect class="g" width="45" height="5" transform="translate(21596.914 17021.025) rotate(45)"/></g><g transform="translate(-21500 -16905)"><rect class="g" width="45" height="5" transform="translate(21596.914 17021.025) rotate(45)"/></g><g transform="translate(-21477 -16905)"><rect class="g" width="45" height="5" transform="translate(21596.914 17021.025) rotate(45)"/></g><g transform="translate(-21454 -16905)"><rect class="g" width="45" height="5" transform="translate(21596.914 17021.025) rotate(45)"/></g><g transform="translate(-21431 -16905)"><rect class="g" width="45" height="5" transform="translate(21596.914 17021.025) rotate(45)"/></g><g transform="translate(-21592 -16882)"><rect class="g" width="45" height="5" transform="translate(21596.914 17021.025) rotate(45)"/></g><g transform="translate(-21569 -16882)"><rect class="g" width="45" height="5" transform="translate(21596.914 17021.025) rotate(45)"/></g><g transform="translate(-21546 -16882)"><rect class="g" width="45" height="5" transform="translate(21596.914 17021.025) rotate(45)"/></g><g transform="translate(-21523 -16882)"><rect class="g" width="45" height="5" transform="translate(21596.914 17021.025) rotate(45)"/></g><g transform="translate(-21500 -16882)"><rect class="g" width="45" height="5" transform="translate(21596.914 17021.025) rotate(45)"/></g><g transform="translate(-21477 -16882)"><rect class="g" width="45" height="5" transform="translate(21596.914 17021.025) rotate(45)"/></g><g transform="translate(-21454 -16882)"><rect class="g" width="45" height="5" transform="translate(21596.914 17021.025) rotate(45)"/></g><g transform="translate(-21431 -16882)"><rect class="g" width="45" height="5" transform="translate(21596.914 17021.025) rotate(45)"/></g><g transform="translate(-21592 -16859)"><rect class="g" width="45" height="5" transform="translate(21596.914 17021.025) rotate(45)"/></g><g transform="translate(-21569 -16859)"><rect class="g" width="45" height="5" transform="translate(21596.914 17021.025) rotate(45)"/></g><g transform="translate(-21546 -16859)"><rect class="g" width="45" height="5" transform="translate(21596.914 17021.025) rotate(45)"/></g><g transform="translate(-21523 -16859)"><rect class="g" width="45" height="5" transform="translate(21596.914 17021.025) rotate(45)"/></g><g transform="translate(-21500 -16859)"><rect class="g" width="45" height="5" transform="translate(21596.914 17021.025) rotate(45)"/></g><g transform="translate(-21477 -16859)"><rect class="g" width="45" height="5" transform="translate(21596.914 17021.025) rotate(45)"/></g><g transform="translate(-21454 -16859)"><rect class="g" width="45" height="5" transform="translate(21596.914 17021.025) rotate(45)"/></g><g transform="translate(-21431 -16859)"><rect class="g" width="45" height="5" transform="translate(21596.914 17021.025) rotate(45)"/></g></g><g class="h" transform="translate(12 2929)"><g class="f" transform="translate(1374 6574)"><g transform="translate(-21592 -17020)"><rect class="i" width="3" height="3" transform="translate(21596.914 17021.025) rotate(45)"/></g><g transform="translate(-21569 -17020)"><rect class="i" width="3" height="3" transform="translate(21596.914 17021.025) rotate(45)"/></g><g transform="translate(-21546 -17020)"><rect class="i" width="3" height="3" transform="translate(21596.914 17021.025) rotate(45)"/></g><g transform="translate(-21523 -17020)"><rect class="i" width="3" height="3" transform="translate(21596.914 17021.025) rotate(45)"/></g><g transform="translate(-21500 -17020)"><rect class="i" width="3" height="3" transform="translate(21596.914 17021.025) rotate(45)"/></g><g transform="translate(-21477 -17020)"><rect class="i" width="3" height="3" transform="translate(21596.914 17021.025) rotate(45)"/></g><g transform="translate(-21454 -17020)"><rect class="i" width="3" height="3" transform="translate(21596.914 17021.025) rotate(45)"/></g><g transform="translate(-21431 -17020)"><rect class="i" width="3" height="3" transform="translate(21596.914 17021.025) rotate(45)"/></g><g transform="translate(-21592 -16997)"><rect class="i" width="3" height="3" transform="translate(21596.914 17021.025) rotate(45)"/></g><g transform="translate(-21569 -16997)"><rect class="i" width="3" height="3" transform="translate(21596.914 17021.025) rotate(45)"/></g><g transform="translate(-21546 -16997)"><rect class="i" width="3" height="3" transform="translate(21596.914 17021.025) rotate(45)"/></g><g transform="translate(-21523 -16997)"><rect class="i" width="3" height="3" transform="translate(21596.914 17021.025) rotate(45)"/></g><g transform="translate(-21500 -16997)"><rect class="i" width="3" height="3" transform="translate(21596.914 17021.025) rotate(45)"/></g><g transform="translate(-21477 -16997)"><rect class="i" width="3" height="3" transform="translate(21596.914 17021.025) rotate(45)"/></g><g transform="translate(-21454 -16997)"><rect class="i" width="3" height="3" transform="translate(21596.914 17021.025) rotate(45)"/></g><g transform="translate(-21431 -16997)"><rect class="i" width="3" height="3" transform="translate(21596.914 17021.025) rotate(45)"/></g><g transform="translate(-21592 -16974)"><rect class="i" width="3" height="3" transform="translate(21596.914 17021.025) rotate(45)"/></g><g transform="translate(-21569 -16974)"><rect class="i" width="3" height="3" transform="translate(21596.914 17021.025) rotate(45)"/></g><g transform="translate(-21546 -16974)"><rect class="i" width="3" height="3" transform="translate(21596.914 17021.025) rotate(45)"/></g><g transform="translate(-21523 -16974)"><rect class="i" width="3" height="3" transform="translate(21596.914 17021.025) rotate(45)"/></g><g transform="translate(-21500 -16974)"><rect class="i" width="3" height="3" transform="translate(21596.914 17021.025) rotate(45)"/></g><g transform="translate(-21477 -16974)"><rect class="i" width="3" height="3" transform="translate(21596.914 17021.025) rotate(45)"/></g><g transform="translate(-21454 -16974)"><rect class="i" width="3" height="3" transform="translate(21596.914 17021.025) rotate(45)"/></g><g transform="translate(-21431 -16974)"><rect class="i" width="3" height="3" transform="translate(21596.914 17021.025) rotate(45)"/></g><g transform="translate(-21592 -16951)"><rect class="i" width="3" height="3" transform="translate(21596.914 17021.025) rotate(45)"/></g><g transform="translate(-21569 -16951)"><rect class="i" width="3" height="3" transform="translate(21596.914 17021.025) rotate(45)"/></g><g transform="translate(-21546 -16951)"><rect class="i" width="3" height="3" transform="translate(21596.914 17021.025) rotate(45)"/></g><g transform="translate(-21523 -16951)"><rect class="i" width="3" height="3" transform="translate(21596.914 17021.025) rotate(45)"/></g><g transform="translate(-21500 -16951)"><rect class="i" width="3" height="3" transform="translate(21596.914 17021.025) rotate(45)"/></g><g transform="translate(-21477 -16951)"><rect class="i" width="3" height="3" transform="translate(21596.914 17021.025) rotate(45)"/></g><g transform="translate(-21454 -16951)"><rect class="i" width="3" height="3" transform="translate(21596.914 17021.025) rotate(45)"/></g><g transform="translate(-21431 -16951)"><rect class="i" width="3" height="3" transform="translate(21596.914 17021.025) rotate(45)"/></g><g transform="translate(-21592 -16928)"><rect class="i" width="3" height="3" transform="translate(21596.914 17021.025) rotate(45)"/></g><g transform="translate(-21569 -16928)"><rect class="i" width="3" height="3" transform="translate(21596.914 17021.025) rotate(45)"/></g><g transform="translate(-21546 -16928)"><rect class="i" width="3" height="3" transform="translate(21596.914 17021.025) rotate(45)"/></g><g transform="translate(-21523 -16928)"><rect class="i" width="3" height="3" transform="translate(21596.914 17021.025) rotate(45)"/></g><g transform="translate(-21500 -16928)"><rect class="i" width="3" height="3" transform="translate(21596.914 17021.025) rotate(45)"/></g><g transform="translate(-21477 -16928)"><rect class="i" width="3" height="3" transform="translate(21596.914 17021.025) rotate(45)"/></g><g transform="translate(-21454 -16928)"><rect class="i" width="3" height="3" transform="translate(21596.914 17021.025) rotate(45)"/></g><g transform="translate(-21431 -16928)"><rect class="i" width="3" height="3" transform="translate(21596.914 17021.025) rotate(45)"/></g><g transform="translate(-21592 -16905)"><rect class="i" width="3" height="3" transform="translate(21596.914 17021.025) rotate(45)"/></g><g transform="translate(-21569 -16905)"><rect class="i" width="3" height="3" transform="translate(21596.914 17021.025) rotate(45)"/></g><g transform="translate(-21546 -16905)"><rect class="i" width="3" height="3" transform="translate(21596.914 17021.025) rotate(45)"/></g><g transform="translate(-21523 -16905)"><rect class="i" width="3" height="3" transform="translate(21596.914 17021.025) rotate(45)"/></g><g transform="translate(-21500 -16905)"><rect class="i" width="3" height="3" transform="translate(21596.914 17021.025) rotate(45)"/></g><g transform="translate(-21477 -16905)"><rect class="i" width="3" height="3" transform="translate(21596.914 17021.025) rotate(45)"/></g><g transform="translate(-21454 -16905)"><rect class="i" width="3" height="3" transform="translate(21596.914 17021.025) rotate(45)"/></g><g transform="translate(-21431 -16905)"><rect class="i" width="3" height="3" transform="translate(21596.914 17021.025) rotate(45)"/></g><g transform="translate(-21592 -16882)"><rect class="i" width="3" height="3" transform="translate(21596.914 17021.025) rotate(45)"/></g><g transform="translate(-21569 -16882)"><rect class="i" width="3" height="3" transform="translate(21596.914 17021.025) rotate(45)"/></g><g transform="translate(-21546 -16882)"><rect class="i" width="3" height="3" transform="translate(21596.914 17021.025) rotate(45)"/></g><g transform="translate(-21523 -16882)"><rect class="i" width="3" height="3" transform="translate(21596.914 17021.025) rotate(45)"/></g><g transform="translate(-21500 -16882)"><rect class="i" width="3" height="3" transform="translate(21596.914 17021.025) rotate(45)"/></g><g transform="translate(-21477 -16882)"><rect class="i" width="3" height="3" transform="translate(21596.914 17021.025) rotate(45)"/></g><g transform="translate(-21454 -16882)"><rect class="i" width="3" height="3" transform="translate(21596.914 17021.025) rotate(45)"/></g><g transform="translate(-21431 -16882)"><rect class="i" width="3" height="3" transform="translate(21596.914 17021.025) rotate(45)"/></g><g transform="translate(-21592 -16859)"><rect class="i" width="3" height="3" transform="translate(21596.914 17021.025) rotate(45)"/></g><g transform="translate(-21569 -16859)"><rect class="i" width="3" height="3" transform="translate(21596.914 17021.025) rotate(45)"/></g><g transform="translate(-21546 -16859)"><rect class="i" width="3" height="3" transform="translate(21596.914 17021.025) rotate(45)"/></g><g transform="translate(-21523 -16859)"><rect class="i" width="3" height="3" transform="translate(21596.914 17021.025) rotate(45)"/></g><g transform="translate(-21500 -16859)"><rect class="i" width="3" height="3" transform="translate(21596.914 17021.025) rotate(45)"/></g><g transform="translate(-21477 -16859)"><rect class="i" width="3" height="3" transform="translate(21596.914 17021.025) rotate(45)"/></g><g transform="translate(-21454 -16859)"><rect class="i" width="3" height="3" transform="translate(21596.914 17021.025) rotate(45)"/></g><g transform="translate(-21431 -16859)"><rect class="i" width="3" height="3" transform="translate(21596.914 17021.025) rotate(45)"/></g></g></g></g></svg>