<svg xmlns="http://www.w3.org/2000/svg" xmlns:xlink="http://www.w3.org/1999/xlink" width="213.889" height="256.181" viewBox="0 0 213.889 256.181"><defs><style>.a{fill:none;}.b{clip-path:url(#a);}.c{fill:#7d8bd9;}</style><clipPath id="a"><rect class="a" width="213.889" height="256.181"/></clipPath></defs><g class="b"><g transform="translate(21964.445 -1556.41)"><path class="c" d="M910,490l12.7,12.7H910Z" transform="translate(-21041.305 2060.695) rotate(180)"/></g><g transform="translate(22011.445 -1556.41)"><path class="c" d="M910,490l12.7,12.7H910Z" transform="translate(-21041.305 2060.695) rotate(180)"/></g><g transform="translate(22058.445 -1556.41)"><path class="c" d="M910,490l12.7,12.7H910Z" transform="translate(-21041.305 2060.695) rotate(180)"/></g><g transform="translate(22105.445 -1556.41)"><path class="c" d="M910,490l12.7,12.7H910Z" transform="translate(-21041.305 2060.695) rotate(180)"/></g><g transform="translate(22152.445 -1556.41)"><path class="c" d="M910,490l12.7,12.7H910Z" transform="translate(-21041.305 2060.695) rotate(180)"/></g><g transform="translate(21964.445 -1519.41)"><path class="c" d="M910,490l12.7,12.7H910Z" transform="translate(-21041.305 2060.695) rotate(180)"/></g><g transform="translate(22011.445 -1519.41)"><path class="c" d="M910,490l12.7,12.7H910Z" transform="translate(-21041.305 2060.695) rotate(180)"/></g><g transform="translate(22058.445 -1519.41)"><path class="c" d="M910,490l12.7,12.7H910Z" transform="translate(-21041.305 2060.695) rotate(180)"/></g><g transform="translate(22105.445 -1519.41)"><path class="c" d="M910,490l12.7,12.7H910Z" transform="translate(-21041.305 2060.695) rotate(180)"/></g><g transform="translate(22152.445 -1519.41)"><path class="c" d="M910,490l12.7,12.7H910Z" transform="translate(-21041.305 2060.695) rotate(180)"/></g><g transform="translate(21964.445 -1482.41)"><path class="c" d="M910,490l12.7,12.7H910Z" transform="translate(-21041.305 2060.695) rotate(180)"/></g><g transform="translate(22011.445 -1482.41)"><path class="c" d="M910,490l12.7,12.7H910Z" transform="translate(-21041.305 2060.695) rotate(180)"/></g><g transform="translate(22058.445 -1482.41)"><path class="c" d="M910,490l12.7,12.7H910Z" transform="translate(-21041.305 2060.695) rotate(180)"/></g><g transform="translate(22105.445 -1482.41)"><path class="c" d="M910,490l12.7,12.7H910Z" transform="translate(-21041.305 2060.695) rotate(180)"/></g><g transform="translate(22152.445 -1482.41)"><path class="c" d="M910,490l12.7,12.7H910Z" transform="translate(-21041.305 2060.695) rotate(180)"/></g><g transform="translate(21964.445 -1445.41)"><path class="c" d="M910,490l12.7,12.7H910Z" transform="translate(-21041.305 2060.695) rotate(180)"/></g><g transform="translate(22011.445 -1445.41)"><path class="c" d="M910,490l12.7,12.7H910Z" transform="translate(-21041.305 2060.695) rotate(180)"/></g><g transform="translate(22058.445 -1445.41)"><path class="c" d="M910,490l12.7,12.7H910Z" transform="translate(-21041.305 2060.695) rotate(180)"/></g><g transform="translate(22105.445 -1445.41)"><path class="c" d="M910,490l12.7,12.7H910Z" transform="translate(-21041.305 2060.695) rotate(180)"/></g><g transform="translate(22152.445 -1445.41)"><path class="c" d="M910,490l12.7,12.7H910Z" transform="translate(-21041.305 2060.695) rotate(180)"/></g><g transform="translate(21964.445 -1408.41)"><path class="c" d="M910,490l12.7,12.7H910Z" transform="translate(-21041.305 2060.695) rotate(180)"/></g><g transform="translate(22011.445 -1408.41)"><path class="c" d="M910,490l12.7,12.7H910Z" transform="translate(-21041.305 2060.695) rotate(180)"/></g><g transform="translate(22058.445 -1408.41)"><path class="c" d="M910,490l12.7,12.7H910Z" transform="translate(-21041.305 2060.695) rotate(180)"/></g><g transform="translate(22105.445 -1408.41)"><path class="c" d="M910,490l12.7,12.7H910Z" transform="translate(-21041.305 2060.695) rotate(180)"/></g><g transform="translate(22152.445 -1408.41)"><path class="c" d="M910,490l12.7,12.7H910Z" transform="translate(-21041.305 2060.695) rotate(180)"/></g><g transform="translate(21964.445 -1371.41)"><path class="c" d="M910,490l12.7,12.7H910Z" transform="translate(-21041.305 2060.695) rotate(180)"/></g><g transform="translate(22011.445 -1371.41)"><path class="c" d="M910,490l12.7,12.7H910Z" transform="translate(-21041.305 2060.695) rotate(180)"/></g><g transform="translate(22058.445 -1371.41)"><path class="c" d="M910,490l12.7,12.7H910Z" transform="translate(-21041.305 2060.695) rotate(180)"/></g><g transform="translate(22105.445 -1371.41)"><path class="c" d="M910,490l12.7,12.7H910Z" transform="translate(-21041.305 2060.695) rotate(180)"/></g><g transform="translate(22152.445 -1371.41)"><path class="c" d="M910,490l12.7,12.7H910Z" transform="translate(-21041.305 2060.695) rotate(180)"/></g><g transform="translate(21964.445 -1334.41)"><path class="c" d="M910,490l12.7,12.7H910Z" transform="translate(-21041.305 2060.695) rotate(180)"/></g><g transform="translate(22011.445 -1334.41)"><path class="c" d="M910,490l12.7,12.7H910Z" transform="translate(-21041.305 2060.695) rotate(180)"/></g><g transform="translate(22058.445 -1334.41)"><path class="c" d="M910,490l12.7,12.7H910Z" transform="translate(-21041.305 2060.695) rotate(180)"/></g><g transform="translate(22105.445 -1334.41)"><path class="c" d="M910,490l12.7,12.7H910Z" transform="translate(-21041.305 2060.695) rotate(180)"/></g><g transform="translate(22152.445 -1334.41)"><path class="c" d="M910,490l12.7,12.7H910Z" transform="translate(-21041.305 2060.695) rotate(180)"/></g></g></svg>