<svg xmlns="http://www.w3.org/2000/svg" width="23.587" height="25.941" viewBox="0 0 23.587 25.941"><defs><style>.a{fill:#6981a2;}</style></defs><g transform="translate(-240.413 -315)"><path class="a" d="M26.029,6.912H20.147a1.471,1.471,0,0,0,0,2.941h5.882A1.471,1.471,0,0,1,27.5,11.324V25.617l-2.309-2.132a1.471,1.471,0,0,0-1-.4H11.324a1.471,1.471,0,0,1-1.471-1.471V20.147a1.471,1.471,0,0,0-2.941,0v1.471a4.412,4.412,0,0,0,4.412,4.412H23.617l4.412,4.015a1.471,1.471,0,0,0,1,.4,1.618,1.618,0,0,0,.588-.118A1.471,1.471,0,0,0,30.5,28.97V11.324a4.412,4.412,0,0,0-4.47-4.412Z" transform="translate(233.501 310.501)"/><g transform="translate(233 309)"><path class="a" d="M13.245,11.245a2.547,2.547,0,0,0,2.622-2.622A2.547,2.547,0,0,0,13.245,6a2.548,2.548,0,0,0-2.622,2.622A2.548,2.548,0,0,0,13.245,11.245Zm0,1.311A5,5,0,0,0,8,17.276v.506H18.49v-.506A5,5,0,0,0,13.245,12.556Z" transform="translate(0 0)"/></g></g></svg>