<svg xmlns="http://www.w3.org/2000/svg" xmlns:xlink="http://www.w3.org/1999/xlink" width="1010.045" height="600" viewBox="0 0 1010.045 600"><defs><style>.a,.b{fill:#fff;}.b{stroke:#707070;}.c{fill:#bef7ac;}.d{fill:#a5ddff;}.e{fill:#ffdcd6;}.f{clip-path:url(#a);}.g{fill:#d6fbf9;}.h{fill:#5f9afa;}.i{clip-path:url(#c);}</style><clipPath id="a"><rect class="a" width="24.327" height="40.05" transform="translate(1804 242)"/></clipPath><clipPath id="c"><rect class="b" width="139" height="76" transform="translate(1538 84)"/></clipPath></defs><g transform="translate(-773.584 1)"><path class="c" d="M39.991,0A39.991,39.991,0,1,1,0,39.991,39.991,39.991,0,0,1,39.991,0Z" transform="translate(1687 329)"/><path class="d" d="M53,0A53,53,0,1,1,0,53,53,53,0,0,1,53,0Z" transform="translate(927 493)"/><g transform="matrix(-0.719, 0.695, -0.695, -0.719, 3238.49, -754.582)"><circle class="e" cx="11.215" cy="11.215" r="11.215" transform="translate(1786.793 244.077)"/></g><circle class="e" cx="31.5" cy="31.5" r="31.5" transform="translate(820 147)"/><g class="f" transform="matrix(-0.602, -0.799, 0.799, -0.602, 2204.709, 1745.984)"><circle class="g" cx="17.207" cy="17.207" r="17.207" transform="translate(1786.793 244.077)"/></g><g class="f" transform="translate(175.693 -1337.75) rotate(62)"><circle class="h" cx="17.207" cy="17.207" r="17.207" transform="translate(1786.793 244.077)"/></g><g transform="translate(967.211 666.393) rotate(90)"><path class="c" d="M-204.782,158.743a1.571,1.571,0,0,1-1.571,1.572,1.572,1.572,0,0,1-1.572-1.572,1.571,1.571,0,0,1,1.572-1.571A1.571,1.571,0,0,1-204.782,158.743Z"/><path class="c" d="M-197.1,158.743a1.571,1.571,0,0,1-1.571,1.572,1.572,1.572,0,0,1-1.572-1.572,1.571,1.571,0,0,1,1.572-1.571A1.571,1.571,0,0,1-197.1,158.743Z"/><path class="c" d="M-189.41,158.743a1.572,1.572,0,0,1-1.572,1.572,1.571,1.571,0,0,1-1.571-1.572,1.571,1.571,0,0,1,1.571-1.571A1.571,1.571,0,0,1-189.41,158.743Z"/><path class="c" d="M-181.724,158.743a1.572,1.572,0,0,1-1.572,1.572,1.572,1.572,0,0,1-1.572-1.572,1.571,1.571,0,0,1,1.572-1.571A1.571,1.571,0,0,1-181.724,158.743Z"/><path class="c" d="M-174.039,158.743a1.571,1.571,0,0,1-1.571,1.572,1.572,1.572,0,0,1-1.572-1.572,1.571,1.571,0,0,1,1.572-1.571A1.571,1.571,0,0,1-174.039,158.743Z"/><path class="c" d="M-166.353,158.743a1.571,1.571,0,0,1-1.571,1.572,1.572,1.572,0,0,1-1.572-1.572,1.571,1.571,0,0,1,1.572-1.571A1.571,1.571,0,0,1-166.353,158.743Z"/><circle class="c" cx="1.572" cy="1.572" r="1.572" transform="translate(-207.925 164.96)"/><path class="c" d="M-197.1,166.531a1.571,1.571,0,0,1-1.571,1.572,1.572,1.572,0,0,1-1.572-1.572,1.571,1.571,0,0,1,1.572-1.571A1.571,1.571,0,0,1-197.1,166.531Z"/><path class="c" d="M-189.41,166.531a1.572,1.572,0,0,1-1.572,1.572,1.571,1.571,0,0,1-1.571-1.572,1.571,1.571,0,0,1,1.571-1.571A1.571,1.571,0,0,1-189.41,166.531Z"/><circle class="c" cx="1.572" cy="1.572" r="1.572" transform="translate(-184.868 164.96)"/><circle class="c" cx="1.572" cy="1.572" r="1.572" transform="translate(-177.182 164.96)"/><circle class="c" cx="1.572" cy="1.572" r="1.572" transform="translate(-169.496 164.96)"/><path class="c" d="M-204.782,174.319a1.571,1.571,0,0,1-1.571,1.572,1.572,1.572,0,0,1-1.572-1.572,1.572,1.572,0,0,1,1.572-1.572A1.571,1.571,0,0,1-204.782,174.319Z"/><path class="c" d="M-197.1,174.319a1.571,1.571,0,0,1-1.571,1.572,1.572,1.572,0,0,1-1.572-1.572,1.572,1.572,0,0,1,1.572-1.572A1.571,1.571,0,0,1-197.1,174.319Z"/><path class="c" d="M-189.41,174.319a1.572,1.572,0,0,1-1.572,1.572,1.571,1.571,0,0,1-1.571-1.572,1.571,1.571,0,0,1,1.571-1.572A1.572,1.572,0,0,1-189.41,174.319Z"/><path class="c" d="M-181.724,174.319a1.572,1.572,0,0,1-1.572,1.572,1.572,1.572,0,0,1-1.572-1.572,1.572,1.572,0,0,1,1.572-1.572A1.572,1.572,0,0,1-181.724,174.319Z"/><path class="c" d="M-174.039,174.319a1.571,1.571,0,0,1-1.571,1.572,1.572,1.572,0,0,1-1.572-1.572,1.572,1.572,0,0,1,1.572-1.572A1.571,1.571,0,0,1-174.039,174.319Z"/><path class="c" d="M-166.353,174.319a1.571,1.571,0,0,1-1.571,1.572,1.572,1.572,0,0,1-1.572-1.572,1.572,1.572,0,0,1,1.572-1.572A1.571,1.571,0,0,1-166.353,174.319Z"/><path class="c" d="M-204.782,182.107a1.571,1.571,0,0,1-1.571,1.572,1.572,1.572,0,0,1-1.572-1.572,1.572,1.572,0,0,1,1.572-1.572A1.571,1.571,0,0,1-204.782,182.107Z"/><path class="c" d="M-197.1,182.107a1.571,1.571,0,0,1-1.571,1.572,1.572,1.572,0,0,1-1.572-1.572,1.572,1.572,0,0,1,1.572-1.572A1.571,1.571,0,0,1-197.1,182.107Z"/><path class="c" d="M-189.41,182.107a1.572,1.572,0,0,1-1.572,1.572,1.571,1.571,0,0,1-1.571-1.572,1.571,1.571,0,0,1,1.571-1.572A1.572,1.572,0,0,1-189.41,182.107Z"/><path class="c" d="M-181.724,182.107a1.572,1.572,0,0,1-1.572,1.572,1.572,1.572,0,0,1-1.572-1.572,1.572,1.572,0,0,1,1.572-1.572A1.572,1.572,0,0,1-181.724,182.107Z"/><path class="c" d="M-174.039,182.107a1.571,1.571,0,0,1-1.571,1.572,1.572,1.572,0,0,1-1.572-1.572,1.572,1.572,0,0,1,1.572-1.572A1.571,1.571,0,0,1-174.039,182.107Z"/><path class="c" d="M-166.353,182.107a1.571,1.571,0,0,1-1.571,1.572,1.572,1.572,0,0,1-1.572-1.572,1.572,1.572,0,0,1,1.572-1.572A1.571,1.571,0,0,1-166.353,182.107Z"/></g><g class="i" transform="translate(-2 -85)"><circle class="h" cx="58" cy="58" r="58" transform="translate(1549 14)"/></g></g></svg>