<svg xmlns="http://www.w3.org/2000/svg" xmlns:xlink="http://www.w3.org/1999/xlink" width="421" height="222" viewBox="0 0 421 222"><defs><style>.a{fill:url(#a);}.b{fill:#fff;}.c{filter:url(#b);}</style><linearGradient id="a" x1="0.984" y1="0.5" x2="0" y2="0.516" gradientUnits="objectBoundingBox"><stop offset="0" stop-color="#fff" stop-opacity="0"/><stop offset="1" stop-color="gray"/></linearGradient><filter id="b" x="0" y="0" width="421" height="222" filterUnits="userSpaceOnUse"><feOffset input="SourceAlpha"/><feGaussianBlur stdDeviation="15" result="c"/><feFlood flood-color="#0f218d" flood-opacity="0.102"/><feComposite operator="in" in2="c"/><feComposite in="SourceGraphic"/></filter></defs><g transform="translate(-993 -7102)"><g class="c" transform="matrix(1, 0, 0, 1, 993, 7102)"><path class="a" d="M40,0H331a0,0,0,0,1,0,0V92a40,40,0,0,1-40,40H0a0,0,0,0,1,0,0V40A40,40,0,0,1,40,0Z" transform="translate(45 45)"/></g><path class="b" d="M40,0H334a0,0,0,0,1,0,0V98a40,40,0,0,1-40,40H0a0,0,0,0,1,0,0V40A40,40,0,0,1,40,0Z" transform="translate(1035 7144)"/></g></svg>