<svg xmlns="http://www.w3.org/2000/svg" xmlns:xlink="http://www.w3.org/1999/xlink" width="400" height="504" viewBox="0 0 400 504"><defs><style>.a{opacity:0.14;fill:url(#a);}.b,.d{fill:none;}.b{stroke:rgba(122,128,163,0.3);opacity:0.5;}.c{stroke:none;}.e{filter:url(#d);}.f{filter:url(#b);}</style><linearGradient id="a" x1="0.834" y1="0.975" x2="0.763" y2="-0.2" gradientUnits="objectBoundingBox"><stop offset="0" stop-color="#7078a8"/><stop offset="1" stop-color="#e6f0f9" stop-opacity="0"/></linearGradient><filter id="b" x="0" y="0" width="369" height="462" filterUnits="userSpaceOnUse"><feOffset input="SourceAlpha"/><feGaussianBlur stdDeviation="15" result="c"/><feFlood flood-opacity="0.102"/><feComposite operator="in" in2="c"/><feComposite in="SourceGraphic"/></filter><filter id="d" x="31" y="42" width="369" height="462" filterUnits="userSpaceOnUse"><feOffset input="SourceAlpha"/><feGaussianBlur stdDeviation="15" result="e"/><feFlood flood-opacity="0.102"/><feComposite operator="in" in2="e"/><feComposite in="SourceGraphic"/></filter></defs><g transform="translate(-1286 -8645)"><g class="f" transform="matrix(1, 0, 0, 1, 1286, 8645)"><rect class="a" width="279" height="372" transform="translate(45 45)"/></g><g class="e" transform="matrix(1, 0, 0, 1, 1286, 8645)"><g class="b" transform="translate(76 87)"><path class="c" d="M0,0H139A140,140,0,0,1,279,140V372a0,0,0,0,1,0,0H0a0,0,0,0,1,0,0V0A0,0,0,0,1,0,0Z"/><path class="d" d="M1,.5H139A139.5,139.5,0,0,1,278.5,140V371a.5.5,0,0,1-.5.5H1a.5.5,0,0,1-.5-.5V1A.5.5,0,0,1,1,.5Z"/></g></g></g></svg>