<svg xmlns="http://www.w3.org/2000/svg" xmlns:xlink="http://www.w3.org/1999/xlink" width="398.343" height="424.366" viewBox="0 0 398.343 424.366"><defs><style>.a,.c{fill:#fff;}.b{fill:none;}.c{stroke:#707070;opacity:0;}.d{opacity:0.142;fill:url(#a);}.e{clip-path:url(#d);}.f,.g{isolation:isolate;}.g{opacity:0.252;mix-blend-mode:lighten;fill:url(#e);}.h{fill:#24126a;}.i{fill:url(#f);}.j{fill:url(#g);}.k{fill:url(#h);}.l{fill:url(#i);}.m{fill:url(#j);}.n{fill:url(#k);}.ag,.ai,.aj,.o,.p,.r{opacity:0.5;}.o{fill:url(#l);}.p{fill:url(#m);}.q{fill:#515151;}.s{fill:url(#n);}.al,.t{fill:#2d2d2d;}.u{fill:url(#o);}.v{fill:#160a5b;}.w{fill:#453c9e;}.x{fill:#fcd1c5;}.y{fill:#f0f6ff;}.z{fill:#c4ccd6;}.aa{fill:#e2b1a6;}.ab{fill:#aa8383;}.ac{fill:#936d6d;}.ad{fill:#263649;}.ae{clip-path:url(#p);}.af{fill:#334659;}.ag{fill:url(#q);}.ah{fill:#180d5b;opacity:0.3;}.ai{fill:url(#t);}.aj{fill:url(#u);}.ak{fill:#4846a5;}.al{opacity:0.63;}.am{fill:url(#v);}.an{fill:url(#w);}.ao{fill:url(#x);}.ap{fill:#2842a2;}.aq{fill:#adb1f2;}.ar{fill:#9198db;}.as{fill:url(#y);}.at{fill:url(#z);}.au{fill:url(#aa);}.av{fill:url(#ab);}.aw{fill:url(#ac);}.ax{fill:url(#ad);}.ay{fill:url(#ae);}.az{fill:url(#af);}.ba{fill:url(#ag);}.bb{fill:#722318;}.bc{fill:url(#ah);}.bd{fill:url(#ai);}.be{fill:#f5c27a;}.bf{stroke:none;}.bg{filter:url(#b);}</style><linearGradient id="a" x1="0.5" x2="0.5" y2="1" gradientUnits="objectBoundingBox"><stop offset="0" stop-color="#d6e1ff" stop-opacity="0"/><stop offset="1" stop-color="#f5c27a"/></linearGradient><filter id="b" x="11.343" y="0" width="387" height="424.366" filterUnits="userSpaceOnUse"><feOffset input="SourceAlpha"/><feGaussianBlur stdDeviation="15" result="c"/><feFlood flood-opacity="0.102"/><feComposite operator="in" in2="c"/><feComposite in="SourceGraphic"/></filter><clipPath id="d"><path class="a" d="M140,0H297a0,0,0,0,1,0,0V194.366a140,140,0,0,1-140,140H0a0,0,0,0,1,0,0V140A140,140,0,0,1,140,0Z" transform="translate(169.343 7746.134)"/></clipPath><radialGradient id="e" cx="0.517" cy="0.5" r="0.71" gradientTransform="matrix(-0.408, 0.707, 0.408, 0.707, -6.792, 3.245)" gradientUnits="objectBoundingBox"><stop offset="0" stop-color="#42e8e0"/><stop offset="0.67" stop-color="#c5f8f5"/><stop offset="1" stop-color="#fff"/></radialGradient><linearGradient id="f" x1="0.969" y1="0.015" x2="-0.555" y2="1.486" gradientUnits="objectBoundingBox"><stop offset="0" stop-color="#5761d7"/><stop offset="0.18" stop-color="#5c66d9"/><stop offset="0.39" stop-color="#6a73df"/><stop offset="0.61" stop-color="#8289e8"/><stop offset="0.85" stop-color="#a3a7f5"/><stop offset="1" stop-color="#bcbeff"/></linearGradient><linearGradient id="g" x1="0" y1="0.5" x2="2.181" y2="0.5" xlink:href="#f"/><linearGradient id="h" x1="0.51" y1="0.54" x2="-0.21" y2="-0.295" xlink:href="#f"/><linearGradient id="i" x1="0" y1="0.5" x2="1.576" y2="0.5" xlink:href="#f"/><linearGradient id="j" x1="0" y1="0.5" x2="1.001" y2="0.5" xlink:href="#f"/><linearGradient id="k" x1="0.459" y1="0.5" x2="1.459" y2="0.5" gradientUnits="objectBoundingBox"><stop offset="0" stop-color="#c0bff6"/><stop offset="0.29" stop-color="#c5c4f7"/><stop offset="0.64" stop-color="#d3d2f9"/><stop offset="1" stop-color="#e9e9fd"/></linearGradient><linearGradient id="l" y1="0.5" x2="1" y2="0.5" gradientUnits="objectBoundingBox"><stop offset="0" stop-color="#42e8e0"/><stop offset="0.15" stop-color="#43e3e0"/><stop offset="0.33" stop-color="#45d5df"/><stop offset="0.52" stop-color="#49bddd"/><stop offset="0.72" stop-color="#4e9cdb"/><stop offset="0.93" stop-color="#5472d8"/><stop offset="1" stop-color="#5761d7"/></linearGradient><linearGradient id="m" x1="0" y1="0.5" x2="1" y2="0.5" xlink:href="#l"/><linearGradient id="n" x1="0.83" y1="0.147" x2="0.467" y2="0.697" xlink:href="#l"/><linearGradient id="o" x1="0" y1="0.5" x2="1" y2="0.5" xlink:href="#l"/><clipPath id="p"><path class="b" d="M457.76,210.791l-.457-.266c-1.7-.983-1.486-2.7.474-3.823l13.823-7.981a7.291,7.291,0,0,1,6.622-.278l.463.266c1.695.983,1.481,2.7-.48,3.823l-13.817,7.981A7.321,7.321,0,0,1,457.76,210.791Z" transform="translate(-456.155 -197.775)"/></clipPath><linearGradient id="q" x1="0" y1="0.5" x2="1" y2="0.5" xlink:href="#l"/><linearGradient id="t" x1="0" y1="0.5" x2="1" y2="0.5" xlink:href="#l"/><linearGradient id="u" x1="-0.001" y1="0.5" x2="0.999" y2="0.5" xlink:href="#l"/><linearGradient id="v" y1="0.502" x2="1" y2="0.502" gradientUnits="objectBoundingBox"><stop offset="0" stop-color="#5761d7"/><stop offset="0.07" stop-color="#5472d8"/><stop offset="0.28" stop-color="#4e9cdb"/><stop offset="0.48" stop-color="#49bddd"/><stop offset="0.67" stop-color="#45d5df"/><stop offset="0.85" stop-color="#43e3e0"/><stop offset="1" stop-color="#42e8e0"/></linearGradient><linearGradient id="w" x1="0.037" y1="0.5" x2="1.037" y2="0.5" xlink:href="#f"/><linearGradient id="x" x1="0.373" y1="0.5" x2="1.373" y2="0.5" xlink:href="#k"/><linearGradient id="y" x1="-0.642" y1="0.5" x2="0.358" y2="0.5" xlink:href="#k"/><linearGradient id="z" x1="0.463" y1="0.5" x2="1.463" y2="0.5" xlink:href="#k"/><linearGradient id="aa" x1="-2.13" y1="0.5" x2="-1.13" y2="0.5" xlink:href="#f"/><linearGradient id="ab" x1="-2.526" y1="0.856" x2="-1.259" y2="0.856" xlink:href="#v"/><linearGradient id="ac" x1="-8.193" y1="10.539" x2="-7.232" y2="10.539" xlink:href="#v"/><linearGradient id="ad" x1="-1.143" y1="1.457" x2="-0.152" y2="1.457" xlink:href="#v"/><linearGradient id="ae" x1="-0.835" y1="1.275" x2="0.537" y2="1.275" xlink:href="#v"/><linearGradient id="af" x1="-2.861" y1="0.908" x2="-1.858" y2="0.908" xlink:href="#v"/><linearGradient id="ag" x1="-21.803" y1="9.638" x2="-20.75" y2="9.638" xlink:href="#v"/><linearGradient id="ah" x1="-26.013" y1="9.46" x2="-24.957" y2="9.46" xlink:href="#v"/><linearGradient id="ai" x1="-2.494" y1="0.881" x2="-1.308" y2="0.881" xlink:href="#v"/></defs><g transform="translate(-113 -7701.134)"><g class="c" transform="translate(113 7710)"><rect class="bf" width="378.27" height="394.14"/><rect class="b" x="0.5" y="0.5" width="377.27" height="393.14"/></g><path class="d" d="M140,0h57.075a0,0,0,0,1,0,0V127.8a140,140,0,0,1-140,140H0a0,0,0,0,1,0,0V140A140,140,0,0,1,140,0Z" transform="translate(329.598 7977.802) rotate(180)"/><g class="bg" transform="matrix(1, 0, 0, 1, 113, 7701.13)"><path class="a" d="M140,0H297a0,0,0,0,1,0,0V194.366a140,140,0,0,1-140,140H0a0,0,0,0,1,0,0V140A140,140,0,0,1,140,0Z" transform="translate(56.34 45)"/></g><g class="e"><g class="f" transform="translate(66.093 7748.89)"><g transform="translate(118.01 79.351)"><ellipse class="g" cx="125.13" cy="72.244" rx="125.13" ry="72.244" transform="translate(0 50.768)"/><path class="h" d="M440.89,298.554a2.73,2.73,0,1,1-2.724-2.724A2.73,2.73,0,0,1,440.89,298.554Z" transform="translate(-261.676 -168.81)"/><path class="h" d="M487.318,245.89a2.724,2.724,0,1,1-.8-1.93A2.724,2.724,0,0,1,487.318,245.89Z" transform="translate(-281.257 -146.602)"/><path class="h" d="M497.46,281.88a2.724,2.724,0,1,1-.8-1.932A2.73,2.73,0,0,1,497.46,281.88Z" transform="translate(-285.528 -161.777)"/><path class="h" d="M395.61,273.014a2.73,2.73,0,1,1-2.73-2.724,2.73,2.73,0,0,1,2.73,2.724Z" transform="translate(-242.585 -158.041)"/><path class="h" d="M424.75,241.15a2.724,2.724,0,1,1-.8-1.932,2.73,2.73,0,0,1,.8,1.932Z" transform="translate(-254.871 -144.604)"/><path class="i" d="M423.719,260.6l-29.971,5.784a1.965,1.965,0,0,0-.37.052l.029-.2L392,265.863v1.7h0a.8.8,0,0,0,0,.2c.185.665,1.267,1.122,2.418,1.012l29.971-5.784Z" transform="translate(-243.36 -153.956)"/><path class="j" d="M471.976,242.82l-.908.769a3.418,3.418,0,0,0-2.811.208l-21.348,9.294,2.99,1.735,21.353-9.3a1.209,1.209,0,0,0,.723-1.012h0Z" transform="translate(-266.517 -146.459)"/><path class="k" d="M424.6,238.433a3.053,3.053,0,0,0-2.84-.532h0a2.7,2.7,0,0,0-.347.127,1.379,1.379,0,0,0-.179-.243,4.537,4.537,0,0,0-.63-.445v1.695h0a.867.867,0,0,0,.226.515l13.777,12.58,3.765-1.11Z" transform="translate(-255.424 -144.148)"/><path class="l" d="M478.176,271.345l-.509.179-.289.607a2.2,2.2,0,0,0-.359-.133L449.98,261.01l-1.92,2.175L475.1,274.174a3,3,0,0,0,2.846-.532h0a.85.85,0,0,0,.22-.578v-1.735Z" transform="translate(-267.002 -154.128)"/><path class="m" d="M441.351,262.94l-4.442,19.023-.33-.174v1.735h0c.058.578.781,1.041,1.776,1.128,1.157.1,2.233-.347,2.418-1.012l4.748-20.335Z" transform="translate(-262.161 -154.942)"/><path class="n" d="M453.359,259.4l-25.078-10.191,19.8-8.612c.885-.515.983-1.29.214-1.735l-.208-.121a3.331,3.331,0,0,0-3,.121L425.3,247.48,412.52,235.814a3.053,3.053,0,0,0-2.84-.538h0c-1.041.307-1.457,1.041-.925,1.643l12.776,11.666-27.82,5.361c-1.157.1-1.938.729-1.735,1.394s1.267,1.122,2.418,1.018L422.2,251l-4.407,18.861c-.179.665.607,1.29,1.735,1.394s2.233-.347,2.418-1.012l4.4-18.861,25.078,10.191a3,3,0,0,0,2.846-.538C454.8,260.435,454.4,259.706,453.359,259.4ZM425.6,249.232l-.469.532-1.018-.093-.162-.578.92-.266Z" transform="translate(-243.342 -143.224)"/><path class="h" d="M447.036,242.151h0a2.186,2.186,0,0,1-2.186-2.186V214.65h4.372v25.315A2.186,2.186,0,0,1,447.036,242.151Z" transform="translate(-265.648 -134.582)"/><path class="o" d="M389.19,171.421l-.457-.266c-1.7-.983-1.486-2.7.474-3.823l13.823-7.981a7.292,7.292,0,0,1,6.622-.278l.463.266c1.695.983,1.486,2.7-.474,3.823l-13.823,7.981A7.375,7.375,0,0,1,389.19,171.421Z" transform="translate(-241.504 -110.867)"/><path class="p" d="M411.258,160.862h0a2.024,2.024,0,0,0-1.157-1.527l-.463-.266a7.363,7.363,0,0,0-6.622.278l-13.823,7.981a2.733,2.733,0,0,0-1.614,2.094h0v2.406h0a1.955,1.955,0,0,0,1.157,1.666l.457.266a7.375,7.375,0,0,0,6.628-.278l13.823-7.981a2.82,2.82,0,0,0,1.608-2.024h0Z" transform="translate(-241.501 -110.869)"/><path class="q" d="M417.983,193.346l-28.976,16.68c-1.434.827-2.6-.052-2.6-1.961h0a6.2,6.2,0,0,1,2.6-4.962L422.176,184v1.307C422.176,188.4,420.3,192,417.983,193.346Z" transform="translate(-241.008 -121.659)"/><g class="r" transform="translate(146.217)"><path class="s" d="M420.689,76.558h0a3.76,3.76,0,0,0-3.719.347l-.862.5c-3.2,1.851-5.784,6.807-5.784,11.076v57.258L418,141.294v1.816l-9.225,7.519L387.82,164.684l29.456,16.669L434.194,168.3l9.647-8.236,6.027-67Z" transform="translate(-387.82 -76.212)"/></g><path class="t" d="M400.894,230.378a3.574,3.574,0,0,1,.764-3.621c1.55-1.55,9.693-4.974,10.283-5.344s3.516-2.522,3.516-2.522l.891-2s-16.53,1.614-16.773,1.868-7.739,7-7.519,7.3a43.521,43.521,0,0,0,5.176,1.5l.96,1.313Z" transform="translate(-243.387 -135.526)"/><path class="u" d="M467.094,105.554l-.868.5c-3.2,1.845-5.784,6.807-5.784,11.07v57.258l-20.706,11.943a6.224,6.224,0,0,0-2.6,4.962h0c0,1.914,1.157,2.794,2.6,1.966l28.947-16.7c2.313-1.348,4.216-4.951,4.216-8.051V109.938C472.918,105.67,470.292,103.709,467.094,105.554Z" transform="translate(-262.397 -88.291)"/><path class="v" d="M387.15,258.019a39.869,39.869,0,0,0-5.7,4.349c-1.44,1.614-4.3,4.916-3.129,6.489s5.147,2.452,9.416-1.475,3.054-4.164,6.686-6.113,4.627-4.049,4.193-5.275-2.232-3.355-3.21-2.892S387.15,258.019,387.15,258.019Z" transform="translate(-237.48 -150.767)"/><path class="v" d="M425.645,276.964a44.479,44.479,0,0,1-2.314,4.488c-.792,1.116-4.627,7.565-2.62,9.046s5.784,1.07,8.78-2.18,3.661-7.206,4.4-8.508,2.58-4.766,1.735-6.761a16.051,16.051,0,0,0-1.1-2.348Z" transform="translate(-255.228 -158.214)"/><path class="h" d="M392.013,198.148s-12.655,12.51-14.748,18.762a6.941,6.941,0,0,0,1.567,6.056c2.452,2.66,7.658,11.359,7.658,11.359s3.881,4.7,8.9.943c0,0,2.267-3.621.873-6.032s-5.1-10.1-5.1-10.1,8.126-5.593,12.146-7a55.228,55.228,0,0,0,6.131-2.481,19.23,19.23,0,0,1-3.661,7.478c-2.938,3.69-7.848,9.624-6.212,13.754a34.356,34.356,0,0,0,4.118,7.779c1.538,2.377,2.99,7.339,4.3,7.854s7.374,1.11,8.357-2.84-2.07-11.614-3.441-14.211c0,0,16.391-18.913,17.929-20.989S397.085,194.932,392.013,198.148Z" transform="translate(-237.085 -127.386)"/><path class="v" d="M403.912,229.257c-1.394-2.406-5.1-10.1-5.1-10.1s8.126-5.593,12.146-7a55.234,55.234,0,0,0,6.131-2.5,41.416,41.416,0,0,0,4.384-8.357c-9.254-2.707-19.277-4.748-21.8-3.152.9,2.215,5.61,2.2,5.61,2.2s1.735,4.286,2.927,4.829,3.962-.052,3.962-.052a10.4,10.4,0,0,1-2.447,2.146c-2,1.44-14.459,11.654-14.459,11.654s.711.4,4.049,6.408,3.754,9.96,3.754,9.96S405.306,231.668,403.912,229.257Z" transform="translate(-244.74 -127.384)"/><path class="v" d="M448.3,209.73c-7.328-.7-15.859-.763-13.939,3.083a12.279,12.279,0,0,0,9.832,6.819c-.04,2.4-10.1,13.979-10.1,13.979l2.342,4.558c2.348,4.558,2.053,12.857,2.053,12.857a3.7,3.7,0,0,0,1.909-2.406c.977-3.945-2.071-11.614-3.441-14.211,0,0,16.391-18.913,17.929-20.989C455.343,212.83,452.544,211.39,448.3,209.73Z" transform="translate(-261.11 -132.351)"/><path class="w" d="M373.455,129.352l1.949-1.515s10.509-5.836,14.008-7.721a23.968,23.968,0,0,0,5.263-4.32,7.293,7.293,0,0,1,5.24-2.233l18.409-.093a37.335,37.335,0,0,0,2.892,4.112c.532.5,5.529,4.685,9.109,8.132a15.535,15.535,0,0,1,4.176,6.94c2.053,7.23,2.018,21.8,2.313,32.221a33.178,33.178,0,0,1-4.419,1.157c-3.135.665-2.747.237-2.747.237s-4.7,10.573-11.07,11.567-14.957-1.961-16.489-11.961c0,0-12.423-1.862-15.8-3.245a.515.515,0,0,1-.214-.781c1.5-2,7.1-9.722,7.634-14.76.619-5.824.428-14.274-.035-16.582,0,0-9.37,3.528-12.354,4.153,0,0-11.405,12.533-16.194,15.946,0,0,1.631-2.562-1.643-4.3Z" transform="translate(-231.344 -91.921)"/><path class="h" d="M460.6,201.884l1.3-.295-.665-1.3-17.282-1.828-10.093.521-3.47,3.3a16.772,16.772,0,0,0,.821,2.973s4.3.613,6.281.191,17.351,1.839,17.4,1.839a35.279,35.279,0,0,0,2.955-5.124C457.822,202.242,458.013,202.433,460.6,201.884Z" transform="translate(-259.551 -127.755)"/><path class="x" d="M429.555,192.779a.156.156,0,0,0-.145-.11c-.827,0-6.229-.179-8.271-.885a9.953,9.953,0,0,0-4.685-.5c-.121.127-3.806,1.695-4.049,2.313s-.549,2.522-.058,3.245a10.882,10.882,0,0,1,.717,1.2l.387.041a10.806,10.806,0,0,0,.775,1.324,2.381,2.381,0,0,1,.3.492c.231.5.642,1.336.816,1.353a9.2,9.2,0,0,0,1.671.174c.237-.058.451-.781.353-1.1a.133.133,0,0,1,.11-.179,15.97,15.97,0,0,1,3.921-.087c2.406.22,5.784-1.348,6.108-1.492h.052l3.389-.307a.156.156,0,0,0,.133-.2Z" transform="translate(-251.834 -124.689)"/><path class="y" d="M434.328,125.217a45.242,45.242,0,0,0,.168,21.55s11.093-20.694,12.3-24.049,1.637-5.743.515-6.94-11.145,5.026-11.145,5.026Z" transform="translate(-260.69 -92.83)"/><path class="z" d="M438.833,149.5s2.117-6.46,1.735-8.548a25.567,25.567,0,0,0-.891-3.58l1.9-1.735.839,1.735s4.193-3.077,4.477-3.649a36.068,36.068,0,0,1-4.442,2.666,3.141,3.141,0,0,0-1.157-1.116c-.659-.283-2.313,1.984-2.313,1.984l-.312,3.921L437,150.319l.578,1.359Z" transform="translate(-262.338 -100.459)"/><path class="h" d="M436.855,132.28s-.4,4.176-.058,4.471a2.821,2.821,0,0,0,2.238,0,15.646,15.646,0,0,0,2.134-2.152S439.279,131.268,436.855,132.28Z" transform="translate(-262.194 -99.771)"/><path class="h" d="M437.514,138.83a11.92,11.92,0,0,1,.046,6.9,58.382,58.382,0,0,0-1.5,7.733l-1.648,3.089a32.121,32.121,0,0,1-1.382-12.146,11.086,11.086,0,0,1,2.383-5.142Z" transform="translate(-260.609 -102.613)"/><path class="x" d="M426.012,95.2a13.65,13.65,0,0,0-.33,3.071c.179.492.839.821.682,1.828a18.84,18.84,0,0,0,.723,5.02s-.22,1.07.081,1.405.688.318.972.827.376,3.112,1.429,3.985a3.916,3.916,0,0,0,3.141.862,5.091,5.091,0,0,0,1.44-.735l1.59.665s8.248-2.313,7.987-8.132v-.613a6.361,6.361,0,0,0,.758-1.359c.168-.538,1.538-2.944.844-3.985,0,0,3.2-12.608-6.663-13.372S427.319,90.816,426.012,95.2Z" transform="translate(-257.55 -79.752)"/><path class="aa" d="M449.911,116.262v-.075a1.816,1.816,0,0,0-1.157-.347c-1.128.2-.868-2.14-.868-2.14a21.8,21.8,0,0,0-.787,3.412c-.578,2.99-6.79,6.611-6.79,6.611l1.591.665S450.171,122.057,449.911,116.262Z" transform="translate(-263.734 -92.018)"/><path class="ab" d="M425.749,88.389c-.966,2.047-1.423,4.505.578,6.154,0,0,1.695.463,4.916-1.035a7.519,7.519,0,0,1,5.523-.162,1.324,1.324,0,0,1,.891,1.278l-.052,1.8A1.157,1.157,0,0,0,438.3,97.5l1.5.636.295,1.735a.839.839,0,0,0,1.11.648l.376-.133s.226-3.887,3.43-3.69c0,0,2.6-5.61-.064-10.74s-9.936-4.766-11.492-4.187a10.737,10.737,0,0,0-2.932,1.377A12.481,12.481,0,0,0,425.749,88.389Z" transform="translate(-257.247 -78.419)"/><path class="h" d="M466.649,161.88s-1.492,10.989-2.105,14.118l-4.824,2.539,8.566-.521Z" transform="translate(-271.918 -112.332)"/><path class="ac" d="M454.29,104.55a14.531,14.531,0,0,0,1.087-4.5,11.614,11.614,0,0,1-8.415,2.418l-.052,1.8a1.157,1.157,0,0,0,.694,1.076l1.5.636.295,1.735a.839.839,0,0,0,1.11.648l.376-.133S451.086,104.353,454.29,104.55Z" transform="translate(-266.517 -86.263)"/><path class="h" d="M451.824,124.55s-2.522,8.768-3.1,10.457l-2.059-.22.37,2.776L436,152.144l12.279-14.1-.486-2.47,1.868.2Z" transform="translate(-261.917 -96.593)"/><path class="ad" d="M444.247,182.878s25.946-.844,26.6-1.319.781-7.149.717-10.989c-.046-2.718,0-13.337-2.314-20.781,1.822,6.3.862,28.606.04,29.745s-25.506,1.787-25.506,1.787h0C444.044,182.2,444.247,182.878,444.247,182.878Z" transform="translate(-265.201 -107.235)"/><path class="x" d="M349.3,169.812s-.1.654-1.226,1.3-4.014,2.065-4.482,2.475a26.588,26.588,0,0,0-2.608,2.481c-.058.243-.688,2.313-.682,2.435s.2,1.082.2,1.082l-.642,3.054s-.816,1.186.069,1.51a1.157,1.157,0,0,0,1.405-.735,15.119,15.119,0,0,0,2.313-1.394c.983-.763,4.916-3.933,5.587-3.736s.052,1.33-.266,1.527-2.412,2.232-1.538,3.649,1.446-.8,2.024-1.249,1.828-2.227,2.591-2.446,2.157-3.077,2.313-4.349a4.962,4.962,0,0,1,1.423-2.51c.324-.416-.706-3.586-.706-3.586l-3.9-1.215-1.365.891Z" transform="translate(-221.237 -114.955)"/><g class="ae" transform="translate(185.74 70.309)"><path class="af" d="M466.458,141.687c-.815-1.29-1.186-.335-2.285.723a16.935,16.935,0,0,0-4.286,6.472c-1.735,5.113-1.116,17.895-.532,19.722,0,0-16.252,2.66-17.351,2.614s1.371,7.982,1.371,7.982,25.946-.844,26.6-1.319.781-7.149.717-10.989C470.651,163.52,470.709,148.4,466.458,141.687Z" transform="translate(-450.07 -173.865)"/><path class="ad" d="M444.247,182.878s25.946-.844,26.6-1.319.781-7.149.717-10.989c-.046-2.718,0-13.337-2.314-20.781,1.822,6.3.862,28.606.04,29.745s-25.506,1.787-25.506,1.787h0C444.044,182.2,444.247,182.878,444.247,182.878Z" transform="translate(-450.942 -177.543)"/></g><path class="ag" d="M350.241,226.165,265.66,177.333l45.419-26.223,84.586,48.832Z" transform="translate(-190.096 -107.791)"/><path class="ag" d="M265.66,189.44v4.054l84.581,48.832L395.666,216.1v-4.049l-45.425,26.223Z" transform="translate(-190.096 -123.952)"/><path class="ag" d="M350.241,219.161,265.66,170.323,311.079,144.1l84.586,48.837Z" transform="translate(-190.096 -104.835)"/><path class="ah" d="M420.272,205.281a13.98,13.98,0,0,0,5.732.746c2.481-.411,14.459-.648,14.459-.648l-1.874-1.087L434.4,201.4l-10.411.7L420,203.511Z" transform="translate(-255.171 -128.995)"/><path class="x" d="M429.555,192.779a.156.156,0,0,0-.145-.11c-.827,0-6.229-.179-8.271-.885a9.953,9.953,0,0,0-4.685-.5c-.121.127-3.806,1.695-4.049,2.313s-.549,2.522-.058,3.245a10.882,10.882,0,0,1,.717,1.2l.387.041a10.806,10.806,0,0,0,.775,1.324,2.381,2.381,0,0,1,.3.492c.231.5.642,1.336.816,1.353a9.2,9.2,0,0,0,1.671.174c.237-.058.451-.781.353-1.1a.133.133,0,0,1,.11-.179,15.97,15.97,0,0,1,3.921-.087c2.406.22,5.784-1.348,6.108-1.492h.052l3.389-.307a.156.156,0,0,0,.133-.2Z" transform="translate(-251.834 -124.689)"/><path class="ai" d="M457.76,210.791l-.457-.266c-1.7-.983-1.486-2.7.474-3.823l13.823-7.981a7.291,7.291,0,0,1,6.622-.278l.463.266c1.695.983,1.481,2.7-.48,3.823l-13.817,7.981A7.321,7.321,0,0,1,457.76,210.791Z" transform="translate(-270.415 -127.467)"/><path class="aj" d="M479.854,200.212h0a2.024,2.024,0,0,0-1.157-1.527l-.463-.266a7.363,7.363,0,0,0-6.622.278l-13.788,8a2.729,2.729,0,0,0-1.614,2.094h0V211.2h0a1.955,1.955,0,0,0,1.157,1.666l.457.266a7.375,7.375,0,0,0,6.628-.278l13.817-7.981a2.816,2.816,0,0,0,1.614-2.024h0Z" transform="translate(-270.438 -127.46)"/><path class="ak" d="M466.458,141.687c-.815-1.29-1.186-.335-2.285.723a16.935,16.935,0,0,0-4.286,6.472c-1.735,5.113-1.116,17.895-.532,19.722,0,0-16.252,2.66-17.351,2.614s1.371,7.982,1.371,7.982,25.946-.844,26.6-1.319.781-7.149.717-10.989C470.651,163.52,470.709,148.4,466.458,141.687Z" transform="translate(-264.33 -103.556)"/><path class="h" d="M444.247,182.878s25.946-.844,26.6-1.319.781-7.149.717-10.989c-.046-2.718,0-13.337-2.314-20.781,1.822,6.3.862,28.606.04,29.745s-25.506,1.787-25.506,1.787h0C444.044,182.2,444.247,182.878,444.247,182.878Z" transform="translate(-265.201 -107.235)"/><path class="ah" d="M354.932,176s9.254-7.247,10.6-7.947a9.364,9.364,0,0,0,1.885-1.238l-3.106-1.793-5.252,2.163-6.617,6.553-10.185,7.218v1.677s8.4-3.6,9.341-4.222S354.932,176,354.932,176Z" transform="translate(-222.393 -113.656)"/><path class="al" d="M349.287,188.365a18.726,18.726,0,0,1,3.25-2.354c1.278-.578,3.3-2.157,3.551-3.355s2.36-3.846,2.36-3.846l-3.383,1.949-4.893,2.828L342,188.313a1.388,1.388,0,0,0,1.527.22c1.035-.347,2.967-1.585,3.869-1.695s2.394-.387,2.394-.387Z" transform="translate(-222.283 -119.47)"/><path class="x" d="M349.3,169.812s-.1.654-1.226,1.3-4.014,2.065-4.482,2.475a26.588,26.588,0,0,0-2.608,2.481c-.058.243-.688,2.313-.682,2.435s.2,1.082.2,1.082l-.642,3.054s-.816,1.186.069,1.51a1.157,1.157,0,0,0,1.405-.735,15.119,15.119,0,0,0,2.313-1.394c.983-.763,4.916-3.933,5.587-3.736s.052,1.33-.266,1.527-2.412,2.232-1.538,3.649,1.446-.8,2.024-1.249,1.828-2.227,2.591-2.446,2.157-3.077,2.313-4.349a4.962,4.962,0,0,1,1.423-2.51c.324-.416-.706-3.586-.706-3.586l-3.9-1.215-1.365.891Z" transform="translate(-221.237 -114.955)"/><path class="ak" d="M391.624,126.572a51.148,51.148,0,0,1,.844-10.272,7.876,7.876,0,0,0-.769.688,23.967,23.967,0,0,1-5.263,4.32c-3.5,1.885-14.008,7.721-14.008,7.721l-1.949,1.515c-6.16,4.829-13.048,15.344-14.049,17.426.486-.642,1.735-1.7,4.1-.434,3.274,1.735,1.735,4.355,1.735,4.355,4.766-3.407,16.1-16,16.1-16,2.8-.578,11.2-3.719,12.25-4.112a13.881,13.881,0,0,0,1.006-5.211Z" transform="translate(-228.368 -93.114)"/><path class="am" d="M366.256,173.21c0-.879-.416-1.99-2.088-2.892a4.522,4.522,0,0,0-1.868-.578,5.6,5.6,0,0,1,.706.318c3.274,1.735,1.735,4.355,1.735,4.355C365.174,174.1,365.7,173.69,366.256,173.21Z" transform="translate(-230.843 -115.646)"/><path class="h" d="M382.531,143.383c2.984-.625,12.354-4.153,12.354-4.153.428,2.123.619,9.445.168,15.136a49.788,49.788,0,0,0,.758-20.306c-.763,3.649-15.616,8.676-15.616,8.676-2.36,3.638-13.609,14.141-13.609,14.141h0a2.892,2.892,0,0,1-.226,2.435C371.126,155.917,382.531,143.383,382.531,143.383Z" transform="translate(-232.554 -100.602)"/><path class="an" d="M315.35,193.767l2.25,1.157,22.556-13.031a1.625,1.625,0,0,1,1.475.064l38.942,22.493c.376-.208,2.071-1.029,2.071-1.029l-.821,2.152h0a.474.474,0,0,1-.226.254l-23.783,13.719a1.631,1.631,0,0,1-1.469-.058l-39.838-23a.717.717,0,0,1-.335-.353h0Z" transform="translate(-211.047 -120.708)"/><path class="ao" d="M315.713,192.172l40.827,23.574a1.683,1.683,0,0,0,1.51.058l24.367-14.066c.387-.22.335-.613-.11-.868L341.451,177.3a1.7,1.7,0,0,0-1.51-.064L315.58,191.3C315.193,191.525,315.239,191.912,315.713,192.172Z" transform="translate(-211.034 -118.744)"/><path class="a" d="M315.735,202.511l40.827,23.574a1.7,1.7,0,0,0,1.509.064l24.367-14.066a.515.515,0,0,0,.237-.266.416.416,0,0,1-.237.5l-24.4,14.049a1.683,1.683,0,0,1-1.51-.058l-40.8-23.557c-.3-.173-.416-.4-.341-.578A.688.688,0,0,0,315.735,202.511Z" transform="translate(-211.056 -129.32)"/><path class="ap" d="M406.595,234.747V234.3c0-.046,0-.064-.058-.046l-1.579.914a.139.139,0,0,0-.058.11v.445c0,.04.029.064.058.046l1.579-.914A.133.133,0,0,0,406.595,234.747Z" transform="translate(-248.804 -142.845)"/><path class="ap" d="M402.515,237.107v-.451c0-.04,0-.058-.058-.04l-1.579.908a.156.156,0,0,0-.058.11v.451c0,.04.029.064.058.04l1.579-.908A.133.133,0,0,0,402.515,237.107Z" transform="translate(-247.084 -143.84)"/><path class="aq" d="M373.363,210.888,339.436,191.3a.74.74,0,0,0-.735,0l-12.076,6.987a.26.26,0,0,0,0,.451l33.91,19.578a.717.717,0,0,0,.729,0l12.1-6.987a.26.26,0,0,0,0-.44Z" transform="translate(-215.746 -124.695)"/><path class="ar" d="M373.363,211.349l-.121.069-33.806-19.5a.729.729,0,0,0-.735,0l-11.955,6.94-.121-.069a.26.26,0,0,1,0-.451l12.076-6.987a.74.74,0,0,1,.735,0l33.927,19.589a.26.26,0,0,1,0,.411Z" transform="translate(-215.746 -124.716)"/><path class="h" d="M346.03,193.888l31.249,18.039,1.55-.619L347.337,193.13Z" transform="translate(-223.983 -125.508)"/><path class="h" d="M340.47,197.092l27.646,15.963,1.307-.758-27.64-15.957Z" transform="translate(-221.638 -126.862)"/><path class="h" d="M336.86,199.178,369.4,217.969l1.307-.758L338.167,198.42Z" transform="translate(-220.116 -127.738)"/><path class="h" d="M333.24,201.268l32.545,18.791,1.307-.758L334.547,200.51Z" transform="translate(-218.59 -128.62)"/><path class="h" d="M329.62,203.358l32.545,18.791,1.313-.758L330.933,202.6Z" transform="translate(-217.064 -129.501)"/><path class="h" d="M400.06,225.078l1.313.758,1.307-.758-1.307-.758Z" transform="translate(-246.763 -138.659)"/><path class="h" d="M385.52,223.077l6.507,3.759,1.313-.758-6.559-3.788Z" transform="translate(-240.633 -137.803)"/><path class="as" d="M379.778,202.922l-9.144-5.281c-.359-.2-.359-.538,0-.746l6.252-3.609a1.423,1.423,0,0,1,1.3,0l9.15,5.281c.359.2.359.538,0,.746l-6.258,3.609a1.423,1.423,0,0,1-1.3,0Z" transform="translate(-234.243 -125.508)"/><path class="ar" d="M387.337,198.873l-9.15-5.286a1.458,1.458,0,0,0-1.3,0L370.64,197.2a.578.578,0,0,0-.226.22c-.093-.179,0-.382.226-.526l6.252-3.609a1.423,1.423,0,0,1,1.3,0l9.15,5.281c.249.139.318.347.226.526A.578.578,0,0,0,387.337,198.873Z" transform="translate(-234.249 -125.508)"/><path class="at" d="M315.458,178.731l5.165-30.619-.416-.174.625-.359h0a.445.445,0,0,1,.48.035l41.243,23.811a1.157,1.157,0,0,1,.538,1.047l-5.205,30.862a.382.382,0,0,1-.214.318h0l-.613.353-.1-.578h.035L316,179.784A1.157,1.157,0,0,1,315.458,178.731Z" transform="translate(-211.092 -106.28)"/><path class="au" d="M391.093,190.091l.682-.3a.972.972,0,0,1,.087.509l-5.205,30.862a.382.382,0,0,1-.214.318h0l-.613.353-.1-.578h.035l-2.071-1.2Z" transform="translate(-239.861 -124.1)"/><path class="w" d="M314.876,180.427l41.249,23.811c.318.185.578.081.642-.249l5.205-30.867a1.157,1.157,0,0,0-.538-1.047l-41.243-23.811c-.318-.185-.578-.081-.648.249l-5.205,30.868a1.157,1.157,0,0,0,.538,1.047Z" transform="translate(-210.62 -106.553)"/><path class="v" d="M264.428,335.23a29.983,29.983,0,0,0,5.275.763c2.6.1,9.659,1.521,9.479,4.153s-3.864,6.449-8.485,7.01-10.573-.769-13.592-.682a4.228,4.228,0,0,1-3.9-5.951C254.376,337.59,264.428,335.23,264.428,335.23Z" transform="translate(-184.689 -185.422)"/><path class="v" d="M245.475,315.738s-.989,1.591-.5,2.568,1.781,3.412,6,1.058,12.331-5.691,12.331-5.691,4.656-2.481,4.4-5.4-4.54-2.47-4.54-2.47Z" transform="translate(-181.317 -173.003)"/><path class="h" d="M273.327,248.921s-1.8,18.976-5.61,26.171c-3.881,7.316-4.945,20.706-5.755,23.262s-3.308,6.27-7.282,7.062-4.627-1.909-4.419-3.522,1.3-4.222,1.307-5.975a18.316,18.316,0,0,0-.451-3.36s-4.534,1.336-5.205-2.175a9.688,9.688,0,0,0,.428-1.544c.064-.526-.388-13.233-.5-14.772a65.475,65.475,0,0,1,1.978-13.939c1.255-4.106.833-12.689.833-12.689l12.892-1.81Z" transform="translate(-181.737 -147.644)"/><path class="av" d="M247.791,261.316c1.249-4.049.833-12.689.833-12.689l1.128-.156c.052,1.2.318,8.774-.821,12.5A65.008,65.008,0,0,0,246.97,274.9c.11,1.533.578,14.239.515,14.76a9.881,9.881,0,0,1-.422,1.544c.694,3.511,5.205,2.175,5.205,2.175a18.709,18.709,0,0,1,.457,3.355c-.012,1.741-1.11,4.355-1.3,5.969s.457,4.309,4.419,3.522a1.634,1.634,0,0,0,.353-.1,7.623,7.623,0,0,1-1.544.486c-3.968.787-4.627-1.909-4.419-3.522s1.3-4.222,1.307-5.975a21.188,21.188,0,0,0-.451-3.516s-4.534,1.492-5.205-2.019a9.692,9.692,0,0,0,.428-1.544c.064-.526-.388-13.233-.5-14.772A65.378,65.378,0,0,1,247.791,261.316Z" transform="translate(-181.724 -148.841)"/><path class="v" d="M255.019,250.357a14.673,14.673,0,0,0,1.29,5.454s0,10.092,1.012,15.2c0,0-1.671,10.26-2.724,13.493s-.9,9.6-.9,9.6a4.465,4.465,0,0,1-1.255.22c-.74.029-.792-12.539.347-14.754s1.984-12.007,1.556-14.991-.278-11.452-.839-12.95a1.909,1.909,0,0,1,.706-2.313Z" transform="translate(-184.296 -149.195)"/><path class="v" d="M276.08,132.73a9.283,9.283,0,0,1,3.557,7.4l-2.782-.578S277.682,134.338,276.08,132.73Z" transform="translate(-194.489 -100.042)"/><path class="v" d="M263.907,252.941c-8.554.26-13.169-3.528-13.169-3.528,0-1.2-.058-1.984-.058-1.984l12.909-1.8,11.781,3.291s-.359,3.742-1.087,8.531c-2.1.231-4.158-4.928-4.158-4.928l-5.865.376S272.461,252.68,263.907,252.941Z" transform="translate(-183.78 -147.644)"/><path class="w" d="M268.44,195.7s-18.6,7.594-27.594-6.825a2.539,2.539,0,0,1-.353-1.417l.11-3.355a3.47,3.47,0,0,0-.179-1.243h0a5.339,5.339,0,0,1-.185-2.684c.7-3.754,2.585-13.95,3.025-16.773.538-3.47-1.29-17.27-4.378-23.25s4.772-19.161,4.772-19.161a5.061,5.061,0,0,1,5.668-2.036s-3.58,2.5-1.619,5.142,7.848,4.789,7.848,4.789,10.873,5.639,14.6,12.5a28.778,28.778,0,0,1,1.394,8.1c.11,4.563-.393,15.523-.2,17.045s.769,11.972.706,12.458S268.44,195.7,268.44,195.7Z" transform="translate(-178.504 -94.142)"/><path class="aw" d="M254.3,120.9a2.7,2.7,0,0,1,.069-2.105,5.39,5.39,0,0,1,1.683.191A6.725,6.725,0,0,0,254.3,120.9Z" transform="translate(-185.229 -94.164)"/><path class="h" d="M273.166,223.551s-10.954-29.584-10.411-40.318c.5-10.468,15.986,21.209,15.986,21.209L278.823,222a33.63,33.63,0,0,1-5.656,1.556Z" transform="translate(-188.863 -120.441)"/><path class="ax" d="M242.175,222.68a3.551,3.551,0,0,1,.179,1.238l-.116,3.331a2.568,2.568,0,0,0,.359,1.411c8.965,14.3,27.5,6.761,27.5,6.761s2.551-11.637,3.349-15.4c.04.92.064,1.562.046,1.671-.058.486-3.609,16.709-3.609,16.709s-18.6,7.594-27.594-6.825a2.539,2.539,0,0,1-.353-1.417l.11-3.355a3.47,3.47,0,0,0-.179-1.243,5.338,5.338,0,0,1-.185-2.684c.075-.388.162-.868.254-1.382A5.306,5.306,0,0,0,242.175,222.68Z" transform="translate(-179.948 -136.846)"/><path class="ay" d="M239.2,148.585c3.077,5.946,4.91,19.665,4.372,23.1-.052.318-.121.735-.2,1.215,0-4.951-1.735-16.391-4.465-21.695-.85-1.66-.827-3.91-.382-6.275a7.588,7.588,0,0,0,.677,3.655Z" transform="translate(-178.528 -105.185)"/><path class="ak" d="M279,181.408a47.963,47.963,0,0,1-.659-7.259c-.046-4.2-1.226-11.186-8.843-9.971-10.758,1.735-6.154,16.773-4.974,19.422s5.894,14.586,6.142,15.263,7.675,15.541,10.33,19.115a.654.654,0,0,0,.972.121c1.076-.914,3.47-3.1,3.811-4.482.411-1.781-1.157-8.23-1.157-8.23s-4.193-16.113-4.546-16.859C279.811,187.966,279.632,185.317,279,181.408Z" transform="translate(-188.776 -113.242)"/><path class="x" d="M266.39,112.906a3.8,3.8,0,0,1,2.828-2.146c1.972-.2,3.094-.752,3.291-1.481a14.209,14.209,0,0,1,.688-2.7,20.423,20.423,0,0,0,.873-3.817c0-.064,1.492-.515,1.562-1.157s-.7-3.019-.619-3.2a5.943,5.943,0,0,0,.781-2.747,13.557,13.557,0,0,0-.85-4.118c-.578-1.371-4.777-9.717-15.662-5.419-10.989,4.344-2.632,13.574-3.719,19.56,0,0-.977,1.261.816,3.4S263.389,111.686,266.39,112.906Z" transform="translate(-184.985 -79.876)"/><path class="aa" d="M257.662,120.291c-1.793-2.14-.816-3.4-.816-3.4a8.262,8.262,0,0,0,0-2.666l4.309.821s6.362-5.656,5.905-2.626,1.087,3.574,1.087,3.574l-1.3,1.666c-.335.422-.139.925.133,1.394,1.816,3.123,6.223,2.18,6.235,2.186a6.293,6.293,0,0,1-2.689.746,3.8,3.8,0,0,0-2.828,2.146C264.671,122.911,259.46,122.442,257.662,120.291Z" transform="translate(-186.268 -91.101)"/><path class="ab" d="M274.982,87.507s.763,2.233-.469,3.175-2.348,1.828-2.348,1.828v2.834a2.122,2.122,0,0,1-.341,1.157l-1.55,2.394a2.851,2.851,0,0,0-.463,1.556v1.157a.659.659,0,0,1-.578.659l-.4.046a.659.659,0,0,1-.723-.578l-.168-1.608s-.815-1.29-2.6.249l-1.608.659a1.735,1.735,0,0,0-.966,1.012c-.451,1.238-1.417,3.684-2.134,4.089-.972.578-4.737-1.394-5.24-2.256s-1.781-6.622-2.591-9.352-.324-9.439,7.785-11.157S273.872,85.078,274.982,87.507Z" transform="translate(-184.554 -79.035)"/><path class="ac" d="M255.6,111.41c-.5-.862-1.77-6.6-2.556-9.335a19.89,19.89,0,0,0,7.2,2.713c4.077.619,12.146-3.968,12.146-3.968V102.9a2.122,2.122,0,0,1-.341,1.157l-1.55,2.394a2.851,2.851,0,0,0-.463,1.556v1.157a.659.659,0,0,1-.578.659l-.4.046a.659.659,0,0,1-.723-.578l-.168-1.608s-.816-1.29-2.6.249l-2.313.954s-1.411,4.257-2.383,4.806S256.1,112.272,255.6,111.41Z" transform="translate(-184.775 -86.587)"/><path class="y" d="M255.708,119.6s-3.152,1.938-1.579,4.7,13.007,7.7,13.574,8.427c0,0,.445-4.135-1.064-5.529,0,0-8.751-1.706-10.11-3.939S255.708,119.6,255.708,119.6Z" transform="translate(-185.049 -94.506)"/><path class="z" d="M255.708,119.6s-.526,1.434.821,3.655c1.03,1.689,6.287,3.077,8.785,3.65h0s-.931.526-2.481,3.175c-3.517-1.822-7.779-4.17-8.7-5.784C252.556,121.566,255.708,119.6,255.708,119.6Z" transform="translate(-185.049 -94.506)"/><path class="h" d="M253.5,134.84s5.09,2.892,7.571,4.234,5.205,3.077,5.205,3.077l.954-.949,1.157,2.51a34,34,0,0,1,5.737,4.3,20.141,20.141,0,0,1,3.424,5.119s-4.9-6.4-8.722-8.305l-1.035-.521-.578-1.99-.943,1S255.05,136.575,253.5,134.84Z" transform="translate(-184.969 -100.931)"/><path class="az" d="M276.033,270.388h0a2.551,2.551,0,0,1,.682-1.093l20.937-17.582c.578-.463,1.087-.1,1.191.792l2.452,20.463a3.285,3.285,0,0,1-.821,2.6L282.892,290.77l.607,5.917-5.263-2.418h0a1.278,1.278,0,0,1-.457-1l-1.955-21.4A3.718,3.718,0,0,1,276.033,270.388Z" transform="translate(-194.379 -150.123)"/><path class="w" d="M303.525,253.738,298.58,251.6l-.162-.069a.677.677,0,0,0-.578.185L276.9,269.3a2.551,2.551,0,0,0-.682,1.093l.752.359h0l4.263,2.065,18.352-15.691h0Z" transform="translate(-194.549 -150.13)"/><path class="h" d="M309.338,279.439l-21.4,18.658c-.578.509-1.157.121-1.238-.873l-2.082-21.5a3.326,3.326,0,0,1,.873-2.585l20.891-17.669c.549-.463,1.082-.11,1.2.792l2.574,20.573A3.291,3.291,0,0,1,309.338,279.439Z" transform="translate(-198.083 -151.708)"/><path class="v" d="M282,295.1l-2.019-21.44a3.343,3.343,0,0,1,.879-2.579l20.914-17.617a.735.735,0,0,1,.5-.2.648.648,0,0,0-.671.162l-20.92,17.6a3.343,3.343,0,0,0-.879,2.579l2.013,21.44c.064.682.33,1.1.694,1.122C282.223,296.065,282.05,295.671,282,295.1Z" transform="translate(-196.052 -150.849)"/><path class="v" d="M295.39,270.555l-1.093-.544a1.042,1.042,0,0,0-.682-.121h-.087c-.11,0-.168.145-.15.312v.2l3.083,1.538v-.2a.955.955,0,0,0-.231-.5l-.1-.116A2.671,2.671,0,0,0,295.39,270.555Z" transform="translate(-201.781 -157.867)"/><path class="v" d="M293.976,273.277l1.481-1.249-3.06-1.978-1.457,1.22Z" transform="translate(-200.755 -157.94)"/><path class="ba" d="M292.836,272.711l-1.1-.549a1.041,1.041,0,0,0-.682-.122h-.087c-.11,0-.168.145-.15.312v.2l3.083,1.544v-.2a.954.954,0,0,0-.231-.5l-.1-.116a2.452,2.452,0,0,0-.729-.567Z" transform="translate(-200.702 -158.773)"/><path class="bb" d="M293.1,273.462l-.093-.9.093.046.092.9Z" transform="translate(-201.628 -158.998)"/><path class="bb" d="M293.01,271.666l1.521-1.226.081.04-1.51,1.232Z" transform="translate(-201.628 -158.104)"/><path class="v" d="M306.9,260.89l-1.093-.538a1.064,1.064,0,0,0-.677-.121h-.087c-.11,0-.162.139-.145.3v.2l3.071,1.521v-.2a.932.932,0,0,0-.237-.492l-.1-.116a2.643,2.643,0,0,0-.734-.555Z" transform="translate(-206.639 -153.795)"/><path class="v" d="M305.521,263.583l1.457-1.238-3.048-1.955-1.44,1.209Z" transform="translate(-205.625 -153.867)"/><path class="bc" d="M304.375,263.018l-1.093-.538a1.006,1.006,0,0,0-.682-.122h-.087c-.1,0-.162.139-.145.307v.2l3.077,1.527v-.2a.931.931,0,0,0-.237-.492l-.1-.116a2.522,2.522,0,0,0-.729-.561Z" transform="translate(-205.572 -154.691)"/><path class="bb" d="M304.648,263.761l-.1-.891.093.046.1.891Z" transform="translate(-206.493 -154.913)"/><path class="bb" d="M304.55,261.989l1.5-1.209.081.041-1.486,1.215Z" transform="translate(-206.493 -154.031)"/><path class="w" d="M291.993,259.625l.393,3.817.995-.833-.388-3.707a1.99,1.99,0,0,1,.578-1.562l4.263-3.563c.382-.318.734-.139.8.393l.4,3.667.983-.821-.428-3.759c-.133-1.157-.914-1.567-1.735-.868l-4.546,3.794A4.4,4.4,0,0,0,291.993,259.625Z" transform="translate(-201.195 -150.349)"/><path class="w" d="M299.563,254.469l-1.735-.179-5.078,4.737-.22,2.892.1,2.441,1.157.578.035-3.042.058-2.082,1.058-1.5s1.9-1.539,1.92-1.579S299.563,254.469,299.563,254.469Z" transform="translate(-201.425 -151.295)"/><path class="w" d="M305.1,260.652l-1.134-.561-.3-2.7,1.087.087.318.052Z" transform="translate(-206.122 -152.602)"/><path class="w" d="M305.2,252.738l-1.22-.578s.318.665.324.659l.411.145Z" transform="translate(-206.253 -150.397)"/><path class="v" d="M293.992,260.591l.4,3.823.989-.833-.393-3.713a2,2,0,0,1,.578-1.562l4.263-3.568c.382-.318.74-.139.8.393l.411,3.673.977-.821-.428-3.765c-.133-1.157-.92-1.567-1.735-.868l-4.54,3.8a4.378,4.378,0,0,0-1.319,3.441Z" transform="translate(-202.038 -150.754)"/><path class="x" d="M299.541,249.49a23.3,23.3,0,0,1,.515,4.667,6.217,6.217,0,0,1-3.065,3.077c-1.076.33-.636-.949-.879-1.735a11.474,11.474,0,0,1-.2-2.556Z" transform="translate(-202.849 -149.271)"/><path class="aa" d="M295.918,252.92l3.626-3.43s.145.763.289,1.689a9.031,9.031,0,0,1-3.806,3.875,14.74,14.74,0,0,1-.11-2.134Z" transform="translate(-202.852 -149.271)"/><path class="ak" d="M299.365,249.431s-1.284,4.049-4.505,4.4l1.093-4.4s2.724-.769,2.805-.781S299.365,249.431,299.365,249.431Z" transform="translate(-202.408 -148.917)"/><path class="bd" d="M264.768,168.37c-2.984,9.092,4.488,23.227,5.564,27.351s12.458,23.459,12.458,23.464h0c.069.11.11.191.11.191a7.7,7.7,0,0,1-.746.5,2.391,2.391,0,0,1-.509.191h0a.642.642,0,0,1-.654-.278c-2.655-3.574-10.1-18.508-10.33-19.115s-4.974-12.6-6.131-15.252C263.56,183.309,260.4,173.147,264.768,168.37Z" transform="translate(-188.771 -115.068)"/></g></g></g><path class="be" d="M0,0H24.7a30,30,0,0,1,30,30V77.632a0,0,0,0,1,0,0H30a30,30,0,0,1-30-30V0A0,0,0,0,1,0,0Z" transform="translate(158.141 8026.509)"/></g></svg>