<svg xmlns="http://www.w3.org/2000/svg" xmlns:xlink="http://www.w3.org/1999/xlink" width="584" height="276" viewBox="0 0 584 276"><defs><style>.a{fill:url(#a);}.b{fill:#fff;}.c{filter:url(#b);}</style><linearGradient id="a" x1="0.016" y1="0.5" x2="1" y2="0.516" gradientUnits="objectBoundingBox"><stop offset="0" stop-color="#fff" stop-opacity="0"/><stop offset="1" stop-color="gray"/></linearGradient><filter id="b" x="0" y="0" width="584" height="276" filterUnits="userSpaceOnUse"><feOffset input="SourceAlpha"/><feGaussianBlur stdDeviation="15" result="c"/><feFlood flood-color="#0f218d" flood-opacity="0.102"/><feComposite operator="in" in2="c"/><feComposite in="SourceGraphic"/></filter></defs><g transform="translate(-415 -7872)"><g class="c" transform="matrix(1, 0, 0, 1, 415, 7872)"><path class="a" d="M0,0H454a40,40,0,0,1,40,40V186a0,0,0,0,1,0,0H40A40,40,0,0,1,0,146V0A0,0,0,0,1,0,0Z" transform="translate(45 45)"/></g><path class="b" d="M0,0H484a40,40,0,0,1,40,40V198a0,0,0,0,1,0,0H40A40,40,0,0,1,0,158V0A0,0,0,0,1,0,0Z" transform="translate(436 7911)"/></g></svg>