<svg xmlns="http://www.w3.org/2000/svg" xmlns:xlink="http://www.w3.org/1999/xlink" width="218" height="214" viewBox="0 0 218 214"><defs><style>.a{fill:none;}.b{clip-path:url(#a);}.c{fill:#adbed6;}</style><clipPath id="a"><rect class="a" width="218" height="214"/></clipPath></defs><g class="b" transform="translate(218 214) rotate(180)"><g transform="translate(-21592 -17020)"><rect class="c" width="3" height="3" transform="translate(21592 17020)"/></g><g transform="translate(-21569 -17020)"><rect class="c" width="3" height="3" transform="translate(21592 17020)"/></g><g transform="translate(-21546 -17020)"><rect class="c" width="3" height="3" transform="translate(21592 17020)"/></g><g transform="translate(-21523 -17020)"><rect class="c" width="3" height="3" transform="translate(21592 17020)"/></g><g transform="translate(-21500 -17020)"><rect class="c" width="3" height="3" transform="translate(21592 17020)"/></g><g transform="translate(-21477 -17020)"><rect class="c" width="3" height="3" transform="translate(21592 17020)"/></g><g transform="translate(-21454 -17020)"><rect class="c" width="3" height="3" transform="translate(21592 17020)"/></g><g transform="translate(-21431 -17020)"><rect class="c" width="3" height="3" transform="translate(21592 17020)"/></g><g transform="translate(-21408 -17020)"><rect class="c" width="3" height="3" transform="translate(21592 17020)"/></g><g transform="translate(-21385 -17020)"><rect class="c" width="3" height="3" transform="translate(21592 17020)"/></g><g transform="translate(-21592 -16997)"><rect class="c" width="3" height="3" transform="translate(21592 17020)"/></g><g transform="translate(-21569 -16997)"><rect class="c" width="3" height="3" transform="translate(21592 17020)"/></g><g transform="translate(-21546 -16997)"><rect class="c" width="3" height="3" transform="translate(21592 17020)"/></g><g transform="translate(-21523 -16997)"><rect class="c" width="3" height="3" transform="translate(21592 17020)"/></g><g transform="translate(-21500 -16997)"><rect class="c" width="3" height="3" transform="translate(21592 17020)"/></g><g transform="translate(-21477 -16997)"><rect class="c" width="3" height="3" transform="translate(21592 17020)"/></g><g transform="translate(-21454 -16997)"><rect class="c" width="3" height="3" transform="translate(21592 17020)"/></g><g transform="translate(-21431 -16997)"><rect class="c" width="3" height="3" transform="translate(21592 17020)"/></g><g transform="translate(-21408 -16997)"><rect class="c" width="3" height="3" transform="translate(21592 17020)"/></g><g transform="translate(-21385 -16997)"><rect class="c" width="3" height="3" transform="translate(21592 17020)"/></g><g transform="translate(-21592 -16974)"><rect class="c" width="3" height="3" transform="translate(21592 17020)"/></g><g transform="translate(-21569 -16974)"><rect class="c" width="3" height="3" transform="translate(21592 17020)"/></g><g transform="translate(-21546 -16974)"><rect class="c" width="3" height="3" transform="translate(21592 17020)"/></g><g transform="translate(-21523 -16974)"><rect class="c" width="3" height="3" transform="translate(21592 17020)"/></g><g transform="translate(-21500 -16974)"><rect class="c" width="3" height="3" transform="translate(21592 17020)"/></g><g transform="translate(-21477 -16974)"><rect class="c" width="3" height="3" transform="translate(21592 17020)"/></g><g transform="translate(-21454 -16974)"><rect class="c" width="3" height="3" transform="translate(21592 17020)"/></g><g transform="translate(-21431 -16974)"><rect class="c" width="3" height="3" transform="translate(21592 17020)"/></g><g transform="translate(-21408 -16974)"><rect class="c" width="3" height="3" transform="translate(21592 17020)"/></g><g transform="translate(-21385 -16974)"><rect class="c" width="3" height="3" transform="translate(21592 17020)"/></g><g transform="translate(-21592 -16951)"><rect class="c" width="3" height="3" transform="translate(21592 17020)"/></g><g transform="translate(-21569 -16951)"><rect class="c" width="3" height="3" transform="translate(21592 17020)"/></g><g transform="translate(-21546 -16951)"><rect class="c" width="3" height="3" transform="translate(21592 17020)"/></g><g transform="translate(-21523 -16951)"><rect class="c" width="3" height="3" transform="translate(21592 17020)"/></g><g transform="translate(-21500 -16951)"><rect class="c" width="3" height="3" transform="translate(21592 17020)"/></g><g transform="translate(-21477 -16951)"><rect class="c" width="3" height="3" transform="translate(21592 17020)"/></g><g transform="translate(-21454 -16951)"><rect class="c" width="3" height="3" transform="translate(21592 17020)"/></g><g transform="translate(-21431 -16951)"><rect class="c" width="3" height="3" transform="translate(21592 17020)"/></g><g transform="translate(-21408 -16951)"><rect class="c" width="3" height="3" transform="translate(21592 17020)"/></g><g transform="translate(-21385 -16951)"><rect class="c" width="3" height="3" transform="translate(21592 17020)"/></g><g transform="translate(-21592 -16928)"><rect class="c" width="3" height="3" transform="translate(21592 17020)"/></g><g transform="translate(-21569 -16928)"><rect class="c" width="3" height="3" transform="translate(21592 17020)"/></g><g transform="translate(-21546 -16928)"><rect class="c" width="3" height="3" transform="translate(21592 17020)"/></g><g transform="translate(-21523 -16928)"><rect class="c" width="3" height="3" transform="translate(21592 17020)"/></g><g transform="translate(-21500 -16928)"><rect class="c" width="3" height="3" transform="translate(21592 17020)"/></g><g transform="translate(-21477 -16928)"><rect class="c" width="3" height="3" transform="translate(21592 17020)"/></g><g transform="translate(-21454 -16928)"><rect class="c" width="3" height="3" transform="translate(21592 17020)"/></g><g transform="translate(-21431 -16928)"><rect class="c" width="3" height="3" transform="translate(21592 17020)"/></g><g transform="translate(-21408 -16928)"><rect class="c" width="3" height="3" transform="translate(21592 17020)"/></g><g transform="translate(-21385 -16928)"><rect class="c" width="3" height="3" transform="translate(21592 17020)"/></g><g transform="translate(-21592 -16905)"><rect class="c" width="3" height="3" transform="translate(21592 17020)"/></g><g transform="translate(-21569 -16905)"><rect class="c" width="3" height="3" transform="translate(21592 17020)"/></g><g transform="translate(-21546 -16905)"><rect class="c" width="3" height="3" transform="translate(21592 17020)"/></g><g transform="translate(-21523 -16905)"><rect class="c" width="3" height="3" transform="translate(21592 17020)"/></g><g transform="translate(-21500 -16905)"><rect class="c" width="3" height="3" transform="translate(21592 17020)"/></g><g transform="translate(-21477 -16905)"><rect class="c" width="3" height="3" transform="translate(21592 17020)"/></g><g transform="translate(-21454 -16905)"><rect class="c" width="3" height="3" transform="translate(21592 17020)"/></g><g transform="translate(-21431 -16905)"><rect class="c" width="3" height="3" transform="translate(21592 17020)"/></g><g transform="translate(-21408 -16905)"><rect class="c" width="3" height="3" transform="translate(21592 17020)"/></g><g transform="translate(-21385 -16905)"><rect class="c" width="3" height="3" transform="translate(21592 17020)"/></g><g transform="translate(-21592 -16882)"><rect class="c" width="3" height="3" transform="translate(21592 17020)"/></g><g transform="translate(-21569 -16882)"><rect class="c" width="3" height="3" transform="translate(21592 17020)"/></g><g transform="translate(-21546 -16882)"><rect class="c" width="3" height="3" transform="translate(21592 17020)"/></g><g transform="translate(-21523 -16882)"><rect class="c" width="3" height="3" transform="translate(21592 17020)"/></g><g transform="translate(-21500 -16882)"><rect class="c" width="3" height="3" transform="translate(21592 17020)"/></g><g transform="translate(-21477 -16882)"><rect class="c" width="3" height="3" transform="translate(21592 17020)"/></g><g transform="translate(-21454 -16882)"><rect class="c" width="3" height="3" transform="translate(21592 17020)"/></g><g transform="translate(-21431 -16882)"><rect class="c" width="3" height="3" transform="translate(21592 17020)"/></g><g transform="translate(-21408 -16882)"><rect class="c" width="3" height="3" transform="translate(21592 17020)"/></g><g transform="translate(-21385 -16882)"><rect class="c" width="3" height="3" transform="translate(21592 17020)"/></g><g transform="translate(-21592 -16859)"><rect class="c" width="3" height="3" transform="translate(21592 17020)"/></g><g transform="translate(-21569 -16859)"><rect class="c" width="3" height="3" transform="translate(21592 17020)"/></g><g transform="translate(-21546 -16859)"><rect class="c" width="3" height="3" transform="translate(21592 17020)"/></g><g transform="translate(-21523 -16859)"><rect class="c" width="3" height="3" transform="translate(21592 17020)"/></g><g transform="translate(-21500 -16859)"><rect class="c" width="3" height="3" transform="translate(21592 17020)"/></g><g transform="translate(-21477 -16859)"><rect class="c" width="3" height="3" transform="translate(21592 17020)"/></g><g transform="translate(-21454 -16859)"><rect class="c" width="3" height="3" transform="translate(21592 17020)"/></g><g transform="translate(-21431 -16859)"><rect class="c" width="3" height="3" transform="translate(21592 17020)"/></g><g transform="translate(-21408 -16859)"><rect class="c" width="3" height="3" transform="translate(21592 17020)"/></g><g transform="translate(-21385 -16859)"><rect class="c" width="3" height="3" transform="translate(21592 17020)"/></g><g transform="translate(-21592 -16836)"><rect class="c" width="3" height="3" transform="translate(21592 17020)"/></g><g transform="translate(-21569 -16836)"><rect class="c" width="3" height="3" transform="translate(21592 17020)"/></g><g transform="translate(-21546 -16836)"><rect class="c" width="3" height="3" transform="translate(21592 17020)"/></g><g transform="translate(-21523 -16836)"><rect class="c" width="3" height="3" transform="translate(21592 17020)"/></g><g transform="translate(-21500 -16836)"><rect class="c" width="3" height="3" transform="translate(21592 17020)"/></g><g transform="translate(-21477 -16836)"><rect class="c" width="3" height="3" transform="translate(21592 17020)"/></g><g transform="translate(-21454 -16836)"><rect class="c" width="3" height="3" transform="translate(21592 17020)"/></g><g transform="translate(-21431 -16836)"><rect class="c" width="3" height="3" transform="translate(21592 17020)"/></g><g transform="translate(-21408 -16836)"><rect class="c" width="3" height="3" transform="translate(21592 17020)"/></g><g transform="translate(-21385 -16836)"><rect class="c" width="3" height="3" transform="translate(21592 17020)"/></g><g transform="translate(-21592 -16813)"><rect class="c" width="3" height="3" transform="translate(21592 17020)"/></g><g transform="translate(-21569 -16813)"><rect class="c" width="3" height="3" transform="translate(21592 17020)"/></g><g transform="translate(-21546 -16813)"><rect class="c" width="3" height="3" transform="translate(21592 17020)"/></g><g transform="translate(-21523 -16813)"><rect class="c" width="3" height="3" transform="translate(21592 17020)"/></g><g transform="translate(-21500 -16813)"><rect class="c" width="3" height="3" transform="translate(21592 17020)"/></g><g transform="translate(-21477 -16813)"><rect class="c" width="3" height="3" transform="translate(21592 17020)"/></g><g transform="translate(-21454 -16813)"><rect class="c" width="3" height="3" transform="translate(21592 17020)"/></g><g transform="translate(-21431 -16813)"><rect class="c" width="3" height="3" transform="translate(21592 17020)"/></g><g transform="translate(-21408 -16813)"><rect class="c" width="3" height="3" transform="translate(21592 17020)"/></g><g transform="translate(-21385 -16813)"><rect class="c" width="3" height="3" transform="translate(21592 17020)"/></g></g></svg>