<svg xmlns="http://www.w3.org/2000/svg" xmlns:xlink="http://www.w3.org/1999/xlink" width="221.408" height="204.251" viewBox="0 0 221.408 204.251"><defs><style>.a{opacity:0.501;fill:url(#a);}.b{fill:#647ec7;}.c{opacity:0;fill:url(#b);}</style><linearGradient id="a" x1="0.355" y1="-0.058" x2="0.588" y2="1" gradientUnits="objectBoundingBox"><stop offset="0" stop-color="#c9e3ff"/><stop offset="0.814" stop-color="#fafcff"/><stop offset="1" stop-color="#fcfdff" stop-opacity="0"/></linearGradient><linearGradient id="b" x1="0.863" y1="0.25" x2="0.095" y2="1" gradientUnits="objectBoundingBox"><stop offset="0" stop-color="#c9e3ff"/><stop offset="0.775" stop-color="#fafcff"/><stop offset="1" stop-color="#fcfdff" stop-opacity="0"/></linearGradient></defs><g transform="translate(-849 -1190.869)"><rect class="a" width="162" height="162" rx="30" transform="translate(879 1220)"/><g transform="translate(912.588 1286.881)"><path class="b" d="M80.226,31.141a8.864,8.864,0,0,0-8.025-2.4v-7.26a8.808,8.808,0,0,0-14.165-7.037V10.853a8.853,8.853,0,0,0-17.706,0v3.586a8.809,8.809,0,0,0-14.165,7.038v1.815A8.809,8.809,0,0,0,12,30.33V69.284a1.771,1.771,0,0,0,.186.791l8.667,17.333v3.123A1.771,1.771,0,0,0,19.083,92.3v14.165a1.771,1.771,0,0,0,1.771,1.771H70.431a1.771,1.771,0,0,0,1.771-1.771V92.3a1.771,1.771,0,0,0-1.771-1.771V87.506L82.55,68.465a1.792,1.792,0,0,0,.276-.951v-30.1A8.878,8.878,0,0,0,80.226,31.141ZM68.661,104.7H22.624V94.073H68.661ZM79.284,67,67.166,86.04a1.792,1.792,0,0,0-.276.951v3.541h-42.5V86.991a1.771,1.771,0,0,0-.186-.791L15.541,68.867V30.33a5.312,5.312,0,0,1,10.624,0v5.312h3.541V21.477a5.312,5.312,0,0,1,10.624,0V28.56h3.541V10.853a5.312,5.312,0,1,1,10.624,0V32.1h3.541V21.477a5.312,5.312,0,1,1,10.624,0v8.9a8.813,8.813,0,0,0-3.541,7.037V57A13.751,13.751,0,0,0,57.81,60.21a11.89,11.89,0,0,0-1.847,1.838,13.988,13.988,0,0,0-3.239,9.007h3.541A10.479,10.479,0,0,1,58.7,64.3a8.648,8.648,0,0,1,1.356-1.351,10.4,10.4,0,0,1,6.836-2.516,1.771,1.771,0,0,0,1.771-1.771V37.413a5.312,5.312,0,0,1,10.624,0Z" transform="translate(0 0)"/><path class="b" d="M44.8,64.037H40.783l-.621-4.361a1.771,1.771,0,0,0-1.317-1.466,15.686,15.686,0,0,1-4.172-1.726,1.771,1.771,0,0,0-1.965.106l-3.525,2.642L26.349,56.4l2.642-3.524a1.771,1.771,0,0,0,.108-1.967,15.8,15.8,0,0,1-1.73-4.173A1.771,1.771,0,0,0,25.9,45.42L21.541,44.8V40.783L25.9,40.16a1.771,1.771,0,0,0,1.464-1.314,15.8,15.8,0,0,1,1.73-4.173,1.771,1.771,0,0,0-.108-1.967l-2.642-3.524,2.833-2.833,3.525,2.642a1.771,1.771,0,0,0,1.965.106,15.686,15.686,0,0,1,4.172-1.726A1.771,1.771,0,0,0,40.16,25.9l.623-4.363H44.8l.621,4.361a1.771,1.771,0,0,0,1.317,1.466,15.686,15.686,0,0,1,4.172,1.726,1.771,1.771,0,0,0,1.965-.106L56.4,26.347l1.077,1.077,2.5-2.5-2.164-2.162a1.771,1.771,0,0,0-2.312-.165l-3.837,2.876a19.3,19.3,0,0,0-2.9-1.2l-.678-4.749A1.771,1.771,0,0,0,46.33,18H39.248a1.771,1.771,0,0,0-1.753,1.519l-.678,4.749a19.22,19.22,0,0,0-2.9,1.2l-3.837-2.876a1.771,1.771,0,0,0-2.312.165l-5.007,5.007a1.771,1.771,0,0,0-.165,2.314l2.877,3.835a19.229,19.229,0,0,0-1.2,2.9l-4.749.678A1.771,1.771,0,0,0,18,39.248V46.33a1.771,1.771,0,0,0,1.519,1.753l4.749.678a19.23,19.23,0,0,0,1.2,2.9L22.593,55.5a1.771,1.771,0,0,0,.165,2.314l5.007,5.007a1.771,1.771,0,0,0,2.312.165l3.837-2.876a19.22,19.22,0,0,0,2.9,1.2l.678,4.749a1.771,1.771,0,0,0,1.753,1.519H46.33a1.771,1.771,0,0,0,1.753-1.519l.841-5.882-3.508-.5Z" transform="translate(4.624 12.33)"/><path class="b" d="M36.624,26A10.624,10.624,0,1,0,47.248,36.624,10.624,10.624,0,0,0,36.624,26Zm0,17.706a7.083,7.083,0,1,1,7.083-7.083A7.083,7.083,0,0,1,36.624,43.706Z" transform="translate(10.789 18.495)"/><rect class="b" width="4" height="4" transform="translate(45.413 37.119)"/><rect class="b" width="3.541" height="3.541" transform="translate(33.64 43.851) rotate(-45)"/><rect class="b" width="4" height="4" transform="translate(29.413 53.119)"/><rect class="b" width="3.541" height="3.541" transform="translate(33.641 66.388) rotate(-45.01)"/><rect class="b" width="4" height="4" transform="translate(45.413 69.119)"/><rect class="b" width="3.541" height="3.541" transform="translate(56.177 43.851) rotate(-45)"/></g><path class="c" d="M84.726,44.979a30,30,0,0,1,51.957,0l58.733,101.69a30,30,0,0,1-25.978,45H51.971a30,30,0,0,1-25.978-45Z" transform="translate(849 1190.869)"/></g></svg>