<svg xmlns="http://www.w3.org/2000/svg" xmlns:xlink="http://www.w3.org/1999/xlink" width="221.408" height="204.251" viewBox="0 0 221.408 204.251"><defs><style>.a{opacity:0.501;fill:url(#a);}.b{fill:#647ec7;}.c{opacity:0;fill:url(#b);}</style><linearGradient id="a" x1="0.215" x2="0.889" y2="0.926" gradientUnits="objectBoundingBox"><stop offset="0" stop-color="#c9e3ff"/><stop offset="0.703" stop-color="#f6faff"/><stop offset="1" stop-color="#fcfdff" stop-opacity="0"/></linearGradient><linearGradient id="b" x1="0.863" y1="0.25" x2="0.095" y2="1" gradientUnits="objectBoundingBox"><stop offset="0" stop-color="#c9e3ff"/><stop offset="0.775" stop-color="#fafcff"/><stop offset="1" stop-color="#fcfdff" stop-opacity="0"/></linearGradient></defs><g transform="translate(-1313 -1190.869)"><circle class="a" cx="80" cy="80" r="80" transform="translate(1343.881 1221)"/><g transform="translate(1401.762 1292.881)"><path class="b" d="M100.9,43.8l-10.036-2a39.838,39.838,0,0,0-4.041-9.765l5.68-8.52A1.671,1.671,0,0,0,92.3,21.4l-9.463-9.447a1.671,1.671,0,0,0-2.108-.209l-8.52,5.68a39.838,39.838,0,0,0-9.765-4.041l-2-10.047A1.671,1.671,0,0,0,58.8,2H45.437A1.671,1.671,0,0,0,43.8,3.337l-2,10.035a39.838,39.838,0,0,0-9.765,4.041l-8.52-5.68a1.671,1.671,0,0,0-2.108.209L11.954,21.4a1.671,1.671,0,0,0-.209,2.108l5.68,8.52A39.838,39.838,0,0,0,13.384,41.8l-10.047,2A1.671,1.671,0,0,0,2,45.437V58.8a1.671,1.671,0,0,0,1.337,1.637l10.035,2a39.838,39.838,0,0,0,4.041,9.765l-5.68,8.52a1.671,1.671,0,0,0,.209,2.108l9.451,9.451A1.671,1.671,0,0,0,23.5,92.5l8.52-5.68a39.839,39.839,0,0,0,9.765,4.041l2,10.036a1.671,1.671,0,0,0,1.646,1.345H58.8a1.671,1.671,0,0,0,1.637-1.337l2-10.035a39.838,39.838,0,0,0,9.765-4.041l8.52,5.68a1.671,1.671,0,0,0,2.108-.209l9.451-9.451a1.671,1.671,0,0,0,.209-2.108l-5.68-8.52a39.839,39.839,0,0,0,4.041-9.765l10.036-2a1.671,1.671,0,0,0,1.345-1.646V45.437A1.671,1.671,0,0,0,100.9,43.8Zm-2,13.632-9.728,1.946a1.671,1.671,0,0,0-1.3,1.251A36.467,36.467,0,0,1,83.42,71.383a1.671,1.671,0,0,0,.032,1.8l5.5,8.251-7.518,7.518-8.251-5.5a1.671,1.671,0,0,0-1.8-.032,36.467,36.467,0,0,1-10.751,4.447,1.671,1.671,0,0,0-1.251,1.3L57.432,98.9H46.807L44.86,89.169a1.671,1.671,0,0,0-1.251-1.3A36.467,36.467,0,0,1,32.855,83.42a1.671,1.671,0,0,0-1.8.032l-8.251,5.5-7.518-7.518,5.5-8.251a1.671,1.671,0,0,0,.032-1.8,36.467,36.467,0,0,1-4.447-10.751,1.671,1.671,0,0,0-1.3-1.251L5.341,57.432V46.807l9.728-1.946a1.671,1.671,0,0,0,1.3-1.251,36.466,36.466,0,0,1,4.451-10.754,1.671,1.671,0,0,0-.032-1.8l-5.5-8.251L22.8,15.282l8.251,5.5a1.671,1.671,0,0,0,1.8.032,36.467,36.467,0,0,1,10.751-4.447,1.671,1.671,0,0,0,1.251-1.3l1.946-9.728H57.432l1.946,9.728a1.671,1.671,0,0,0,1.251,1.3,36.467,36.467,0,0,1,10.754,4.451,1.671,1.671,0,0,0,1.8-.032l8.251-5.5L88.957,22.8l-5.5,8.251a1.671,1.671,0,0,0-.032,1.8,36.467,36.467,0,0,1,4.447,10.751,1.671,1.671,0,0,0,1.3,1.251L98.9,46.807Z" transform="translate(0)"/><rect class="b" width="2" height="3" transform="translate(51.119 12.119)"/><rect class="b" width="3.341" height="3.341" transform="translate(22.587 24.948) rotate(-45)"/><rect class="b" width="3" height="2" transform="translate(12.119 51.119)"/><rect class="b" width="3.341" height="3.341" transform="translate(22.587 79.29) rotate(-45)"/><rect class="b" width="2" height="3" transform="translate(51.119 89.119)"/><rect class="b" width="3.341" height="3.341" transform="translate(76.928 79.288) rotate(-45)"/><rect class="b" width="3" height="2" transform="translate(89.119 51.119)"/><rect class="b" width="3.341" height="3.341" transform="translate(76.928 24.951) rotate(-45)"/><path class="b" d="M42.4,25.323a8.353,8.353,0,0,0-16.553-1.517,8.2,8.2,0,0,0-6.487,10.458,8.308,8.308,0,0,0-.03,15.525,8.251,8.251,0,0,0-.319,2.264,8.353,8.353,0,0,0,6.831,8.2A8.353,8.353,0,0,0,42.4,58.736ZM39.06,58.736a5.012,5.012,0,0,1-8.55,3.555,5.084,5.084,0,0,1-1.236-2.11A8.318,8.318,0,0,0,33.7,57.508L31.16,55.336a5.012,5.012,0,0,1-8.806-3.283,4.835,4.835,0,0,1,.334-1.694,8.247,8.247,0,0,0,1.943-.291l-.921-3.213a4.228,4.228,0,0,1-1.92.145,5,5,0,0,1-.887-9.765,8.3,8.3,0,0,0,6.462,3.122V37.017a5.012,5.012,0,1,1,3.8-8.281L33.7,26.554a8.362,8.362,0,0,0-4.422-2.673,5,5,0,0,1,9.787,1.442Z" transform="translate(8.047 10.09)"/><path class="b" d="M56.04,34.264a8.2,8.2,0,0,0-6.487-10.458A8.353,8.353,0,0,0,33,25.323V58.736a8.353,8.353,0,0,0,16.558,1.517,8.316,8.316,0,0,0,6.516-10.47,8.3,8.3,0,0,0-.028-15.519ZM53.562,47.006a4.511,4.511,0,0,1-1.874-.15l-.921,3.213a8.248,8.248,0,0,0,1.943.291,4.835,4.835,0,0,1,.337,1.694,5.012,5.012,0,0,1-8.806,3.271L41.706,57.5a8.318,8.318,0,0,0,4.422,2.673,5,5,0,0,1-9.787-1.433V25.323a5,5,0,0,1,9.787-1.445,8.362,8.362,0,0,0-4.422,2.673l2.531,2.182a5.012,5.012,0,1,1,3.8,8.285v3.341a8.3,8.3,0,0,0,6.459-3.122,5,5,0,0,1-.932,9.77Z" transform="translate(20.79 10.09)"/></g><path class="c" d="M84.726,44.979a30,30,0,0,1,51.957,0l58.733,101.69a30,30,0,0,1-25.978,45H51.971a30,30,0,0,1-25.978-45Z" transform="translate(1313 1190.869)"/></g></svg>