<svg xmlns="http://www.w3.org/2000/svg" xmlns:xlink="http://www.w3.org/1999/xlink" width="221.41" height="204.131" viewBox="0 0 221.41 204.131"><defs><style>.a{opacity:0.501;fill:url(#a);}.b{fill:#fff;stroke:#707070;opacity:0;}.c{fill:#647ec7;}.d{stroke:none;}.e{fill:none;}</style><linearGradient id="a" x1="0.863" y1="0.25" x2="0.095" y2="1" gradientUnits="objectBoundingBox"><stop offset="0" stop-color="#c9e3ff"/><stop offset="0.775" stop-color="#fafcff"/><stop offset="1" stop-color="#fcfdff" stop-opacity="0"/></linearGradient></defs><g transform="translate(-393 -1190.869)"><path class="a" d="M83.687,45.238a30,30,0,0,1,52.016,0l57.844,100.613A30,30,0,0,1,167.539,190.8H51.852a30,30,0,0,1-26.008-44.952Z" transform="translate(394 1190.869)"/><g class="b" transform="translate(393 1191.327)"><rect class="d" width="221.41" height="203.673"/><rect class="e" x="0.5" y="0.5" width="220.41" height="202.673"/></g><g transform="translate(418.359 1295)"><path class="c" d="M68.628,59.272l-3.92-5.229A23.087,23.087,0,0,0,65.8,51.39l6.479-.925a1.658,1.658,0,0,0,1.423-1.64v-9.95a1.658,1.658,0,0,0-1.423-1.642L65.8,36.308a23.058,23.058,0,0,0-1.09-2.653l3.92-5.227a1.658,1.658,0,0,0-.153-2.166l-7.038-7.038a1.658,1.658,0,0,0-2.166-.153l-5.23,3.92a23.06,23.06,0,0,0-2.653-1.09l-.925-6.479A1.658,1.658,0,0,0,48.825,14h-9.95a1.658,1.658,0,0,0-1.642,1.423L36.308,21.9a23.059,23.059,0,0,0-2.653,1.09l-5.227-3.92a1.658,1.658,0,0,0-2.166.153l-7.038,7.038a1.658,1.658,0,0,0-.153,2.166l3.92,5.23a23.058,23.058,0,0,0-1.09,2.653l-6.479.925A1.658,1.658,0,0,0,14,38.875v9.95a1.658,1.658,0,0,0,1.423,1.642l6.479.925a23.086,23.086,0,0,0,1.09,2.653l-3.92,5.227a1.658,1.658,0,0,0,.153,2.166l7.038,7.038a1.658,1.658,0,0,0,2.166.153l5.229-3.92a23.084,23.084,0,0,0,2.653,1.09l.925,6.479a1.658,1.658,0,0,0,1.64,1.423h9.95a1.658,1.658,0,0,0,1.642-1.423l.925-6.479a23.087,23.087,0,0,0,2.653-1.09l5.227,3.92a1.658,1.658,0,0,0,2.166-.153l7.038-7.038A1.658,1.658,0,0,0,68.628,59.272Zm-8.517,5.841L55.2,61.428a1.658,1.658,0,0,0-1.793-.128,19.733,19.733,0,0,1-3.98,1.637,1.658,1.658,0,0,0-1.177,1.357l-.864,6.089H40.313L39.445,64.3a1.658,1.658,0,0,0-1.177-1.357,19.734,19.734,0,0,1-3.98-1.637,1.658,1.658,0,0,0-1.793.128l-4.91,3.681-5-5,3.681-4.91a1.658,1.658,0,0,0,.128-1.793,19.734,19.734,0,0,1-1.637-3.98A1.658,1.658,0,0,0,23.4,48.251l-6.083-.864V40.313l6.086-.867a1.658,1.658,0,0,0,1.357-1.177,19.61,19.61,0,0,1,1.638-3.98,1.658,1.658,0,0,0-.129-1.793l-3.681-4.91,5-5,4.91,3.681a1.658,1.658,0,0,0,1.793.129,19.609,19.609,0,0,1,3.98-1.638A1.658,1.658,0,0,0,39.449,23.4l.864-6.083h7.074l.867,6.086a1.658,1.658,0,0,0,1.177,1.357,19.609,19.609,0,0,1,3.98,1.638,1.658,1.658,0,0,0,1.793-.129l4.91-3.681,5,5L61.428,32.5a1.658,1.658,0,0,0-.129,1.793,19.61,19.61,0,0,1,1.638,3.98,1.658,1.658,0,0,0,1.356,1.177l6.086.867V47.39l-6.086.867a1.658,1.658,0,0,0-1.357,1.177,19.734,19.734,0,0,1-1.637,3.98,1.658,1.658,0,0,0,.128,1.793l3.681,4.91Z" transform="translate(6.147 6.147)"/><rect class="c" width="3.351" height="3.351" transform="translate(48.321 26.679)"/><rect class="c" width="3.351" height="3.351" transform="translate(32.327 34.696) rotate(-45)"/><rect class="c" width="3.351" height="3.351" transform="translate(32.326 65.297) rotate(-45)"/><rect class="c" width="3.351" height="3.351" transform="translate(48.321 69.963)"/><rect class="c" width="3.351" height="3.351" transform="translate(62.929 65.298) rotate(-45)"/><rect class="c" width="3.351" height="3.351" transform="translate(62.93 34.696) rotate(-45)"/><path class="c" d="M37.4,24A13.4,13.4,0,1,0,50.8,37.4,13.4,13.4,0,0,0,37.4,24Zm0,23.454A10.052,10.052,0,1,1,47.454,37.4,10.052,10.052,0,0,1,37.4,47.454Z" transform="translate(12.594 12.594)"/><rect class="c" width="3.351" height="3.351" transform="translate(26.679 48.321)"/><rect class="c" width="3.351" height="3.351" transform="translate(69.963 48.321)"/><path class="c" d="M93.6,85.273a8.273,8.273,0,0,0-4.583,1.386l-5.3-5.3a43.19,43.19,0,0,0,0-58.779l5.3-5.3a8.351,8.351,0,1,0-2.354-2.354l-5.3,5.3a43.19,43.19,0,0,0-58.779,0l-5.3-5.3a8.351,8.351,0,1,0-2.354,2.354l5.3,5.3a43.19,43.19,0,0,0,0,58.779l-5.3,5.3a8.351,8.351,0,1,0,2.354,2.354l5.3-5.3a43.19,43.19,0,0,0,58.779,0l5.3,5.3A8.326,8.326,0,1,0,93.6,85.273Zm0-79.925a5,5,0,1,1-5,5,5,5,0,0,1,5-5ZM10.343,15.338a5,5,0,1,1,5-5,5,5,0,0,1-5,5Zm0,83.256a5,5,0,1,1,5-5,5,5,0,0,1-5,5Zm41.628-6.66a39.81,39.81,0,0,1-27.04-10.568l3.24-3.24L25.817,75.77l-3.24,3.24a39.874,39.874,0,0,1,0-54.08l3.24,3.24,2.354-2.354-3.24-3.24a39.874,39.874,0,0,1,54.08,0l-3.24,3.24,2.354,2.354,3.24-3.24a39.874,39.874,0,0,1,0,54.08l-3.24-3.24L75.77,78.125l3.24,3.24a39.81,39.81,0,0,1-27.04,10.568ZM93.6,98.594a5,5,0,1,1,5-5A5,5,0,0,1,93.6,98.594Z" transform="translate(-1.974 -1.974)"/></g></g></svg>