<?xml version="1.0" encoding="utf-8"?>
<!-- Generator: Adobe Illustrator 24.1.0, SVG Export Plug-In . SVG Version: 6.00 Build 0)  -->
<svg version="1.1" id="Layer_1" xmlns="http://www.w3.org/2000/svg" xmlns:xlink="http://www.w3.org/1999/xlink" x="0px" y="0px"
	 viewBox="0 0 363.4 260.8" style="enable-background:new 0 0 363.4 260.8;" xml:space="preserve">
<style type="text/css">
	.st0{fill:#FA4D72;}
	.st1{fill:#EDF2F9;}
	.st2{fill:none;}
	.st3{fill:none;stroke:#03DBF4;stroke-width:16;}
	.st4{fill:#2D71E0;}
	.st5{fill:#64ACFF;}
	.st6{fill:#0077FF;}
</style>
<g transform="translate(-602.147 -396)">
	<g transform="translate(0 16)">
		<g transform="translate(861 564)">
			<circle class="st0" cx="2.5" cy="2.5" r="2.5"/>
			<circle class="st0" cx="21.4" cy="2.5" r="2.5"/>
			<circle class="st0" cx="40.3" cy="2.5" r="2.5"/>
			<circle class="st0" cx="59.2" cy="2.5" r="2.5"/>
			<circle class="st0" cx="78.1" cy="2.5" r="2.5"/>
		</g>
		<g transform="translate(861 581.267)">
			<circle class="st0" cx="2.5" cy="2.5" r="2.5"/>
			<circle class="st0" cx="21.4" cy="2.5" r="2.5"/>
			<circle class="st0" cx="40.3" cy="2.5" r="2.5"/>
			<circle class="st0" cx="59.2" cy="2.5" r="2.5"/>
			<circle class="st0" cx="78.1" cy="2.5" r="2.5"/>
		</g>
		<g transform="translate(861 598.533)">
			<circle class="st0" cx="2.5" cy="2.5" r="2.5"/>
			<circle class="st0" cx="21.4" cy="2.5" r="2.5"/>
			<circle class="st0" cx="40.3" cy="2.5" r="2.5"/>
			<circle class="st0" cx="59.2" cy="2.5" r="2.5"/>
			<circle class="st0" cx="78.1" cy="2.5" r="2.5"/>
		</g>
		<g transform="translate(861 615.8)">
			<circle class="st0" cx="2.5" cy="2.5" r="2.5"/>
			<circle class="st0" cx="21.4" cy="2.5" r="2.5"/>
			<circle class="st0" cx="40.3" cy="2.5" r="2.5"/>
			<circle class="st0" cx="59.2" cy="2.5" r="2.5"/>
			<circle class="st0" cx="78.1" cy="2.5" r="2.5"/>
		</g>
		<g transform="translate(861 633.067)">
			<circle class="st0" cx="2.5" cy="2.5" r="2.5"/>
			<circle class="st0" cx="21.4" cy="2.5" r="2.5"/>
			<circle class="st0" cx="40.3" cy="2.5" r="2.5"/>
			<circle class="st0" cx="59.2" cy="2.5" r="2.5"/>
			<circle class="st0" cx="78.1" cy="2.5" r="2.5"/>
		</g>
	</g>
	<path class="st1" d="M780.4,396c72,0,130.4,58.4,130.4,130.4s-58.4,130.4-130.4,130.4S650,598.4,650,526.4c0,0,0,0,0,0
		C650,454.4,708.4,396,780.4,396z"/>
	<g transform="translate(628 420)">
		<circle class="st2" cx="42" cy="42" r="42"/>
		<circle class="st3" cx="42" cy="42" r="34"/>
	</g>
	<g transform="translate(558.317 474.6) rotate(-16)">
		<g transform="translate(-40.505 -121.2) rotate(2)">
			<path class="st4" d="M296.1,226.5l15.5,16.6l118.1-49.2L296.1,226.5z"/>
			<path class="st5" d="M301.6,171.7L290,189.2l7.9,17.2l-17.7,3l-15.6,34.3l168.9-51.1L301.6,171.7z"/>
			<path class="st6" d="M297.8,206.5l-7.9-17.2l91.5,4.3L297.8,206.5z"/>
		</g>
		<g transform="translate(-87.787 -12.794) rotate(-10)">
			<path class="st4" d="M205.6,212.5c-2.6,0-5.2,0-7.8-0.1c-0.9,0-1.7-0.8-1.7-1.8c0-0.9,0.8-1.7,1.7-1.7h0c4.4,0.1,9,0.1,13.8,0
				c0.9-0.1,1.7,0.6,1.8,1.5c0,0.1,0,0.1,0,0.2c0,0.9-0.7,1.7-1.7,1.8c0,0,0,0,0,0C209.7,212.5,207.6,212.5,205.6,212.5z
				 M225.5,211.9c-0.9,0-1.7-0.8-1.7-1.7c0-0.9,0.7-1.7,1.6-1.7c4.5-0.3,9.1-0.6,13.7-1c0.9-0.1,1.8,0.6,1.9,1.6
				c0.1,0.9-0.6,1.8-1.6,1.9C234.8,211.3,230.1,211.7,225.5,211.9C225.6,211.9,225.6,211.9,225.5,211.9L225.5,211.9z M184.1,211.7
				c0,0-0.1,0-0.1,0c-4.8-0.4-9.5-0.9-13.9-1.5c-0.9-0.1-1.6-1-1.5-1.9c0,0,0,0,0,0c0.1-0.9,1-1.6,1.9-1.5c4.3,0.6,8.9,1.1,13.6,1.5
				c0.9,0.1,1.7,0.9,1.6,1.8C185.7,211,185,211.7,184.1,211.7L184.1,211.7z M253.1,209.5c-1,0-1.7-0.8-1.7-1.7
				c0-0.9,0.7-1.6,1.5-1.7c4.5-0.5,9-1.1,13.7-1.8c0.9-0.1,1.8,0.5,1.9,1.5c0.1,0.9-0.5,1.8-1.5,1.9l0,0c-4.7,0.7-9.3,1.3-13.8,1.8
				C253.2,209.5,253.1,209.5,253.1,209.5L253.1,209.5z M156.7,207.7c-0.1,0-0.3,0-0.4,0c-3.3-0.7-6.6-1.6-9.6-2.5
				c-1.3-0.4-2.6-0.8-3.9-1.2c-0.9-0.3-1.4-1.3-1-2.2c0.3-0.9,1.2-1.3,2.1-1.1c1.2,0.4,2.5,0.8,3.8,1.2c3,0.9,6.2,1.7,9.4,2.4
				c0.9,0.2,1.5,1.1,1.3,2.1C158.2,207.2,157.5,207.7,156.7,207.7L156.7,207.7z M130.6,198.9c-0.3,0-0.5-0.1-0.8-0.2
				c-4.2-2-8.3-4.4-12.2-7.2c-0.8-0.5-1-1.6-0.5-2.4c0.5-0.8,1.6-1,2.4-0.5c0,0,0,0,0.1,0c3.7,2.6,7.6,4.9,11.7,6.9
				c0.9,0.4,1.2,1.4,0.8,2.3C131.8,198.5,131.2,198.9,130.6,198.9L130.6,198.9z M108.3,182.8c-0.5,0-0.9-0.2-1.3-0.6
				c-3.2-3.5-6-7.4-8.3-11.5c-0.5-0.8-0.2-1.9,0.6-2.4c0.8-0.5,1.9-0.2,2.4,0.6c0,0,0,0,0,0.1c2.2,3.9,4.8,7.6,7.8,10.9
				c0.6,0.7,0.6,1.8-0.1,2.4C109.1,182.6,108.7,182.8,108.3,182.8L108.3,182.8z M95.1,158.8c-0.8,0-1.5-0.5-1.7-1.3
				c-0.2-0.8-0.4-1.6-0.6-2.3c-0.6-2.5-0.9-5.1-0.9-7.6c0-1.5,0.1-3,0.3-4.4c0.2-0.9,1.1-1.6,2-1.4c0.9,0.2,1.5,1,1.4,1.9
				c-0.2,1.3-0.3,2.6-0.3,3.9c0,2.3,0.3,4.6,0.8,6.8c0.2,0.7,0.4,1.5,0.6,2.2c0.3,0.9-0.3,1.9-1.2,2.1c0,0,0,0,0,0
				C95.4,158.7,95.3,158.8,95.1,158.8z M99.4,132.5c-0.4,0-0.7-0.1-1-0.4c-0.8-0.6-0.9-1.7-0.3-2.4c3-3.8,6.6-7,10.8-9.5
				c0.8-0.5,1.9-0.2,2.4,0.6s0.2,1.9-0.6,2.4c-3.8,2.3-7.1,5.2-9.8,8.7C100.4,132.3,99.9,132.5,99.4,132.5L99.4,132.5z M122.3,117.9
				c-1,0-1.7-0.8-1.7-1.7c0-0.8,0.5-1.4,1.2-1.7c4.4-1.3,8.9-2.1,13.5-2.4l0.5,0c0.9,0,1.7,0.8,1.8,1.7c0,0.9-0.7,1.7-1.7,1.8
				c0,0,0,0,0,0l-0.4,0c-4.3,0.3-8.6,1.1-12.8,2.3C122.7,117.9,122.5,117.9,122.3,117.9z"/>
		</g>
	</g>
</g>
</svg>
