<svg xmlns="http://www.w3.org/2000/svg" width="30.7" height="30.7" viewBox="0 0 30.7 30.7"><defs><style>.a,.b{fill:#6981a2;stroke:#6981a2;stroke-linejoin:round;}.a{stroke-width:0.7px;}.b{stroke-width:0.5px;}</style></defs><g transform="translate(0.35 0.35)"><path class="a" d="M15,30a14.129,14.129,0,0,1-6.467-1.564A.517.517,0,1,1,9,27.514a13.1,13.1,0,0,0,6,1.451c7.57,0,13.966-6.641,13.966-14.5,0-7.53-6.134-13.429-13.966-13.429S1.034,6.933,1.034,14.464a14.777,14.777,0,0,0,3.345,9.3.517.517,0,1,1-.8.654A15.812,15.812,0,0,1,0,14.464C0,6.353,6.589,0,15,0S30,6.353,30,14.464C30,22.885,23.131,30,15,30Zm0,0" transform="translate(0 0)"/><path class="b" d="M241.39,89.975a1.228,1.228,0,1,1-1.228-1.228A1.228,1.228,0,0,1,241.39,89.975Zm0,0" transform="translate(-220.745 -81.99)"/><path class="b" d="M125.336,103.627a1.228,1.228,0,1,1-1.228-1.228A1.229,1.229,0,0,1,125.336,103.627Zm0,0" transform="translate(-113.525 -94.603)"/><path class="b" d="M154.907,166.828a.492.492,0,0,1-.447-.287,2.949,2.949,0,0,0-5.33-.064.491.491,0,0,1-.883-.432,3.932,3.932,0,0,1,7.106.086.492.492,0,0,1-.446.7Zm0,0" transform="translate(-136.779 -151.353)"/><path class="b" d="M96.065,71.951a.491.491,0,0,1-.491-.491,3.2,3.2,0,0,1,3.194-3.194.491.491,0,0,1,0,.983,2.214,2.214,0,0,0-2.211,2.211A.491.491,0,0,1,96.065,71.951Zm0,0" transform="translate(-88.279 -63.055)"/><path class="b" d="M53.768,210.752H50.482a2.7,2.7,0,0,1-2.7-2.7v-4.19a9.377,9.377,0,0,1,.224-2.034.435.435,0,0,1,.023-.074l1.108-2.8a1.313,1.313,0,0,1,1.465-.968,1.35,1.35,0,0,1,1.112,1.351.5.5,0,0,1,0,.067L51.3,202.4H61.544a1.474,1.474,0,1,1,0,2.948H57.632a.955.955,0,0,0-.944.826l-.305,2.29A2.646,2.646,0,0,1,53.768,210.752Zm-4.808-8.67a8.4,8.4,0,0,0-.192,1.783v4.19a1.716,1.716,0,0,0,1.714,1.714h3.286a1.66,1.66,0,0,0,1.641-1.436l.305-2.29a1.941,1.941,0,0,1,1.918-1.679h3.912a.491.491,0,1,0,0-.983h-10.3a.938.938,0,0,1-.93-1.067l.416-3a.37.37,0,0,0-.274-.352.325.325,0,0,0-.37.252.458.458,0,0,1-.023.075Zm0,0" transform="translate(-44.346 -182.226)"/></g></svg>