<svg xmlns="http://www.w3.org/2000/svg" width="28.581" height="23.56" viewBox="0 0 28.581 23.56"><defs><style>.a{fill:#6981a2;stroke:#6981a2;stroke-width:0.5px;}</style></defs><g transform="translate(0.273 0.31)"><g transform="translate(-0.023 -0.06)"><path class="a" d="M116.528,196.621V195.04a3.834,3.834,0,0,0-3.829-3.829h-6.382v-2.772a3.829,3.829,0,1,0-2.553,0v2.772H97.382a3.834,3.834,0,0,0-3.829,3.829v1.581a3.829,3.829,0,1,0,2.553,0V195.04a1.278,1.278,0,0,1,1.276-1.276h6.382v2.857a3.829,3.829,0,1,0,2.553,0v-2.857H112.7a1.278,1.278,0,0,1,1.276,1.276v1.581a3.829,3.829,0,1,0,2.553,0Zm-21.7,4.886a1.276,1.276,0,1,1,1.276-1.276A1.278,1.278,0,0,1,94.829,201.507Zm10.211,0a1.276,1.276,0,1,1,1.276-1.276A1.278,1.278,0,0,1,105.04,201.507Zm0-15.4a1.276,1.276,0,1,1,1.276-1.276A1.278,1.278,0,0,1,105.04,186.106Zm10.211,15.4a1.276,1.276,0,1,1,1.276-1.276A1.278,1.278,0,0,1,115.252,201.507Z" transform="translate(-91 -181)"/></g></g></svg>